<?xml version="1.0" encoding="utf-8" standalone="no"?>
<!DOCTYPE svg PUBLIC "-//W3C//DTD SVG 1.1//EN"
  "http://www.w3.org/Graphics/SVG/1.1/DTD/svg11.dtd">
<!-- Created with matplotlib (https://matplotlib.org/) -->
<svg height="345.6pt" version="1.1" viewBox="0 0 460.8 345.6" width="460.8pt" xmlns="http://www.w3.org/2000/svg" xmlns:xlink="http://www.w3.org/1999/xlink">
 <defs>
  <style type="text/css">
*{stroke-linecap:butt;stroke-linejoin:round;}
  </style>
 </defs>
 <g id="figure_1">
  <g id="patch_1">
   <path d="M 0 345.6 
L 460.8 345.6 
L 460.8 0 
L 0 0 
z
" style="fill:#ffffff;"/>
  </g>
  <g id="axes_1">
   <g id="patch_2">
    <path d="M 57.6 307.584 
L 414.72 307.584 
L 414.72 41.472 
L 57.6 41.472 
z
" style="fill:#ffffff;"/>
   </g>
   <g id="matplotlib.axis_1">
    <g id="xtick_1">
     <g id="line2d_1">
      <defs>
       <path d="M 0 0 
L 0 3.5 
" id="mb3c56cd4d5" style="stroke:#000000;stroke-width:0.8;"/>
      </defs>
      <g>
       <use style="stroke:#000000;stroke-width:0.8;" x="57.6" xlink:href="#mb3c56cd4d5" y="307.584"/>
      </g>
     </g>
     <g id="text_1">
      <!-- 0.0 -->
      <defs>
       <path d="M 31.78125 66.40625 
Q 24.171875 66.40625 20.328125 58.90625 
Q 16.5 51.421875 16.5 36.375 
Q 16.5 21.390625 20.328125 13.890625 
Q 24.171875 6.390625 31.78125 6.390625 
Q 39.453125 6.390625 43.28125 13.890625 
Q 47.125 21.390625 47.125 36.375 
Q 47.125 51.421875 43.28125 58.90625 
Q 39.453125 66.40625 31.78125 66.40625 
z
M 31.78125 74.21875 
Q 44.046875 74.21875 50.515625 64.515625 
Q 56.984375 54.828125 56.984375 36.375 
Q 56.984375 17.96875 50.515625 8.265625 
Q 44.046875 -1.421875 31.78125 -1.421875 
Q 19.53125 -1.421875 13.0625 8.265625 
Q 6.59375 17.96875 6.59375 36.375 
Q 6.59375 54.828125 13.0625 64.515625 
Q 19.53125 74.21875 31.78125 74.21875 
z
" id="DejaVuSans-48"/>
       <path d="M 10.6875 12.40625 
L 21 12.40625 
L 21 0 
L 10.6875 0 
z
" id="DejaVuSans-46"/>
      </defs>
      <g transform="translate(49.648438 322.182437)scale(0.1 -0.1)">
       <use xlink:href="#DejaVuSans-48"/>
       <use x="63.623047" xlink:href="#DejaVuSans-46"/>
       <use x="95.410156" xlink:href="#DejaVuSans-48"/>
      </g>
     </g>
    </g>
    <g id="xtick_2">
     <g id="line2d_2">
      <g>
       <use style="stroke:#000000;stroke-width:0.8;" x="129.024" xlink:href="#mb3c56cd4d5" y="307.584"/>
      </g>
     </g>
     <g id="text_2">
      <!-- 0.2 -->
      <defs>
       <path d="M 19.1875 8.296875 
L 53.609375 8.296875 
L 53.609375 0 
L 7.328125 0 
L 7.328125 8.296875 
Q 12.9375 14.109375 22.625 23.890625 
Q 32.328125 33.6875 34.8125 36.53125 
Q 39.546875 41.84375 41.421875 45.53125 
Q 43.3125 49.21875 43.3125 52.78125 
Q 43.3125 58.59375 39.234375 62.25 
Q 35.15625 65.921875 28.609375 65.921875 
Q 23.96875 65.921875 18.8125 64.3125 
Q 13.671875 62.703125 7.8125 59.421875 
L 7.8125 69.390625 
Q 13.765625 71.78125 18.9375 73 
Q 24.125 74.21875 28.421875 74.21875 
Q 39.75 74.21875 46.484375 68.546875 
Q 53.21875 62.890625 53.21875 53.421875 
Q 53.21875 48.921875 51.53125 44.890625 
Q 49.859375 40.875 45.40625 35.40625 
Q 44.1875 33.984375 37.640625 27.21875 
Q 31.109375 20.453125 19.1875 8.296875 
z
" id="DejaVuSans-50"/>
      </defs>
      <g transform="translate(121.072438 322.182437)scale(0.1 -0.1)">
       <use xlink:href="#DejaVuSans-48"/>
       <use x="63.623047" xlink:href="#DejaVuSans-46"/>
       <use x="95.410156" xlink:href="#DejaVuSans-50"/>
      </g>
     </g>
    </g>
    <g id="xtick_3">
     <g id="line2d_3">
      <g>
       <use style="stroke:#000000;stroke-width:0.8;" x="200.448" xlink:href="#mb3c56cd4d5" y="307.584"/>
      </g>
     </g>
     <g id="text_3">
      <!-- 0.4 -->
      <defs>
       <path d="M 37.796875 64.3125 
L 12.890625 25.390625 
L 37.796875 25.390625 
z
M 35.203125 72.90625 
L 47.609375 72.90625 
L 47.609375 25.390625 
L 58.015625 25.390625 
L 58.015625 17.1875 
L 47.609375 17.1875 
L 47.609375 0 
L 37.796875 0 
L 37.796875 17.1875 
L 4.890625 17.1875 
L 4.890625 26.703125 
z
" id="DejaVuSans-52"/>
      </defs>
      <g transform="translate(192.496438 322.182437)scale(0.1 -0.1)">
       <use xlink:href="#DejaVuSans-48"/>
       <use x="63.623047" xlink:href="#DejaVuSans-46"/>
       <use x="95.410156" xlink:href="#DejaVuSans-52"/>
      </g>
     </g>
    </g>
    <g id="xtick_4">
     <g id="line2d_4">
      <g>
       <use style="stroke:#000000;stroke-width:0.8;" x="271.872" xlink:href="#mb3c56cd4d5" y="307.584"/>
      </g>
     </g>
     <g id="text_4">
      <!-- 0.6 -->
      <defs>
       <path d="M 33.015625 40.375 
Q 26.375 40.375 22.484375 35.828125 
Q 18.609375 31.296875 18.609375 23.390625 
Q 18.609375 15.53125 22.484375 10.953125 
Q 26.375 6.390625 33.015625 6.390625 
Q 39.65625 6.390625 43.53125 10.953125 
Q 47.40625 15.53125 47.40625 23.390625 
Q 47.40625 31.296875 43.53125 35.828125 
Q 39.65625 40.375 33.015625 40.375 
z
M 52.59375 71.296875 
L 52.59375 62.3125 
Q 48.875 64.0625 45.09375 64.984375 
Q 41.3125 65.921875 37.59375 65.921875 
Q 27.828125 65.921875 22.671875 59.328125 
Q 17.53125 52.734375 16.796875 39.40625 
Q 19.671875 43.65625 24.015625 45.921875 
Q 28.375 48.1875 33.59375 48.1875 
Q 44.578125 48.1875 50.953125 41.515625 
Q 57.328125 34.859375 57.328125 23.390625 
Q 57.328125 12.15625 50.6875 5.359375 
Q 44.046875 -1.421875 33.015625 -1.421875 
Q 20.359375 -1.421875 13.671875 8.265625 
Q 6.984375 17.96875 6.984375 36.375 
Q 6.984375 53.65625 15.1875 63.9375 
Q 23.390625 74.21875 37.203125 74.21875 
Q 40.921875 74.21875 44.703125 73.484375 
Q 48.484375 72.75 52.59375 71.296875 
z
" id="DejaVuSans-54"/>
      </defs>
      <g transform="translate(263.920438 322.182437)scale(0.1 -0.1)">
       <use xlink:href="#DejaVuSans-48"/>
       <use x="63.623047" xlink:href="#DejaVuSans-46"/>
       <use x="95.410156" xlink:href="#DejaVuSans-54"/>
      </g>
     </g>
    </g>
    <g id="xtick_5">
     <g id="line2d_5">
      <g>
       <use style="stroke:#000000;stroke-width:0.8;" x="343.296" xlink:href="#mb3c56cd4d5" y="307.584"/>
      </g>
     </g>
     <g id="text_5">
      <!-- 0.8 -->
      <defs>
       <path d="M 31.78125 34.625 
Q 24.75 34.625 20.71875 30.859375 
Q 16.703125 27.09375 16.703125 20.515625 
Q 16.703125 13.921875 20.71875 10.15625 
Q 24.75 6.390625 31.78125 6.390625 
Q 38.8125 6.390625 42.859375 10.171875 
Q 46.921875 13.96875 46.921875 20.515625 
Q 46.921875 27.09375 42.890625 30.859375 
Q 38.875 34.625 31.78125 34.625 
z
M 21.921875 38.8125 
Q 15.578125 40.375 12.03125 44.71875 
Q 8.5 49.078125 8.5 55.328125 
Q 8.5 64.0625 14.71875 69.140625 
Q 20.953125 74.21875 31.78125 74.21875 
Q 42.671875 74.21875 48.875 69.140625 
Q 55.078125 64.0625 55.078125 55.328125 
Q 55.078125 49.078125 51.53125 44.71875 
Q 48 40.375 41.703125 38.8125 
Q 48.828125 37.15625 52.796875 32.3125 
Q 56.78125 27.484375 56.78125 20.515625 
Q 56.78125 9.90625 50.3125 4.234375 
Q 43.84375 -1.421875 31.78125 -1.421875 
Q 19.734375 -1.421875 13.25 4.234375 
Q 6.78125 9.90625 6.78125 20.515625 
Q 6.78125 27.484375 10.78125 32.3125 
Q 14.796875 37.15625 21.921875 38.8125 
z
M 18.3125 54.390625 
Q 18.3125 48.734375 21.84375 45.5625 
Q 25.390625 42.390625 31.78125 42.390625 
Q 38.140625 42.390625 41.71875 45.5625 
Q 45.3125 48.734375 45.3125 54.390625 
Q 45.3125 60.0625 41.71875 63.234375 
Q 38.140625 66.40625 31.78125 66.40625 
Q 25.390625 66.40625 21.84375 63.234375 
Q 18.3125 60.0625 18.3125 54.390625 
z
" id="DejaVuSans-56"/>
      </defs>
      <g transform="translate(335.344438 322.182437)scale(0.1 -0.1)">
       <use xlink:href="#DejaVuSans-48"/>
       <use x="63.623047" xlink:href="#DejaVuSans-46"/>
       <use x="95.410156" xlink:href="#DejaVuSans-56"/>
      </g>
     </g>
    </g>
    <g id="xtick_6">
     <g id="line2d_6">
      <g>
       <use style="stroke:#000000;stroke-width:0.8;" x="414.72" xlink:href="#mb3c56cd4d5" y="307.584"/>
      </g>
     </g>
     <g id="text_6">
      <!-- 1.0 -->
      <defs>
       <path d="M 12.40625 8.296875 
L 28.515625 8.296875 
L 28.515625 63.921875 
L 10.984375 60.40625 
L 10.984375 69.390625 
L 28.421875 72.90625 
L 38.28125 72.90625 
L 38.28125 8.296875 
L 54.390625 8.296875 
L 54.390625 0 
L 12.40625 0 
z
" id="DejaVuSans-49"/>
      </defs>
      <g transform="translate(406.768438 322.182437)scale(0.1 -0.1)">
       <use xlink:href="#DejaVuSans-49"/>
       <use x="63.623047" xlink:href="#DejaVuSans-46"/>
       <use x="95.410156" xlink:href="#DejaVuSans-48"/>
      </g>
     </g>
    </g>
    <g id="text_7">
     <!-- False Positive Rate -->
     <defs>
      <path d="M 9.8125 72.90625 
L 51.703125 72.90625 
L 51.703125 64.59375 
L 19.671875 64.59375 
L 19.671875 43.109375 
L 48.578125 43.109375 
L 48.578125 34.8125 
L 19.671875 34.8125 
L 19.671875 0 
L 9.8125 0 
z
" id="DejaVuSans-70"/>
      <path d="M 34.28125 27.484375 
Q 23.390625 27.484375 19.1875 25 
Q 14.984375 22.515625 14.984375 16.5 
Q 14.984375 11.71875 18.140625 8.90625 
Q 21.296875 6.109375 26.703125 6.109375 
Q 34.1875 6.109375 38.703125 11.40625 
Q 43.21875 16.703125 43.21875 25.484375 
L 43.21875 27.484375 
z
M 52.203125 31.203125 
L 52.203125 0 
L 43.21875 0 
L 43.21875 8.296875 
Q 40.140625 3.328125 35.546875 0.953125 
Q 30.953125 -1.421875 24.3125 -1.421875 
Q 15.921875 -1.421875 10.953125 3.296875 
Q 6 8.015625 6 15.921875 
Q 6 25.140625 12.171875 29.828125 
Q 18.359375 34.515625 30.609375 34.515625 
L 43.21875 34.515625 
L 43.21875 35.40625 
Q 43.21875 41.609375 39.140625 45 
Q 35.0625 48.390625 27.6875 48.390625 
Q 23 48.390625 18.546875 47.265625 
Q 14.109375 46.140625 10.015625 43.890625 
L 10.015625 52.203125 
Q 14.9375 54.109375 19.578125 55.046875 
Q 24.21875 56 28.609375 56 
Q 40.484375 56 46.34375 49.84375 
Q 52.203125 43.703125 52.203125 31.203125 
z
" id="DejaVuSans-97"/>
      <path d="M 9.421875 75.984375 
L 18.40625 75.984375 
L 18.40625 0 
L 9.421875 0 
z
" id="DejaVuSans-108"/>
      <path d="M 44.28125 53.078125 
L 44.28125 44.578125 
Q 40.484375 46.53125 36.375 47.5 
Q 32.28125 48.484375 27.875 48.484375 
Q 21.1875 48.484375 17.84375 46.4375 
Q 14.5 44.390625 14.5 40.28125 
Q 14.5 37.15625 16.890625 35.375 
Q 19.28125 33.59375 26.515625 31.984375 
L 29.59375 31.296875 
Q 39.15625 29.25 43.1875 25.515625 
Q 47.21875 21.78125 47.21875 15.09375 
Q 47.21875 7.46875 41.1875 3.015625 
Q 35.15625 -1.421875 24.609375 -1.421875 
Q 20.21875 -1.421875 15.453125 -0.5625 
Q 10.6875 0.296875 5.421875 2 
L 5.421875 11.28125 
Q 10.40625 8.6875 15.234375 7.390625 
Q 20.0625 6.109375 24.8125 6.109375 
Q 31.15625 6.109375 34.5625 8.28125 
Q 37.984375 10.453125 37.984375 14.40625 
Q 37.984375 18.0625 35.515625 20.015625 
Q 33.0625 21.96875 24.703125 23.78125 
L 21.578125 24.515625 
Q 13.234375 26.265625 9.515625 29.90625 
Q 5.8125 33.546875 5.8125 39.890625 
Q 5.8125 47.609375 11.28125 51.796875 
Q 16.75 56 26.8125 56 
Q 31.78125 56 36.171875 55.265625 
Q 40.578125 54.546875 44.28125 53.078125 
z
" id="DejaVuSans-115"/>
      <path d="M 56.203125 29.59375 
L 56.203125 25.203125 
L 14.890625 25.203125 
Q 15.484375 15.921875 20.484375 11.0625 
Q 25.484375 6.203125 34.421875 6.203125 
Q 39.59375 6.203125 44.453125 7.46875 
Q 49.3125 8.734375 54.109375 11.28125 
L 54.109375 2.78125 
Q 49.265625 0.734375 44.1875 -0.34375 
Q 39.109375 -1.421875 33.890625 -1.421875 
Q 20.796875 -1.421875 13.15625 6.1875 
Q 5.515625 13.8125 5.515625 26.8125 
Q 5.515625 40.234375 12.765625 48.109375 
Q 20.015625 56 32.328125 56 
Q 43.359375 56 49.78125 48.890625 
Q 56.203125 41.796875 56.203125 29.59375 
z
M 47.21875 32.234375 
Q 47.125 39.59375 43.09375 43.984375 
Q 39.0625 48.390625 32.421875 48.390625 
Q 24.90625 48.390625 20.390625 44.140625 
Q 15.875 39.890625 15.1875 32.171875 
z
" id="DejaVuSans-101"/>
      <path id="DejaVuSans-32"/>
      <path d="M 19.671875 64.796875 
L 19.671875 37.40625 
L 32.078125 37.40625 
Q 38.96875 37.40625 42.71875 40.96875 
Q 46.484375 44.53125 46.484375 51.125 
Q 46.484375 57.671875 42.71875 61.234375 
Q 38.96875 64.796875 32.078125 64.796875 
z
M 9.8125 72.90625 
L 32.078125 72.90625 
Q 44.34375 72.90625 50.609375 67.359375 
Q 56.890625 61.8125 56.890625 51.125 
Q 56.890625 40.328125 50.609375 34.8125 
Q 44.34375 29.296875 32.078125 29.296875 
L 19.671875 29.296875 
L 19.671875 0 
L 9.8125 0 
z
" id="DejaVuSans-80"/>
      <path d="M 30.609375 48.390625 
Q 23.390625 48.390625 19.1875 42.75 
Q 14.984375 37.109375 14.984375 27.296875 
Q 14.984375 17.484375 19.15625 11.84375 
Q 23.34375 6.203125 30.609375 6.203125 
Q 37.796875 6.203125 41.984375 11.859375 
Q 46.1875 17.53125 46.1875 27.296875 
Q 46.1875 37.015625 41.984375 42.703125 
Q 37.796875 48.390625 30.609375 48.390625 
z
M 30.609375 56 
Q 42.328125 56 49.015625 48.375 
Q 55.71875 40.765625 55.71875 27.296875 
Q 55.71875 13.875 49.015625 6.21875 
Q 42.328125 -1.421875 30.609375 -1.421875 
Q 18.84375 -1.421875 12.171875 6.21875 
Q 5.515625 13.875 5.515625 27.296875 
Q 5.515625 40.765625 12.171875 48.375 
Q 18.84375 56 30.609375 56 
z
" id="DejaVuSans-111"/>
      <path d="M 9.421875 54.6875 
L 18.40625 54.6875 
L 18.40625 0 
L 9.421875 0 
z
M 9.421875 75.984375 
L 18.40625 75.984375 
L 18.40625 64.59375 
L 9.421875 64.59375 
z
" id="DejaVuSans-105"/>
      <path d="M 18.3125 70.21875 
L 18.3125 54.6875 
L 36.8125 54.6875 
L 36.8125 47.703125 
L 18.3125 47.703125 
L 18.3125 18.015625 
Q 18.3125 11.328125 20.140625 9.421875 
Q 21.96875 7.515625 27.59375 7.515625 
L 36.8125 7.515625 
L 36.8125 0 
L 27.59375 0 
Q 17.1875 0 13.234375 3.875 
Q 9.28125 7.765625 9.28125 18.015625 
L 9.28125 47.703125 
L 2.6875 47.703125 
L 2.6875 54.6875 
L 9.28125 54.6875 
L 9.28125 70.21875 
z
" id="DejaVuSans-116"/>
      <path d="M 2.984375 54.6875 
L 12.5 54.6875 
L 29.59375 8.796875 
L 46.6875 54.6875 
L 56.203125 54.6875 
L 35.6875 0 
L 23.484375 0 
z
" id="DejaVuSans-118"/>
      <path d="M 44.390625 34.1875 
Q 47.5625 33.109375 50.5625 29.59375 
Q 53.5625 26.078125 56.59375 19.921875 
L 66.609375 0 
L 56 0 
L 46.6875 18.703125 
Q 43.0625 26.03125 39.671875 28.421875 
Q 36.28125 30.8125 30.421875 30.8125 
L 19.671875 30.8125 
L 19.671875 0 
L 9.8125 0 
L 9.8125 72.90625 
L 32.078125 72.90625 
Q 44.578125 72.90625 50.734375 67.671875 
Q 56.890625 62.453125 56.890625 51.90625 
Q 56.890625 45.015625 53.6875 40.46875 
Q 50.484375 35.9375 44.390625 34.1875 
z
M 19.671875 64.796875 
L 19.671875 38.921875 
L 32.078125 38.921875 
Q 39.203125 38.921875 42.84375 42.21875 
Q 46.484375 45.515625 46.484375 51.90625 
Q 46.484375 58.296875 42.84375 61.546875 
Q 39.203125 64.796875 32.078125 64.796875 
z
" id="DejaVuSans-82"/>
     </defs>
     <g transform="translate(189.693594 335.860562)scale(0.1 -0.1)">
      <use xlink:href="#DejaVuSans-70"/>
      <use x="48.394531" xlink:href="#DejaVuSans-97"/>
      <use x="109.673828" xlink:href="#DejaVuSans-108"/>
      <use x="137.457031" xlink:href="#DejaVuSans-115"/>
      <use x="189.556641" xlink:href="#DejaVuSans-101"/>
      <use x="251.080078" xlink:href="#DejaVuSans-32"/>
      <use x="282.867188" xlink:href="#DejaVuSans-80"/>
      <use x="339.544922" xlink:href="#DejaVuSans-111"/>
      <use x="400.726562" xlink:href="#DejaVuSans-115"/>
      <use x="452.826172" xlink:href="#DejaVuSans-105"/>
      <use x="480.609375" xlink:href="#DejaVuSans-116"/>
      <use x="519.818359" xlink:href="#DejaVuSans-105"/>
      <use x="547.601562" xlink:href="#DejaVuSans-118"/>
      <use x="606.78125" xlink:href="#DejaVuSans-101"/>
      <use x="668.304688" xlink:href="#DejaVuSans-32"/>
      <use x="700.091797" xlink:href="#DejaVuSans-82"/>
      <use x="767.324219" xlink:href="#DejaVuSans-97"/>
      <use x="828.603516" xlink:href="#DejaVuSans-116"/>
      <use x="867.8125" xlink:href="#DejaVuSans-101"/>
     </g>
    </g>
   </g>
   <g id="matplotlib.axis_2">
    <g id="ytick_1">
     <g id="line2d_7">
      <defs>
       <path d="M 0 0 
L -3.5 0 
" id="m71db766ead" style="stroke:#000000;stroke-width:0.8;"/>
      </defs>
      <g>
       <use style="stroke:#000000;stroke-width:0.8;" x="57.6" xlink:href="#m71db766ead" y="307.584"/>
      </g>
     </g>
     <g id="text_8">
      <!-- 0.0 -->
      <g transform="translate(34.696875 311.383219)scale(0.1 -0.1)">
       <use xlink:href="#DejaVuSans-48"/>
       <use x="63.623047" xlink:href="#DejaVuSans-46"/>
       <use x="95.410156" xlink:href="#DejaVuSans-48"/>
      </g>
     </g>
    </g>
    <g id="ytick_2">
     <g id="line2d_8">
      <g>
       <use style="stroke:#000000;stroke-width:0.8;" x="57.6" xlink:href="#m71db766ead" y="256.896"/>
      </g>
     </g>
     <g id="text_9">
      <!-- 0.2 -->
      <g transform="translate(34.696875 260.695219)scale(0.1 -0.1)">
       <use xlink:href="#DejaVuSans-48"/>
       <use x="63.623047" xlink:href="#DejaVuSans-46"/>
       <use x="95.410156" xlink:href="#DejaVuSans-50"/>
      </g>
     </g>
    </g>
    <g id="ytick_3">
     <g id="line2d_9">
      <g>
       <use style="stroke:#000000;stroke-width:0.8;" x="57.6" xlink:href="#m71db766ead" y="206.208"/>
      </g>
     </g>
     <g id="text_10">
      <!-- 0.4 -->
      <g transform="translate(34.696875 210.007219)scale(0.1 -0.1)">
       <use xlink:href="#DejaVuSans-48"/>
       <use x="63.623047" xlink:href="#DejaVuSans-46"/>
       <use x="95.410156" xlink:href="#DejaVuSans-52"/>
      </g>
     </g>
    </g>
    <g id="ytick_4">
     <g id="line2d_10">
      <g>
       <use style="stroke:#000000;stroke-width:0.8;" x="57.6" xlink:href="#m71db766ead" y="155.52"/>
      </g>
     </g>
     <g id="text_11">
      <!-- 0.6 -->
      <g transform="translate(34.696875 159.319219)scale(0.1 -0.1)">
       <use xlink:href="#DejaVuSans-48"/>
       <use x="63.623047" xlink:href="#DejaVuSans-46"/>
       <use x="95.410156" xlink:href="#DejaVuSans-54"/>
      </g>
     </g>
    </g>
    <g id="ytick_5">
     <g id="line2d_11">
      <g>
       <use style="stroke:#000000;stroke-width:0.8;" x="57.6" xlink:href="#m71db766ead" y="104.832"/>
      </g>
     </g>
     <g id="text_12">
      <!-- 0.8 -->
      <g transform="translate(34.696875 108.631219)scale(0.1 -0.1)">
       <use xlink:href="#DejaVuSans-48"/>
       <use x="63.623047" xlink:href="#DejaVuSans-46"/>
       <use x="95.410156" xlink:href="#DejaVuSans-56"/>
      </g>
     </g>
    </g>
    <g id="ytick_6">
     <g id="line2d_12">
      <g>
       <use style="stroke:#000000;stroke-width:0.8;" x="57.6" xlink:href="#m71db766ead" y="54.144"/>
      </g>
     </g>
     <g id="text_13">
      <!-- 1.0 -->
      <g transform="translate(34.696875 57.943219)scale(0.1 -0.1)">
       <use xlink:href="#DejaVuSans-49"/>
       <use x="63.623047" xlink:href="#DejaVuSans-46"/>
       <use x="95.410156" xlink:href="#DejaVuSans-48"/>
      </g>
     </g>
    </g>
    <g id="text_14">
     <!-- True Positive Rate -->
     <defs>
      <path d="M -0.296875 72.90625 
L 61.375 72.90625 
L 61.375 64.59375 
L 35.5 64.59375 
L 35.5 0 
L 25.59375 0 
L 25.59375 64.59375 
L -0.296875 64.59375 
z
" id="DejaVuSans-84"/>
      <path d="M 41.109375 46.296875 
Q 39.59375 47.171875 37.8125 47.578125 
Q 36.03125 48 33.890625 48 
Q 26.265625 48 22.1875 43.046875 
Q 18.109375 38.09375 18.109375 28.8125 
L 18.109375 0 
L 9.078125 0 
L 9.078125 54.6875 
L 18.109375 54.6875 
L 18.109375 46.1875 
Q 20.953125 51.171875 25.484375 53.578125 
Q 30.03125 56 36.53125 56 
Q 37.453125 56 38.578125 55.875 
Q 39.703125 55.765625 41.0625 55.515625 
z
" id="DejaVuSans-114"/>
      <path d="M 8.5 21.578125 
L 8.5 54.6875 
L 17.484375 54.6875 
L 17.484375 21.921875 
Q 17.484375 14.15625 20.5 10.265625 
Q 23.53125 6.390625 29.59375 6.390625 
Q 36.859375 6.390625 41.078125 11.03125 
Q 45.3125 15.671875 45.3125 23.6875 
L 45.3125 54.6875 
L 54.296875 54.6875 
L 54.296875 0 
L 45.3125 0 
L 45.3125 8.40625 
Q 42.046875 3.421875 37.71875 1 
Q 33.40625 -1.421875 27.6875 -1.421875 
Q 18.265625 -1.421875 13.375 4.4375 
Q 8.5 10.296875 8.5 21.578125 
z
M 31.109375 56 
z
" id="DejaVuSans-117"/>
     </defs>
     <g transform="translate(28.617187 219.057687)rotate(-90)scale(0.1 -0.1)">
      <use xlink:href="#DejaVuSans-84"/>
      <use x="46.333984" xlink:href="#DejaVuSans-114"/>
      <use x="87.447266" xlink:href="#DejaVuSans-117"/>
      <use x="150.826172" xlink:href="#DejaVuSans-101"/>
      <use x="212.349609" xlink:href="#DejaVuSans-32"/>
      <use x="244.136719" xlink:href="#DejaVuSans-80"/>
      <use x="300.814453" xlink:href="#DejaVuSans-111"/>
      <use x="361.996094" xlink:href="#DejaVuSans-115"/>
      <use x="414.095703" xlink:href="#DejaVuSans-105"/>
      <use x="441.878906" xlink:href="#DejaVuSans-116"/>
      <use x="481.087891" xlink:href="#DejaVuSans-105"/>
      <use x="508.871094" xlink:href="#DejaVuSans-118"/>
      <use x="568.050781" xlink:href="#DejaVuSans-101"/>
      <use x="629.574219" xlink:href="#DejaVuSans-32"/>
      <use x="661.361328" xlink:href="#DejaVuSans-82"/>
      <use x="728.59375" xlink:href="#DejaVuSans-97"/>
      <use x="789.873047" xlink:href="#DejaVuSans-116"/>
      <use x="829.082031" xlink:href="#DejaVuSans-101"/>
     </g>
    </g>
   </g>
   <g id="line2d_13">
    <path clip-path="url(#p016a77fd8d)" d="M 57.6 307.584 
L 57.6 306.3168 
L 57.6 90.8928 
L 59.3856 90.8928 
L 59.3856 88.3584 
L 60.2784 88.3584 
L 60.2784 84.5568 
L 61.1712 84.5568 
L 61.1712 79.488 
L 62.9568 79.488 
L 62.9568 78.2208 
L 63.8496 78.2208 
L 63.8496 73.152 
L 64.7424 73.152 
L 64.7424 69.3504 
L 66.528 69.3504 
L 66.528 65.5488 
L 67.4208 65.5488 
L 67.4208 64.2816 
L 68.3136 64.2816 
L 68.3136 60.48 
L 70.0992 60.48 
L 70.0992 59.2128 
L 79.92 59.2128 
L 79.92 56.6784 
L 83.4912 56.6784 
L 83.4912 54.144 
L 414.72 54.144 
" style="fill:none;stroke:#000000;stroke-linecap:square;stroke-width:2;"/>
   </g>
   <g id="line2d_14">
    <path clip-path="url(#p016a77fd8d)" d="M 57.6 307.584 
L 57.6 301.248 
L 58.4928 301.248 
L 58.4928 292.3776 
L 59.3856 292.3776 
L 59.3856 286.0416 
L 60.2784 286.0416 
L 60.2784 239.1552 
L 61.1712 239.1552 
L 61.1712 225.216 
L 62.064 225.216 
L 62.064 211.2768 
L 62.9568 211.2768 
L 62.9568 183.3984 
L 63.8496 183.3984 
L 63.8496 182.1312 
L 64.7424 182.1312 
L 64.7424 180.864 
L 65.6352 180.864 
L 65.6352 178.3296 
L 67.4208 178.3296 
L 67.4208 161.856 
L 68.3136 161.856 
L 68.3136 150.4512 
L 70.992 150.4512 
L 70.992 149.184 
L 71.8848 149.184 
L 71.8848 147.9168 
L 72.7776 147.9168 
L 72.7776 146.6496 
L 75.456 146.6496 
L 75.456 144.1152 
L 79.0272 144.1152 
L 79.0272 142.848 
L 79.92 142.848 
L 79.92 137.7792 
L 82.5984 137.7792 
L 82.5984 133.9776 
L 83.4912 133.9776 
L 83.4912 132.7104 
L 86.1696 132.7104 
L 86.1696 131.4432 
L 88.848 131.4432 
L 88.848 130.176 
L 89.7408 130.176 
L 89.7408 128.9088 
L 94.2048 128.9088 
L 94.2048 127.6416 
L 97.776 127.6416 
L 97.776 126.3744 
L 101.3472 126.3744 
L 101.3472 125.1072 
L 103.1328 125.1072 
L 103.1328 123.84 
L 104.9184 123.84 
L 104.9184 117.504 
L 105.8112 117.504 
L 105.8112 116.2368 
L 107.5968 116.2368 
L 107.5968 114.9696 
L 108.4896 114.9696 
L 108.4896 113.7024 
L 109.3824 113.7024 
L 109.3824 112.4352 
L 112.0608 112.4352 
L 112.0608 111.168 
L 113.8464 111.168 
L 113.8464 109.9008 
L 115.632 109.9008 
L 115.632 108.6336 
L 116.5248 108.6336 
L 116.5248 107.3664 
L 120.096 107.3664 
L 120.096 106.0992 
L 123.6672 106.0992 
L 123.6672 104.832 
L 128.1312 104.832 
L 128.1312 103.5648 
L 132.5952 103.5648 
L 132.5952 101.0304 
L 134.3808 101.0304 
L 134.3808 99.7632 
L 138.8448 99.7632 
L 138.8448 98.496 
L 139.7376 98.496 
L 139.7376 97.2288 
L 142.416 97.2288 
L 142.416 93.4272 
L 146.88 93.4272 
L 146.88 90.8928 
L 147.7728 90.8928 
L 147.7728 89.6256 
L 148.6656 89.6256 
L 148.6656 88.3584 
L 150.4512 88.3584 
L 150.4512 87.0912 
L 157.5936 87.0912 
L 157.5936 85.824 
L 184.3776 85.824 
L 184.3776 84.5568 
L 189.7344 84.5568 
L 189.7344 83.2896 
L 205.8048 83.2896 
L 205.8048 82.0224 
L 211.1616 82.0224 
L 211.1616 80.7552 
L 225.4464 80.7552 
L 225.4464 79.488 
L 235.2672 79.488 
L 235.2672 78.2208 
L 237.9456 78.2208 
L 237.9456 76.9536 
L 239.7312 76.9536 
L 239.7312 75.6864 
L 243.3024 75.6864 
L 243.3024 73.152 
L 246.8736 73.152 
L 246.8736 70.6176 
L 249.552 70.6176 
L 249.552 69.3504 
L 253.1232 69.3504 
L 253.1232 68.0832 
L 262.0512 68.0832 
L 262.0512 64.2816 
L 264.7296 64.2816 
L 264.7296 63.0144 
L 268.3008 63.0144 
L 268.3008 60.48 
L 271.872 60.48 
L 271.872 57.9456 
L 274.5504 57.9456 
L 274.5504 56.6784 
L 275.4432 56.6784 
L 275.4432 55.4112 
L 286.1568 55.4112 
L 286.1568 54.144 
L 414.72 54.144 
L 414.72 54.144 
" style="fill:none;stroke:#00a4bb;stroke-linecap:square;stroke-width:2;"/>
   </g>
   <g id="line2d_15">
    <path clip-path="url(#p016a77fd8d)" d="M 57.6 307.584 
L 57.6 306.3168 
L 57.6 294.912 
L 58.4928 294.912 
L 58.4928 288.576 
L 59.3856 288.576 
L 59.3856 286.0416 
L 61.1712 286.0416 
L 61.1712 284.7744 
L 62.064 284.7744 
L 62.064 283.5072 
L 62.9568 283.5072 
L 62.9568 282.24 
L 63.8496 282.24 
L 63.8496 280.9728 
L 64.7424 280.9728 
L 64.7424 279.7056 
L 67.4208 279.7056 
L 67.4208 273.3696 
L 68.3136 273.3696 
L 68.3136 272.1024 
L 70.0992 272.1024 
L 70.0992 270.8352 
L 70.992 270.8352 
L 70.992 267.0336 
L 71.8848 267.0336 
L 71.8848 265.7664 
L 72.7776 265.7664 
L 72.7776 263.232 
L 73.6704 263.232 
L 73.6704 259.4304 
L 75.456 259.4304 
L 75.456 249.2928 
L 76.3488 249.2928 
L 76.3488 210.0096 
L 77.2416 210.0096 
L 77.2416 180.864 
L 78.1344 180.864 
L 78.1344 171.9936 
L 79.0272 171.9936 
L 79.0272 165.6576 
L 81.7056 165.6576 
L 81.7056 159.3216 
L 82.5984 159.3216 
L 82.5984 155.52 
L 83.4912 155.52 
L 83.4912 150.4512 
L 84.384 150.4512 
L 84.384 140.3136 
L 86.1696 140.3136 
L 86.1696 136.512 
L 87.0624 136.512 
L 87.0624 135.2448 
L 87.9552 135.2448 
L 87.9552 127.6416 
L 88.848 127.6416 
L 88.848 126.3744 
L 89.7408 126.3744 
L 89.7408 123.84 
L 90.6336 123.84 
L 90.6336 122.5728 
L 91.5264 122.5728 
L 91.5264 118.7712 
L 92.4192 118.7712 
L 92.4192 117.504 
L 95.9904 117.504 
L 95.9904 116.2368 
L 99.5616 116.2368 
L 99.5616 112.4352 
L 101.3472 112.4352 
L 101.3472 109.9008 
L 102.24 109.9008 
L 102.24 102.2976 
L 103.1328 102.2976 
L 103.1328 101.0304 
L 104.0256 101.0304 
L 104.0256 99.7632 
L 104.9184 99.7632 
L 104.9184 98.496 
L 105.8112 98.496 
L 105.8112 95.9616 
L 106.704 95.9616 
L 106.704 92.16 
L 110.2752 92.16 
L 110.2752 90.8928 
L 111.168 90.8928 
L 111.168 88.3584 
L 115.632 88.3584 
L 115.632 82.0224 
L 116.5248 82.0224 
L 116.5248 80.7552 
L 117.4176 80.7552 
L 117.4176 79.488 
L 118.3104 79.488 
L 118.3104 74.4192 
L 119.2032 74.4192 
L 119.2032 73.152 
L 120.096 73.152 
L 120.096 71.8848 
L 120.9888 71.8848 
L 120.9888 69.3504 
L 123.6672 69.3504 
L 123.6672 68.0832 
L 133.488 68.0832 
L 133.488 66.816 
L 139.7376 66.816 
L 139.7376 64.2816 
L 140.6304 64.2816 
L 140.6304 63.0144 
L 145.9872 63.0144 
L 145.9872 61.7472 
L 149.5584 61.7472 
L 149.5584 60.48 
L 162.0576 60.48 
L 162.0576 59.2128 
L 182.592 59.2128 
L 182.592 57.9456 
L 225.4464 57.9456 
L 225.4464 56.6784 
L 231.696 56.6784 
L 231.696 55.4112 
L 243.3024 55.4112 
L 243.3024 54.144 
L 414.72 54.144 
" style="fill:none;stroke:#ccf900;stroke-linecap:square;stroke-width:2;"/>
   </g>
   <g id="line2d_16">
    <path clip-path="url(#p016a77fd8d)" d="M 57.6 307.584 
L 57.6 248.8704 
L 57.8976 248.8704 
L 57.8976 245.9136 
L 58.1952 245.9136 
L 58.1952 245.0688 
L 58.4928 245.0688 
L 58.4928 243.8016 
L 58.7904 243.8016 
L 58.7904 242.9568 
L 59.088 242.9568 
L 59.088 241.6896 
L 59.3856 241.6896 
L 59.3856 240.8448 
L 59.6832 240.8448 
L 59.6832 240 
L 59.9808 240 
L 59.9808 237.888 
L 60.2784 237.888 
L 60.2784 237.0432 
L 60.576 237.0432 
L 60.576 235.3536 
L 60.8736 235.3536 
L 60.8736 229.8624 
L 61.4688 229.8624 
L 61.4688 227.7504 
L 62.064 227.7504 
L 62.064 227.328 
L 62.3616 227.328 
L 62.3616 223.9488 
L 62.6592 223.9488 
L 62.6592 221.8368 
L 62.9568 221.8368 
L 62.9568 220.5696 
L 63.552 220.5696 
L 63.552 218.0352 
L 63.8496 218.0352 
L 63.8496 216.768 
L 64.4448 216.768 
L 64.4448 203.6736 
L 64.7424 203.6736 
L 64.7424 187.6224 
L 65.04 187.6224 
L 65.04 186.7776 
L 65.3376 186.7776 
L 65.3376 185.5104 
L 65.6352 185.5104 
L 65.6352 179.5968 
L 65.9328 179.5968 
L 65.9328 174.1056 
L 66.2304 174.1056 
L 66.2304 162.7008 
L 66.528 162.7008 
L 66.528 161.4336 
L 66.8256 161.4336 
L 66.8256 158.0544 
L 67.1232 158.0544 
L 67.1232 156.7872 
L 67.4208 156.7872 
L 67.4208 155.0976 
L 67.7184 155.0976 
L 67.7184 153.408 
L 68.016 153.408 
L 68.016 152.9856 
L 68.3136 152.9856 
L 68.3136 144.1152 
L 68.6112 144.1152 
L 68.6112 140.3136 
L 68.9088 140.3136 
L 68.9088 136.512 
L 69.2064 136.512 
L 69.2064 135.2448 
L 69.504 135.2448 
L 69.504 133.9776 
L 69.8016 133.9776 
L 69.8016 133.5552 
L 70.992 133.5552 
L 70.992 133.1328 
L 71.5872 133.1328 
L 71.5872 131.8656 
L 71.8848 131.8656 
L 71.8848 131.4432 
L 72.7776 131.4432 
L 72.7776 129.7536 
L 73.0752 129.7536 
L 73.0752 128.9088 
L 73.968 128.9088 
L 73.968 128.064 
L 74.2656 128.064 
L 74.2656 127.6416 
L 74.5632 127.6416 
L 74.5632 125.5296 
L 74.8608 125.5296 
L 74.8608 124.6848 
L 75.456 124.6848 
L 75.456 123.4176 
L 75.7536 123.4176 
L 75.7536 122.9952 
L 76.0512 122.9952 
L 76.0512 122.5728 
L 76.3488 122.5728 
L 76.3488 122.1504 
L 77.5392 122.1504 
L 77.5392 121.3056 
L 77.8368 121.3056 
L 77.8368 120.4608 
L 78.1344 120.4608 
L 78.1344 120.0384 
L 78.7296 120.0384 
L 78.7296 119.1936 
L 79.0272 119.1936 
L 79.0272 117.504 
L 79.6224 117.504 
L 79.6224 117.0816 
L 80.5152 117.0816 
L 80.5152 116.2368 
L 81.408 116.2368 
L 81.408 115.8144 
L 81.7056 115.8144 
L 81.7056 115.392 
L 82.0032 115.392 
L 82.0032 114.9696 
L 83.4912 114.9696 
L 83.4912 114.5472 
L 83.7888 114.5472 
L 83.7888 113.28 
L 84.384 113.28 
L 84.384 112.4352 
L 84.6816 112.4352 
L 84.6816 112.0128 
L 84.9792 112.0128 
L 84.9792 111.168 
L 85.2768 111.168 
L 85.2768 110.7456 
L 85.5744 110.7456 
L 85.5744 106.944 
L 85.872 106.944 
L 85.872 106.5216 
L 86.1696 106.5216 
L 86.1696 106.0992 
L 86.4672 106.0992 
L 86.4672 104.832 
L 87.36 104.832 
L 87.36 103.5648 
L 87.9552 103.5648 
L 87.9552 103.1424 
L 88.2528 103.1424 
L 88.2528 102.2976 
L 88.848 102.2976 
L 88.848 101.4528 
L 89.4432 101.4528 
L 89.4432 101.0304 
L 90.0384 101.0304 
L 90.0384 100.1856 
L 91.2288 100.1856 
L 91.2288 99.7632 
L 91.824 99.7632 
L 91.824 98.9184 
L 92.1216 98.9184 
L 92.1216 98.496 
L 92.4192 98.496 
L 92.4192 97.6512 
L 95.0976 97.6512 
L 95.0976 97.2288 
L 95.3952 97.2288 
L 95.3952 96.8064 
L 95.6928 96.8064 
L 95.6928 95.9616 
L 95.9904 95.9616 
L 95.9904 95.5392 
L 96.8832 95.5392 
L 96.8832 95.1168 
L 97.776 95.1168 
L 97.776 94.6944 
L 98.3712 94.6944 
L 98.3712 94.272 
L 98.6688 94.272 
L 98.6688 93.4272 
L 98.9664 93.4272 
L 98.9664 92.5824 
L 99.264 92.5824 
L 99.264 91.3152 
L 99.5616 91.3152 
L 99.5616 90.8928 
L 99.8592 90.8928 
L 99.8592 90.4704 
L 100.752 90.4704 
L 100.752 89.6256 
L 101.6448 89.6256 
L 101.6448 88.7808 
L 102.5376 88.7808 
L 102.5376 88.3584 
L 103.4304 88.3584 
L 103.4304 87.936 
L 103.728 87.936 
L 103.728 87.5136 
L 104.0256 87.5136 
L 104.0256 85.824 
L 104.9184 85.824 
L 104.9184 85.4016 
L 105.5136 85.4016 
L 105.5136 84.9792 
L 105.8112 84.9792 
L 105.8112 84.5568 
L 106.1088 84.5568 
L 106.1088 83.712 
L 107.2992 83.712 
L 107.2992 83.2896 
L 107.8944 83.2896 
L 107.8944 82.8672 
L 108.192 82.8672 
L 108.192 82.4448 
L 108.4896 82.4448 
L 108.4896 81.1776 
L 108.7872 81.1776 
L 108.7872 80.7552 
L 109.0848 80.7552 
L 109.0848 79.9104 
L 109.3824 79.9104 
L 109.3824 79.488 
L 109.68 79.488 
L 109.68 79.0656 
L 110.2752 79.0656 
L 110.2752 78.6432 
L 110.5728 78.6432 
L 110.5728 77.7984 
L 111.168 77.7984 
L 111.168 76.5312 
L 111.7632 76.5312 
L 111.7632 75.264 
L 112.3584 75.264 
L 112.3584 74.4192 
L 112.9536 74.4192 
L 112.9536 73.9968 
L 113.2512 73.9968 
L 113.2512 72.7296 
L 114.144 72.7296 
L 114.144 72.3072 
L 115.9296 72.3072 
L 115.9296 71.8848 
L 117.4176 71.8848 
L 117.4176 71.4624 
L 121.8816 71.4624 
L 121.8816 71.04 
L 126.6432 71.04 
L 126.6432 70.6176 
L 128.1312 70.6176 
L 128.1312 70.1952 
L 128.7264 70.1952 
L 128.7264 69.7728 
L 129.6192 69.7728 
L 129.6192 69.3504 
L 132.8928 69.3504 
L 132.8928 68.928 
L 133.488 68.928 
L 133.488 68.5056 
L 134.976 68.5056 
L 134.976 68.0832 
L 139.1424 68.0832 
L 139.1424 67.6608 
L 142.416 67.6608 
L 142.416 67.2384 
L 151.6416 67.2384 
L 151.6416 66.816 
L 153.7248 66.816 
L 153.7248 66.3936 
L 156.4032 66.3936 
L 156.4032 65.9712 
L 168.0096 65.9712 
L 168.0096 65.5488 
L 169.2 65.5488 
L 169.2 65.1264 
L 171.2832 65.1264 
L 171.2832 64.704 
L 181.104 64.704 
L 181.104 64.2816 
L 181.6992 64.2816 
L 181.6992 63.8592 
L 182.2944 63.8592 
L 182.2944 63.4368 
L 182.8896 63.4368 
L 182.8896 63.0144 
L 184.9728 63.0144 
L 184.9728 61.7472 
L 187.3536 61.7472 
L 187.3536 61.3248 
L 187.9488 61.3248 
L 187.9488 60.9024 
L 192.1152 60.9024 
L 192.1152 60.48 
L 192.7104 60.48 
L 192.7104 59.6352 
L 194.7936 59.6352 
L 194.7936 59.2128 
L 196.5792 59.2128 
L 196.5792 58.7904 
L 203.424 58.7904 
L 203.424 58.368 
L 203.7216 58.368 
L 203.7216 57.5232 
L 205.5072 57.5232 
L 205.5072 57.1008 
L 207.5904 57.1008 
L 207.5904 56.256 
L 209.9712 56.256 
L 209.9712 55.4112 
L 212.352 55.4112 
L 212.352 54.9888 
L 212.9472 54.9888 
L 212.9472 54.5664 
L 218.6016 54.5664 
L 218.6016 54.144 
L 414.72 54.144 
L 414.72 54.144 
" style="fill:none;stroke:#ff1493;stroke-dasharray:4,6.6;stroke-dashoffset:0;stroke-width:4;"/>
   </g>
   <g id="line2d_17">
    <path clip-path="url(#p016a77fd8d)" d="M 57.6 229.0176 
L 58.4928 223.9488 
L 59.3856 220.1472 
L 60.2784 203.2512 
L 61.1712 196.4928 
L 62.064 191.424 
L 62.9568 181.2864 
L 63.8496 178.752 
L 64.7424 176.64 
L 65.6352 175.7952 
L 66.528 174.528 
L 67.4208 166.5024 
L 68.3136 161.0112 
L 70.0992 160.1664 
L 70.992 158.4768 
L 71.8848 157.632 
L 72.7776 156.3648 
L 73.6704 155.0976 
L 75.456 150.8736 
L 76.3488 137.7792 
L 77.2416 128.064 
L 78.1344 125.1072 
L 79.0272 122.5728 
L 79.92 120.0384 
L 81.7056 117.9264 
L 82.5984 115.392 
L 83.4912 112.4352 
L 84.384 109.056 
L 86.1696 107.3664 
L 87.0624 106.944 
L 87.9552 104.4096 
L 88.848 103.5648 
L 89.7408 102.2976 
L 90.6336 101.8752 
L 91.5264 100.608 
L 92.4192 100.1856 
L 94.2048 99.7632 
L 95.9904 99.3408 
L 97.776 98.9184 
L 99.5616 97.6512 
L 101.3472 96.384 
L 102.24 93.8496 
L 103.1328 93.0048 
L 104.0256 92.5824 
L 104.9184 90.048 
L 105.8112 88.7808 
L 106.704 87.5136 
L 107.5968 87.0912 
L 108.4896 86.6688 
L 109.3824 86.2464 
L 110.2752 85.824 
L 111.168 84.9792 
L 112.0608 84.5568 
L 113.8464 84.1344 
L 115.632 81.6 
L 116.5248 80.7552 
L 117.4176 80.3328 
L 118.3104 78.6432 
L 119.2032 78.2208 
L 120.096 77.376 
L 120.9888 76.5312 
L 123.6672 75.6864 
L 128.1312 75.264 
L 132.5952 74.4192 
L 133.488 73.9968 
L 134.3808 73.5744 
L 138.8448 73.152 
L 139.7376 71.8848 
L 140.6304 71.4624 
L 142.416 70.1952 
L 145.9872 69.7728 
L 146.88 68.928 
L 147.7728 68.5056 
L 148.6656 68.0832 
L 149.5584 67.6608 
L 150.4512 67.2384 
L 157.5936 66.816 
L 162.0576 66.3936 
L 182.592 65.9712 
L 184.3776 65.5488 
L 189.7344 65.1264 
L 205.8048 64.704 
L 211.1616 64.2816 
L 225.4464 63.4368 
L 231.696 63.0144 
L 235.2672 62.592 
L 237.9456 62.1696 
L 239.7312 61.7472 
L 243.3024 60.48 
L 246.8736 59.6352 
L 249.552 59.2128 
L 253.1232 58.7904 
L 262.0512 57.5232 
L 264.7296 57.1008 
L 268.3008 56.256 
L 271.872 55.4112 
L 274.5504 54.9888 
L 275.4432 54.5664 
L 286.1568 54.144 
L 414.72 54.144 
" style="fill:none;stroke:#000080;stroke-dasharray:4,6.6;stroke-dashoffset:0;stroke-width:4;"/>
   </g>
   <g id="line2d_18">
    <path clip-path="url(#p016a77fd8d)" d="M 57.6 307.584 
L 414.72 54.144 
" style="fill:none;stroke:#000000;stroke-dasharray:7.4,3.2;stroke-dashoffset:0;stroke-width:2;"/>
   </g>
   <g id="patch_3">
    <path d="M 57.6 307.584 
L 57.6 41.472 
" style="fill:none;stroke:#000000;stroke-linecap:square;stroke-linejoin:miter;stroke-width:0.8;"/>
   </g>
   <g id="patch_4">
    <path d="M 414.72 307.584 
L 414.72 41.472 
" style="fill:none;stroke:#000000;stroke-linecap:square;stroke-linejoin:miter;stroke-width:0.8;"/>
   </g>
   <g id="patch_5">
    <path d="M 57.6 307.584 
L 414.72 307.584 
" style="fill:none;stroke:#000000;stroke-linecap:square;stroke-linejoin:miter;stroke-width:0.8;"/>
   </g>
   <g id="patch_6">
    <path d="M 57.6 41.472 
L 414.72 41.472 
" style="fill:none;stroke:#000000;stroke-linecap:square;stroke-linejoin:miter;stroke-width:0.8;"/>
   </g>
   <g id="text_15">
    <!-- ROC Curves -->
    <defs>
     <path d="M 39.40625 66.21875 
Q 28.65625 66.21875 22.328125 58.203125 
Q 16.015625 50.203125 16.015625 36.375 
Q 16.015625 22.609375 22.328125 14.59375 
Q 28.65625 6.59375 39.40625 6.59375 
Q 50.140625 6.59375 56.421875 14.59375 
Q 62.703125 22.609375 62.703125 36.375 
Q 62.703125 50.203125 56.421875 58.203125 
Q 50.140625 66.21875 39.40625 66.21875 
z
M 39.40625 74.21875 
Q 54.734375 74.21875 63.90625 63.9375 
Q 73.09375 53.65625 73.09375 36.375 
Q 73.09375 19.140625 63.90625 8.859375 
Q 54.734375 -1.421875 39.40625 -1.421875 
Q 24.03125 -1.421875 14.8125 8.828125 
Q 5.609375 19.09375 5.609375 36.375 
Q 5.609375 53.65625 14.8125 63.9375 
Q 24.03125 74.21875 39.40625 74.21875 
z
" id="DejaVuSans-79"/>
     <path d="M 64.40625 67.28125 
L 64.40625 56.890625 
Q 59.421875 61.53125 53.78125 63.8125 
Q 48.140625 66.109375 41.796875 66.109375 
Q 29.296875 66.109375 22.65625 58.46875 
Q 16.015625 50.828125 16.015625 36.375 
Q 16.015625 21.96875 22.65625 14.328125 
Q 29.296875 6.6875 41.796875 6.6875 
Q 48.140625 6.6875 53.78125 8.984375 
Q 59.421875 11.28125 64.40625 15.921875 
L 64.40625 5.609375 
Q 59.234375 2.09375 53.4375 0.328125 
Q 47.65625 -1.421875 41.21875 -1.421875 
Q 24.65625 -1.421875 15.125 8.703125 
Q 5.609375 18.84375 5.609375 36.375 
Q 5.609375 53.953125 15.125 64.078125 
Q 24.65625 74.21875 41.21875 74.21875 
Q 47.75 74.21875 53.53125 72.484375 
Q 59.328125 70.75 64.40625 67.28125 
z
" id="DejaVuSans-67"/>
    </defs>
    <g transform="translate(200.34375 35.472)scale(0.12 -0.12)">
     <use xlink:href="#DejaVuSans-82"/>
     <use x="69.482422" xlink:href="#DejaVuSans-79"/>
     <use x="148.193359" xlink:href="#DejaVuSans-67"/>
     <use x="218.017578" xlink:href="#DejaVuSans-32"/>
     <use x="249.804688" xlink:href="#DejaVuSans-67"/>
     <use x="319.628906" xlink:href="#DejaVuSans-117"/>
     <use x="383.007812" xlink:href="#DejaVuSans-114"/>
     <use x="424.121094" xlink:href="#DejaVuSans-118"/>
     <use x="483.300781" xlink:href="#DejaVuSans-101"/>
     <use x="544.824219" xlink:href="#DejaVuSans-115"/>
    </g>
   </g>
   <g id="legend_1">
    <g id="patch_7">
     <path d="M 173.155937 302.584 
L 407.72 302.584 
Q 409.72 302.584 409.72 300.584 
L 409.72 228.193375 
Q 409.72 226.193375 407.72 226.193375 
L 173.155937 226.193375 
Q 171.155937 226.193375 171.155937 228.193375 
L 171.155937 300.584 
Q 171.155937 302.584 173.155937 302.584 
z
" style="fill:#ffffff;opacity:0.8;stroke:#cccccc;stroke-linejoin:miter;"/>
    </g>
    <g id="line2d_19">
     <path d="M 175.155937 234.291812 
L 195.155937 234.291812 
" style="fill:none;stroke:#000000;stroke-linecap:square;stroke-width:2;"/>
    </g>
    <g id="line2d_20"/>
    <g id="text_16">
     <!-- ROC curve of class 0 (area = 1.00) -->
     <defs>
      <path d="M 48.78125 52.59375 
L 48.78125 44.1875 
Q 44.96875 46.296875 41.140625 47.34375 
Q 37.3125 48.390625 33.40625 48.390625 
Q 24.65625 48.390625 19.8125 42.84375 
Q 14.984375 37.3125 14.984375 27.296875 
Q 14.984375 17.28125 19.8125 11.734375 
Q 24.65625 6.203125 33.40625 6.203125 
Q 37.3125 6.203125 41.140625 7.25 
Q 44.96875 8.296875 48.78125 10.40625 
L 48.78125 2.09375 
Q 45.015625 0.34375 40.984375 -0.53125 
Q 36.96875 -1.421875 32.421875 -1.421875 
Q 20.0625 -1.421875 12.78125 6.34375 
Q 5.515625 14.109375 5.515625 27.296875 
Q 5.515625 40.671875 12.859375 48.328125 
Q 20.21875 56 33.015625 56 
Q 37.15625 56 41.109375 55.140625 
Q 45.0625 54.296875 48.78125 52.59375 
z
" id="DejaVuSans-99"/>
      <path d="M 37.109375 75.984375 
L 37.109375 68.5 
L 28.515625 68.5 
Q 23.6875 68.5 21.796875 66.546875 
Q 19.921875 64.59375 19.921875 59.515625 
L 19.921875 54.6875 
L 34.71875 54.6875 
L 34.71875 47.703125 
L 19.921875 47.703125 
L 19.921875 0 
L 10.890625 0 
L 10.890625 47.703125 
L 2.296875 47.703125 
L 2.296875 54.6875 
L 10.890625 54.6875 
L 10.890625 58.5 
Q 10.890625 67.625 15.140625 71.796875 
Q 19.390625 75.984375 28.609375 75.984375 
z
" id="DejaVuSans-102"/>
      <path d="M 31 75.875 
Q 24.46875 64.65625 21.28125 53.65625 
Q 18.109375 42.671875 18.109375 31.390625 
Q 18.109375 20.125 21.3125 9.0625 
Q 24.515625 -2 31 -13.1875 
L 23.1875 -13.1875 
Q 15.875 -1.703125 12.234375 9.375 
Q 8.59375 20.453125 8.59375 31.390625 
Q 8.59375 42.28125 12.203125 53.3125 
Q 15.828125 64.359375 23.1875 75.875 
z
" id="DejaVuSans-40"/>
      <path d="M 10.59375 45.40625 
L 73.1875 45.40625 
L 73.1875 37.203125 
L 10.59375 37.203125 
z
M 10.59375 25.484375 
L 73.1875 25.484375 
L 73.1875 17.1875 
L 10.59375 17.1875 
z
" id="DejaVuSans-61"/>
      <path d="M 8.015625 75.875 
L 15.828125 75.875 
Q 23.140625 64.359375 26.78125 53.3125 
Q 30.421875 42.28125 30.421875 31.390625 
Q 30.421875 20.453125 26.78125 9.375 
Q 23.140625 -1.703125 15.828125 -13.1875 
L 8.015625 -13.1875 
Q 14.5 -2 17.703125 9.0625 
Q 20.90625 20.125 20.90625 31.390625 
Q 20.90625 42.671875 17.703125 53.65625 
Q 14.5 64.65625 8.015625 75.875 
z
" id="DejaVuSans-41"/>
     </defs>
     <g transform="translate(203.155937 237.791812)scale(0.1 -0.1)">
      <use xlink:href="#DejaVuSans-82"/>
      <use x="69.482422" xlink:href="#DejaVuSans-79"/>
      <use x="148.193359" xlink:href="#DejaVuSans-67"/>
      <use x="218.017578" xlink:href="#DejaVuSans-32"/>
      <use x="249.804688" xlink:href="#DejaVuSans-99"/>
      <use x="304.785156" xlink:href="#DejaVuSans-117"/>
      <use x="368.164062" xlink:href="#DejaVuSans-114"/>
      <use x="409.277344" xlink:href="#DejaVuSans-118"/>
      <use x="468.457031" xlink:href="#DejaVuSans-101"/>
      <use x="529.980469" xlink:href="#DejaVuSans-32"/>
      <use x="561.767578" xlink:href="#DejaVuSans-111"/>
      <use x="622.949219" xlink:href="#DejaVuSans-102"/>
      <use x="658.154297" xlink:href="#DejaVuSans-32"/>
      <use x="689.941406" xlink:href="#DejaVuSans-99"/>
      <use x="744.921875" xlink:href="#DejaVuSans-108"/>
      <use x="772.705078" xlink:href="#DejaVuSans-97"/>
      <use x="833.984375" xlink:href="#DejaVuSans-115"/>
      <use x="886.083984" xlink:href="#DejaVuSans-115"/>
      <use x="938.183594" xlink:href="#DejaVuSans-32"/>
      <use x="969.970703" xlink:href="#DejaVuSans-48"/>
      <use x="1033.59375" xlink:href="#DejaVuSans-32"/>
      <use x="1065.380859" xlink:href="#DejaVuSans-40"/>
      <use x="1104.394531" xlink:href="#DejaVuSans-97"/>
      <use x="1165.673828" xlink:href="#DejaVuSans-114"/>
      <use x="1204.537109" xlink:href="#DejaVuSans-101"/>
      <use x="1266.060547" xlink:href="#DejaVuSans-97"/>
      <use x="1327.339844" xlink:href="#DejaVuSans-32"/>
      <use x="1359.126953" xlink:href="#DejaVuSans-61"/>
      <use x="1442.916016" xlink:href="#DejaVuSans-32"/>
      <use x="1474.703125" xlink:href="#DejaVuSans-49"/>
      <use x="1538.326172" xlink:href="#DejaVuSans-46"/>
      <use x="1570.113281" xlink:href="#DejaVuSans-48"/>
      <use x="1633.736328" xlink:href="#DejaVuSans-48"/>
      <use x="1697.359375" xlink:href="#DejaVuSans-41"/>
     </g>
    </g>
    <g id="line2d_21">
     <path d="M 175.155937 248.969937 
L 195.155937 248.969937 
" style="fill:none;stroke:#00a4bb;stroke-linecap:square;stroke-width:2;"/>
    </g>
    <g id="line2d_22"/>
    <g id="text_17">
     <!-- ROC curve of class 1 (area = 0.89) -->
     <defs>
      <path d="M 10.984375 1.515625 
L 10.984375 10.5 
Q 14.703125 8.734375 18.5 7.8125 
Q 22.3125 6.890625 25.984375 6.890625 
Q 35.75 6.890625 40.890625 13.453125 
Q 46.046875 20.015625 46.78125 33.40625 
Q 43.953125 29.203125 39.59375 26.953125 
Q 35.25 24.703125 29.984375 24.703125 
Q 19.046875 24.703125 12.671875 31.3125 
Q 6.296875 37.9375 6.296875 49.421875 
Q 6.296875 60.640625 12.9375 67.421875 
Q 19.578125 74.21875 30.609375 74.21875 
Q 43.265625 74.21875 49.921875 64.515625 
Q 56.59375 54.828125 56.59375 36.375 
Q 56.59375 19.140625 48.40625 8.859375 
Q 40.234375 -1.421875 26.421875 -1.421875 
Q 22.703125 -1.421875 18.890625 -0.6875 
Q 15.09375 0.046875 10.984375 1.515625 
z
M 30.609375 32.421875 
Q 37.25 32.421875 41.125 36.953125 
Q 45.015625 41.5 45.015625 49.421875 
Q 45.015625 57.28125 41.125 61.84375 
Q 37.25 66.40625 30.609375 66.40625 
Q 23.96875 66.40625 20.09375 61.84375 
Q 16.21875 57.28125 16.21875 49.421875 
Q 16.21875 41.5 20.09375 36.953125 
Q 23.96875 32.421875 30.609375 32.421875 
z
" id="DejaVuSans-57"/>
     </defs>
     <g transform="translate(203.155937 252.469937)scale(0.1 -0.1)">
      <use xlink:href="#DejaVuSans-82"/>
      <use x="69.482422" xlink:href="#DejaVuSans-79"/>
      <use x="148.193359" xlink:href="#DejaVuSans-67"/>
      <use x="218.017578" xlink:href="#DejaVuSans-32"/>
      <use x="249.804688" xlink:href="#DejaVuSans-99"/>
      <use x="304.785156" xlink:href="#DejaVuSans-117"/>
      <use x="368.164062" xlink:href="#DejaVuSans-114"/>
      <use x="409.277344" xlink:href="#DejaVuSans-118"/>
      <use x="468.457031" xlink:href="#DejaVuSans-101"/>
      <use x="529.980469" xlink:href="#DejaVuSans-32"/>
      <use x="561.767578" xlink:href="#DejaVuSans-111"/>
      <use x="622.949219" xlink:href="#DejaVuSans-102"/>
      <use x="658.154297" xlink:href="#DejaVuSans-32"/>
      <use x="689.941406" xlink:href="#DejaVuSans-99"/>
      <use x="744.921875" xlink:href="#DejaVuSans-108"/>
      <use x="772.705078" xlink:href="#DejaVuSans-97"/>
      <use x="833.984375" xlink:href="#DejaVuSans-115"/>
      <use x="886.083984" xlink:href="#DejaVuSans-115"/>
      <use x="938.183594" xlink:href="#DejaVuSans-32"/>
      <use x="969.970703" xlink:href="#DejaVuSans-49"/>
      <use x="1033.59375" xlink:href="#DejaVuSans-32"/>
      <use x="1065.380859" xlink:href="#DejaVuSans-40"/>
      <use x="1104.394531" xlink:href="#DejaVuSans-97"/>
      <use x="1165.673828" xlink:href="#DejaVuSans-114"/>
      <use x="1204.537109" xlink:href="#DejaVuSans-101"/>
      <use x="1266.060547" xlink:href="#DejaVuSans-97"/>
      <use x="1327.339844" xlink:href="#DejaVuSans-32"/>
      <use x="1359.126953" xlink:href="#DejaVuSans-61"/>
      <use x="1442.916016" xlink:href="#DejaVuSans-32"/>
      <use x="1474.703125" xlink:href="#DejaVuSans-48"/>
      <use x="1538.326172" xlink:href="#DejaVuSans-46"/>
      <use x="1570.113281" xlink:href="#DejaVuSans-56"/>
      <use x="1633.736328" xlink:href="#DejaVuSans-57"/>
      <use x="1697.359375" xlink:href="#DejaVuSans-41"/>
     </g>
    </g>
    <g id="line2d_23">
     <path d="M 175.155937 263.648062 
L 195.155937 263.648062 
" style="fill:none;stroke:#ccf900;stroke-linecap:square;stroke-width:2;"/>
    </g>
    <g id="line2d_24"/>
    <g id="text_18">
     <!-- ROC curve of class 2 (area = 0.92) -->
     <g transform="translate(203.155937 267.148062)scale(0.1 -0.1)">
      <use xlink:href="#DejaVuSans-82"/>
      <use x="69.482422" xlink:href="#DejaVuSans-79"/>
      <use x="148.193359" xlink:href="#DejaVuSans-67"/>
      <use x="218.017578" xlink:href="#DejaVuSans-32"/>
      <use x="249.804688" xlink:href="#DejaVuSans-99"/>
      <use x="304.785156" xlink:href="#DejaVuSans-117"/>
      <use x="368.164062" xlink:href="#DejaVuSans-114"/>
      <use x="409.277344" xlink:href="#DejaVuSans-118"/>
      <use x="468.457031" xlink:href="#DejaVuSans-101"/>
      <use x="529.980469" xlink:href="#DejaVuSans-32"/>
      <use x="561.767578" xlink:href="#DejaVuSans-111"/>
      <use x="622.949219" xlink:href="#DejaVuSans-102"/>
      <use x="658.154297" xlink:href="#DejaVuSans-32"/>
      <use x="689.941406" xlink:href="#DejaVuSans-99"/>
      <use x="744.921875" xlink:href="#DejaVuSans-108"/>
      <use x="772.705078" xlink:href="#DejaVuSans-97"/>
      <use x="833.984375" xlink:href="#DejaVuSans-115"/>
      <use x="886.083984" xlink:href="#DejaVuSans-115"/>
      <use x="938.183594" xlink:href="#DejaVuSans-32"/>
      <use x="969.970703" xlink:href="#DejaVuSans-50"/>
      <use x="1033.59375" xlink:href="#DejaVuSans-32"/>
      <use x="1065.380859" xlink:href="#DejaVuSans-40"/>
      <use x="1104.394531" xlink:href="#DejaVuSans-97"/>
      <use x="1165.673828" xlink:href="#DejaVuSans-114"/>
      <use x="1204.537109" xlink:href="#DejaVuSans-101"/>
      <use x="1266.060547" xlink:href="#DejaVuSans-97"/>
      <use x="1327.339844" xlink:href="#DejaVuSans-32"/>
      <use x="1359.126953" xlink:href="#DejaVuSans-61"/>
      <use x="1442.916016" xlink:href="#DejaVuSans-32"/>
      <use x="1474.703125" xlink:href="#DejaVuSans-48"/>
      <use x="1538.326172" xlink:href="#DejaVuSans-46"/>
      <use x="1570.113281" xlink:href="#DejaVuSans-57"/>
      <use x="1633.736328" xlink:href="#DejaVuSans-50"/>
      <use x="1697.359375" xlink:href="#DejaVuSans-41"/>
     </g>
    </g>
    <g id="line2d_25">
     <path d="M 175.155937 278.326188 
L 195.155937 278.326188 
" style="fill:none;stroke:#ff1493;stroke-dasharray:4,6.6;stroke-dashoffset:0;stroke-width:4;"/>
    </g>
    <g id="line2d_26"/>
    <g id="text_19">
     <!-- micro-average ROC curve (area = 0.94) -->
     <defs>
      <path d="M 52 44.1875 
Q 55.375 50.25 60.0625 53.125 
Q 64.75 56 71.09375 56 
Q 79.640625 56 84.28125 50.015625 
Q 88.921875 44.046875 88.921875 33.015625 
L 88.921875 0 
L 79.890625 0 
L 79.890625 32.71875 
Q 79.890625 40.578125 77.09375 44.375 
Q 74.3125 48.1875 68.609375 48.1875 
Q 61.625 48.1875 57.5625 43.546875 
Q 53.515625 38.921875 53.515625 30.90625 
L 53.515625 0 
L 44.484375 0 
L 44.484375 32.71875 
Q 44.484375 40.625 41.703125 44.40625 
Q 38.921875 48.1875 33.109375 48.1875 
Q 26.21875 48.1875 22.15625 43.53125 
Q 18.109375 38.875 18.109375 30.90625 
L 18.109375 0 
L 9.078125 0 
L 9.078125 54.6875 
L 18.109375 54.6875 
L 18.109375 46.1875 
Q 21.1875 51.21875 25.484375 53.609375 
Q 29.78125 56 35.6875 56 
Q 41.65625 56 45.828125 52.96875 
Q 50 49.953125 52 44.1875 
z
" id="DejaVuSans-109"/>
      <path d="M 4.890625 31.390625 
L 31.203125 31.390625 
L 31.203125 23.390625 
L 4.890625 23.390625 
z
" id="DejaVuSans-45"/>
      <path d="M 45.40625 27.984375 
Q 45.40625 37.75 41.375 43.109375 
Q 37.359375 48.484375 30.078125 48.484375 
Q 22.859375 48.484375 18.828125 43.109375 
Q 14.796875 37.75 14.796875 27.984375 
Q 14.796875 18.265625 18.828125 12.890625 
Q 22.859375 7.515625 30.078125 7.515625 
Q 37.359375 7.515625 41.375 12.890625 
Q 45.40625 18.265625 45.40625 27.984375 
z
M 54.390625 6.78125 
Q 54.390625 -7.171875 48.1875 -13.984375 
Q 42 -20.796875 29.203125 -20.796875 
Q 24.46875 -20.796875 20.265625 -20.09375 
Q 16.0625 -19.390625 12.109375 -17.921875 
L 12.109375 -9.1875 
Q 16.0625 -11.328125 19.921875 -12.34375 
Q 23.78125 -13.375 27.78125 -13.375 
Q 36.625 -13.375 41.015625 -8.765625 
Q 45.40625 -4.15625 45.40625 5.171875 
L 45.40625 9.625 
Q 42.625 4.78125 38.28125 2.390625 
Q 33.9375 0 27.875 0 
Q 17.828125 0 11.671875 7.65625 
Q 5.515625 15.328125 5.515625 27.984375 
Q 5.515625 40.671875 11.671875 48.328125 
Q 17.828125 56 27.875 56 
Q 33.9375 56 38.28125 53.609375 
Q 42.625 51.21875 45.40625 46.390625 
L 45.40625 54.6875 
L 54.390625 54.6875 
z
" id="DejaVuSans-103"/>
     </defs>
     <g transform="translate(203.155937 281.826188)scale(0.1 -0.1)">
      <use xlink:href="#DejaVuSans-109"/>
      <use x="97.412109" xlink:href="#DejaVuSans-105"/>
      <use x="125.195312" xlink:href="#DejaVuSans-99"/>
      <use x="180.175781" xlink:href="#DejaVuSans-114"/>
      <use x="219.039062" xlink:href="#DejaVuSans-111"/>
      <use x="282.095703" xlink:href="#DejaVuSans-45"/>
      <use x="318.179688" xlink:href="#DejaVuSans-97"/>
      <use x="379.458984" xlink:href="#DejaVuSans-118"/>
      <use x="438.638672" xlink:href="#DejaVuSans-101"/>
      <use x="500.162109" xlink:href="#DejaVuSans-114"/>
      <use x="541.275391" xlink:href="#DejaVuSans-97"/>
      <use x="602.554688" xlink:href="#DejaVuSans-103"/>
      <use x="666.03125" xlink:href="#DejaVuSans-101"/>
      <use x="727.554688" xlink:href="#DejaVuSans-32"/>
      <use x="759.341797" xlink:href="#DejaVuSans-82"/>
      <use x="828.824219" xlink:href="#DejaVuSans-79"/>
      <use x="907.535156" xlink:href="#DejaVuSans-67"/>
      <use x="977.359375" xlink:href="#DejaVuSans-32"/>
      <use x="1009.146484" xlink:href="#DejaVuSans-99"/>
      <use x="1064.126953" xlink:href="#DejaVuSans-117"/>
      <use x="1127.505859" xlink:href="#DejaVuSans-114"/>
      <use x="1168.619141" xlink:href="#DejaVuSans-118"/>
      <use x="1227.798828" xlink:href="#DejaVuSans-101"/>
      <use x="1289.322266" xlink:href="#DejaVuSans-32"/>
      <use x="1321.109375" xlink:href="#DejaVuSans-40"/>
      <use x="1360.123047" xlink:href="#DejaVuSans-97"/>
      <use x="1421.402344" xlink:href="#DejaVuSans-114"/>
      <use x="1460.265625" xlink:href="#DejaVuSans-101"/>
      <use x="1521.789062" xlink:href="#DejaVuSans-97"/>
      <use x="1583.068359" xlink:href="#DejaVuSans-32"/>
      <use x="1614.855469" xlink:href="#DejaVuSans-61"/>
      <use x="1698.644531" xlink:href="#DejaVuSans-32"/>
      <use x="1730.431641" xlink:href="#DejaVuSans-48"/>
      <use x="1794.054688" xlink:href="#DejaVuSans-46"/>
      <use x="1825.841797" xlink:href="#DejaVuSans-57"/>
      <use x="1889.464844" xlink:href="#DejaVuSans-52"/>
      <use x="1953.087891" xlink:href="#DejaVuSans-41"/>
     </g>
    </g>
    <g id="line2d_27">
     <path d="M 175.155937 293.004312 
L 195.155937 293.004312 
" style="fill:none;stroke:#000080;stroke-dasharray:4,6.6;stroke-dashoffset:0;stroke-width:4;"/>
    </g>
    <g id="line2d_28"/>
    <g id="text_20">
     <!-- macro-average ROC curve (area = 0.94) -->
     <g transform="translate(203.155937 296.504312)scale(0.1 -0.1)">
      <use xlink:href="#DejaVuSans-109"/>
      <use x="97.412109" xlink:href="#DejaVuSans-97"/>
      <use x="158.691406" xlink:href="#DejaVuSans-99"/>
      <use x="213.671875" xlink:href="#DejaVuSans-114"/>
      <use x="252.535156" xlink:href="#DejaVuSans-111"/>
      <use x="315.591797" xlink:href="#DejaVuSans-45"/>
      <use x="351.675781" xlink:href="#DejaVuSans-97"/>
      <use x="412.955078" xlink:href="#DejaVuSans-118"/>
      <use x="472.134766" xlink:href="#DejaVuSans-101"/>
      <use x="533.658203" xlink:href="#DejaVuSans-114"/>
      <use x="574.771484" xlink:href="#DejaVuSans-97"/>
      <use x="636.050781" xlink:href="#DejaVuSans-103"/>
      <use x="699.527344" xlink:href="#DejaVuSans-101"/>
      <use x="761.050781" xlink:href="#DejaVuSans-32"/>
      <use x="792.837891" xlink:href="#DejaVuSans-82"/>
      <use x="862.320312" xlink:href="#DejaVuSans-79"/>
      <use x="941.03125" xlink:href="#DejaVuSans-67"/>
      <use x="1010.855469" xlink:href="#DejaVuSans-32"/>
      <use x="1042.642578" xlink:href="#DejaVuSans-99"/>
      <use x="1097.623047" xlink:href="#DejaVuSans-117"/>
      <use x="1161.001953" xlink:href="#DejaVuSans-114"/>
      <use x="1202.115234" xlink:href="#DejaVuSans-118"/>
      <use x="1261.294922" xlink:href="#DejaVuSans-101"/>
      <use x="1322.818359" xlink:href="#DejaVuSans-32"/>
      <use x="1354.605469" xlink:href="#DejaVuSans-40"/>
      <use x="1393.619141" xlink:href="#DejaVuSans-97"/>
      <use x="1454.898438" xlink:href="#DejaVuSans-114"/>
      <use x="1493.761719" xlink:href="#DejaVuSans-101"/>
      <use x="1555.285156" xlink:href="#DejaVuSans-97"/>
      <use x="1616.564453" xlink:href="#DejaVuSans-32"/>
      <use x="1648.351562" xlink:href="#DejaVuSans-61"/>
      <use x="1732.140625" xlink:href="#DejaVuSans-32"/>
      <use x="1763.927734" xlink:href="#DejaVuSans-48"/>
      <use x="1827.550781" xlink:href="#DejaVuSans-46"/>
      <use x="1859.337891" xlink:href="#DejaVuSans-57"/>
      <use x="1922.960938" xlink:href="#DejaVuSans-52"/>
      <use x="1986.583984" xlink:href="#DejaVuSans-41"/>
     </g>
    </g>
   </g>
  </g>
 </g>
 <defs>
  <clipPath id="p016a77fd8d">
   <rect height="266.112" width="357.12" x="57.6" y="41.472"/>
  </clipPath>
 </defs>
</svg>
