<?xml version="1.0" encoding="utf-8" standalone="no"?>
<!DOCTYPE svg PUBLIC "-//W3C//DTD SVG 1.1//EN"
  "http://www.w3.org/Graphics/SVG/1.1/DTD/svg11.dtd">
<!-- Created with matplotlib (https://matplotlib.org/) -->
<svg height="288pt" version="1.1" viewBox="0 0 432 288" width="432pt" xmlns="http://www.w3.org/2000/svg" xmlns:xlink="http://www.w3.org/1999/xlink">
 <defs>
  <style type="text/css">
*{stroke-linecap:butt;stroke-linejoin:round;}
  </style>
 </defs>
 <g id="figure_1">
  <g id="patch_1">
   <path d="M 0 288 
L 432 288 
L 432 0 
L 0 0 
z
" style="fill:#ffffff;"/>
  </g>
  <g id="axes_1">
   <g id="patch_2">
    <path d="M 54 252 
L 388.8 252 
L 388.8 34.56 
L 54 34.56 
z
" style="fill:#ffffff;"/>
   </g>
   <g id="matplotlib.axis_1">
    <g id="xtick_1">
     <g id="line2d_1">
      <defs>
       <path d="M 0 0 
L 0 3.5 
" id="mf859b268ea" style="stroke:#000000;stroke-width:0.8;"/>
      </defs>
      <g>
       <use style="stroke:#000000;stroke-width:0.8;" x="54" xlink:href="#mf859b268ea" y="252"/>
      </g>
     </g>
     <g id="text_1">
      <!-- 600 -->
      <defs>
       <path d="M 33.015625 40.375 
Q 26.375 40.375 22.484375 35.828125 
Q 18.609375 31.296875 18.609375 23.390625 
Q 18.609375 15.53125 22.484375 10.953125 
Q 26.375 6.390625 33.015625 6.390625 
Q 39.65625 6.390625 43.53125 10.953125 
Q 47.40625 15.53125 47.40625 23.390625 
Q 47.40625 31.296875 43.53125 35.828125 
Q 39.65625 40.375 33.015625 40.375 
z
M 52.59375 71.296875 
L 52.59375 62.3125 
Q 48.875 64.0625 45.09375 64.984375 
Q 41.3125 65.921875 37.59375 65.921875 
Q 27.828125 65.921875 22.671875 59.328125 
Q 17.53125 52.734375 16.796875 39.40625 
Q 19.671875 43.65625 24.015625 45.921875 
Q 28.375 48.1875 33.59375 48.1875 
Q 44.578125 48.1875 50.953125 41.515625 
Q 57.328125 34.859375 57.328125 23.390625 
Q 57.328125 12.15625 50.6875 5.359375 
Q 44.046875 -1.421875 33.015625 -1.421875 
Q 20.359375 -1.421875 13.671875 8.265625 
Q 6.984375 17.96875 6.984375 36.375 
Q 6.984375 53.65625 15.1875 63.9375 
Q 23.390625 74.21875 37.203125 74.21875 
Q 40.921875 74.21875 44.703125 73.484375 
Q 48.484375 72.75 52.59375 71.296875 
z
" id="DejaVuSans-54"/>
       <path d="M 31.78125 66.40625 
Q 24.171875 66.40625 20.328125 58.90625 
Q 16.5 51.421875 16.5 36.375 
Q 16.5 21.390625 20.328125 13.890625 
Q 24.171875 6.390625 31.78125 6.390625 
Q 39.453125 6.390625 43.28125 13.890625 
Q 47.125 21.390625 47.125 36.375 
Q 47.125 51.421875 43.28125 58.90625 
Q 39.453125 66.40625 31.78125 66.40625 
z
M 31.78125 74.21875 
Q 44.046875 74.21875 50.515625 64.515625 
Q 56.984375 54.828125 56.984375 36.375 
Q 56.984375 17.96875 50.515625 8.265625 
Q 44.046875 -1.421875 31.78125 -1.421875 
Q 19.53125 -1.421875 13.0625 8.265625 
Q 6.59375 17.96875 6.59375 36.375 
Q 6.59375 54.828125 13.0625 64.515625 
Q 19.53125 74.21875 31.78125 74.21875 
z
" id="DejaVuSans-48"/>
      </defs>
      <g transform="translate(44.45625 266.598437)scale(0.1 -0.1)">
       <use xlink:href="#DejaVuSans-54"/>
       <use x="63.623047" xlink:href="#DejaVuSans-48"/>
       <use x="127.246094" xlink:href="#DejaVuSans-48"/>
      </g>
     </g>
    </g>
    <g id="xtick_2">
     <g id="line2d_2">
      <g>
       <use style="stroke:#000000;stroke-width:0.8;" x="95.85" xlink:href="#mf859b268ea" y="252"/>
      </g>
     </g>
     <g id="text_2">
      <!-- 625 -->
      <defs>
       <path d="M 19.1875 8.296875 
L 53.609375 8.296875 
L 53.609375 0 
L 7.328125 0 
L 7.328125 8.296875 
Q 12.9375 14.109375 22.625 23.890625 
Q 32.328125 33.6875 34.8125 36.53125 
Q 39.546875 41.84375 41.421875 45.53125 
Q 43.3125 49.21875 43.3125 52.78125 
Q 43.3125 58.59375 39.234375 62.25 
Q 35.15625 65.921875 28.609375 65.921875 
Q 23.96875 65.921875 18.8125 64.3125 
Q 13.671875 62.703125 7.8125 59.421875 
L 7.8125 69.390625 
Q 13.765625 71.78125 18.9375 73 
Q 24.125 74.21875 28.421875 74.21875 
Q 39.75 74.21875 46.484375 68.546875 
Q 53.21875 62.890625 53.21875 53.421875 
Q 53.21875 48.921875 51.53125 44.890625 
Q 49.859375 40.875 45.40625 35.40625 
Q 44.1875 33.984375 37.640625 27.21875 
Q 31.109375 20.453125 19.1875 8.296875 
z
" id="DejaVuSans-50"/>
       <path d="M 10.796875 72.90625 
L 49.515625 72.90625 
L 49.515625 64.59375 
L 19.828125 64.59375 
L 19.828125 46.734375 
Q 21.96875 47.46875 24.109375 47.828125 
Q 26.265625 48.1875 28.421875 48.1875 
Q 40.625 48.1875 47.75 41.5 
Q 54.890625 34.8125 54.890625 23.390625 
Q 54.890625 11.625 47.5625 5.09375 
Q 40.234375 -1.421875 26.90625 -1.421875 
Q 22.3125 -1.421875 17.546875 -0.640625 
Q 12.796875 0.140625 7.71875 1.703125 
L 7.71875 11.625 
Q 12.109375 9.234375 16.796875 8.0625 
Q 21.484375 6.890625 26.703125 6.890625 
Q 35.15625 6.890625 40.078125 11.328125 
Q 45.015625 15.765625 45.015625 23.390625 
Q 45.015625 31 40.078125 35.4375 
Q 35.15625 39.890625 26.703125 39.890625 
Q 22.75 39.890625 18.8125 39.015625 
Q 14.890625 38.140625 10.796875 36.28125 
z
" id="DejaVuSans-53"/>
      </defs>
      <g transform="translate(86.30625 266.598437)scale(0.1 -0.1)">
       <use xlink:href="#DejaVuSans-54"/>
       <use x="63.623047" xlink:href="#DejaVuSans-50"/>
       <use x="127.246094" xlink:href="#DejaVuSans-53"/>
      </g>
     </g>
    </g>
    <g id="xtick_3">
     <g id="line2d_3">
      <g>
       <use style="stroke:#000000;stroke-width:0.8;" x="137.7" xlink:href="#mf859b268ea" y="252"/>
      </g>
     </g>
     <g id="text_3">
      <!-- 650 -->
      <g transform="translate(128.15625 266.598437)scale(0.1 -0.1)">
       <use xlink:href="#DejaVuSans-54"/>
       <use x="63.623047" xlink:href="#DejaVuSans-53"/>
       <use x="127.246094" xlink:href="#DejaVuSans-48"/>
      </g>
     </g>
    </g>
    <g id="xtick_4">
     <g id="line2d_4">
      <g>
       <use style="stroke:#000000;stroke-width:0.8;" x="179.55" xlink:href="#mf859b268ea" y="252"/>
      </g>
     </g>
     <g id="text_4">
      <!-- 675 -->
      <defs>
       <path d="M 8.203125 72.90625 
L 55.078125 72.90625 
L 55.078125 68.703125 
L 28.609375 0 
L 18.3125 0 
L 43.21875 64.59375 
L 8.203125 64.59375 
z
" id="DejaVuSans-55"/>
      </defs>
      <g transform="translate(170.00625 266.598437)scale(0.1 -0.1)">
       <use xlink:href="#DejaVuSans-54"/>
       <use x="63.623047" xlink:href="#DejaVuSans-55"/>
       <use x="127.246094" xlink:href="#DejaVuSans-53"/>
      </g>
     </g>
    </g>
    <g id="xtick_5">
     <g id="line2d_5">
      <g>
       <use style="stroke:#000000;stroke-width:0.8;" x="221.4" xlink:href="#mf859b268ea" y="252"/>
      </g>
     </g>
     <g id="text_5">
      <!-- 700 -->
      <g transform="translate(211.85625 266.598437)scale(0.1 -0.1)">
       <use xlink:href="#DejaVuSans-55"/>
       <use x="63.623047" xlink:href="#DejaVuSans-48"/>
       <use x="127.246094" xlink:href="#DejaVuSans-48"/>
      </g>
     </g>
    </g>
    <g id="xtick_6">
     <g id="line2d_6">
      <g>
       <use style="stroke:#000000;stroke-width:0.8;" x="263.25" xlink:href="#mf859b268ea" y="252"/>
      </g>
     </g>
     <g id="text_6">
      <!-- 725 -->
      <g transform="translate(253.70625 266.598437)scale(0.1 -0.1)">
       <use xlink:href="#DejaVuSans-55"/>
       <use x="63.623047" xlink:href="#DejaVuSans-50"/>
       <use x="127.246094" xlink:href="#DejaVuSans-53"/>
      </g>
     </g>
    </g>
    <g id="xtick_7">
     <g id="line2d_7">
      <g>
       <use style="stroke:#000000;stroke-width:0.8;" x="305.1" xlink:href="#mf859b268ea" y="252"/>
      </g>
     </g>
     <g id="text_7">
      <!-- 750 -->
      <g transform="translate(295.55625 266.598437)scale(0.1 -0.1)">
       <use xlink:href="#DejaVuSans-55"/>
       <use x="63.623047" xlink:href="#DejaVuSans-53"/>
       <use x="127.246094" xlink:href="#DejaVuSans-48"/>
      </g>
     </g>
    </g>
    <g id="xtick_8">
     <g id="line2d_8">
      <g>
       <use style="stroke:#000000;stroke-width:0.8;" x="346.95" xlink:href="#mf859b268ea" y="252"/>
      </g>
     </g>
     <g id="text_8">
      <!-- 775 -->
      <g transform="translate(337.40625 266.598437)scale(0.1 -0.1)">
       <use xlink:href="#DejaVuSans-55"/>
       <use x="63.623047" xlink:href="#DejaVuSans-55"/>
       <use x="127.246094" xlink:href="#DejaVuSans-53"/>
      </g>
     </g>
    </g>
    <g id="xtick_9">
     <g id="line2d_9">
      <g>
       <use style="stroke:#000000;stroke-width:0.8;" x="388.8" xlink:href="#mf859b268ea" y="252"/>
      </g>
     </g>
     <g id="text_9">
      <!-- 800 -->
      <defs>
       <path d="M 31.78125 34.625 
Q 24.75 34.625 20.71875 30.859375 
Q 16.703125 27.09375 16.703125 20.515625 
Q 16.703125 13.921875 20.71875 10.15625 
Q 24.75 6.390625 31.78125 6.390625 
Q 38.8125 6.390625 42.859375 10.171875 
Q 46.921875 13.96875 46.921875 20.515625 
Q 46.921875 27.09375 42.890625 30.859375 
Q 38.875 34.625 31.78125 34.625 
z
M 21.921875 38.8125 
Q 15.578125 40.375 12.03125 44.71875 
Q 8.5 49.078125 8.5 55.328125 
Q 8.5 64.0625 14.71875 69.140625 
Q 20.953125 74.21875 31.78125 74.21875 
Q 42.671875 74.21875 48.875 69.140625 
Q 55.078125 64.0625 55.078125 55.328125 
Q 55.078125 49.078125 51.53125 44.71875 
Q 48 40.375 41.703125 38.8125 
Q 48.828125 37.15625 52.796875 32.3125 
Q 56.78125 27.484375 56.78125 20.515625 
Q 56.78125 9.90625 50.3125 4.234375 
Q 43.84375 -1.421875 31.78125 -1.421875 
Q 19.734375 -1.421875 13.25 4.234375 
Q 6.78125 9.90625 6.78125 20.515625 
Q 6.78125 27.484375 10.78125 32.3125 
Q 14.796875 37.15625 21.921875 38.8125 
z
M 18.3125 54.390625 
Q 18.3125 48.734375 21.84375 45.5625 
Q 25.390625 42.390625 31.78125 42.390625 
Q 38.140625 42.390625 41.71875 45.5625 
Q 45.3125 48.734375 45.3125 54.390625 
Q 45.3125 60.0625 41.71875 63.234375 
Q 38.140625 66.40625 31.78125 66.40625 
Q 25.390625 66.40625 21.84375 63.234375 
Q 18.3125 60.0625 18.3125 54.390625 
z
" id="DejaVuSans-56"/>
      </defs>
      <g transform="translate(379.25625 266.598437)scale(0.1 -0.1)">
       <use xlink:href="#DejaVuSans-56"/>
       <use x="63.623047" xlink:href="#DejaVuSans-48"/>
       <use x="127.246094" xlink:href="#DejaVuSans-48"/>
      </g>
     </g>
    </g>
    <g id="text_10">
     <!-- Time(ms) -->
     <defs>
      <path d="M -0.296875 72.90625 
L 61.375 72.90625 
L 61.375 64.59375 
L 35.5 64.59375 
L 35.5 0 
L 25.59375 0 
L 25.59375 64.59375 
L -0.296875 64.59375 
z
" id="DejaVuSans-84"/>
      <path d="M 9.421875 54.6875 
L 18.40625 54.6875 
L 18.40625 0 
L 9.421875 0 
z
M 9.421875 75.984375 
L 18.40625 75.984375 
L 18.40625 64.59375 
L 9.421875 64.59375 
z
" id="DejaVuSans-105"/>
      <path d="M 52 44.1875 
Q 55.375 50.25 60.0625 53.125 
Q 64.75 56 71.09375 56 
Q 79.640625 56 84.28125 50.015625 
Q 88.921875 44.046875 88.921875 33.015625 
L 88.921875 0 
L 79.890625 0 
L 79.890625 32.71875 
Q 79.890625 40.578125 77.09375 44.375 
Q 74.3125 48.1875 68.609375 48.1875 
Q 61.625 48.1875 57.5625 43.546875 
Q 53.515625 38.921875 53.515625 30.90625 
L 53.515625 0 
L 44.484375 0 
L 44.484375 32.71875 
Q 44.484375 40.625 41.703125 44.40625 
Q 38.921875 48.1875 33.109375 48.1875 
Q 26.21875 48.1875 22.15625 43.53125 
Q 18.109375 38.875 18.109375 30.90625 
L 18.109375 0 
L 9.078125 0 
L 9.078125 54.6875 
L 18.109375 54.6875 
L 18.109375 46.1875 
Q 21.1875 51.21875 25.484375 53.609375 
Q 29.78125 56 35.6875 56 
Q 41.65625 56 45.828125 52.96875 
Q 50 49.953125 52 44.1875 
z
" id="DejaVuSans-109"/>
      <path d="M 56.203125 29.59375 
L 56.203125 25.203125 
L 14.890625 25.203125 
Q 15.484375 15.921875 20.484375 11.0625 
Q 25.484375 6.203125 34.421875 6.203125 
Q 39.59375 6.203125 44.453125 7.46875 
Q 49.3125 8.734375 54.109375 11.28125 
L 54.109375 2.78125 
Q 49.265625 0.734375 44.1875 -0.34375 
Q 39.109375 -1.421875 33.890625 -1.421875 
Q 20.796875 -1.421875 13.15625 6.1875 
Q 5.515625 13.8125 5.515625 26.8125 
Q 5.515625 40.234375 12.765625 48.109375 
Q 20.015625 56 32.328125 56 
Q 43.359375 56 49.78125 48.890625 
Q 56.203125 41.796875 56.203125 29.59375 
z
M 47.21875 32.234375 
Q 47.125 39.59375 43.09375 43.984375 
Q 39.0625 48.390625 32.421875 48.390625 
Q 24.90625 48.390625 20.390625 44.140625 
Q 15.875 39.890625 15.1875 32.171875 
z
" id="DejaVuSans-101"/>
      <path d="M 31 75.875 
Q 24.46875 64.65625 21.28125 53.65625 
Q 18.109375 42.671875 18.109375 31.390625 
Q 18.109375 20.125 21.3125 9.0625 
Q 24.515625 -2 31 -13.1875 
L 23.1875 -13.1875 
Q 15.875 -1.703125 12.234375 9.375 
Q 8.59375 20.453125 8.59375 31.390625 
Q 8.59375 42.28125 12.203125 53.3125 
Q 15.828125 64.359375 23.1875 75.875 
z
" id="DejaVuSans-40"/>
      <path d="M 44.28125 53.078125 
L 44.28125 44.578125 
Q 40.484375 46.53125 36.375 47.5 
Q 32.28125 48.484375 27.875 48.484375 
Q 21.1875 48.484375 17.84375 46.4375 
Q 14.5 44.390625 14.5 40.28125 
Q 14.5 37.15625 16.890625 35.375 
Q 19.28125 33.59375 26.515625 31.984375 
L 29.59375 31.296875 
Q 39.15625 29.25 43.1875 25.515625 
Q 47.21875 21.78125 47.21875 15.09375 
Q 47.21875 7.46875 41.1875 3.015625 
Q 35.15625 -1.421875 24.609375 -1.421875 
Q 20.21875 -1.421875 15.453125 -0.5625 
Q 10.6875 0.296875 5.421875 2 
L 5.421875 11.28125 
Q 10.40625 8.6875 15.234375 7.390625 
Q 20.0625 6.109375 24.8125 6.109375 
Q 31.15625 6.109375 34.5625 8.28125 
Q 37.984375 10.453125 37.984375 14.40625 
Q 37.984375 18.0625 35.515625 20.015625 
Q 33.0625 21.96875 24.703125 23.78125 
L 21.578125 24.515625 
Q 13.234375 26.265625 9.515625 29.90625 
Q 5.8125 33.546875 5.8125 39.890625 
Q 5.8125 47.609375 11.28125 51.796875 
Q 16.75 56 26.8125 56 
Q 31.78125 56 36.171875 55.265625 
Q 40.578125 54.546875 44.28125 53.078125 
z
" id="DejaVuSans-115"/>
      <path d="M 8.015625 75.875 
L 15.828125 75.875 
Q 23.140625 64.359375 26.78125 53.3125 
Q 30.421875 42.28125 30.421875 31.390625 
Q 30.421875 20.453125 26.78125 9.375 
Q 23.140625 -1.703125 15.828125 -13.1875 
L 8.015625 -13.1875 
Q 14.5 -2 17.703125 9.0625 
Q 20.90625 20.125 20.90625 31.390625 
Q 20.90625 42.671875 17.703125 53.65625 
Q 14.5 64.65625 8.015625 75.875 
z
" id="DejaVuSans-41"/>
     </defs>
     <g transform="translate(197.789844 280.276563)scale(0.1 -0.1)">
      <use xlink:href="#DejaVuSans-84"/>
      <use x="57.958984" xlink:href="#DejaVuSans-105"/>
      <use x="85.742188" xlink:href="#DejaVuSans-109"/>
      <use x="183.154297" xlink:href="#DejaVuSans-101"/>
      <use x="244.677734" xlink:href="#DejaVuSans-40"/>
      <use x="283.691406" xlink:href="#DejaVuSans-109"/>
      <use x="381.103516" xlink:href="#DejaVuSans-115"/>
      <use x="433.203125" xlink:href="#DejaVuSans-41"/>
     </g>
    </g>
   </g>
   <g id="matplotlib.axis_2">
    <g id="ytick_1">
     <g id="line2d_10">
      <defs>
       <path d="M 0 0 
L -3.5 0 
" id="md20572985a" style="stroke:#000000;stroke-width:0.8;"/>
      </defs>
      <g>
       <use style="stroke:#000000;stroke-width:0.8;" x="54" xlink:href="#md20572985a" y="239.803606"/>
      </g>
     </g>
     <g id="text_11">
      <!-- −8 -->
      <defs>
       <path d="M 10.59375 35.5 
L 73.1875 35.5 
L 73.1875 27.203125 
L 10.59375 27.203125 
z
" id="DejaVuSans-8722"/>
      </defs>
      <g transform="translate(32.257812 243.602824)scale(0.1 -0.1)">
       <use xlink:href="#DejaVuSans-8722"/>
       <use x="83.789062" xlink:href="#DejaVuSans-56"/>
      </g>
     </g>
    </g>
    <g id="ytick_2">
     <g id="line2d_11">
      <g>
       <use style="stroke:#000000;stroke-width:0.8;" x="54" xlink:href="#md20572985a" y="215.146978"/>
      </g>
     </g>
     <g id="text_12">
      <!-- −6 -->
      <g transform="translate(32.257812 218.946197)scale(0.1 -0.1)">
       <use xlink:href="#DejaVuSans-8722"/>
       <use x="83.789062" xlink:href="#DejaVuSans-54"/>
      </g>
     </g>
    </g>
    <g id="ytick_3">
     <g id="line2d_12">
      <g>
       <use style="stroke:#000000;stroke-width:0.8;" x="54" xlink:href="#md20572985a" y="190.490351"/>
      </g>
     </g>
     <g id="text_13">
      <!-- −4 -->
      <defs>
       <path d="M 37.796875 64.3125 
L 12.890625 25.390625 
L 37.796875 25.390625 
z
M 35.203125 72.90625 
L 47.609375 72.90625 
L 47.609375 25.390625 
L 58.015625 25.390625 
L 58.015625 17.1875 
L 47.609375 17.1875 
L 47.609375 0 
L 37.796875 0 
L 37.796875 17.1875 
L 4.890625 17.1875 
L 4.890625 26.703125 
z
" id="DejaVuSans-52"/>
      </defs>
      <g transform="translate(32.257812 194.28957)scale(0.1 -0.1)">
       <use xlink:href="#DejaVuSans-8722"/>
       <use x="83.789062" xlink:href="#DejaVuSans-52"/>
      </g>
     </g>
    </g>
    <g id="ytick_4">
     <g id="line2d_13">
      <g>
       <use style="stroke:#000000;stroke-width:0.8;" x="54" xlink:href="#md20572985a" y="165.833724"/>
      </g>
     </g>
     <g id="text_14">
      <!-- −2 -->
      <g transform="translate(32.257812 169.632942)scale(0.1 -0.1)">
       <use xlink:href="#DejaVuSans-8722"/>
       <use x="83.789062" xlink:href="#DejaVuSans-50"/>
      </g>
     </g>
    </g>
    <g id="ytick_5">
     <g id="line2d_14">
      <g>
       <use style="stroke:#000000;stroke-width:0.8;" x="54" xlink:href="#md20572985a" y="141.177096"/>
      </g>
     </g>
     <g id="text_15">
      <!-- 0 -->
      <g transform="translate(40.6375 144.976315)scale(0.1 -0.1)">
       <use xlink:href="#DejaVuSans-48"/>
      </g>
     </g>
    </g>
    <g id="ytick_6">
     <g id="line2d_15">
      <g>
       <use style="stroke:#000000;stroke-width:0.8;" x="54" xlink:href="#md20572985a" y="116.520469"/>
      </g>
     </g>
     <g id="text_16">
      <!-- 2 -->
      <g transform="translate(40.6375 120.319688)scale(0.1 -0.1)">
       <use xlink:href="#DejaVuSans-50"/>
      </g>
     </g>
    </g>
    <g id="ytick_7">
     <g id="line2d_16">
      <g>
       <use style="stroke:#000000;stroke-width:0.8;" x="54" xlink:href="#md20572985a" y="91.863841"/>
      </g>
     </g>
     <g id="text_17">
      <!-- 4 -->
      <g transform="translate(40.6375 95.66306)scale(0.1 -0.1)">
       <use xlink:href="#DejaVuSans-52"/>
      </g>
     </g>
    </g>
    <g id="ytick_8">
     <g id="line2d_17">
      <g>
       <use style="stroke:#000000;stroke-width:0.8;" x="54" xlink:href="#md20572985a" y="67.207214"/>
      </g>
     </g>
     <g id="text_18">
      <!-- 6 -->
      <g transform="translate(40.6375 71.006433)scale(0.1 -0.1)">
       <use xlink:href="#DejaVuSans-54"/>
      </g>
     </g>
    </g>
    <g id="ytick_9">
     <g id="line2d_18">
      <g>
       <use style="stroke:#000000;stroke-width:0.8;" x="54" xlink:href="#md20572985a" y="42.550587"/>
      </g>
     </g>
     <g id="text_19">
      <!-- 8 -->
      <g transform="translate(40.6375 46.349805)scale(0.1 -0.1)">
       <use xlink:href="#DejaVuSans-56"/>
      </g>
     </g>
    </g>
    <g id="text_20">
     <!-- Amplitude -->
     <defs>
      <path d="M 34.1875 63.1875 
L 20.796875 26.90625 
L 47.609375 26.90625 
z
M 28.609375 72.90625 
L 39.796875 72.90625 
L 67.578125 0 
L 57.328125 0 
L 50.6875 18.703125 
L 17.828125 18.703125 
L 11.1875 0 
L 0.78125 0 
z
" id="DejaVuSans-65"/>
      <path d="M 18.109375 8.203125 
L 18.109375 -20.796875 
L 9.078125 -20.796875 
L 9.078125 54.6875 
L 18.109375 54.6875 
L 18.109375 46.390625 
Q 20.953125 51.265625 25.265625 53.625 
Q 29.59375 56 35.59375 56 
Q 45.5625 56 51.78125 48.09375 
Q 58.015625 40.1875 58.015625 27.296875 
Q 58.015625 14.40625 51.78125 6.484375 
Q 45.5625 -1.421875 35.59375 -1.421875 
Q 29.59375 -1.421875 25.265625 0.953125 
Q 20.953125 3.328125 18.109375 8.203125 
z
M 48.6875 27.296875 
Q 48.6875 37.203125 44.609375 42.84375 
Q 40.53125 48.484375 33.40625 48.484375 
Q 26.265625 48.484375 22.1875 42.84375 
Q 18.109375 37.203125 18.109375 27.296875 
Q 18.109375 17.390625 22.1875 11.75 
Q 26.265625 6.109375 33.40625 6.109375 
Q 40.53125 6.109375 44.609375 11.75 
Q 48.6875 17.390625 48.6875 27.296875 
z
" id="DejaVuSans-112"/>
      <path d="M 9.421875 75.984375 
L 18.40625 75.984375 
L 18.40625 0 
L 9.421875 0 
z
" id="DejaVuSans-108"/>
      <path d="M 18.3125 70.21875 
L 18.3125 54.6875 
L 36.8125 54.6875 
L 36.8125 47.703125 
L 18.3125 47.703125 
L 18.3125 18.015625 
Q 18.3125 11.328125 20.140625 9.421875 
Q 21.96875 7.515625 27.59375 7.515625 
L 36.8125 7.515625 
L 36.8125 0 
L 27.59375 0 
Q 17.1875 0 13.234375 3.875 
Q 9.28125 7.765625 9.28125 18.015625 
L 9.28125 47.703125 
L 2.6875 47.703125 
L 2.6875 54.6875 
L 9.28125 54.6875 
L 9.28125 70.21875 
z
" id="DejaVuSans-116"/>
      <path d="M 8.5 21.578125 
L 8.5 54.6875 
L 17.484375 54.6875 
L 17.484375 21.921875 
Q 17.484375 14.15625 20.5 10.265625 
Q 23.53125 6.390625 29.59375 6.390625 
Q 36.859375 6.390625 41.078125 11.03125 
Q 45.3125 15.671875 45.3125 23.6875 
L 45.3125 54.6875 
L 54.296875 54.6875 
L 54.296875 0 
L 45.3125 0 
L 45.3125 8.40625 
Q 42.046875 3.421875 37.71875 1 
Q 33.40625 -1.421875 27.6875 -1.421875 
Q 18.265625 -1.421875 13.375 4.4375 
Q 8.5 10.296875 8.5 21.578125 
z
M 31.109375 56 
z
" id="DejaVuSans-117"/>
      <path d="M 45.40625 46.390625 
L 45.40625 75.984375 
L 54.390625 75.984375 
L 54.390625 0 
L 45.40625 0 
L 45.40625 8.203125 
Q 42.578125 3.328125 38.25 0.953125 
Q 33.9375 -1.421875 27.875 -1.421875 
Q 17.96875 -1.421875 11.734375 6.484375 
Q 5.515625 14.40625 5.515625 27.296875 
Q 5.515625 40.1875 11.734375 48.09375 
Q 17.96875 56 27.875 56 
Q 33.9375 56 38.25 53.625 
Q 42.578125 51.265625 45.40625 46.390625 
z
M 14.796875 27.296875 
Q 14.796875 17.390625 18.875 11.75 
Q 22.953125 6.109375 30.078125 6.109375 
Q 37.203125 6.109375 41.296875 11.75 
Q 45.40625 17.390625 45.40625 27.296875 
Q 45.40625 37.203125 41.296875 42.84375 
Q 37.203125 48.484375 30.078125 48.484375 
Q 22.953125 48.484375 18.875 42.84375 
Q 14.796875 37.203125 14.796875 27.296875 
z
" id="DejaVuSans-100"/>
     </defs>
     <g transform="translate(26.178125 168.902656)rotate(-90)scale(0.1 -0.1)">
      <use xlink:href="#DejaVuSans-65"/>
      <use x="68.408203" xlink:href="#DejaVuSans-109"/>
      <use x="165.820312" xlink:href="#DejaVuSans-112"/>
      <use x="229.296875" xlink:href="#DejaVuSans-108"/>
      <use x="257.080078" xlink:href="#DejaVuSans-105"/>
      <use x="284.863281" xlink:href="#DejaVuSans-116"/>
      <use x="324.072266" xlink:href="#DejaVuSans-117"/>
      <use x="387.451172" xlink:href="#DejaVuSans-100"/>
      <use x="450.927734" xlink:href="#DejaVuSans-101"/>
     </g>
    </g>
   </g>
   <g id="line2d_19">
    <path clip-path="url(#p7c8d2e2a0f)" d="M -1 135.020394 
L 3.78 138.022744 
L 12.15 133.816941 
L 20.52 127.508237 
L 28.89 158.000306 
L 37.26 167.463362 
L 45.63 121.199533 
L 54 114.89083 
L 62.37 171.669167 
L 70.74 109.633577 
L 79.11 125.405336 
L 87.48 115.942279 
L 95.85 141.177096 
L 104.22 159.051757 
L 112.59 133.816941 
L 120.96 119.096632 
L 129.33 130.662589 
L 137.7 150.640152 
L 146.07 129.611139 
L 154.44 155.897405 
L 162.81 149.588701 
L 171.18 175.874969 
L 179.55 140.125646 
L 187.92 160.103209 
L 196.29 135.919843 
L 204.66 139.074195 
L 213.03 132.765491 
L 221.4 154.845955 
L 229.77 124.353886 
L 238.14 170.617715 
L 246.51 133.816941 
L 254.88 147.4858 
L 263.25 151.691603 
L 271.62 149.588701 
L 279.99 129.611139 
L 288.36 149.588701 
L 296.73 145.382899 
L 305.1 140.125646 
L 313.47 155.897405 
L 321.84 134.868392 
L 330.21 115.942279 
L 338.58 148.537251 
L 346.95 154.845955 
L 355.32 129.611139 
L 363.69 149.588701 
L 372.06 130.662589 
L 380.43 134.868392 
L 388.8 163.25756 
L 397.17 149.588701 
L 405.54 140.125646 
L 413.91 140.125646 
L 422.28 142.228547 
L 430.65 153.794505 
L 433 152.908874 
L 433 152.908874 
" style="fill:none;stroke:#1f77b4;stroke-linecap:square;stroke-width:0.5;"/>
   </g>
   <g id="line2d_20">
    <path clip-path="url(#p7c8d2e2a0f)" d="M -1 142.527526 
L 3.78 140.125646 
L 12.15 142.228547 
L 20.52 130.662589 
L 28.89 148.537251 
L 37.26 151.691603 
L 45.63 143.279997 
L 54 142.228547 
L 62.37 158.000306 
L 70.74 130.662589 
L 79.11 130.662589 
L 87.48 148.537251 
L 95.85 139.074195 
L 104.22 133.816941 
L 112.59 149.588701 
L 120.96 133.816941 
L 129.33 132.765491 
L 137.7 148.537251 
L 146.07 148.537251 
L 154.44 147.4858 
L 162.81 128.559688 
L 171.18 163.25756 
L 179.55 133.816941 
L 187.92 144.331448 
L 196.29 147.4858 
L 204.66 133.816941 
L 213.03 132.765491 
L 221.4 149.588701 
L 229.77 144.331448 
L 238.14 151.691603 
L 246.51 121.199533 
L 254.88 145.382899 
L 263.25 144.331448 
L 271.62 141.177096 
L 279.99 135.919843 
L 288.36 134.868392 
L 296.73 150.640152 
L 305.1 143.279997 
L 313.47 140.125646 
L 321.84 141.177096 
L 330.21 135.919843 
L 338.58 146.43435 
L 346.95 149.588701 
L 355.32 135.919843 
L 363.69 144.331448 
L 372.06 134.868392 
L 380.43 145.382899 
L 388.8 151.691603 
L 397.17 145.382899 
L 405.54 132.765491 
L 413.91 154.845955 
L 422.28 154.845955 
L 430.65 144.331448 
L 433 144.036238 
L 433 144.036238 
" style="fill:none;stroke:#ff7f0e;stroke-linecap:square;stroke-width:0.5;"/>
   </g>
   <g id="line2d_21">
    <path clip-path="url(#p7c8d2e2a0f)" d="M -1 142.831529 
L 3.78 146.43435 
L 12.15 154.845955 
L 20.52 134.868392 
L 28.89 139.074195 
L 37.26 146.43435 
L 45.63 139.074195 
L 54 142.228547 
L 62.37 149.588701 
L 70.74 141.177096 
L 79.11 125.405336 
L 87.48 145.382899 
L 95.85 170.617715 
L 104.22 128.559688 
L 112.59 151.691603 
L 120.96 129.611139 
L 129.33 135.919843 
L 137.7 159.051757 
L 146.07 140.125646 
L 154.44 148.537251 
L 162.81 132.765491 
L 171.18 139.074195 
L 179.55 151.691603 
L 187.92 140.125646 
L 196.29 144.331448 
L 204.66 133.816941 
L 213.03 149.588701 
L 221.4 132.765491 
L 229.77 136.971294 
L 238.14 149.588701 
L 246.51 129.611139 
L 254.88 148.537251 
L 263.25 133.816941 
L 271.62 142.228547 
L 279.99 141.177096 
L 288.36 133.816941 
L 296.73 167.463362 
L 305.1 144.331448 
L 321.84 140.125646 
L 330.21 136.971294 
L 338.58 155.897405 
L 346.95 132.765491 
L 355.32 144.331448 
L 363.69 141.177096 
L 372.06 142.228547 
L 380.43 142.228547 
L 388.8 146.43435 
L 397.17 142.228547 
L 405.54 130.662589 
L 413.91 159.051757 
L 422.28 158.000306 
L 430.65 139.074195 
L 433 140.550246 
L 433 140.550246 
" style="fill:none;stroke:#2ca02c;stroke-linecap:square;stroke-width:0.5;"/>
   </g>
   <g id="line2d_22">
    <path clip-path="url(#p7c8d2e2a0f)" d="M -1 144.782429 
L 3.78 145.382899 
L 12.15 141.177096 
L 20.52 140.125646 
L 28.89 156.948856 
L 37.26 140.125646 
L 45.63 131.71404 
L 54 146.43435 
L 62.37 151.691603 
L 70.74 132.765491 
L 79.11 136.971294 
L 87.48 152.743053 
L 95.85 147.4858 
L 104.22 133.816941 
L 112.59 141.177096 
L 120.96 139.074195 
L 129.33 139.074195 
L 137.7 145.382899 
L 146.07 146.43435 
L 154.44 142.228547 
L 162.81 133.816941 
L 171.18 144.331448 
L 179.55 139.074195 
L 187.92 138.022744 
L 196.29 142.228547 
L 204.66 134.868392 
L 213.03 148.537251 
L 221.4 138.022744 
L 229.77 135.919843 
L 238.14 142.228547 
L 246.51 132.765491 
L 254.88 141.177096 
L 263.25 143.279997 
L 271.62 139.074195 
L 279.99 140.125646 
L 288.36 144.331448 
L 296.73 147.4858 
L 305.1 142.228547 
L 313.47 139.074195 
L 321.84 147.4858 
L 330.21 144.331448 
L 338.58 143.279997 
L 346.95 139.074195 
L 355.32 138.022744 
L 363.69 149.588701 
L 372.06 132.765491 
L 380.43 144.331448 
L 388.8 141.177096 
L 397.17 146.43435 
L 405.54 144.331448 
L 413.91 158.000306 
L 422.28 146.43435 
L 430.65 139.074195 
L 433 142.321507 
L 433 142.321507 
" style="fill:none;stroke:#d62728;stroke-linecap:square;stroke-width:0.5;"/>
   </g>
   <g id="line2d_23">
    <path clip-path="url(#p7c8d2e2a0f)" d="M -1 144.929406 
L 3.78 140.125646 
L 12.15 139.074195 
L 20.52 142.228547 
L 28.89 148.537251 
L 37.26 139.074195 
L 45.63 143.279997 
L 62.37 145.382899 
L 70.74 136.971294 
L 79.11 141.177096 
L 87.48 144.331448 
L 95.85 140.125646 
L 104.22 143.279997 
L 112.59 142.228547 
L 120.96 140.125646 
L 129.33 141.177096 
L 137.7 145.382899 
L 146.07 147.4858 
L 154.44 138.022744 
L 162.81 136.971294 
L 171.18 146.43435 
L 179.55 133.816941 
L 187.92 143.279997 
L 196.29 139.074195 
L 204.66 140.125646 
L 213.03 150.640152 
L 221.4 142.228547 
L 229.77 145.382899 
L 238.14 142.228547 
L 254.88 142.228547 
L 263.25 144.331448 
L 271.62 145.382899 
L 279.99 141.177096 
L 288.36 140.125646 
L 296.73 145.382899 
L 305.1 143.279997 
L 313.47 138.022744 
L 321.84 148.537251 
L 330.21 141.177096 
L 338.58 136.971294 
L 346.95 143.279997 
L 355.32 146.43435 
L 363.69 141.177096 
L 372.06 142.228547 
L 380.43 139.074195 
L 397.17 143.279997 
L 405.54 146.43435 
L 413.91 138.022744 
L 422.28 153.794505 
L 430.65 135.919843 
L 433 137.395894 
L 433 137.395894 
" style="fill:none;stroke:#9467bd;stroke-linecap:square;stroke-width:0.5;"/>
   </g>
   <g id="line2d_24">
    <path clip-path="url(#p7c8d2e2a0f)" d="M -1 143.578976 
L 3.78 141.177096 
L 12.15 148.537251 
L 20.52 141.177096 
L 28.89 151.691603 
L 37.26 136.971294 
L 45.63 145.382899 
L 54 151.691603 
L 62.37 149.588701 
L 70.74 133.816941 
L 79.11 142.228547 
L 87.48 142.228547 
L 95.85 140.125646 
L 104.22 139.074195 
L 112.59 136.971294 
L 120.96 141.177096 
L 129.33 142.228547 
L 137.7 146.43435 
L 146.07 154.845955 
L 154.44 135.919843 
L 162.81 144.331448 
L 171.18 134.868392 
L 179.55 145.382899 
L 187.92 136.971294 
L 196.29 144.331448 
L 204.66 128.559688 
L 213.03 140.125646 
L 221.4 154.845955 
L 229.77 142.228547 
L 238.14 141.177096 
L 246.51 139.074195 
L 254.88 147.4858 
L 263.25 140.125646 
L 271.62 147.4858 
L 279.99 132.765491 
L 288.36 139.074195 
L 296.73 153.794505 
L 305.1 142.228547 
L 313.47 125.405336 
L 321.84 160.103209 
L 330.21 142.228547 
L 338.58 141.177096 
L 346.95 145.382899 
L 355.32 136.971294 
L 363.69 143.279997 
L 372.06 145.382899 
L 380.43 140.125646 
L 388.8 139.074195 
L 397.17 139.074195 
L 405.54 140.125646 
L 413.91 154.845955 
L 422.28 143.279997 
L 430.65 134.868392 
L 433 139.001334 
L 433 139.001334 
" style="fill:none;stroke:#8c564b;stroke-linecap:square;stroke-width:0.5;"/>
   </g>
   <g id="line2d_25">
    <path clip-path="url(#p7c8d2e2a0f)" d="M -1 146.429325 
L 3.78 138.022744 
L 12.15 166.411913 
L 20.52 147.4858 
L 28.89 202.161237 
L 37.26 93.861815 
L 45.63 166.411913 
L 54 140.125646 
L 62.37 241.064906 
L 70.74 115.942279 
L 79.11 152.743053 
L 87.48 131.71404 
L 95.85 83.347311 
L 104.22 136.971294 
L 112.59 119.096632 
L 120.96 150.640152 
L 129.33 145.382899 
L 137.7 154.845955 
L 146.07 172.720616 
L 154.44 124.353886 
L 162.81 132.765491 
L 171.18 133.816941 
L 179.55 97.016168 
L 187.92 135.919843 
L 196.29 152.743053 
L 204.66 109.633577 
L 213.03 138.022744 
L 221.4 175.874969 
L 229.77 145.382899 
L 238.14 135.919843 
L 246.51 116.993731 
L 254.88 130.662589 
L 263.25 155.897405 
L 271.62 142.228547 
L 279.99 130.662589 
L 288.36 98.06762 
L 296.73 152.743053 
L 305.1 123.302435 
L 313.47 94.913267 
L 321.84 238.962008 
L 330.21 135.919843 
L 338.58 141.177096 
L 346.95 165.360461 
L 355.32 139.074195 
L 363.69 152.743053 
L 372.06 155.897405 
L 380.43 146.43435 
L 388.8 128.559688 
L 397.17 123.302435 
L 405.54 131.71404 
L 413.91 227.396048 
L 422.28 125.405336 
L 430.65 124.353886 
L 433 146.199439 
L 433 146.199439 
" style="fill:none;stroke:#e377c2;stroke-linecap:square;stroke-width:0.5;"/>
   </g>
   <g id="line2d_26">
    <path clip-path="url(#p7c8d2e2a0f)" d="M -1 141.625564 
L 3.78 138.022744 
L 12.15 130.662589 
L 20.52 134.868392 
L 28.89 159.051757 
L 37.26 146.43435 
L 45.63 130.662589 
L 54 154.845955 
L 62.37 172.720616 
L 70.74 123.302435 
L 79.11 134.868392 
L 87.48 130.662589 
L 95.85 135.919843 
L 104.22 154.845955 
L 112.59 141.177096 
L 120.96 142.228547 
L 129.33 138.022744 
L 137.7 151.691603 
L 146.07 158.000306 
L 154.44 136.971294 
L 162.81 149.588701 
L 171.18 108.582125 
L 179.55 145.382899 
L 187.92 145.382899 
L 196.29 139.074195 
L 204.66 138.022744 
L 213.03 132.765491 
L 221.4 155.897405 
L 229.77 129.611139 
L 238.14 148.537251 
L 246.51 134.868392 
L 254.88 151.691603 
L 263.25 144.331448 
L 271.62 144.331448 
L 279.99 130.662589 
L 288.36 126.456787 
L 296.73 156.948856 
L 305.1 144.331448 
L 313.47 128.559688 
L 321.84 172.720616 
L 330.21 147.4858 
L 338.58 151.691603 
L 346.95 148.537251 
L 355.32 133.816941 
L 363.69 140.125646 
L 372.06 141.177096 
L 380.43 144.331448 
L 388.8 146.43435 
L 397.17 135.919843 
L 405.54 129.611139 
L 413.91 177.97787 
L 422.28 128.559688 
L 430.65 145.382899 
L 433 150.401472 
L 433 150.401472 
" style="fill:none;stroke:#7f7f7f;stroke-linecap:square;stroke-width:0.5;"/>
   </g>
   <g id="patch_3">
    <path d="M 54 252 
L 54 34.56 
" style="fill:none;stroke:#000000;stroke-linecap:square;stroke-linejoin:miter;stroke-width:0.8;"/>
   </g>
   <g id="patch_4">
    <path d="M 388.8 252 
L 388.8 34.56 
" style="fill:none;stroke:#000000;stroke-linecap:square;stroke-linejoin:miter;stroke-width:0.8;"/>
   </g>
   <g id="patch_5">
    <path d="M 54 252 
L 388.8 252 
" style="fill:none;stroke:#000000;stroke-linecap:square;stroke-linejoin:miter;stroke-width:0.8;"/>
   </g>
   <g id="patch_6">
    <path d="M 54 34.56 
L 388.8 34.56 
" style="fill:none;stroke:#000000;stroke-linecap:square;stroke-linejoin:miter;stroke-width:0.8;"/>
   </g>
   <g id="text_21">
    <!-- Raw Data -->
    <defs>
     <path d="M 44.390625 34.1875 
Q 47.5625 33.109375 50.5625 29.59375 
Q 53.5625 26.078125 56.59375 19.921875 
L 66.609375 0 
L 56 0 
L 46.6875 18.703125 
Q 43.0625 26.03125 39.671875 28.421875 
Q 36.28125 30.8125 30.421875 30.8125 
L 19.671875 30.8125 
L 19.671875 0 
L 9.8125 0 
L 9.8125 72.90625 
L 32.078125 72.90625 
Q 44.578125 72.90625 50.734375 67.671875 
Q 56.890625 62.453125 56.890625 51.90625 
Q 56.890625 45.015625 53.6875 40.46875 
Q 50.484375 35.9375 44.390625 34.1875 
z
M 19.671875 64.796875 
L 19.671875 38.921875 
L 32.078125 38.921875 
Q 39.203125 38.921875 42.84375 42.21875 
Q 46.484375 45.515625 46.484375 51.90625 
Q 46.484375 58.296875 42.84375 61.546875 
Q 39.203125 64.796875 32.078125 64.796875 
z
" id="DejaVuSans-82"/>
     <path d="M 34.28125 27.484375 
Q 23.390625 27.484375 19.1875 25 
Q 14.984375 22.515625 14.984375 16.5 
Q 14.984375 11.71875 18.140625 8.90625 
Q 21.296875 6.109375 26.703125 6.109375 
Q 34.1875 6.109375 38.703125 11.40625 
Q 43.21875 16.703125 43.21875 25.484375 
L 43.21875 27.484375 
z
M 52.203125 31.203125 
L 52.203125 0 
L 43.21875 0 
L 43.21875 8.296875 
Q 40.140625 3.328125 35.546875 0.953125 
Q 30.953125 -1.421875 24.3125 -1.421875 
Q 15.921875 -1.421875 10.953125 3.296875 
Q 6 8.015625 6 15.921875 
Q 6 25.140625 12.171875 29.828125 
Q 18.359375 34.515625 30.609375 34.515625 
L 43.21875 34.515625 
L 43.21875 35.40625 
Q 43.21875 41.609375 39.140625 45 
Q 35.0625 48.390625 27.6875 48.390625 
Q 23 48.390625 18.546875 47.265625 
Q 14.109375 46.140625 10.015625 43.890625 
L 10.015625 52.203125 
Q 14.9375 54.109375 19.578125 55.046875 
Q 24.21875 56 28.609375 56 
Q 40.484375 56 46.34375 49.84375 
Q 52.203125 43.703125 52.203125 31.203125 
z
" id="DejaVuSans-97"/>
     <path d="M 4.203125 54.6875 
L 13.1875 54.6875 
L 24.421875 12.015625 
L 35.59375 54.6875 
L 46.1875 54.6875 
L 57.421875 12.015625 
L 68.609375 54.6875 
L 77.59375 54.6875 
L 63.28125 0 
L 52.6875 0 
L 40.921875 44.828125 
L 29.109375 0 
L 18.5 0 
z
" id="DejaVuSans-119"/>
     <path id="DejaVuSans-32"/>
     <path d="M 19.671875 64.796875 
L 19.671875 8.109375 
L 31.59375 8.109375 
Q 46.6875 8.109375 53.6875 14.9375 
Q 60.6875 21.78125 60.6875 36.53125 
Q 60.6875 51.171875 53.6875 57.984375 
Q 46.6875 64.796875 31.59375 64.796875 
z
M 9.8125 72.90625 
L 30.078125 72.90625 
Q 51.265625 72.90625 61.171875 64.09375 
Q 71.09375 55.28125 71.09375 36.53125 
Q 71.09375 17.671875 61.125 8.828125 
Q 51.171875 0 30.078125 0 
L 9.8125 0 
z
" id="DejaVuSans-68"/>
    </defs>
    <g transform="translate(192.549375 28.56)scale(0.12 -0.12)">
     <use xlink:href="#DejaVuSans-82"/>
     <use x="67.232422" xlink:href="#DejaVuSans-97"/>
     <use x="128.511719" xlink:href="#DejaVuSans-119"/>
     <use x="210.298828" xlink:href="#DejaVuSans-32"/>
     <use x="242.085938" xlink:href="#DejaVuSans-68"/>
     <use x="319.087891" xlink:href="#DejaVuSans-97"/>
     <use x="380.367188" xlink:href="#DejaVuSans-116"/>
     <use x="419.576172" xlink:href="#DejaVuSans-97"/>
    </g>
   </g>
   <g id="legend_1">
    <g id="patch_7">
     <path d="M 61 247 
L 108.903125 247 
Q 110.903125 247 110.903125 245 
L 110.903125 128.575 
Q 110.903125 126.575 108.903125 126.575 
L 61 126.575 
Q 59 126.575 59 128.575 
L 59 245 
Q 59 247 61 247 
z
" style="fill:#ffffff;opacity:0.8;stroke:#cccccc;stroke-linejoin:miter;"/>
    </g>
    <g id="line2d_27">
     <path d="M 63 134.673438 
L 83 134.673438 
" style="fill:none;stroke:#1f77b4;stroke-linecap:square;stroke-width:0.5;"/>
    </g>
    <g id="line2d_28"/>
    <g id="text_22">
     <!-- 0.0 -->
     <defs>
      <path d="M 10.6875 12.40625 
L 21 12.40625 
L 21 0 
L 10.6875 0 
z
" id="DejaVuSans-46"/>
     </defs>
     <g transform="translate(91 138.173438)scale(0.1 -0.1)">
      <use xlink:href="#DejaVuSans-48"/>
      <use x="63.623047" xlink:href="#DejaVuSans-46"/>
      <use x="95.410156" xlink:href="#DejaVuSans-48"/>
     </g>
    </g>
    <g id="line2d_29">
     <path d="M 63 149.351563 
L 83 149.351563 
" style="fill:none;stroke:#ff7f0e;stroke-linecap:square;stroke-width:0.5;"/>
    </g>
    <g id="line2d_30"/>
    <g id="text_23">
     <!-- 1.0 -->
     <defs>
      <path d="M 12.40625 8.296875 
L 28.515625 8.296875 
L 28.515625 63.921875 
L 10.984375 60.40625 
L 10.984375 69.390625 
L 28.421875 72.90625 
L 38.28125 72.90625 
L 38.28125 8.296875 
L 54.390625 8.296875 
L 54.390625 0 
L 12.40625 0 
z
" id="DejaVuSans-49"/>
     </defs>
     <g transform="translate(91 152.851563)scale(0.1 -0.1)">
      <use xlink:href="#DejaVuSans-49"/>
      <use x="63.623047" xlink:href="#DejaVuSans-46"/>
      <use x="95.410156" xlink:href="#DejaVuSans-48"/>
     </g>
    </g>
    <g id="line2d_31">
     <path d="M 63 164.029688 
L 83 164.029688 
" style="fill:none;stroke:#2ca02c;stroke-linecap:square;stroke-width:0.5;"/>
    </g>
    <g id="line2d_32"/>
    <g id="text_24">
     <!-- 2.0 -->
     <g transform="translate(91 167.529688)scale(0.1 -0.1)">
      <use xlink:href="#DejaVuSans-50"/>
      <use x="63.623047" xlink:href="#DejaVuSans-46"/>
      <use x="95.410156" xlink:href="#DejaVuSans-48"/>
     </g>
    </g>
    <g id="line2d_33">
     <path d="M 63 178.707813 
L 83 178.707813 
" style="fill:none;stroke:#d62728;stroke-linecap:square;stroke-width:0.5;"/>
    </g>
    <g id="line2d_34"/>
    <g id="text_25">
     <!-- 3.0 -->
     <defs>
      <path d="M 40.578125 39.3125 
Q 47.65625 37.796875 51.625 33 
Q 55.609375 28.21875 55.609375 21.1875 
Q 55.609375 10.40625 48.1875 4.484375 
Q 40.765625 -1.421875 27.09375 -1.421875 
Q 22.515625 -1.421875 17.65625 -0.515625 
Q 12.796875 0.390625 7.625 2.203125 
L 7.625 11.71875 
Q 11.71875 9.328125 16.59375 8.109375 
Q 21.484375 6.890625 26.8125 6.890625 
Q 36.078125 6.890625 40.9375 10.546875 
Q 45.796875 14.203125 45.796875 21.1875 
Q 45.796875 27.640625 41.28125 31.265625 
Q 36.765625 34.90625 28.71875 34.90625 
L 20.21875 34.90625 
L 20.21875 43.015625 
L 29.109375 43.015625 
Q 36.375 43.015625 40.234375 45.921875 
Q 44.09375 48.828125 44.09375 54.296875 
Q 44.09375 59.90625 40.109375 62.90625 
Q 36.140625 65.921875 28.71875 65.921875 
Q 24.65625 65.921875 20.015625 65.03125 
Q 15.375 64.15625 9.8125 62.3125 
L 9.8125 71.09375 
Q 15.4375 72.65625 20.34375 73.4375 
Q 25.25 74.21875 29.59375 74.21875 
Q 40.828125 74.21875 47.359375 69.109375 
Q 53.90625 64.015625 53.90625 55.328125 
Q 53.90625 49.265625 50.4375 45.09375 
Q 46.96875 40.921875 40.578125 39.3125 
z
" id="DejaVuSans-51"/>
     </defs>
     <g transform="translate(91 182.207813)scale(0.1 -0.1)">
      <use xlink:href="#DejaVuSans-51"/>
      <use x="63.623047" xlink:href="#DejaVuSans-46"/>
      <use x="95.410156" xlink:href="#DejaVuSans-48"/>
     </g>
    </g>
    <g id="line2d_35">
     <path d="M 63 193.385938 
L 83 193.385938 
" style="fill:none;stroke:#9467bd;stroke-linecap:square;stroke-width:0.5;"/>
    </g>
    <g id="line2d_36"/>
    <g id="text_26">
     <!-- 4.0 -->
     <g transform="translate(91 196.885938)scale(0.1 -0.1)">
      <use xlink:href="#DejaVuSans-52"/>
      <use x="63.623047" xlink:href="#DejaVuSans-46"/>
      <use x="95.410156" xlink:href="#DejaVuSans-48"/>
     </g>
    </g>
    <g id="line2d_37">
     <path d="M 63 208.064063 
L 83 208.064063 
" style="fill:none;stroke:#8c564b;stroke-linecap:square;stroke-width:0.5;"/>
    </g>
    <g id="line2d_38"/>
    <g id="text_27">
     <!-- 5.0 -->
     <g transform="translate(91 211.564063)scale(0.1 -0.1)">
      <use xlink:href="#DejaVuSans-53"/>
      <use x="63.623047" xlink:href="#DejaVuSans-46"/>
      <use x="95.410156" xlink:href="#DejaVuSans-48"/>
     </g>
    </g>
    <g id="line2d_39">
     <path d="M 63 222.742188 
L 83 222.742188 
" style="fill:none;stroke:#e377c2;stroke-linecap:square;stroke-width:0.5;"/>
    </g>
    <g id="line2d_40"/>
    <g id="text_28">
     <!-- 6.0 -->
     <g transform="translate(91 226.242188)scale(0.1 -0.1)">
      <use xlink:href="#DejaVuSans-54"/>
      <use x="63.623047" xlink:href="#DejaVuSans-46"/>
      <use x="95.410156" xlink:href="#DejaVuSans-48"/>
     </g>
    </g>
    <g id="line2d_41">
     <path d="M 63 237.420313 
L 83 237.420313 
" style="fill:none;stroke:#7f7f7f;stroke-linecap:square;stroke-width:0.5;"/>
    </g>
    <g id="line2d_42"/>
    <g id="text_29">
     <!-- 7.0 -->
     <g transform="translate(91 240.920313)scale(0.1 -0.1)">
      <use xlink:href="#DejaVuSans-55"/>
      <use x="63.623047" xlink:href="#DejaVuSans-46"/>
      <use x="95.410156" xlink:href="#DejaVuSans-48"/>
     </g>
    </g>
   </g>
  </g>
 </g>
 <defs>
  <clipPath id="p7c8d2e2a0f">
   <rect height="217.44" width="334.8" x="54" y="34.56"/>
  </clipPath>
 </defs>
</svg>
