<?xml version="1.0" encoding="utf-8" standalone="no"?>
<!DOCTYPE svg PUBLIC "-//W3C//DTD SVG 1.1//EN"
  "http://www.w3.org/Graphics/SVG/1.1/DTD/svg11.dtd">
<!-- Created with matplotlib (https://matplotlib.org/) -->
<svg height="345.6pt" version="1.1" viewBox="0 0 460.8 345.6" width="460.8pt" xmlns="http://www.w3.org/2000/svg" xmlns:xlink="http://www.w3.org/1999/xlink">
 <defs>
  <style type="text/css">
*{stroke-linecap:butt;stroke-linejoin:round;}
  </style>
 </defs>
 <g id="figure_1">
  <g id="patch_1">
   <path d="M 0 345.6 
L 460.8 345.6 
L 460.8 0 
L 0 0 
z
" style="fill:#ffffff;"/>
  </g>
  <g id="axes_1">
   <g id="patch_2">
    <path d="M 57.6 307.584 
L 414.72 307.584 
L 414.72 41.472 
L 57.6 41.472 
z
" style="fill:#ffffff;"/>
   </g>
   <g id="matplotlib.axis_1">
    <g id="xtick_1">
     <g id="line2d_1">
      <defs>
       <path d="M 0 0 
L 0 3.5 
" id="m9cf88dca76" style="stroke:#000000;stroke-width:0.8;"/>
      </defs>
      <g>
       <use style="stroke:#000000;stroke-width:0.8;" x="57.6" xlink:href="#m9cf88dca76" y="307.584"/>
      </g>
     </g>
     <g id="text_1">
      <!-- 0.0 -->
      <defs>
       <path d="M 31.78125 66.40625 
Q 24.171875 66.40625 20.328125 58.90625 
Q 16.5 51.421875 16.5 36.375 
Q 16.5 21.390625 20.328125 13.890625 
Q 24.171875 6.390625 31.78125 6.390625 
Q 39.453125 6.390625 43.28125 13.890625 
Q 47.125 21.390625 47.125 36.375 
Q 47.125 51.421875 43.28125 58.90625 
Q 39.453125 66.40625 31.78125 66.40625 
z
M 31.78125 74.21875 
Q 44.046875 74.21875 50.515625 64.515625 
Q 56.984375 54.828125 56.984375 36.375 
Q 56.984375 17.96875 50.515625 8.265625 
Q 44.046875 -1.421875 31.78125 -1.421875 
Q 19.53125 -1.421875 13.0625 8.265625 
Q 6.59375 17.96875 6.59375 36.375 
Q 6.59375 54.828125 13.0625 64.515625 
Q 19.53125 74.21875 31.78125 74.21875 
z
" id="DejaVuSans-48"/>
       <path d="M 10.6875 12.40625 
L 21 12.40625 
L 21 0 
L 10.6875 0 
z
" id="DejaVuSans-46"/>
      </defs>
      <g transform="translate(44.8775 326.7415)scale(0.16 -0.16)">
       <use xlink:href="#DejaVuSans-48"/>
       <use x="63.623047" xlink:href="#DejaVuSans-46"/>
       <use x="95.410156" xlink:href="#DejaVuSans-48"/>
      </g>
     </g>
    </g>
    <g id="xtick_2">
     <g id="line2d_2">
      <g>
       <use style="stroke:#000000;stroke-width:0.8;" x="129.024" xlink:href="#m9cf88dca76" y="307.584"/>
      </g>
     </g>
     <g id="text_2">
      <!-- 0.2 -->
      <defs>
       <path d="M 19.1875 8.296875 
L 53.609375 8.296875 
L 53.609375 0 
L 7.328125 0 
L 7.328125 8.296875 
Q 12.9375 14.109375 22.625 23.890625 
Q 32.328125 33.6875 34.8125 36.53125 
Q 39.546875 41.84375 41.421875 45.53125 
Q 43.3125 49.21875 43.3125 52.78125 
Q 43.3125 58.59375 39.234375 62.25 
Q 35.15625 65.921875 28.609375 65.921875 
Q 23.96875 65.921875 18.8125 64.3125 
Q 13.671875 62.703125 7.8125 59.421875 
L 7.8125 69.390625 
Q 13.765625 71.78125 18.9375 73 
Q 24.125 74.21875 28.421875 74.21875 
Q 39.75 74.21875 46.484375 68.546875 
Q 53.21875 62.890625 53.21875 53.421875 
Q 53.21875 48.921875 51.53125 44.890625 
Q 49.859375 40.875 45.40625 35.40625 
Q 44.1875 33.984375 37.640625 27.21875 
Q 31.109375 20.453125 19.1875 8.296875 
z
" id="DejaVuSans-50"/>
      </defs>
      <g transform="translate(116.3015 326.7415)scale(0.16 -0.16)">
       <use xlink:href="#DejaVuSans-48"/>
       <use x="63.623047" xlink:href="#DejaVuSans-46"/>
       <use x="95.410156" xlink:href="#DejaVuSans-50"/>
      </g>
     </g>
    </g>
    <g id="xtick_3">
     <g id="line2d_3">
      <g>
       <use style="stroke:#000000;stroke-width:0.8;" x="200.448" xlink:href="#m9cf88dca76" y="307.584"/>
      </g>
     </g>
     <g id="text_3">
      <!-- 0.4 -->
      <defs>
       <path d="M 37.796875 64.3125 
L 12.890625 25.390625 
L 37.796875 25.390625 
z
M 35.203125 72.90625 
L 47.609375 72.90625 
L 47.609375 25.390625 
L 58.015625 25.390625 
L 58.015625 17.1875 
L 47.609375 17.1875 
L 47.609375 0 
L 37.796875 0 
L 37.796875 17.1875 
L 4.890625 17.1875 
L 4.890625 26.703125 
z
" id="DejaVuSans-52"/>
      </defs>
      <g transform="translate(187.7255 326.7415)scale(0.16 -0.16)">
       <use xlink:href="#DejaVuSans-48"/>
       <use x="63.623047" xlink:href="#DejaVuSans-46"/>
       <use x="95.410156" xlink:href="#DejaVuSans-52"/>
      </g>
     </g>
    </g>
    <g id="xtick_4">
     <g id="line2d_4">
      <g>
       <use style="stroke:#000000;stroke-width:0.8;" x="271.872" xlink:href="#m9cf88dca76" y="307.584"/>
      </g>
     </g>
     <g id="text_4">
      <!-- 0.6 -->
      <defs>
       <path d="M 33.015625 40.375 
Q 26.375 40.375 22.484375 35.828125 
Q 18.609375 31.296875 18.609375 23.390625 
Q 18.609375 15.53125 22.484375 10.953125 
Q 26.375 6.390625 33.015625 6.390625 
Q 39.65625 6.390625 43.53125 10.953125 
Q 47.40625 15.53125 47.40625 23.390625 
Q 47.40625 31.296875 43.53125 35.828125 
Q 39.65625 40.375 33.015625 40.375 
z
M 52.59375 71.296875 
L 52.59375 62.3125 
Q 48.875 64.0625 45.09375 64.984375 
Q 41.3125 65.921875 37.59375 65.921875 
Q 27.828125 65.921875 22.671875 59.328125 
Q 17.53125 52.734375 16.796875 39.40625 
Q 19.671875 43.65625 24.015625 45.921875 
Q 28.375 48.1875 33.59375 48.1875 
Q 44.578125 48.1875 50.953125 41.515625 
Q 57.328125 34.859375 57.328125 23.390625 
Q 57.328125 12.15625 50.6875 5.359375 
Q 44.046875 -1.421875 33.015625 -1.421875 
Q 20.359375 -1.421875 13.671875 8.265625 
Q 6.984375 17.96875 6.984375 36.375 
Q 6.984375 53.65625 15.1875 63.9375 
Q 23.390625 74.21875 37.203125 74.21875 
Q 40.921875 74.21875 44.703125 73.484375 
Q 48.484375 72.75 52.59375 71.296875 
z
" id="DejaVuSans-54"/>
      </defs>
      <g transform="translate(259.1495 326.7415)scale(0.16 -0.16)">
       <use xlink:href="#DejaVuSans-48"/>
       <use x="63.623047" xlink:href="#DejaVuSans-46"/>
       <use x="95.410156" xlink:href="#DejaVuSans-54"/>
      </g>
     </g>
    </g>
    <g id="xtick_5">
     <g id="line2d_5">
      <g>
       <use style="stroke:#000000;stroke-width:0.8;" x="343.296" xlink:href="#m9cf88dca76" y="307.584"/>
      </g>
     </g>
     <g id="text_5">
      <!-- 0.8 -->
      <defs>
       <path d="M 31.78125 34.625 
Q 24.75 34.625 20.71875 30.859375 
Q 16.703125 27.09375 16.703125 20.515625 
Q 16.703125 13.921875 20.71875 10.15625 
Q 24.75 6.390625 31.78125 6.390625 
Q 38.8125 6.390625 42.859375 10.171875 
Q 46.921875 13.96875 46.921875 20.515625 
Q 46.921875 27.09375 42.890625 30.859375 
Q 38.875 34.625 31.78125 34.625 
z
M 21.921875 38.8125 
Q 15.578125 40.375 12.03125 44.71875 
Q 8.5 49.078125 8.5 55.328125 
Q 8.5 64.0625 14.71875 69.140625 
Q 20.953125 74.21875 31.78125 74.21875 
Q 42.671875 74.21875 48.875 69.140625 
Q 55.078125 64.0625 55.078125 55.328125 
Q 55.078125 49.078125 51.53125 44.71875 
Q 48 40.375 41.703125 38.8125 
Q 48.828125 37.15625 52.796875 32.3125 
Q 56.78125 27.484375 56.78125 20.515625 
Q 56.78125 9.90625 50.3125 4.234375 
Q 43.84375 -1.421875 31.78125 -1.421875 
Q 19.734375 -1.421875 13.25 4.234375 
Q 6.78125 9.90625 6.78125 20.515625 
Q 6.78125 27.484375 10.78125 32.3125 
Q 14.796875 37.15625 21.921875 38.8125 
z
M 18.3125 54.390625 
Q 18.3125 48.734375 21.84375 45.5625 
Q 25.390625 42.390625 31.78125 42.390625 
Q 38.140625 42.390625 41.71875 45.5625 
Q 45.3125 48.734375 45.3125 54.390625 
Q 45.3125 60.0625 41.71875 63.234375 
Q 38.140625 66.40625 31.78125 66.40625 
Q 25.390625 66.40625 21.84375 63.234375 
Q 18.3125 60.0625 18.3125 54.390625 
z
" id="DejaVuSans-56"/>
      </defs>
      <g transform="translate(330.5735 326.7415)scale(0.16 -0.16)">
       <use xlink:href="#DejaVuSans-48"/>
       <use x="63.623047" xlink:href="#DejaVuSans-46"/>
       <use x="95.410156" xlink:href="#DejaVuSans-56"/>
      </g>
     </g>
    </g>
    <g id="xtick_6">
     <g id="line2d_6">
      <g>
       <use style="stroke:#000000;stroke-width:0.8;" x="414.72" xlink:href="#m9cf88dca76" y="307.584"/>
      </g>
     </g>
     <g id="text_6">
      <!-- 1.0 -->
      <defs>
       <path d="M 12.40625 8.296875 
L 28.515625 8.296875 
L 28.515625 63.921875 
L 10.984375 60.40625 
L 10.984375 69.390625 
L 28.421875 72.90625 
L 38.28125 72.90625 
L 38.28125 8.296875 
L 54.390625 8.296875 
L 54.390625 0 
L 12.40625 0 
z
" id="DejaVuSans-49"/>
      </defs>
      <g transform="translate(401.9975 326.7415)scale(0.16 -0.16)">
       <use xlink:href="#DejaVuSans-49"/>
       <use x="63.623047" xlink:href="#DejaVuSans-46"/>
       <use x="95.410156" xlink:href="#DejaVuSans-48"/>
      </g>
     </g>
    </g>
    <g id="text_7">
     <!-- False Positive Rate -->
     <defs>
      <path d="M 9.8125 72.90625 
L 51.703125 72.90625 
L 51.703125 64.59375 
L 19.671875 64.59375 
L 19.671875 43.109375 
L 48.578125 43.109375 
L 48.578125 34.8125 
L 19.671875 34.8125 
L 19.671875 0 
L 9.8125 0 
z
" id="DejaVuSans-70"/>
      <path d="M 34.28125 27.484375 
Q 23.390625 27.484375 19.1875 25 
Q 14.984375 22.515625 14.984375 16.5 
Q 14.984375 11.71875 18.140625 8.90625 
Q 21.296875 6.109375 26.703125 6.109375 
Q 34.1875 6.109375 38.703125 11.40625 
Q 43.21875 16.703125 43.21875 25.484375 
L 43.21875 27.484375 
z
M 52.203125 31.203125 
L 52.203125 0 
L 43.21875 0 
L 43.21875 8.296875 
Q 40.140625 3.328125 35.546875 0.953125 
Q 30.953125 -1.421875 24.3125 -1.421875 
Q 15.921875 -1.421875 10.953125 3.296875 
Q 6 8.015625 6 15.921875 
Q 6 25.140625 12.171875 29.828125 
Q 18.359375 34.515625 30.609375 34.515625 
L 43.21875 34.515625 
L 43.21875 35.40625 
Q 43.21875 41.609375 39.140625 45 
Q 35.0625 48.390625 27.6875 48.390625 
Q 23 48.390625 18.546875 47.265625 
Q 14.109375 46.140625 10.015625 43.890625 
L 10.015625 52.203125 
Q 14.9375 54.109375 19.578125 55.046875 
Q 24.21875 56 28.609375 56 
Q 40.484375 56 46.34375 49.84375 
Q 52.203125 43.703125 52.203125 31.203125 
z
" id="DejaVuSans-97"/>
      <path d="M 9.421875 75.984375 
L 18.40625 75.984375 
L 18.40625 0 
L 9.421875 0 
z
" id="DejaVuSans-108"/>
      <path d="M 44.28125 53.078125 
L 44.28125 44.578125 
Q 40.484375 46.53125 36.375 47.5 
Q 32.28125 48.484375 27.875 48.484375 
Q 21.1875 48.484375 17.84375 46.4375 
Q 14.5 44.390625 14.5 40.28125 
Q 14.5 37.15625 16.890625 35.375 
Q 19.28125 33.59375 26.515625 31.984375 
L 29.59375 31.296875 
Q 39.15625 29.25 43.1875 25.515625 
Q 47.21875 21.78125 47.21875 15.09375 
Q 47.21875 7.46875 41.1875 3.015625 
Q 35.15625 -1.421875 24.609375 -1.421875 
Q 20.21875 -1.421875 15.453125 -0.5625 
Q 10.6875 0.296875 5.421875 2 
L 5.421875 11.28125 
Q 10.40625 8.6875 15.234375 7.390625 
Q 20.0625 6.109375 24.8125 6.109375 
Q 31.15625 6.109375 34.5625 8.28125 
Q 37.984375 10.453125 37.984375 14.40625 
Q 37.984375 18.0625 35.515625 20.015625 
Q 33.0625 21.96875 24.703125 23.78125 
L 21.578125 24.515625 
Q 13.234375 26.265625 9.515625 29.90625 
Q 5.8125 33.546875 5.8125 39.890625 
Q 5.8125 47.609375 11.28125 51.796875 
Q 16.75 56 26.8125 56 
Q 31.78125 56 36.171875 55.265625 
Q 40.578125 54.546875 44.28125 53.078125 
z
" id="DejaVuSans-115"/>
      <path d="M 56.203125 29.59375 
L 56.203125 25.203125 
L 14.890625 25.203125 
Q 15.484375 15.921875 20.484375 11.0625 
Q 25.484375 6.203125 34.421875 6.203125 
Q 39.59375 6.203125 44.453125 7.46875 
Q 49.3125 8.734375 54.109375 11.28125 
L 54.109375 2.78125 
Q 49.265625 0.734375 44.1875 -0.34375 
Q 39.109375 -1.421875 33.890625 -1.421875 
Q 20.796875 -1.421875 13.15625 6.1875 
Q 5.515625 13.8125 5.515625 26.8125 
Q 5.515625 40.234375 12.765625 48.109375 
Q 20.015625 56 32.328125 56 
Q 43.359375 56 49.78125 48.890625 
Q 56.203125 41.796875 56.203125 29.59375 
z
M 47.21875 32.234375 
Q 47.125 39.59375 43.09375 43.984375 
Q 39.0625 48.390625 32.421875 48.390625 
Q 24.90625 48.390625 20.390625 44.140625 
Q 15.875 39.890625 15.1875 32.171875 
z
" id="DejaVuSans-101"/>
      <path id="DejaVuSans-32"/>
      <path d="M 19.671875 64.796875 
L 19.671875 37.40625 
L 32.078125 37.40625 
Q 38.96875 37.40625 42.71875 40.96875 
Q 46.484375 44.53125 46.484375 51.125 
Q 46.484375 57.671875 42.71875 61.234375 
Q 38.96875 64.796875 32.078125 64.796875 
z
M 9.8125 72.90625 
L 32.078125 72.90625 
Q 44.34375 72.90625 50.609375 67.359375 
Q 56.890625 61.8125 56.890625 51.125 
Q 56.890625 40.328125 50.609375 34.8125 
Q 44.34375 29.296875 32.078125 29.296875 
L 19.671875 29.296875 
L 19.671875 0 
L 9.8125 0 
z
" id="DejaVuSans-80"/>
      <path d="M 30.609375 48.390625 
Q 23.390625 48.390625 19.1875 42.75 
Q 14.984375 37.109375 14.984375 27.296875 
Q 14.984375 17.484375 19.15625 11.84375 
Q 23.34375 6.203125 30.609375 6.203125 
Q 37.796875 6.203125 41.984375 11.859375 
Q 46.1875 17.53125 46.1875 27.296875 
Q 46.1875 37.015625 41.984375 42.703125 
Q 37.796875 48.390625 30.609375 48.390625 
z
M 30.609375 56 
Q 42.328125 56 49.015625 48.375 
Q 55.71875 40.765625 55.71875 27.296875 
Q 55.71875 13.875 49.015625 6.21875 
Q 42.328125 -1.421875 30.609375 -1.421875 
Q 18.84375 -1.421875 12.171875 6.21875 
Q 5.515625 13.875 5.515625 27.296875 
Q 5.515625 40.765625 12.171875 48.375 
Q 18.84375 56 30.609375 56 
z
" id="DejaVuSans-111"/>
      <path d="M 9.421875 54.6875 
L 18.40625 54.6875 
L 18.40625 0 
L 9.421875 0 
z
M 9.421875 75.984375 
L 18.40625 75.984375 
L 18.40625 64.59375 
L 9.421875 64.59375 
z
" id="DejaVuSans-105"/>
      <path d="M 18.3125 70.21875 
L 18.3125 54.6875 
L 36.8125 54.6875 
L 36.8125 47.703125 
L 18.3125 47.703125 
L 18.3125 18.015625 
Q 18.3125 11.328125 20.140625 9.421875 
Q 21.96875 7.515625 27.59375 7.515625 
L 36.8125 7.515625 
L 36.8125 0 
L 27.59375 0 
Q 17.1875 0 13.234375 3.875 
Q 9.28125 7.765625 9.28125 18.015625 
L 9.28125 47.703125 
L 2.6875 47.703125 
L 2.6875 54.6875 
L 9.28125 54.6875 
L 9.28125 70.21875 
z
" id="DejaVuSans-116"/>
      <path d="M 2.984375 54.6875 
L 12.5 54.6875 
L 29.59375 8.796875 
L 46.6875 54.6875 
L 56.203125 54.6875 
L 35.6875 0 
L 23.484375 0 
z
" id="DejaVuSans-118"/>
      <path d="M 44.390625 34.1875 
Q 47.5625 33.109375 50.5625 29.59375 
Q 53.5625 26.078125 56.59375 19.921875 
L 66.609375 0 
L 56 0 
L 46.6875 18.703125 
Q 43.0625 26.03125 39.671875 28.421875 
Q 36.28125 30.8125 30.421875 30.8125 
L 19.671875 30.8125 
L 19.671875 0 
L 9.8125 0 
L 9.8125 72.90625 
L 32.078125 72.90625 
Q 44.578125 72.90625 50.734375 67.671875 
Q 56.890625 62.453125 56.890625 51.90625 
Q 56.890625 45.015625 53.6875 40.46875 
Q 50.484375 35.9375 44.390625 34.1875 
z
M 19.671875 64.796875 
L 19.671875 38.921875 
L 32.078125 38.921875 
Q 39.203125 38.921875 42.84375 42.21875 
Q 46.484375 45.515625 46.484375 51.90625 
Q 46.484375 58.296875 42.84375 61.546875 
Q 39.203125 64.796875 32.078125 64.796875 
z
" id="DejaVuSans-82"/>
     </defs>
     <g transform="translate(161.81375 346.2265)scale(0.16 -0.16)">
      <use xlink:href="#DejaVuSans-70"/>
      <use x="48.394531" xlink:href="#DejaVuSans-97"/>
      <use x="109.673828" xlink:href="#DejaVuSans-108"/>
      <use x="137.457031" xlink:href="#DejaVuSans-115"/>
      <use x="189.556641" xlink:href="#DejaVuSans-101"/>
      <use x="251.080078" xlink:href="#DejaVuSans-32"/>
      <use x="282.867188" xlink:href="#DejaVuSans-80"/>
      <use x="339.544922" xlink:href="#DejaVuSans-111"/>
      <use x="400.726562" xlink:href="#DejaVuSans-115"/>
      <use x="452.826172" xlink:href="#DejaVuSans-105"/>
      <use x="480.609375" xlink:href="#DejaVuSans-116"/>
      <use x="519.818359" xlink:href="#DejaVuSans-105"/>
      <use x="547.601562" xlink:href="#DejaVuSans-118"/>
      <use x="606.78125" xlink:href="#DejaVuSans-101"/>
      <use x="668.304688" xlink:href="#DejaVuSans-32"/>
      <use x="700.091797" xlink:href="#DejaVuSans-82"/>
      <use x="767.324219" xlink:href="#DejaVuSans-97"/>
      <use x="828.603516" xlink:href="#DejaVuSans-116"/>
      <use x="867.8125" xlink:href="#DejaVuSans-101"/>
     </g>
    </g>
   </g>
   <g id="matplotlib.axis_2">
    <g id="ytick_1">
     <g id="line2d_7">
      <defs>
       <path d="M 0 0 
L -3.5 0 
" id="mb28dc437c3" style="stroke:#000000;stroke-width:0.8;"/>
      </defs>
      <g>
       <use style="stroke:#000000;stroke-width:0.8;" x="57.6" xlink:href="#mb28dc437c3" y="307.584"/>
      </g>
     </g>
     <g id="text_8">
      <!-- 0.0 -->
      <g transform="translate(25.155 313.66275)scale(0.16 -0.16)">
       <use xlink:href="#DejaVuSans-48"/>
       <use x="63.623047" xlink:href="#DejaVuSans-46"/>
       <use x="95.410156" xlink:href="#DejaVuSans-48"/>
      </g>
     </g>
    </g>
    <g id="ytick_2">
     <g id="line2d_8">
      <g>
       <use style="stroke:#000000;stroke-width:0.8;" x="57.6" xlink:href="#mb28dc437c3" y="256.896"/>
      </g>
     </g>
     <g id="text_9">
      <!-- 0.2 -->
      <g transform="translate(25.155 262.97475)scale(0.16 -0.16)">
       <use xlink:href="#DejaVuSans-48"/>
       <use x="63.623047" xlink:href="#DejaVuSans-46"/>
       <use x="95.410156" xlink:href="#DejaVuSans-50"/>
      </g>
     </g>
    </g>
    <g id="ytick_3">
     <g id="line2d_9">
      <g>
       <use style="stroke:#000000;stroke-width:0.8;" x="57.6" xlink:href="#mb28dc437c3" y="206.208"/>
      </g>
     </g>
     <g id="text_10">
      <!-- 0.4 -->
      <g transform="translate(25.155 212.28675)scale(0.16 -0.16)">
       <use xlink:href="#DejaVuSans-48"/>
       <use x="63.623047" xlink:href="#DejaVuSans-46"/>
       <use x="95.410156" xlink:href="#DejaVuSans-52"/>
      </g>
     </g>
    </g>
    <g id="ytick_4">
     <g id="line2d_10">
      <g>
       <use style="stroke:#000000;stroke-width:0.8;" x="57.6" xlink:href="#mb28dc437c3" y="155.52"/>
      </g>
     </g>
     <g id="text_11">
      <!-- 0.6 -->
      <g transform="translate(25.155 161.59875)scale(0.16 -0.16)">
       <use xlink:href="#DejaVuSans-48"/>
       <use x="63.623047" xlink:href="#DejaVuSans-46"/>
       <use x="95.410156" xlink:href="#DejaVuSans-54"/>
      </g>
     </g>
    </g>
    <g id="ytick_5">
     <g id="line2d_11">
      <g>
       <use style="stroke:#000000;stroke-width:0.8;" x="57.6" xlink:href="#mb28dc437c3" y="104.832"/>
      </g>
     </g>
     <g id="text_12">
      <!-- 0.8 -->
      <g transform="translate(25.155 110.91075)scale(0.16 -0.16)">
       <use xlink:href="#DejaVuSans-48"/>
       <use x="63.623047" xlink:href="#DejaVuSans-46"/>
       <use x="95.410156" xlink:href="#DejaVuSans-56"/>
      </g>
     </g>
    </g>
    <g id="ytick_6">
     <g id="line2d_12">
      <g>
       <use style="stroke:#000000;stroke-width:0.8;" x="57.6" xlink:href="#mb28dc437c3" y="54.144"/>
      </g>
     </g>
     <g id="text_13">
      <!-- 1.0 -->
      <g transform="translate(25.155 60.22275)scale(0.16 -0.16)">
       <use xlink:href="#DejaVuSans-49"/>
       <use x="63.623047" xlink:href="#DejaVuSans-46"/>
       <use x="95.410156" xlink:href="#DejaVuSans-48"/>
      </g>
     </g>
    </g>
    <g id="text_14">
     <!-- True Positive Rate -->
     <defs>
      <path d="M -0.296875 72.90625 
L 61.375 72.90625 
L 61.375 64.59375 
L 35.5 64.59375 
L 35.5 0 
L 25.59375 0 
L 25.59375 64.59375 
L -0.296875 64.59375 
z
" id="DejaVuSans-84"/>
      <path d="M 41.109375 46.296875 
Q 39.59375 47.171875 37.8125 47.578125 
Q 36.03125 48 33.890625 48 
Q 26.265625 48 22.1875 43.046875 
Q 18.109375 38.09375 18.109375 28.8125 
L 18.109375 0 
L 9.078125 0 
L 9.078125 54.6875 
L 18.109375 54.6875 
L 18.109375 46.1875 
Q 20.953125 51.171875 25.484375 53.578125 
Q 30.03125 56 36.53125 56 
Q 37.453125 56 38.578125 55.875 
Q 39.703125 55.765625 41.0625 55.515625 
z
" id="DejaVuSans-114"/>
      <path d="M 8.5 21.578125 
L 8.5 54.6875 
L 17.484375 54.6875 
L 17.484375 21.921875 
Q 17.484375 14.15625 20.5 10.265625 
Q 23.53125 6.390625 29.59375 6.390625 
Q 36.859375 6.390625 41.078125 11.03125 
Q 45.3125 15.671875 45.3125 23.6875 
L 45.3125 54.6875 
L 54.296875 54.6875 
L 54.296875 0 
L 45.3125 0 
L 45.3125 8.40625 
Q 42.046875 3.421875 37.71875 1 
Q 33.40625 -1.421875 27.6875 -1.421875 
Q 18.265625 -1.421875 13.375 4.4375 
Q 8.5 10.296875 8.5 21.578125 
z
M 31.109375 56 
z
" id="DejaVuSans-117"/>
     </defs>
     <g transform="translate(17.8275 245.7755)rotate(-90)scale(0.16 -0.16)">
      <use xlink:href="#DejaVuSans-84"/>
      <use x="46.333984" xlink:href="#DejaVuSans-114"/>
      <use x="87.447266" xlink:href="#DejaVuSans-117"/>
      <use x="150.826172" xlink:href="#DejaVuSans-101"/>
      <use x="212.349609" xlink:href="#DejaVuSans-32"/>
      <use x="244.136719" xlink:href="#DejaVuSans-80"/>
      <use x="300.814453" xlink:href="#DejaVuSans-111"/>
      <use x="361.996094" xlink:href="#DejaVuSans-115"/>
      <use x="414.095703" xlink:href="#DejaVuSans-105"/>
      <use x="441.878906" xlink:href="#DejaVuSans-116"/>
      <use x="481.087891" xlink:href="#DejaVuSans-105"/>
      <use x="508.871094" xlink:href="#DejaVuSans-118"/>
      <use x="568.050781" xlink:href="#DejaVuSans-101"/>
      <use x="629.574219" xlink:href="#DejaVuSans-32"/>
      <use x="661.361328" xlink:href="#DejaVuSans-82"/>
      <use x="728.59375" xlink:href="#DejaVuSans-97"/>
      <use x="789.873047" xlink:href="#DejaVuSans-116"/>
      <use x="829.082031" xlink:href="#DejaVuSans-101"/>
     </g>
    </g>
   </g>
   <g id="line2d_13">
    <path clip-path="url(#pa54621ce2d)" d="M 57.6 307.584 
L 57.6 273.62304 
L 57.95712 273.62304 
L 57.95712 235.60704 
L 58.31424 235.60704 
L 58.31424 199.61856 
L 58.67136 199.61856 
L 58.67136 169.20576 
L 59.02848 169.20576 
L 59.02848 162.61632 
L 59.3856 162.61632 
L 59.3856 138.28608 
L 59.74272 138.28608 
L 59.74272 137.27232 
L 60.45696 137.27232 
L 60.45696 132.20352 
L 60.81408 132.20352 
L 60.81408 130.68288 
L 61.1712 130.68288 
L 61.1712 130.176 
L 61.88544 130.176 
L 61.88544 128.14848 
L 66.528 120.0384 
L 66.528 119.53152 
L 66.88512 119.53152 
L 66.88512 119.02464 
L 67.24224 119.02464 
L 67.24224 117.504 
L 67.95648 117.504 
L 67.95648 113.95584 
L 69.02784 113.95584 
L 69.02784 113.44896 
L 69.74208 111.42144 
L 70.45632 111.42144 
L 70.45632 108.38016 
L 70.81344 108.38016 
L 70.81344 105.33888 
L 72.24192 105.33888 
L 72.24192 103.31136 
L 72.59904 103.31136 
L 73.31328 102.80448 
L 73.31328 101.28384 
L 74.38464 101.28384 
L 74.38464 100.77696 
L 75.09888 100.27008 
L 75.456 100.27008 
L 75.456 99.25632 
L 75.81312 99.25632 
L 75.81312 98.74944 
L 76.88448 98.74944 
L 76.88448 98.24256 
L 77.95584 98.24256 
L 77.95584 97.73568 
L 78.31296 97.73568 
L 78.31296 96.72192 
L 78.67008 96.72192 
L 78.67008 95.70816 
L 79.38432 95.70816 
L 79.38432 94.6944 
L 80.09856 94.6944 
L 80.09856 93.17376 
L 80.8128 93.17376 
L 80.8128 92.16 
L 81.52704 92.16 
L 81.52704 91.65312 
L 82.24128 91.65312 
L 82.24128 91.14624 
L 82.95552 91.14624 
L 82.95552 88.61184 
L 83.31264 88.61184 
L 83.31264 88.10496 
L 83.66976 88.10496 
L 83.66976 87.59808 
L 84.384 87.59808 
L 84.384 86.58432 
L 85.45536 86.58432 
L 85.45536 85.06368 
L 85.81248 85.06368 
L 85.81248 83.54304 
L 87.59808 83.54304 
L 87.59808 83.03616 
L 88.31232 83.03616 
L 88.31232 82.52928 
L 88.66944 82.52928 
L 88.66944 81.00864 
L 89.38368 81.00864 
L 89.38368 80.50176 
L 89.7408 80.50176 
L 89.7408 79.99488 
L 90.45504 79.99488 
L 90.45504 78.98112 
L 91.88352 78.98112 
L 91.88352 78.47424 
L 92.24064 78.47424 
L 92.24064 76.9536 
L 92.59776 76.9536 
L 92.59776 76.44672 
L 93.66912 76.44672 
L 93.66912 75.93984 
L 94.02624 75.93984 
L 94.02624 75.43296 
L 94.38336 75.43296 
L 94.38336 74.92608 
L 95.0976 74.92608 
L 95.0976 74.4192 
L 95.45472 74.4192 
L 95.45472 73.91232 
L 96.16896 73.91232 
L 96.16896 71.8848 
L 96.52608 71.8848 
L 96.52608 70.87104 
L 97.59744 70.87104 
L 97.59744 70.36416 
L 97.95456 70.36416 
L 97.95456 69.3504 
L 98.31168 69.3504 
L 98.31168 68.84352 
L 99.38304 68.84352 
L 99.38304 67.82976 
L 100.81152 67.82976 
L 100.81152 66.30912 
L 101.16864 66.30912 
L 101.16864 65.80224 
L 102.95424 65.80224 
L 102.95424 64.78848 
L 106.16832 64.78848 
L 106.16832 63.77472 
L 107.23968 63.77472 
L 107.23968 63.26784 
L 107.95392 63.26784 
L 107.95392 62.76096 
L 111.88224 62.76096 
L 111.88224 62.25408 
L 112.59648 62.25408 
L 112.59648 61.7472 
L 116.88192 61.7472 
L 116.88192 60.73344 
L 119.38176 60.73344 
L 119.38176 60.22656 
L 120.096 60.22656 
L 120.096 59.71968 
L 123.31008 59.71968 
L 123.31008 58.19904 
L 129.38112 58.19904 
L 129.38112 57.69216 
L 137.59488 57.69216 
L 137.59488 57.18528 
L 140.80896 57.18528 
L 140.80896 56.6784 
L 156.16512 56.6784 
L 156.16512 56.17152 
L 164.736 56.17152 
L 164.736 55.66464 
L 232.94592 55.66464 
L 232.94592 55.15776 
L 265.44384 55.15776 
L 265.44384 54.65088 
L 287.58528 54.65088 
L 287.58528 54.144 
L 414.72 54.144 
L 414.72 54.144 
" style="fill:none;stroke:#000000;stroke-linecap:square;stroke-width:2;"/>
   </g>
   <g id="line2d_14">
    <path clip-path="url(#pa54621ce2d)" d="M 57.6 307.584 
L 57.6 290.85696 
L 57.95712 290.85696 
L 57.95712 287.81568 
L 58.31424 287.81568 
L 58.31424 260.44416 
L 58.67136 260.44416 
L 58.67136 259.4304 
L 59.02848 259.4304 
L 59.02848 249.79968 
L 59.3856 249.79968 
L 59.3856 245.74464 
L 59.74272 245.74464 
L 59.74272 244.224 
L 60.09984 244.224 
L 60.09984 240.67584 
L 60.45696 240.67584 
L 60.45696 235.10016 
L 60.81408 235.10016 
L 60.81408 230.03136 
L 61.1712 230.03136 
L 61.1712 224.96256 
L 61.52832 224.96256 
L 61.52832 220.90752 
L 61.88544 220.90752 
L 61.88544 219.89376 
L 62.24256 219.89376 
L 62.24256 215.33184 
L 62.9568 215.33184 
L 62.9568 213.8112 
L 63.67104 213.8112 
L 63.67104 208.7424 
L 64.38528 208.7424 
L 64.38528 204.68736 
L 64.7424 204.68736 
L 64.7424 203.16672 
L 65.45664 203.16672 
L 65.45664 200.63232 
L 65.81376 200.63232 
L 65.81376 198.6048 
L 66.17088 198.6048 
L 66.17088 197.59104 
L 66.528 197.59104 
L 66.528 193.02912 
L 66.88512 193.02912 
L 66.88512 192.52224 
L 67.24224 192.52224 
L 67.24224 188.97408 
L 67.59936 188.97408 
L 67.59936 188.4672 
L 67.95648 188.4672 
L 67.95648 187.96032 
L 68.3136 187.96032 
L 68.3136 184.41216 
L 68.67072 184.41216 
L 68.67072 182.38464 
L 69.74208 182.38464 
L 69.74208 181.87776 
L 70.0992 181.87776 
L 70.0992 179.34336 
L 70.45632 179.34336 
L 70.45632 176.30208 
L 70.81344 176.30208 
L 70.81344 175.28832 
L 71.52768 175.28832 
L 71.52768 173.2608 
L 72.59904 173.2608 
L 72.59904 167.68512 
L 74.02752 167.68512 
L 74.02752 166.67136 
L 74.38464 166.67136 
L 74.38464 164.64384 
L 74.74176 164.64384 
L 74.74176 163.63008 
L 75.09888 163.63008 
L 75.09888 162.10944 
L 75.456 162.10944 
L 75.456 161.60256 
L 75.81312 161.60256 
L 75.81312 161.09568 
L 76.88448 161.09568 
L 76.88448 160.08192 
L 77.2416 160.08192 
L 77.2416 159.57504 
L 77.95584 159.57504 
L 77.95584 158.56128 
L 78.67008 158.56128 
L 78.67008 158.0544 
L 79.74144 158.0544 
L 79.74144 156.53376 
L 80.09856 156.53376 
L 80.09856 156.02688 
L 81.52704 156.02688 
L 81.52704 155.01312 
L 82.24128 155.01312 
L 82.24128 154.50624 
L 82.5984 154.50624 
L 82.5984 153.49248 
L 82.95552 153.49248 
L 82.95552 152.47872 
L 84.384 152.47872 
L 84.384 151.46496 
L 86.52672 151.46496 
L 86.52672 149.94432 
L 87.24096 149.94432 
L 87.24096 149.43744 
L 87.9552 149.43744 
L 87.9552 147.40992 
L 88.66944 147.40992 
L 88.66944 145.88928 
L 89.7408 145.88928 
L 89.7408 145.3824 
L 90.45504 145.3824 
L 90.45504 144.87552 
L 90.81216 144.87552 
L 90.81216 143.35488 
L 91.16928 143.35488 
L 91.16928 141.32736 
L 92.24064 141.32736 
L 92.24064 140.82048 
L 92.59776 140.82048 
L 92.59776 140.3136 
L 93.312 140.3136 
L 93.312 137.7792 
L 94.02624 137.7792 
L 94.02624 137.27232 
L 95.0976 137.27232 
L 95.0976 136.76544 
L 95.45472 136.76544 
L 95.45472 135.2448 
L 96.52608 135.2448 
L 96.52608 132.7104 
L 97.59744 132.7104 
L 97.59744 132.20352 
L 97.95456 132.20352 
L 97.95456 131.69664 
L 98.31168 131.69664 
L 98.31168 130.176 
L 99.38304 130.176 
L 99.38304 129.16224 
L 99.74016 129.16224 
L 99.74016 128.65536 
L 100.4544 128.65536 
L 100.4544 127.13472 
L 100.81152 127.13472 
L 100.81152 126.62784 
L 101.16864 126.62784 
L 101.16864 126.12096 
L 102.59712 126.12096 
L 102.59712 125.61408 
L 102.95424 125.61408 
L 102.95424 122.5728 
L 103.66848 122.5728 
L 103.66848 121.55904 
L 104.38272 121.55904 
L 104.38272 121.05216 
L 105.09696 121.05216 
L 105.09696 120.54528 
L 105.8112 120.54528 
L 105.8112 120.0384 
L 106.16832 120.0384 
L 106.16832 119.53152 
L 106.52544 119.53152 
L 106.52544 118.51776 
L 107.95392 118.51776 
L 107.95392 118.01088 
L 108.31104 118.01088 
L 108.31104 117.504 
L 108.66816 117.504 
L 108.66816 116.49024 
L 110.81088 116.49024 
L 110.81088 115.98336 
L 111.52512 115.98336 
L 111.52512 114.46272 
L 111.88224 114.46272 
L 111.88224 113.95584 
L 112.59648 113.95584 
L 112.59648 113.44896 
L 112.9536 113.44896 
L 112.9536 112.94208 
L 114.02496 112.94208 
L 114.02496 111.92832 
L 115.81056 111.92832 
L 115.81056 110.91456 
L 116.16768 110.91456 
L 116.16768 109.39392 
L 116.88192 109.39392 
L 116.88192 108.88704 
L 117.23904 108.88704 
L 117.23904 108.38016 
L 119.38176 108.38016 
L 119.38176 107.87328 
L 120.81024 107.87328 
L 120.81024 107.3664 
L 121.16736 107.3664 
L 121.16736 106.85952 
L 121.8816 106.85952 
L 121.8816 106.35264 
L 122.23872 106.35264 
L 122.23872 105.84576 
L 123.31008 105.84576 
L 123.31008 105.33888 
L 123.6672 105.33888 
L 123.6672 104.32512 
L 124.73856 104.32512 
L 124.73856 103.81824 
L 125.09568 103.81824 
L 125.09568 103.31136 
L 127.2384 103.31136 
L 127.2384 101.79072 
L 127.95264 101.79072 
L 127.95264 100.77696 
L 129.38112 100.77696 
L 129.38112 99.7632 
L 129.73824 99.7632 
L 129.73824 99.25632 
L 130.09536 99.25632 
L 130.09536 98.74944 
L 130.8096 98.74944 
L 130.8096 98.24256 
L 132.95232 98.24256 
L 132.95232 97.73568 
L 133.30944 97.73568 
L 133.30944 97.2288 
L 134.02368 97.2288 
L 134.02368 95.70816 
L 134.3808 95.70816 
L 134.73792 95.20128 
L 137.23776 95.20128 
L 137.952 94.6944 
L 137.952 94.18752 
L 138.30912 94.18752 
L 138.30912 93.17376 
L 139.02336 93.17376 
L 139.02336 92.66688 
L 139.7376 92.66688 
L 140.09472 91.65312 
L 141.16608 91.65312 
L 141.16608 91.14624 
L 141.5232 91.14624 
L 141.5232 90.63936 
L 141.88032 90.63936 
L 141.88032 89.6256 
L 144.02304 89.6256 
L 144.02304 89.11872 
L 147.59424 89.11872 
L 147.59424 87.59808 
L 149.37984 87.59808 
L 149.37984 86.58432 
L 150.09408 86.58432 
L 150.09408 86.07744 
L 150.4512 86.07744 
L 151.87968 85.06368 
L 154.73664 85.06368 
L 154.73664 84.04992 
L 155.09376 84.04992 
L 155.09376 83.54304 
L 155.808 83.54304 
L 155.808 83.03616 
L 157.5936 83.03616 
L 157.5936 82.52928 
L 158.66496 82.52928 
L 158.66496 81.51552 
L 159.02208 81.51552 
L 159.02208 81.00864 
L 167.95008 78.98112 
L 168.66432 78.98112 
L 168.66432 78.47424 
L 169.02144 78.47424 
L 169.02144 77.96736 
L 169.37856 77.96736 
L 169.37856 76.44672 
L 172.59264 76.44672 
L 172.59264 75.93984 
L 172.94976 75.93984 
L 172.94976 75.43296 
L 176.52096 75.43296 
L 176.52096 74.4192 
L 177.2352 74.4192 
L 177.2352 73.91232 
L 177.59232 73.91232 
L 177.59232 73.40544 
L 179.0208 73.40544 
L 179.0208 72.39168 
L 179.73504 72.39168 
L 179.73504 71.8848 
L 181.52064 71.8848 
L 181.52064 71.37792 
L 183.30624 71.37792 
L 183.30624 70.87104 
L 189.7344 70.87104 
L 189.7344 70.36416 
L 195.0912 70.36416 
L 195.0912 69.85728 
L 196.8768 69.85728 
L 196.8768 69.3504 
L 197.59104 69.3504 
L 197.59104 68.84352 
L 197.94816 68.84352 
L 197.94816 68.33664 
L 198.30528 68.33664 
L 198.30528 67.82976 
L 199.01952 67.82976 
L 199.01952 67.32288 
L 202.2336 67.32288 
L 202.2336 66.816 
L 203.30496 66.816 
L 203.30496 66.30912 
L 204.37632 66.30912 
L 204.37632 64.78848 
L 207.23328 64.78848 
L 207.23328 64.2816 
L 211.1616 64.2816 
L 211.1616 63.77472 
L 215.44704 63.77472 
L 215.44704 63.26784 
L 226.87488 63.26784 
L 226.87488 62.76096 
L 227.58912 62.76096 
L 227.58912 61.7472 
L 229.0176 61.7472 
L 229.0176 61.24032 
L 229.37472 61.24032 
L 229.37472 60.73344 
L 238.30272 60.73344 
L 238.30272 60.22656 
L 242.58816 60.22656 
L 242.58816 59.71968 
L 245.80224 59.71968 
L 245.80224 59.2128 
L 284.01408 59.2128 
L 284.01408 58.70592 
L 291.5136 58.70592 
L 291.5136 58.19904 
L 302.2272 58.19904 
L 302.2272 57.69216 
L 304.36992 57.69216 
L 304.36992 57.18528 
L 312.9408 57.18528 
L 312.9408 56.6784 
L 316.15488 56.6784 
L 316.15488 56.17152 
L 323.6544 56.17152 
L 323.6544 55.66464 
L 327.2256 55.66464 
L 327.2256 55.15776 
L 334.368 55.15776 
L 334.368 54.65088 
L 394.36416 54.65088 
L 394.36416 54.144 
L 414.72 54.144 
L 414.72 54.144 
" style="fill:none;stroke:#00a4bb;stroke-linecap:square;stroke-width:2;"/>
   </g>
   <g id="line2d_15">
    <path clip-path="url(#pa54621ce2d)" d="M 57.6 307.584 
L 57.6 295.41888 
L 57.95712 295.41888 
L 57.95712 288.32256 
L 58.31424 288.32256 
L 58.31424 281.73312 
L 58.67136 281.73312 
L 58.67136 281.22624 
L 59.02848 281.22624 
L 59.02848 279.19872 
L 59.3856 279.19872 
L 59.3856 262.97856 
L 59.74272 262.97856 
L 59.74272 251.8272 
L 60.09984 251.8272 
L 60.09984 233.07264 
L 60.45696 233.07264 
L 60.45696 219.38688 
L 60.81408 219.38688 
L 60.81408 216.85248 
L 61.52832 216.85248 
L 61.52832 197.08416 
L 61.88544 197.08416 
L 61.88544 194.54976 
L 62.24256 194.54976 
L 62.24256 190.49472 
L 62.59968 190.49472 
L 62.59968 188.97408 
L 63.67104 188.97408 
L 63.67104 187.45344 
L 64.02816 187.45344 
L 64.02816 185.9328 
L 64.38528 185.9328 
L 64.38528 185.42592 
L 64.7424 185.42592 
L 64.7424 182.89152 
L 65.09952 182.89152 
L 65.09952 181.37088 
L 65.45664 181.37088 
L 65.45664 175.7952 
L 65.81376 175.7952 
L 65.81376 171.74016 
L 66.17088 171.74016 
L 66.17088 167.68512 
L 66.528 167.68512 
L 66.528 167.17824 
L 66.88512 167.17824 
L 66.88512 166.67136 
L 67.24224 166.67136 
L 67.24224 166.16448 
L 67.59936 166.16448 
L 67.59936 160.5888 
L 67.95648 160.5888 
L 67.95648 159.57504 
L 68.3136 159.57504 
L 68.3136 159.06816 
L 69.02784 159.06816 
L 69.02784 158.56128 
L 69.38496 158.56128 
L 69.38496 157.04064 
L 69.74208 157.04064 
L 69.74208 156.53376 
L 70.0992 156.53376 
L 70.0992 155.52 
L 70.45632 155.52 
L 70.45632 153.99936 
L 70.81344 153.99936 
L 70.81344 153.49248 
L 71.17056 153.49248 
L 71.17056 152.47872 
L 71.8848 152.47872 
L 71.8848 149.43744 
L 72.24192 149.43744 
L 72.24192 147.9168 
L 72.59904 147.9168 
L 72.59904 146.90304 
L 73.31328 146.90304 
L 73.31328 146.39616 
L 74.02752 146.39616 
L 74.02752 144.87552 
L 74.38464 144.87552 
L 74.38464 141.83424 
L 74.74176 141.83424 
L 74.74176 139.80672 
L 75.09888 139.80672 
L 75.09888 137.7792 
L 77.59872 137.7792 
L 77.59872 136.76544 
L 77.95584 136.76544 
L 77.95584 135.75168 
L 78.67008 135.75168 
L 78.67008 133.72416 
L 79.38432 133.72416 
L 79.38432 133.21728 
L 79.74144 133.21728 
L 79.74144 130.68288 
L 80.09856 130.68288 
L 80.09856 130.176 
L 80.45568 130.176 
L 80.45568 129.66912 
L 80.8128 129.66912 
L 80.8128 129.16224 
L 81.16992 129.16224 
L 81.16992 128.65536 
L 81.52704 128.65536 
L 81.52704 127.6416 
L 81.88416 127.6416 
L 81.88416 126.62784 
L 82.95552 126.62784 
L 82.95552 125.61408 
L 83.31264 125.61408 
L 83.31264 124.60032 
L 83.66976 124.60032 
L 83.66976 124.09344 
L 84.02688 124.09344 
L 84.02688 123.58656 
L 85.45536 123.58656 
L 85.45536 123.07968 
L 86.52672 123.07968 
L 86.52672 122.06592 
L 87.24096 122.06592 
L 87.24096 121.55904 
L 87.9552 121.55904 
L 87.9552 121.05216 
L 89.02656 121.05216 
L 89.02656 120.54528 
L 89.38368 120.54528 
L 89.38368 119.53152 
L 90.45504 119.53152 
L 90.45504 117.504 
L 90.81216 117.504 
L 90.81216 116.99712 
L 91.5264 116.99712 
L 91.5264 116.49024 
L 91.88352 116.49024 
L 91.88352 115.98336 
L 92.24064 115.98336 
L 92.24064 114.9696 
L 92.95488 114.9696 
L 92.95488 114.46272 
L 96.8832 114.46272 
L 96.8832 113.95584 
L 97.95456 113.95584 
L 97.95456 113.44896 
L 98.31168 113.44896 
L 98.31168 112.4352 
L 101.16864 112.4352 
L 101.16864 111.92832 
L 101.88288 111.92832 
L 101.88288 111.42144 
L 102.59712 111.42144 
L 102.59712 109.39392 
L 102.95424 109.39392 
L 102.95424 108.88704 
L 104.73984 108.88704 
L 104.73984 108.38016 
L 105.45408 108.38016 
L 105.45408 107.87328 
L 106.16832 107.87328 
L 106.16832 107.3664 
L 106.52544 107.3664 
L 106.52544 105.84576 
L 107.23968 105.84576 
L 107.23968 103.81824 
L 107.5968 103.81824 
L 107.5968 103.31136 
L 108.31104 103.31136 
L 108.31104 102.80448 
L 108.66816 102.80448 
L 108.66816 102.2976 
L 110.45376 102.2976 
L 110.45376 101.79072 
L 112.23936 101.79072 
L 112.23936 101.28384 
L 112.9536 101.28384 
L 112.9536 100.77696 
L 113.66784 100.77696 
L 113.66784 100.27008 
L 117.59616 100.27008 
L 117.59616 99.25632 
L 118.3104 99.25632 
L 118.3104 98.74944 
L 118.66752 98.74944 
L 118.66752 97.73568 
L 119.38176 97.73568 
L 119.38176 97.2288 
L 123.31008 97.2288 
L 123.31008 96.21504 
L 123.6672 96.21504 
L 123.6672 94.6944 
L 125.80992 94.6944 
L 125.80992 94.18752 
L 129.024 94.18752 
L 129.024 93.68064 
L 130.09536 93.68064 
L 130.09536 91.65312 
L 130.45248 91.65312 
L 130.45248 91.14624 
L 130.8096 91.14624 
L 130.8096 89.6256 
L 131.52384 89.6256 
L 131.52384 89.11872 
L 131.88096 89.11872 
L 131.88096 88.61184 
L 133.30944 88.61184 
L 133.30944 87.59808 
L 135.80928 87.59808 
L 135.80928 87.0912 
L 136.88064 87.0912 
L 136.88064 86.58432 
L 137.23776 86.58432 
L 137.23776 85.57056 
L 139.02336 85.57056 
L 139.02336 85.06368 
L 142.95168 85.06368 
L 142.95168 84.5568 
L 144.73728 84.5568 
L 144.73728 83.54304 
L 145.0944 83.54304 
L 145.0944 83.03616 
L 147.23712 83.03616 
L 147.23712 82.52928 
L 150.09408 82.52928 
L 150.09408 82.0224 
L 151.16544 82.0224 
L 151.16544 81.51552 
L 151.52256 81.51552 
L 151.52256 81.00864 
L 154.0224 81.00864 
L 154.0224 80.50176 
L 154.37952 80.50176 
L 154.37952 79.99488 
L 155.808 79.99488 
L 155.808 79.488 
L 157.5936 79.488 
L 157.5936 78.98112 
L 160.45056 78.98112 
L 160.45056 78.47424 
L 161.52192 78.47424 
L 161.52192 77.46048 
L 163.66464 77.46048 
L 163.66464 76.9536 
L 164.02176 76.9536 
L 164.02176 75.93984 
L 165.80736 75.93984 
L 165.80736 75.43296 
L 168.66432 75.43296 
L 168.66432 74.92608 
L 173.30688 74.92608 
L 173.30688 74.4192 
L 174.02112 74.4192 
L 174.02112 73.40544 
L 175.80672 73.40544 
L 175.80672 72.89856 
L 176.87808 72.89856 
L 176.87808 71.8848 
L 181.52064 71.8848 
L 181.52064 71.37792 
L 182.592 71.37792 
L 182.592 70.36416 
L 182.94912 70.36416 
L 183.30624 69.85728 
L 183.30624 69.3504 
L 191.87712 69.3504 
L 192.59136 68.84352 
L 197.59104 68.84352 
L 197.59104 67.82976 
L 205.44768 67.82976 
L 205.44768 67.32288 
L 208.66176 67.32288 
L 208.66176 66.816 
L 212.59008 66.816 
L 212.59008 66.30912 
L 217.94688 66.30912 
L 217.94688 65.80224 
L 219.01824 65.80224 
L 219.01824 65.29536 
L 224.73216 65.29536 
L 224.73216 64.78848 
L 229.73184 64.78848 
L 229.73184 64.2816 
L 233.66016 64.2816 
L 233.66016 63.77472 
L 242.23104 63.77472 
L 242.23104 63.26784 
L 246.15936 63.26784 
L 253.30176 58.70592 
L 261.1584 58.70592 
L 261.1584 58.19904 
L 261.51552 58.19904 
L 261.51552 57.69216 
L 262.58688 57.69216 
L 262.58688 57.18528 
L 262.944 57.18528 
L 262.944 56.6784 
L 263.30112 56.6784 
L 263.30112 56.17152 
L 265.08672 56.17152 
L 265.08672 55.66464 
L 265.80096 55.66464 
L 265.80096 55.15776 
L 303.65568 55.15776 
L 303.65568 54.65088 
L 309.01248 54.65088 
L 309.01248 54.144 
L 414.72 54.144 
L 414.72 54.144 
" style="fill:none;stroke:#ccf900;stroke-linecap:square;stroke-width:2;"/>
   </g>
   <g id="line2d_16">
    <path clip-path="url(#pa54621ce2d)" d="M 57.6 307.584 
L 57.6 294.40512 
L 57.71904 294.40512 
L 57.71904 283.25376 
L 57.83808 283.25376 
L 57.83808 276.15744 
L 57.95712 276.15744 
L 57.95712 272.60928 
L 58.07616 272.60928 
L 58.07616 270.75072 
L 58.1952 270.75072 
L 58.1952 269.568 
L 58.31424 269.568 
L 58.31424 267.20256 
L 58.43328 267.20256 
L 58.43328 258.41664 
L 58.55232 258.41664 
L 58.55232 255.2064 
L 58.67136 255.2064 
L 58.67136 251.32032 
L 58.7904 251.32032 
L 58.7904 248.95488 
L 58.90944 248.95488 
L 58.90944 241.52064 
L 59.02848 241.52064 
L 59.02848 233.41056 
L 59.14752 233.41056 
L 59.14752 222.42816 
L 59.26656 222.42816 
L 59.26656 221.07648 
L 59.50464 221.07648 
L 59.50464 213.64224 
L 59.62368 213.64224 
L 59.62368 209.5872 
L 59.74272 209.5872 
L 59.74272 208.06656 
L 59.86176 208.06656 
L 59.86176 206.88384 
L 59.9808 206.88384 
L 59.9808 204.5184 
L 60.09984 204.5184 
L 60.09984 202.65984 
L 60.21888 202.65984 
L 60.21888 200.63232 
L 60.33792 200.63232 
L 60.33792 199.28064 
L 60.576 199.28064 
L 60.576 199.11168 
L 60.69504 199.11168 
L 60.69504 197.76 
L 60.81408 197.76 
L 60.81408 196.57728 
L 60.93312 196.57728 
L 60.93312 195.90144 
L 61.05216 195.90144 
L 61.05216 195.05664 
L 61.1712 195.05664 
L 61.1712 194.21184 
L 61.29024 194.21184 
L 61.29024 193.19808 
L 61.40928 193.19808 
L 61.40928 191.67744 
L 61.52832 191.67744 
L 61.52832 189.98784 
L 61.64736 189.98784 
L 61.64736 188.80512 
L 61.7664 188.80512 
L 61.7664 186.7776 
L 61.88544 186.7776 
L 61.88544 185.42592 
L 62.00448 185.42592 
L 62.00448 182.38464 
L 62.12352 182.38464 
L 62.12352 181.37088 
L 62.24256 181.37088 
L 62.24256 181.20192 
L 62.3616 181.20192 
L 62.3616 180.864 
L 62.48064 180.864 
L 62.48064 180.35712 
L 62.59968 180.35712 
L 62.59968 176.80896 
L 62.71872 176.80896 
L 62.71872 175.96416 
L 62.83776 175.96416 
L 62.83776 175.7952 
L 63.07584 175.7952 
L 63.07584 175.62624 
L 63.31392 175.62624 
L 63.31392 175.28832 
L 63.43296 175.28832 
L 63.43296 174.78144 
L 63.67104 174.78144 
L 63.67104 173.93664 
L 63.79008 173.93664 
L 63.79008 173.2608 
L 63.90912 173.2608 
L 63.90912 172.07808 
L 64.02816 172.07808 
L 64.02816 170.89536 
L 64.26624 170.89536 
L 64.26624 170.55744 
L 64.38528 170.55744 
L 64.38528 170.05056 
L 64.62336 170.05056 
L 64.62336 168.36096 
L 64.7424 168.36096 
L 64.7424 167.3472 
L 64.98048 167.3472 
L 64.98048 166.5024 
L 65.09952 166.5024 
L 65.09952 166.16448 
L 65.21856 166.16448 
L 65.21856 165.82656 
L 65.45664 165.82656 
L 65.45664 165.48864 
L 65.81376 165.48864 
L 65.81376 164.98176 
L 65.9328 164.98176 
L 65.9328 164.30592 
L 66.05184 164.30592 
L 66.05184 163.79904 
L 66.17088 163.79904 
L 66.17088 163.46112 
L 66.40896 163.46112 
L 66.40896 161.94048 
L 66.528 161.94048 
L 66.528 161.77152 
L 66.64704 161.77152 
L 66.64704 160.75776 
L 66.76608 160.75776 
L 66.76608 159.91296 
L 68.43264 157.04064 
L 68.43264 156.3648 
L 68.55168 156.3648 
L 68.55168 155.68896 
L 68.67072 155.68896 
L 68.67072 155.35104 
L 68.9088 155.35104 
L 68.9088 155.18208 
L 69.14688 155.18208 
L 69.14688 153.15456 
L 69.26592 153.15456 
L 69.26592 151.97184 
L 69.38496 151.97184 
L 69.38496 151.63392 
L 70.21824 151.63392 
L 70.21824 151.296 
L 70.33728 151.296 
L 70.33728 151.12704 
L 70.6944 151.12704 
L 70.6944 150.95808 
L 70.93248 150.28224 
L 70.93248 149.6064 
L 71.40864 149.6064 
L 71.40864 148.25472 
L 71.64672 148.25472 
L 71.64672 147.40992 
L 71.8848 147.40992 
L 71.8848 146.90304 
L 72.12288 146.90304 
L 72.12288 146.2272 
L 72.24192 146.2272 
L 72.24192 144.87552 
L 72.36096 144.87552 
L 72.36096 144.5376 
L 72.48 144.5376 
L 72.48 143.86176 
L 72.59904 143.86176 
L 72.59904 143.52384 
L 72.71808 143.52384 
L 72.71808 142.67904 
L 72.83712 142.67904 
L 72.83712 142.34112 
L 73.0752 142.34112 
L 73.0752 142.17216 
L 73.43232 142.17216 
L 73.43232 141.1584 
L 73.55136 141.1584 
L 73.55136 140.65152 
L 73.90848 140.65152 
L 73.90848 140.14464 
L 74.02752 140.14464 
L 74.02752 139.4688 
L 74.2656 139.4688 
L 74.2656 139.13088 
L 74.38464 139.13088 
L 74.38464 138.624 
L 74.50368 138.624 
L 74.50368 137.7792 
L 74.74176 137.7792 
L 74.97984 137.61024 
L 74.97984 137.44128 
L 75.09888 137.44128 
L 75.09888 136.59648 
L 75.21792 136.59648 
L 75.21792 136.0896 
L 75.33696 136.0896 
L 75.33696 135.92064 
L 75.93216 135.92064 
L 75.93216 135.58272 
L 76.17024 135.58272 
L 76.17024 135.41376 
L 76.40832 135.41376 
L 76.40832 135.2448 
L 76.76544 135.07584 
L 76.76544 134.4 
L 76.88448 134.4 
L 76.88448 134.23104 
L 77.00352 134.23104 
L 77.00352 133.89312 
L 77.2416 133.89312 
L 77.2416 133.38624 
L 77.36064 133.38624 
L 77.36064 133.21728 
L 77.47968 133.21728 
L 77.47968 132.7104 
L 78.07488 132.7104 
L 78.07488 132.54144 
L 78.432 132.54144 
L 78.432 131.8656 
L 78.55104 131.8656 
L 78.55104 131.69664 
L 78.78912 131.69664 
L 78.78912 131.52768 
L 79.0272 131.52768 
L 79.0272 131.35872 
L 79.26528 131.35872 
L 79.26528 130.68288 
L 79.38432 130.68288 
L 79.38432 130.51392 
L 79.50336 130.51392 
L 79.50336 130.34496 
L 79.86048 130.34496 
L 79.86048 130.00704 
L 80.2176 130.00704 
L 80.2176 129.50016 
L 80.33664 129.50016 
L 80.33664 129.16224 
L 80.45568 129.16224 
L 80.45568 128.99328 
L 80.57472 128.99328 
L 80.57472 128.4864 
L 80.69376 128.4864 
L 80.69376 127.47264 
L 80.8128 127.47264 
L 80.8128 127.13472 
L 80.93184 127.13472 
L 80.93184 126.7968 
L 81.16992 126.7968 
L 81.16992 126.62784 
L 81.408 126.62784 
L 81.408 126.28992 
L 81.64608 126.28992 
L 81.64608 126.12096 
L 81.76512 126.12096 
L 81.76512 125.78304 
L 82.0032 125.78304 
L 82.0032 125.44512 
L 82.36032 125.44512 
L 82.36032 125.1072 
L 82.5984 125.1072 
L 82.5984 124.43136 
L 82.71744 124.43136 
L 82.71744 124.2624 
L 82.83648 124.2624 
L 82.83648 123.75552 
L 82.95552 123.75552 
L 82.95552 123.58656 
L 83.07456 123.58656 
L 83.07456 123.07968 
L 83.1936 123.07968 
L 83.1936 122.91072 
L 83.31264 122.91072 
L 83.31264 122.74176 
L 83.55072 122.74176 
L 83.55072 121.89696 
L 83.66976 121.89696 
L 83.66976 121.728 
L 84.02688 121.728 
L 84.02688 121.39008 
L 84.384 121.39008 
L 84.384 121.22112 
L 84.50304 121.22112 
L 84.50304 120.8832 
L 84.62208 120.8832 
L 84.62208 120.71424 
L 84.9792 120.71424 
L 84.9792 120.54528 
L 85.09824 120.54528 
L 85.09824 120.37632 
L 85.33632 120.37632 
L 85.33632 120.20736 
L 85.45536 120.20736 
L 85.45536 120.0384 
L 86.05056 120.0384 
L 86.05056 119.86944 
L 86.40768 119.86944 
L 86.40768 119.36256 
L 87.00288 119.36256 
L 87.00288 119.02464 
L 87.12192 119.02464 
L 87.12192 118.68672 
L 87.83616 118.68672 
L 87.83616 117.84192 
L 87.9552 117.84192 
L 87.9552 117.67296 
L 88.31232 117.67296 
L 88.31232 117.504 
L 88.66944 117.504 
L 88.66944 117.33504 
L 88.78848 117.33504 
L 88.78848 116.99712 
L 89.85984 116.99712 
L 89.85984 116.82816 
L 90.336 116.82816 
L 90.336 116.6592 
L 90.57408 116.6592 
L 90.57408 116.15232 
L 90.81216 116.15232 
L 90.81216 115.98336 
L 90.9312 115.98336 
L 90.9312 115.8144 
L 91.05024 115.8144 
L 91.05024 115.64544 
L 91.16928 115.64544 
L 91.16928 115.47648 
L 91.5264 115.47648 
L 91.5264 115.30752 
L 91.64544 115.30752 
L 91.64544 114.80064 
L 92.1216 114.80064 
L 92.1216 114.29376 
L 92.24064 114.29376 
L 92.24064 113.95584 
L 92.59776 113.95584 
L 92.59776 113.78688 
L 92.83584 113.78688 
L 92.83584 113.61792 
L 93.19296 113.61792 
L 93.19296 112.94208 
L 93.9072 112.94208 
L 93.9072 112.77312 
L 94.38336 112.77312 
L 94.38336 111.75936 
L 94.74048 111.75936 
L 94.74048 111.42144 
L 94.97856 111.42144 
L 94.97856 111.25248 
L 95.0976 111.25248 
L 95.0976 111.08352 
L 95.21664 111.08352 
L 95.21664 110.91456 
L 95.93088 110.91456 
L 95.93088 110.40768 
L 96.40704 110.40768 
L 96.40704 110.06976 
L 96.52608 110.06976 
L 96.52608 109.22496 
L 96.64512 109.22496 
L 96.64512 108.88704 
L 96.76416 108.88704 
L 96.76416 108.04224 
L 97.35936 108.04224 
L 97.35936 107.87328 
L 97.59744 107.87328 
L 97.59744 107.70432 
L 97.83552 107.70432 
L 97.83552 107.53536 
L 97.95456 107.53536 
L 97.95456 106.69056 
L 98.0736 106.69056 
L 98.0736 106.5216 
L 98.19264 106.5216 
L 98.19264 106.35264 
L 98.43072 106.35264 
L 98.43072 106.18368 
L 98.54976 106.18368 
L 98.54976 105.33888 
L 98.90688 105.33888 
L 98.90688 105.16992 
L 99.02592 105.16992 
L 99.02592 105.00096 
L 99.14496 105.00096 
L 99.14496 104.832 
L 99.97824 104.832 
L 99.97824 104.66304 
L 100.21632 104.66304 
L 100.21632 104.32512 
L 100.57344 104.32512 
L 100.57344 104.15616 
L 100.69248 104.15616 
L 100.69248 103.81824 
L 100.81152 103.81824 
L 100.81152 103.64928 
L 101.52576 103.64928 
L 101.52576 103.48032 
L 101.6448 103.48032 
L 101.6448 103.31136 
L 101.76384 103.31136 
L 101.76384 102.63552 
L 101.88288 102.63552 
L 101.88288 102.12864 
L 102.12096 102.12864 
L 102.12096 101.95968 
L 102.35904 101.95968 
L 102.35904 101.79072 
L 102.47808 101.79072 
L 102.47808 101.62176 
L 102.71616 101.62176 
L 102.71616 101.28384 
L 102.8352 101.28384 
L 102.8352 100.608 
L 102.95424 100.608 
L 102.95424 100.43904 
L 103.78752 100.43904 
L 103.78752 100.27008 
L 104.14464 100.27008 
L 104.14464 99.7632 
L 104.38272 99.7632 
L 104.38272 99.59424 
L 104.85888 99.59424 
L 104.85888 99.25632 
L 105.216 99.25632 
L 105.216 98.9184 
L 105.69216 98.9184 
L 105.69216 98.74944 
L 105.93024 98.74944 
L 105.93024 98.41152 
L 106.16832 98.41152 
L 106.16832 98.24256 
L 106.28736 98.24256 
L 106.28736 98.0736 
L 106.4064 98.0736 
L 106.4064 97.73568 
L 107.23968 97.73568 
L 107.23968 97.39776 
L 107.35872 97.39776 
L 107.35872 96.89088 
L 107.71584 96.89088 
L 107.71584 96.72192 
L 107.95392 96.72192 
L 107.95392 96.55296 
L 108.192 96.55296 
L 108.192 96.384 
L 108.31104 96.384 
L 108.31104 95.87712 
L 108.43008 95.87712 
L 108.43008 95.70816 
L 108.54912 95.70816 
L 108.54912 95.37024 
L 109.14432 95.37024 
L 109.14432 95.20128 
L 109.26336 95.20128 
L 109.26336 94.86336 
L 109.73952 94.86336 
L 109.73952 94.6944 
L 109.85856 94.6944 
L 109.85856 94.52544 
L 110.21568 94.52544 
L 110.21568 94.18752 
L 110.5728 94.18752 
L 110.5728 93.68064 
L 110.69184 93.68064 
L 110.69184 93.51168 
L 110.81088 93.51168 
L 110.81088 93.17376 
L 110.92992 93.17376 
L 110.92992 93.0048 
L 111.7632 93.0048 
L 111.7632 92.83584 
L 111.88224 92.83584 
L 111.88224 92.66688 
L 112.3584 92.66688 
L 112.3584 92.16 
L 113.90592 92.16 
L 113.90592 91.82208 
L 114.50112 91.82208 
L 114.50112 91.3152 
L 114.85824 91.3152 
L 114.85824 90.80832 
L 114.97728 90.80832 
L 114.97728 90.63936 
L 115.09632 90.63936 
L 115.09632 90.30144 
L 115.21536 90.30144 
L 115.21536 90.13248 
L 115.3344 90.13248 
L 115.3344 89.96352 
L 115.57248 89.96352 
L 115.57248 89.6256 
L 116.40576 89.6256 
L 116.40576 89.45664 
L 116.5248 89.45664 
L 116.5248 88.94976 
L 116.76288 88.94976 
L 116.76288 88.7808 
L 117.59616 88.7808 
L 117.59616 88.44288 
L 117.7152 88.44288 
L 117.7152 88.27392 
L 117.83424 88.27392 
L 117.83424 87.76704 
L 118.07232 87.76704 
L 118.07232 87.59808 
L 118.19136 87.59808 
L 118.19136 87.42912 
L 118.66752 87.42912 
L 118.66752 87.26016 
L 119.5008 87.26016 
L 119.5008 86.92224 
L 120.096 86.92224 
L 120.096 86.58432 
L 120.21504 86.58432 
L 120.21504 86.2464 
L 120.6912 86.2464 
L 120.6912 85.90848 
L 120.92928 85.90848 
L 120.92928 85.73952 
L 121.76256 85.73952 
L 121.76256 85.57056 
L 121.8816 85.57056 
L 121.8816 85.4016 
L 122.00064 85.4016 
L 122.00064 85.23264 
L 122.11968 85.23264 
L 122.11968 85.06368 
L 122.59584 85.06368 
L 122.59584 84.89472 
L 122.95296 84.89472 
L 122.95296 84.72576 
L 123.072 84.72576 
L 123.072 84.21888 
L 123.42912 84.21888 
L 123.42912 84.04992 
L 124.61952 84.04992 
L 124.61952 83.37408 
L 125.21472 83.37408 
L 125.21472 83.20512 
L 125.33376 83.20512 
L 125.33376 83.03616 
L 126.6432 83.03616 
L 126.6432 82.8672 
L 126.76224 82.8672 
L 126.76224 82.69824 
L 126.88128 82.69824 
L 126.88128 82.36032 
L 127.11936 82.36032 
L 127.11936 82.19136 
L 127.47648 82.19136 
L 127.47648 82.0224 
L 128.07168 82.0224 
L 128.07168 81.68448 
L 128.4288 81.68448 
L 128.4288 81.51552 
L 128.66688 81.51552 
L 128.66688 81.34656 
L 129.6192 81.34656 
L 129.6192 81.1776 
L 129.73824 81.1776 
L 129.73824 81.00864 
L 129.97632 81.00864 
L 129.97632 80.83968 
L 130.33344 80.83968 
L 130.33344 80.50176 
L 130.45248 80.50176 
L 130.45248 80.3328 
L 130.69056 80.3328 
L 130.8096 80.16384 
L 132.5952 80.16384 
L 132.5952 79.99488 
L 133.1904 79.99488 
L 133.42848 79.82592 
L 133.42848 79.65696 
L 133.7856 79.65696 
L 133.7856 79.488 
L 133.90464 79.488 
L 133.90464 79.15008 
L 134.14272 79.15008 
L 134.14272 78.81216 
L 134.3808 78.81216 
L 134.3808 78.6432 
L 134.49984 78.6432 
L 134.61888 78.30528 
L 135.33312 78.30528 
L 135.33312 78.13632 
L 135.69024 78.13632 
L 135.69024 77.96736 
L 136.1664 77.96736 
L 136.1664 77.7984 
L 136.28544 77.7984 
L 136.28544 77.29152 
L 136.52352 77.29152 
L 136.52352 77.12256 
L 137.59488 77.12256 
L 137.59488 76.9536 
L 138.19008 76.9536 
L 138.19008 76.78464 
L 138.90432 76.78464 
L 138.90432 76.44672 
L 139.02336 76.44672 
L 139.02336 76.27776 
L 140.21376 76.27776 
L 140.21376 76.1088 
L 140.45184 76.1088 
L 140.45184 75.93984 
L 140.68992 75.93984 
L 140.68992 75.77088 
L 141.5232 75.77088 
L 141.5232 75.60192 
L 141.64224 75.60192 
L 142.1184 75.264 
L 143.42784 75.264 
L 143.42784 74.92608 
L 143.78496 74.92608 
L 143.78496 74.75712 
L 144.02304 74.75712 
L 144.02304 74.58816 
L 144.85632 74.58816 
L 144.85632 74.4192 
L 144.97536 74.4192 
L 144.97536 74.08128 
L 145.57056 74.08128 
L 145.57056 73.5744 
L 145.80864 73.5744 
L 145.80864 73.40544 
L 148.90368 72.7296 
L 148.90368 72.56064 
L 149.02272 72.56064 
L 149.02272 72.22272 
L 149.49888 72.22272 
L 149.49888 72.05376 
L 150.33216 72.05376 
L 150.33216 71.8848 
L 150.4512 71.8848 
L 150.4512 71.37792 
L 150.57024 71.37792 
L 150.57024 71.20896 
L 150.92736 71.20896 
L 150.92736 71.04 
L 151.76064 71.04 
L 151.76064 70.87104 
L 152.832 70.87104 
L 152.832 70.70208 
L 152.95104 70.70208 
L 152.95104 70.53312 
L 154.49856 70.53312 
L 154.49856 70.36416 
L 155.45088 70.36416 
L 155.45088 70.02624 
L 155.808 70.02624 
L 155.808 69.85728 
L 156.04608 69.85728 
L 156.04608 69.68832 
L 156.16512 69.68832 
L 156.16512 69.51936 
L 157.35552 69.51936 
L 157.35552 69.3504 
L 157.47456 69.3504 
L 157.47456 69.18144 
L 157.83168 69.18144 
L 157.83168 68.84352 
L 158.06976 68.84352 
L 158.06976 68.67456 
L 158.1888 68.67456 
L 158.1888 68.33664 
L 159.49824 68.33664 
L 159.49824 68.16768 
L 159.9744 68.16768 
L 159.9744 67.82976 
L 160.80768 67.82976 
L 160.80768 67.6608 
L 161.87904 67.6608 
L 161.87904 67.49184 
L 162.71232 67.49184 
L 162.71232 67.32288 
L 164.1408 67.32288 
L 164.1408 67.15392 
L 164.25984 67.15392 
L 164.25984 66.98496 
L 164.37888 66.98496 
L 164.49792 66.64704 
L 165.21216 66.64704 
L 165.21216 66.47808 
L 165.3312 66.47808 
L 165.3312 66.14016 
L 167.712 66.14016 
L 167.712 65.9712 
L 169.85472 65.9712 
L 170.0928 65.80224 
L 171.16416 65.80224 
L 171.16416 65.63328 
L 172.71168 65.63328 
L 172.71168 65.46432 
L 173.18784 65.46432 
L 173.18784 65.29536 
L 173.42592 65.29536 
L 173.42592 65.1264 
L 174.02112 65.1264 
L 174.02112 64.78848 
L 174.2592 64.78848 
L 174.2592 64.61952 
L 174.97344 64.61952 
L 174.97344 64.45056 
L 177.94944 64.45056 
L 177.94944 64.2816 
L 179.37792 64.2816 
L 179.37792 64.11264 
L 179.97312 64.11264 
L 179.97312 63.94368 
L 180.68736 63.94368 
L 180.68736 63.77472 
L 180.8064 63.77472 
L 180.8064 63.09888 
L 183.06816 63.09888 
L 183.06816 62.92992 
L 183.30624 62.92992 
L 183.30624 62.76096 
L 187.11552 62.76096 
L 187.11552 62.592 
L 187.59168 62.592 
L 187.59168 62.42304 
L 187.71072 62.42304 
L 187.71072 62.25408 
L 191.28192 62.25408 
L 191.28192 62.08512 
L 191.63904 62.08512 
L 191.63904 61.91616 
L 194.61504 61.91616 
L 194.61504 61.7472 
L 196.99584 61.7472 
L 196.99584 61.57824 
L 197.59104 61.57824 
L 197.59104 61.40928 
L 202.70976 61.40928 
L 202.70976 61.24032 
L 203.424 61.24032 
L 203.424 61.07136 
L 204.25728 61.07136 
L 206.63808 59.55072 
L 206.9952 59.55072 
L 206.9952 59.38176 
L 207.35232 59.38176 
L 207.35232 59.2128 
L 208.1856 59.2128 
L 208.1856 59.04384 
L 209.13792 59.04384 
L 209.13792 58.87488 
L 210.68544 58.87488 
L 210.68544 58.70592 
L 210.92352 58.70592 
L 210.92352 58.53696 
L 211.63776 58.53696 
L 211.63776 58.368 
L 211.99488 58.368 
L 211.99488 58.19904 
L 212.47104 58.19904 
L 212.47104 58.03008 
L 214.25664 58.03008 
L 214.25664 57.86112 
L 214.61376 57.86112 
L 214.61376 57.69216 
L 215.56608 57.69216 
L 215.56608 57.35424 
L 219.25632 57.35424 
L 219.25632 57.18528 
L 221.39904 57.18528 
L 221.39904 57.01632 
L 237.3504 57.01632 
L 237.3504 56.84736 
L 250.08768 56.84736 
L 250.08768 56.6784 
L 250.20672 56.6784 
L 250.20672 56.50944 
L 253.4208 56.50944 
L 253.4208 56.34048 
L 255.56352 56.34048 
L 255.56352 56.17152 
L 260.32512 56.17152 
L 260.32512 56.00256 
L 264.37248 56.00256 
L 264.37248 55.8336 
L 266.15808 55.8336 
L 266.15808 55.66464 
L 275.20512 55.66464 
L 275.20512 55.49568 
L 279.0144 55.49568 
L 279.0144 55.32672 
L 284.25216 55.32672 
L 284.25216 55.15776 
L 287.10912 55.15776 
L 287.10912 54.9888 
L 292.58496 54.9888 
L 292.58496 54.81984 
L 308.89344 54.81984 
L 308.89344 54.65088 
L 337.82016 54.65088 
L 337.82016 54.48192 
L 350.08128 54.48192 
L 350.08128 54.31296 
L 357.81888 54.31296 
L 357.81888 54.144 
L 414.72 54.144 
L 414.72 54.144 
" style="fill:none;stroke:#ff1493;stroke-dasharray:4,6.6;stroke-dashoffset:0;stroke-width:4;"/>
   </g>
   <g id="line2d_17">
    <path clip-path="url(#pa54621ce2d)" d="M 57.6 286.63296 
L 57.95712 270.58176 
L 58.31424 247.26528 
L 58.67136 236.6208 
L 59.02848 230.53824 
L 59.3856 215.66976 
L 59.74272 211.10784 
L 60.45696 195.56352 
L 60.81408 192.52224 
L 61.1712 190.66368 
L 61.52832 182.72256 
L 61.88544 180.864 
L 62.24256 177.783729 
L 62.9568 176.354068 
L 63.67104 173.741686 
L 64.02816 173.026855 
L 64.7424 169.738634 
L 65.09952 169.023803 
L 65.81376 163.877022 
L 66.528 159.91296 
L 66.88512 159.40608 
L 68.3136 152.47872 
L 68.67072 151.80288 
L 69.02784 151.46496 
L 70.0992 148.7616 
L 70.45632 146.2272 
L 70.81344 144.70656 
L 71.17056 144.36864 
L 71.52768 143.6928 
L 72.24192 141.49632 
L 72.59904 139.29984 
L 74.02752 137.61024 
L 74.38464 135.75168 
L 75.09888 133.38624 
L 75.81312 132.54144 
L 77.2416 131.8656 
L 77.59872 131.52768 
L 77.95584 130.68288 
L 78.31296 130.34496 
L 78.67008 129.16224 
L 79.38432 128.65536 
L 79.74144 127.30368 
L 80.09856 126.45888 
L 80.45568 126.28992 
L 80.8128 125.78304 
L 81.16992 125.61408 
L 81.52704 124.76928 
L 82.5984 123.75552 
L 82.95552 122.23488 
L 83.66976 121.39008 
L 84.02688 121.22112 
L 84.384 120.54528 
L 85.45536 119.86944 
L 86.52672 118.51776 
L 87.59808 118.01088 
L 87.9552 117.16608 
L 88.31232 116.99712 
L 88.66944 115.98336 
L 89.02656 115.8144 
L 90.81216 113.11104 
L 91.16928 112.4352 
L 91.5264 112.26624 
L 91.88352 111.92832 
L 92.24064 110.91456 
L 92.59776 110.57664 
L 92.95488 110.40768 
L 93.312 109.56288 
L 93.66912 109.39392 
L 94.02624 109.056 
L 95.0976 108.54912 
L 95.45472 107.87328 
L 96.16896 107.19744 
L 96.52608 106.01472 
L 97.59744 105.50784 
L 97.95456 104.832 
L 98.31168 103.81824 
L 100.4544 102.46656 
L 101.16864 101.28384 
L 101.88288 101.11488 
L 102.59712 100.27008 
L 102.95424 98.74944 
L 103.66848 98.41152 
L 104.73984 98.0736 
L 105.8112 97.56672 
L 106.52544 96.04608 
L 107.23968 95.20128 
L 107.5968 95.03232 
L 108.31104 94.35648 
L 108.66816 93.8496 
L 110.45376 93.68064 
L 110.81088 93.51168 
L 112.59648 92.16 
L 112.9536 91.82208 
L 113.66784 91.65312 
L 114.02496 91.3152 
L 115.81056 90.97728 
L 116.16768 90.4704 
L 117.59616 89.45664 
L 118.3104 89.28768 
L 118.66752 88.94976 
L 119.38176 88.44288 
L 121.8816 87.76704 
L 122.23872 87.59808 
L 123.31008 86.58432 
L 123.6672 85.73952 
L 124.73856 85.57056 
L 125.09568 85.4016 
L 125.80992 85.23264 
L 127.95264 84.38784 
L 129.024 84.21888 
L 129.38112 83.712 
L 129.73824 83.54304 
L 130.09536 82.69824 
L 130.45248 82.52928 
L 130.8096 81.85344 
L 132.95232 81.34656 
L 133.30944 80.83968 
L 134.02368 80.3328 
L 134.3808 80.3328 
L 134.73792 80.16384 
L 136.88064 79.82592 
L 137.59488 79.23456 
L 139.02336 78.30528 
L 139.7376 78.30528 
L 140.09472 77.96736 
L 141.16608 77.62944 
L 141.5232 77.46048 
L 141.88032 77.12256 
L 144.02304 76.78464 
L 145.0944 76.27776 
L 147.23712 76.1088 
L 147.59424 75.60192 
L 149.37984 75.264 
L 150.09408 74.92608 
L 150.4512 74.92608 
L 151.87968 74.25024 
L 154.0224 74.08128 
L 154.37952 73.91232 
L 154.73664 73.5744 
L 156.16512 72.89856 
L 158.66496 72.22272 
L 159.02208 72.05376 
L 160.45056 71.776666 
L 161.52192 71.357645 
L 163.66464 71.026483 
L 164.02176 70.66153 
L 165.80736 70.188442 
L 167.95008 70.02624 
L 169.02144 69.51936 
L 169.37856 69.01248 
L 172.59264 68.84352 
L 174.02112 68.16768 
L 175.80672 67.99872 
L 176.52096 67.6608 
L 176.87808 67.32288 
L 177.59232 66.98496 
L 182.94912 65.80224 
L 183.30624 65.29536 
L 192.59136 64.95744 
L 196.8768 64.61952 
L 197.94816 63.94368 
L 198.30528 63.77472 
L 199.01952 63.60576 
L 200.80512 63.60576 
L 203.30496 63.26784 
L 204.37632 62.76096 
L 205.44768 62.592 
L 215.44704 61.7472 
L 219.01824 61.40928 
L 226.87488 61.07136 
L 227.58912 60.73344 
L 229.0176 60.56448 
L 229.73184 60.22656 
L 231.51744 60.22656 
L 233.66016 59.88864 
L 242.23104 59.55072 
L 242.58816 59.38176 
L 246.15936 59.2128 
L 253.30176 57.69216 
L 261.1584 57.5232 
L 261.51552 57.35424 
L 262.58688 57.18528 
L 263.30112 56.84736 
L 265.08672 56.6784 
L 265.80096 56.34048 
L 284.01408 56.17152 
L 291.5136 55.8336 
L 302.2272 55.66464 
L 304.36992 55.32672 
L 334.368 54.31296 
L 414.72 54.144 
L 414.72 54.144 
" style="fill:none;stroke:#000080;stroke-dasharray:4,6.6;stroke-dashoffset:0;stroke-width:4;"/>
   </g>
   <g id="line2d_18">
    <path clip-path="url(#pa54621ce2d)" d="M 57.6 307.584 
L 414.72 54.144 
" style="fill:none;stroke:#000000;stroke-dasharray:7.4,3.2;stroke-dashoffset:0;stroke-width:2;"/>
   </g>
   <g id="patch_3">
    <path d="M 57.6 307.584 
L 57.6 41.472 
" style="fill:none;stroke:#000000;stroke-linecap:square;stroke-linejoin:miter;stroke-width:0.8;"/>
   </g>
   <g id="patch_4">
    <path d="M 414.72 307.584 
L 414.72 41.472 
" style="fill:none;stroke:#000000;stroke-linecap:square;stroke-linejoin:miter;stroke-width:0.8;"/>
   </g>
   <g id="patch_5">
    <path d="M 57.6 307.584 
L 414.72 307.584 
" style="fill:none;stroke:#000000;stroke-linecap:square;stroke-linejoin:miter;stroke-width:0.8;"/>
   </g>
   <g id="patch_6">
    <path d="M 57.6 41.472 
L 414.72 41.472 
" style="fill:none;stroke:#000000;stroke-linecap:square;stroke-linejoin:miter;stroke-width:0.8;"/>
   </g>
   <g id="text_15">
    <!-- ROC Curves -->
    <defs>
     <path d="M 39.40625 66.21875 
Q 28.65625 66.21875 22.328125 58.203125 
Q 16.015625 50.203125 16.015625 36.375 
Q 16.015625 22.609375 22.328125 14.59375 
Q 28.65625 6.59375 39.40625 6.59375 
Q 50.140625 6.59375 56.421875 14.59375 
Q 62.703125 22.609375 62.703125 36.375 
Q 62.703125 50.203125 56.421875 58.203125 
Q 50.140625 66.21875 39.40625 66.21875 
z
M 39.40625 74.21875 
Q 54.734375 74.21875 63.90625 63.9375 
Q 73.09375 53.65625 73.09375 36.375 
Q 73.09375 19.140625 63.90625 8.859375 
Q 54.734375 -1.421875 39.40625 -1.421875 
Q 24.03125 -1.421875 14.8125 8.828125 
Q 5.609375 19.09375 5.609375 36.375 
Q 5.609375 53.65625 14.8125 63.9375 
Q 24.03125 74.21875 39.40625 74.21875 
z
" id="DejaVuSans-79"/>
     <path d="M 64.40625 67.28125 
L 64.40625 56.890625 
Q 59.421875 61.53125 53.78125 63.8125 
Q 48.140625 66.109375 41.796875 66.109375 
Q 29.296875 66.109375 22.65625 58.46875 
Q 16.015625 50.828125 16.015625 36.375 
Q 16.015625 21.96875 22.65625 14.328125 
Q 29.296875 6.6875 41.796875 6.6875 
Q 48.140625 6.6875 53.78125 8.984375 
Q 59.421875 11.28125 64.40625 15.921875 
L 64.40625 5.609375 
Q 59.234375 2.09375 53.4375 0.328125 
Q 47.65625 -1.421875 41.21875 -1.421875 
Q 24.65625 -1.421875 15.125 8.703125 
Q 5.609375 18.84375 5.609375 36.375 
Q 5.609375 53.953125 15.125 64.078125 
Q 24.65625 74.21875 41.21875 74.21875 
Q 47.75 74.21875 53.53125 72.484375 
Q 59.328125 70.75 64.40625 67.28125 
z
" id="DejaVuSans-67"/>
    </defs>
    <g transform="translate(178.854 35.472)scale(0.192 -0.192)">
     <use xlink:href="#DejaVuSans-82"/>
     <use x="69.482422" xlink:href="#DejaVuSans-79"/>
     <use x="148.193359" xlink:href="#DejaVuSans-67"/>
     <use x="218.017578" xlink:href="#DejaVuSans-32"/>
     <use x="249.804688" xlink:href="#DejaVuSans-67"/>
     <use x="319.628906" xlink:href="#DejaVuSans-117"/>
     <use x="383.007812" xlink:href="#DejaVuSans-114"/>
     <use x="424.121094" xlink:href="#DejaVuSans-118"/>
     <use x="483.300781" xlink:href="#DejaVuSans-101"/>
     <use x="544.824219" xlink:href="#DejaVuSans-115"/>
    </g>
   </g>
   <g id="legend_1">
    <g id="patch_7">
     <path d="M 28.2175 299.584 
L 403.52 299.584 
Q 406.72 299.584 406.72 296.384 
L 406.72 180.559 
Q 406.72 177.359 403.52 177.359 
L 28.2175 177.359 
Q 25.0175 177.359 25.0175 180.559 
L 25.0175 296.384 
Q 25.0175 299.584 28.2175 299.584 
z
" style="fill:#ffffff;opacity:0.8;stroke:#cccccc;stroke-linejoin:miter;"/>
    </g>
    <g id="line2d_19">
     <path d="M 31.4175 190.3165 
L 63.4175 190.3165 
" style="fill:none;stroke:#000000;stroke-linecap:square;stroke-width:2;"/>
    </g>
    <g id="line2d_20"/>
    <g id="text_16">
     <!-- ROC curve of class 0 (area = 0.97) -->
     <defs>
      <path d="M 48.78125 52.59375 
L 48.78125 44.1875 
Q 44.96875 46.296875 41.140625 47.34375 
Q 37.3125 48.390625 33.40625 48.390625 
Q 24.65625 48.390625 19.8125 42.84375 
Q 14.984375 37.3125 14.984375 27.296875 
Q 14.984375 17.28125 19.8125 11.734375 
Q 24.65625 6.203125 33.40625 6.203125 
Q 37.3125 6.203125 41.140625 7.25 
Q 44.96875 8.296875 48.78125 10.40625 
L 48.78125 2.09375 
Q 45.015625 0.34375 40.984375 -0.53125 
Q 36.96875 -1.421875 32.421875 -1.421875 
Q 20.0625 -1.421875 12.78125 6.34375 
Q 5.515625 14.109375 5.515625 27.296875 
Q 5.515625 40.671875 12.859375 48.328125 
Q 20.21875 56 33.015625 56 
Q 37.15625 56 41.109375 55.140625 
Q 45.0625 54.296875 48.78125 52.59375 
z
" id="DejaVuSans-99"/>
      <path d="M 37.109375 75.984375 
L 37.109375 68.5 
L 28.515625 68.5 
Q 23.6875 68.5 21.796875 66.546875 
Q 19.921875 64.59375 19.921875 59.515625 
L 19.921875 54.6875 
L 34.71875 54.6875 
L 34.71875 47.703125 
L 19.921875 47.703125 
L 19.921875 0 
L 10.890625 0 
L 10.890625 47.703125 
L 2.296875 47.703125 
L 2.296875 54.6875 
L 10.890625 54.6875 
L 10.890625 58.5 
Q 10.890625 67.625 15.140625 71.796875 
Q 19.390625 75.984375 28.609375 75.984375 
z
" id="DejaVuSans-102"/>
      <path d="M 31 75.875 
Q 24.46875 64.65625 21.28125 53.65625 
Q 18.109375 42.671875 18.109375 31.390625 
Q 18.109375 20.125 21.3125 9.0625 
Q 24.515625 -2 31 -13.1875 
L 23.1875 -13.1875 
Q 15.875 -1.703125 12.234375 9.375 
Q 8.59375 20.453125 8.59375 31.390625 
Q 8.59375 42.28125 12.203125 53.3125 
Q 15.828125 64.359375 23.1875 75.875 
z
" id="DejaVuSans-40"/>
      <path d="M 10.59375 45.40625 
L 73.1875 45.40625 
L 73.1875 37.203125 
L 10.59375 37.203125 
z
M 10.59375 25.484375 
L 73.1875 25.484375 
L 73.1875 17.1875 
L 10.59375 17.1875 
z
" id="DejaVuSans-61"/>
      <path d="M 10.984375 1.515625 
L 10.984375 10.5 
Q 14.703125 8.734375 18.5 7.8125 
Q 22.3125 6.890625 25.984375 6.890625 
Q 35.75 6.890625 40.890625 13.453125 
Q 46.046875 20.015625 46.78125 33.40625 
Q 43.953125 29.203125 39.59375 26.953125 
Q 35.25 24.703125 29.984375 24.703125 
Q 19.046875 24.703125 12.671875 31.3125 
Q 6.296875 37.9375 6.296875 49.421875 
Q 6.296875 60.640625 12.9375 67.421875 
Q 19.578125 74.21875 30.609375 74.21875 
Q 43.265625 74.21875 49.921875 64.515625 
Q 56.59375 54.828125 56.59375 36.375 
Q 56.59375 19.140625 48.40625 8.859375 
Q 40.234375 -1.421875 26.421875 -1.421875 
Q 22.703125 -1.421875 18.890625 -0.6875 
Q 15.09375 0.046875 10.984375 1.515625 
z
M 30.609375 32.421875 
Q 37.25 32.421875 41.125 36.953125 
Q 45.015625 41.5 45.015625 49.421875 
Q 45.015625 57.28125 41.125 61.84375 
Q 37.25 66.40625 30.609375 66.40625 
Q 23.96875 66.40625 20.09375 61.84375 
Q 16.21875 57.28125 16.21875 49.421875 
Q 16.21875 41.5 20.09375 36.953125 
Q 23.96875 32.421875 30.609375 32.421875 
z
" id="DejaVuSans-57"/>
      <path d="M 8.203125 72.90625 
L 55.078125 72.90625 
L 55.078125 68.703125 
L 28.609375 0 
L 18.3125 0 
L 43.21875 64.59375 
L 8.203125 64.59375 
z
" id="DejaVuSans-55"/>
      <path d="M 8.015625 75.875 
L 15.828125 75.875 
Q 23.140625 64.359375 26.78125 53.3125 
Q 30.421875 42.28125 30.421875 31.390625 
Q 30.421875 20.453125 26.78125 9.375 
Q 23.140625 -1.703125 15.828125 -13.1875 
L 8.015625 -13.1875 
Q 14.5 -2 17.703125 9.0625 
Q 20.90625 20.125 20.90625 31.390625 
Q 20.90625 42.671875 17.703125 53.65625 
Q 14.5 64.65625 8.015625 75.875 
z
" id="DejaVuSans-41"/>
     </defs>
     <g transform="translate(76.2175 195.9165)scale(0.16 -0.16)">
      <use xlink:href="#DejaVuSans-82"/>
      <use x="69.482422" xlink:href="#DejaVuSans-79"/>
      <use x="148.193359" xlink:href="#DejaVuSans-67"/>
      <use x="218.017578" xlink:href="#DejaVuSans-32"/>
      <use x="249.804688" xlink:href="#DejaVuSans-99"/>
      <use x="304.785156" xlink:href="#DejaVuSans-117"/>
      <use x="368.164062" xlink:href="#DejaVuSans-114"/>
      <use x="409.277344" xlink:href="#DejaVuSans-118"/>
      <use x="468.457031" xlink:href="#DejaVuSans-101"/>
      <use x="529.980469" xlink:href="#DejaVuSans-32"/>
      <use x="561.767578" xlink:href="#DejaVuSans-111"/>
      <use x="622.949219" xlink:href="#DejaVuSans-102"/>
      <use x="658.154297" xlink:href="#DejaVuSans-32"/>
      <use x="689.941406" xlink:href="#DejaVuSans-99"/>
      <use x="744.921875" xlink:href="#DejaVuSans-108"/>
      <use x="772.705078" xlink:href="#DejaVuSans-97"/>
      <use x="833.984375" xlink:href="#DejaVuSans-115"/>
      <use x="886.083984" xlink:href="#DejaVuSans-115"/>
      <use x="938.183594" xlink:href="#DejaVuSans-32"/>
      <use x="969.970703" xlink:href="#DejaVuSans-48"/>
      <use x="1033.59375" xlink:href="#DejaVuSans-32"/>
      <use x="1065.380859" xlink:href="#DejaVuSans-40"/>
      <use x="1104.394531" xlink:href="#DejaVuSans-97"/>
      <use x="1165.673828" xlink:href="#DejaVuSans-114"/>
      <use x="1204.537109" xlink:href="#DejaVuSans-101"/>
      <use x="1266.060547" xlink:href="#DejaVuSans-97"/>
      <use x="1327.339844" xlink:href="#DejaVuSans-32"/>
      <use x="1359.126953" xlink:href="#DejaVuSans-61"/>
      <use x="1442.916016" xlink:href="#DejaVuSans-32"/>
      <use x="1474.703125" xlink:href="#DejaVuSans-48"/>
      <use x="1538.326172" xlink:href="#DejaVuSans-46"/>
      <use x="1570.113281" xlink:href="#DejaVuSans-57"/>
      <use x="1633.736328" xlink:href="#DejaVuSans-55"/>
      <use x="1697.359375" xlink:href="#DejaVuSans-41"/>
     </g>
    </g>
    <g id="line2d_21">
     <path d="M 31.4175 213.8015 
L 63.4175 213.8015 
" style="fill:none;stroke:#00a4bb;stroke-linecap:square;stroke-width:2;"/>
    </g>
    <g id="line2d_22"/>
    <g id="text_17">
     <!-- ROC curve of class 1 (area = 0.90) -->
     <g transform="translate(76.2175 219.4015)scale(0.16 -0.16)">
      <use xlink:href="#DejaVuSans-82"/>
      <use x="69.482422" xlink:href="#DejaVuSans-79"/>
      <use x="148.193359" xlink:href="#DejaVuSans-67"/>
      <use x="218.017578" xlink:href="#DejaVuSans-32"/>
      <use x="249.804688" xlink:href="#DejaVuSans-99"/>
      <use x="304.785156" xlink:href="#DejaVuSans-117"/>
      <use x="368.164062" xlink:href="#DejaVuSans-114"/>
      <use x="409.277344" xlink:href="#DejaVuSans-118"/>
      <use x="468.457031" xlink:href="#DejaVuSans-101"/>
      <use x="529.980469" xlink:href="#DejaVuSans-32"/>
      <use x="561.767578" xlink:href="#DejaVuSans-111"/>
      <use x="622.949219" xlink:href="#DejaVuSans-102"/>
      <use x="658.154297" xlink:href="#DejaVuSans-32"/>
      <use x="689.941406" xlink:href="#DejaVuSans-99"/>
      <use x="744.921875" xlink:href="#DejaVuSans-108"/>
      <use x="772.705078" xlink:href="#DejaVuSans-97"/>
      <use x="833.984375" xlink:href="#DejaVuSans-115"/>
      <use x="886.083984" xlink:href="#DejaVuSans-115"/>
      <use x="938.183594" xlink:href="#DejaVuSans-32"/>
      <use x="969.970703" xlink:href="#DejaVuSans-49"/>
      <use x="1033.59375" xlink:href="#DejaVuSans-32"/>
      <use x="1065.380859" xlink:href="#DejaVuSans-40"/>
      <use x="1104.394531" xlink:href="#DejaVuSans-97"/>
      <use x="1165.673828" xlink:href="#DejaVuSans-114"/>
      <use x="1204.537109" xlink:href="#DejaVuSans-101"/>
      <use x="1266.060547" xlink:href="#DejaVuSans-97"/>
      <use x="1327.339844" xlink:href="#DejaVuSans-32"/>
      <use x="1359.126953" xlink:href="#DejaVuSans-61"/>
      <use x="1442.916016" xlink:href="#DejaVuSans-32"/>
      <use x="1474.703125" xlink:href="#DejaVuSans-48"/>
      <use x="1538.326172" xlink:href="#DejaVuSans-46"/>
      <use x="1570.113281" xlink:href="#DejaVuSans-57"/>
      <use x="1633.736328" xlink:href="#DejaVuSans-48"/>
      <use x="1697.359375" xlink:href="#DejaVuSans-41"/>
     </g>
    </g>
    <g id="line2d_23">
     <path d="M 31.4175 237.2865 
L 63.4175 237.2865 
" style="fill:none;stroke:#ccf900;stroke-linecap:square;stroke-width:2;"/>
    </g>
    <g id="line2d_24"/>
    <g id="text_18">
     <!-- ROC curve of class 2 (area = 0.92) -->
     <g transform="translate(76.2175 242.8865)scale(0.16 -0.16)">
      <use xlink:href="#DejaVuSans-82"/>
      <use x="69.482422" xlink:href="#DejaVuSans-79"/>
      <use x="148.193359" xlink:href="#DejaVuSans-67"/>
      <use x="218.017578" xlink:href="#DejaVuSans-32"/>
      <use x="249.804688" xlink:href="#DejaVuSans-99"/>
      <use x="304.785156" xlink:href="#DejaVuSans-117"/>
      <use x="368.164062" xlink:href="#DejaVuSans-114"/>
      <use x="409.277344" xlink:href="#DejaVuSans-118"/>
      <use x="468.457031" xlink:href="#DejaVuSans-101"/>
      <use x="529.980469" xlink:href="#DejaVuSans-32"/>
      <use x="561.767578" xlink:href="#DejaVuSans-111"/>
      <use x="622.949219" xlink:href="#DejaVuSans-102"/>
      <use x="658.154297" xlink:href="#DejaVuSans-32"/>
      <use x="689.941406" xlink:href="#DejaVuSans-99"/>
      <use x="744.921875" xlink:href="#DejaVuSans-108"/>
      <use x="772.705078" xlink:href="#DejaVuSans-97"/>
      <use x="833.984375" xlink:href="#DejaVuSans-115"/>
      <use x="886.083984" xlink:href="#DejaVuSans-115"/>
      <use x="938.183594" xlink:href="#DejaVuSans-32"/>
      <use x="969.970703" xlink:href="#DejaVuSans-50"/>
      <use x="1033.59375" xlink:href="#DejaVuSans-32"/>
      <use x="1065.380859" xlink:href="#DejaVuSans-40"/>
      <use x="1104.394531" xlink:href="#DejaVuSans-97"/>
      <use x="1165.673828" xlink:href="#DejaVuSans-114"/>
      <use x="1204.537109" xlink:href="#DejaVuSans-101"/>
      <use x="1266.060547" xlink:href="#DejaVuSans-97"/>
      <use x="1327.339844" xlink:href="#DejaVuSans-32"/>
      <use x="1359.126953" xlink:href="#DejaVuSans-61"/>
      <use x="1442.916016" xlink:href="#DejaVuSans-32"/>
      <use x="1474.703125" xlink:href="#DejaVuSans-48"/>
      <use x="1538.326172" xlink:href="#DejaVuSans-46"/>
      <use x="1570.113281" xlink:href="#DejaVuSans-57"/>
      <use x="1633.736328" xlink:href="#DejaVuSans-50"/>
      <use x="1697.359375" xlink:href="#DejaVuSans-41"/>
     </g>
    </g>
    <g id="line2d_25">
     <path d="M 31.4175 260.7715 
L 63.4175 260.7715 
" style="fill:none;stroke:#ff1493;stroke-dasharray:4,6.6;stroke-dashoffset:0;stroke-width:4;"/>
    </g>
    <g id="line2d_26"/>
    <g id="text_19">
     <!-- micro-average ROC curve (area = 0.93) -->
     <defs>
      <path d="M 52 44.1875 
Q 55.375 50.25 60.0625 53.125 
Q 64.75 56 71.09375 56 
Q 79.640625 56 84.28125 50.015625 
Q 88.921875 44.046875 88.921875 33.015625 
L 88.921875 0 
L 79.890625 0 
L 79.890625 32.71875 
Q 79.890625 40.578125 77.09375 44.375 
Q 74.3125 48.1875 68.609375 48.1875 
Q 61.625 48.1875 57.5625 43.546875 
Q 53.515625 38.921875 53.515625 30.90625 
L 53.515625 0 
L 44.484375 0 
L 44.484375 32.71875 
Q 44.484375 40.625 41.703125 44.40625 
Q 38.921875 48.1875 33.109375 48.1875 
Q 26.21875 48.1875 22.15625 43.53125 
Q 18.109375 38.875 18.109375 30.90625 
L 18.109375 0 
L 9.078125 0 
L 9.078125 54.6875 
L 18.109375 54.6875 
L 18.109375 46.1875 
Q 21.1875 51.21875 25.484375 53.609375 
Q 29.78125 56 35.6875 56 
Q 41.65625 56 45.828125 52.96875 
Q 50 49.953125 52 44.1875 
z
" id="DejaVuSans-109"/>
      <path d="M 4.890625 31.390625 
L 31.203125 31.390625 
L 31.203125 23.390625 
L 4.890625 23.390625 
z
" id="DejaVuSans-45"/>
      <path d="M 45.40625 27.984375 
Q 45.40625 37.75 41.375 43.109375 
Q 37.359375 48.484375 30.078125 48.484375 
Q 22.859375 48.484375 18.828125 43.109375 
Q 14.796875 37.75 14.796875 27.984375 
Q 14.796875 18.265625 18.828125 12.890625 
Q 22.859375 7.515625 30.078125 7.515625 
Q 37.359375 7.515625 41.375 12.890625 
Q 45.40625 18.265625 45.40625 27.984375 
z
M 54.390625 6.78125 
Q 54.390625 -7.171875 48.1875 -13.984375 
Q 42 -20.796875 29.203125 -20.796875 
Q 24.46875 -20.796875 20.265625 -20.09375 
Q 16.0625 -19.390625 12.109375 -17.921875 
L 12.109375 -9.1875 
Q 16.0625 -11.328125 19.921875 -12.34375 
Q 23.78125 -13.375 27.78125 -13.375 
Q 36.625 -13.375 41.015625 -8.765625 
Q 45.40625 -4.15625 45.40625 5.171875 
L 45.40625 9.625 
Q 42.625 4.78125 38.28125 2.390625 
Q 33.9375 0 27.875 0 
Q 17.828125 0 11.671875 7.65625 
Q 5.515625 15.328125 5.515625 27.984375 
Q 5.515625 40.671875 11.671875 48.328125 
Q 17.828125 56 27.875 56 
Q 33.9375 56 38.28125 53.609375 
Q 42.625 51.21875 45.40625 46.390625 
L 45.40625 54.6875 
L 54.390625 54.6875 
z
" id="DejaVuSans-103"/>
      <path d="M 40.578125 39.3125 
Q 47.65625 37.796875 51.625 33 
Q 55.609375 28.21875 55.609375 21.1875 
Q 55.609375 10.40625 48.1875 4.484375 
Q 40.765625 -1.421875 27.09375 -1.421875 
Q 22.515625 -1.421875 17.65625 -0.515625 
Q 12.796875 0.390625 7.625 2.203125 
L 7.625 11.71875 
Q 11.71875 9.328125 16.59375 8.109375 
Q 21.484375 6.890625 26.8125 6.890625 
Q 36.078125 6.890625 40.9375 10.546875 
Q 45.796875 14.203125 45.796875 21.1875 
Q 45.796875 27.640625 41.28125 31.265625 
Q 36.765625 34.90625 28.71875 34.90625 
L 20.21875 34.90625 
L 20.21875 43.015625 
L 29.109375 43.015625 
Q 36.375 43.015625 40.234375 45.921875 
Q 44.09375 48.828125 44.09375 54.296875 
Q 44.09375 59.90625 40.109375 62.90625 
Q 36.140625 65.921875 28.71875 65.921875 
Q 24.65625 65.921875 20.015625 65.03125 
Q 15.375 64.15625 9.8125 62.3125 
L 9.8125 71.09375 
Q 15.4375 72.65625 20.34375 73.4375 
Q 25.25 74.21875 29.59375 74.21875 
Q 40.828125 74.21875 47.359375 69.109375 
Q 53.90625 64.015625 53.90625 55.328125 
Q 53.90625 49.265625 50.4375 45.09375 
Q 46.96875 40.921875 40.578125 39.3125 
z
" id="DejaVuSans-51"/>
     </defs>
     <g transform="translate(76.2175 266.3715)scale(0.16 -0.16)">
      <use xlink:href="#DejaVuSans-109"/>
      <use x="97.412109" xlink:href="#DejaVuSans-105"/>
      <use x="125.195312" xlink:href="#DejaVuSans-99"/>
      <use x="180.175781" xlink:href="#DejaVuSans-114"/>
      <use x="219.039062" xlink:href="#DejaVuSans-111"/>
      <use x="282.095703" xlink:href="#DejaVuSans-45"/>
      <use x="318.179688" xlink:href="#DejaVuSans-97"/>
      <use x="379.458984" xlink:href="#DejaVuSans-118"/>
      <use x="438.638672" xlink:href="#DejaVuSans-101"/>
      <use x="500.162109" xlink:href="#DejaVuSans-114"/>
      <use x="541.275391" xlink:href="#DejaVuSans-97"/>
      <use x="602.554688" xlink:href="#DejaVuSans-103"/>
      <use x="666.03125" xlink:href="#DejaVuSans-101"/>
      <use x="727.554688" xlink:href="#DejaVuSans-32"/>
      <use x="759.341797" xlink:href="#DejaVuSans-82"/>
      <use x="828.824219" xlink:href="#DejaVuSans-79"/>
      <use x="907.535156" xlink:href="#DejaVuSans-67"/>
      <use x="977.359375" xlink:href="#DejaVuSans-32"/>
      <use x="1009.146484" xlink:href="#DejaVuSans-99"/>
      <use x="1064.126953" xlink:href="#DejaVuSans-117"/>
      <use x="1127.505859" xlink:href="#DejaVuSans-114"/>
      <use x="1168.619141" xlink:href="#DejaVuSans-118"/>
      <use x="1227.798828" xlink:href="#DejaVuSans-101"/>
      <use x="1289.322266" xlink:href="#DejaVuSans-32"/>
      <use x="1321.109375" xlink:href="#DejaVuSans-40"/>
      <use x="1360.123047" xlink:href="#DejaVuSans-97"/>
      <use x="1421.402344" xlink:href="#DejaVuSans-114"/>
      <use x="1460.265625" xlink:href="#DejaVuSans-101"/>
      <use x="1521.789062" xlink:href="#DejaVuSans-97"/>
      <use x="1583.068359" xlink:href="#DejaVuSans-32"/>
      <use x="1614.855469" xlink:href="#DejaVuSans-61"/>
      <use x="1698.644531" xlink:href="#DejaVuSans-32"/>
      <use x="1730.431641" xlink:href="#DejaVuSans-48"/>
      <use x="1794.054688" xlink:href="#DejaVuSans-46"/>
      <use x="1825.841797" xlink:href="#DejaVuSans-57"/>
      <use x="1889.464844" xlink:href="#DejaVuSans-51"/>
      <use x="1953.087891" xlink:href="#DejaVuSans-41"/>
     </g>
    </g>
    <g id="line2d_27">
     <path d="M 31.4175 284.2565 
L 63.4175 284.2565 
" style="fill:none;stroke:#000080;stroke-dasharray:4,6.6;stroke-dashoffset:0;stroke-width:4;"/>
    </g>
    <g id="line2d_28"/>
    <g id="text_20">
     <!-- macro-average ROC curve (area = 0.93) -->
     <g transform="translate(76.2175 289.8565)scale(0.16 -0.16)">
      <use xlink:href="#DejaVuSans-109"/>
      <use x="97.412109" xlink:href="#DejaVuSans-97"/>
      <use x="158.691406" xlink:href="#DejaVuSans-99"/>
      <use x="213.671875" xlink:href="#DejaVuSans-114"/>
      <use x="252.535156" xlink:href="#DejaVuSans-111"/>
      <use x="315.591797" xlink:href="#DejaVuSans-45"/>
      <use x="351.675781" xlink:href="#DejaVuSans-97"/>
      <use x="412.955078" xlink:href="#DejaVuSans-118"/>
      <use x="472.134766" xlink:href="#DejaVuSans-101"/>
      <use x="533.658203" xlink:href="#DejaVuSans-114"/>
      <use x="574.771484" xlink:href="#DejaVuSans-97"/>
      <use x="636.050781" xlink:href="#DejaVuSans-103"/>
      <use x="699.527344" xlink:href="#DejaVuSans-101"/>
      <use x="761.050781" xlink:href="#DejaVuSans-32"/>
      <use x="792.837891" xlink:href="#DejaVuSans-82"/>
      <use x="862.320312" xlink:href="#DejaVuSans-79"/>
      <use x="941.03125" xlink:href="#DejaVuSans-67"/>
      <use x="1010.855469" xlink:href="#DejaVuSans-32"/>
      <use x="1042.642578" xlink:href="#DejaVuSans-99"/>
      <use x="1097.623047" xlink:href="#DejaVuSans-117"/>
      <use x="1161.001953" xlink:href="#DejaVuSans-114"/>
      <use x="1202.115234" xlink:href="#DejaVuSans-118"/>
      <use x="1261.294922" xlink:href="#DejaVuSans-101"/>
      <use x="1322.818359" xlink:href="#DejaVuSans-32"/>
      <use x="1354.605469" xlink:href="#DejaVuSans-40"/>
      <use x="1393.619141" xlink:href="#DejaVuSans-97"/>
      <use x="1454.898438" xlink:href="#DejaVuSans-114"/>
      <use x="1493.761719" xlink:href="#DejaVuSans-101"/>
      <use x="1555.285156" xlink:href="#DejaVuSans-97"/>
      <use x="1616.564453" xlink:href="#DejaVuSans-32"/>
      <use x="1648.351562" xlink:href="#DejaVuSans-61"/>
      <use x="1732.140625" xlink:href="#DejaVuSans-32"/>
      <use x="1763.927734" xlink:href="#DejaVuSans-48"/>
      <use x="1827.550781" xlink:href="#DejaVuSans-46"/>
      <use x="1859.337891" xlink:href="#DejaVuSans-57"/>
      <use x="1922.960938" xlink:href="#DejaVuSans-51"/>
      <use x="1986.583984" xlink:href="#DejaVuSans-41"/>
     </g>
    </g>
   </g>
  </g>
 </g>
 <defs>
  <clipPath id="pa54621ce2d">
   <rect height="266.112" width="357.12" x="57.6" y="41.472"/>
  </clipPath>
 </defs>
</svg>
