<?xml version="1.0" encoding="utf-8" standalone="no"?>
<!DOCTYPE svg PUBLIC "-//W3C//DTD SVG 1.1//EN"
  "http://www.w3.org/Graphics/SVG/1.1/DTD/svg11.dtd">
<!-- Created with matplotlib (https://matplotlib.org/) -->
<svg height="345.6pt" version="1.1" viewBox="0 0 460.8 345.6" width="460.8pt" xmlns="http://www.w3.org/2000/svg" xmlns:xlink="http://www.w3.org/1999/xlink">
 <defs>
  <style type="text/css">
*{stroke-linecap:butt;stroke-linejoin:round;}
  </style>
 </defs>
 <g id="figure_1">
  <g id="patch_1">
   <path d="M 0 345.6 
L 460.8 345.6 
L 460.8 0 
L 0 0 
z
" style="fill:#ffffff;"/>
  </g>
  <g id="axes_1">
   <g id="patch_2">
    <path d="M 57.6 307.584 
L 414.72 307.584 
L 414.72 41.472 
L 57.6 41.472 
z
" style="fill:#ffffff;"/>
   </g>
   <g id="matplotlib.axis_1">
    <g id="xtick_1">
     <g id="line2d_1">
      <defs>
       <path d="M 0 0 
L 0 3.5 
" id="me61af0ff74" style="stroke:#000000;stroke-width:0.8;"/>
      </defs>
      <g>
       <use style="stroke:#000000;stroke-width:0.8;" x="57.6" xlink:href="#me61af0ff74" y="307.584"/>
      </g>
     </g>
     <g id="text_1">
      <!-- 0.0 -->
      <defs>
       <path d="M 31.78125 66.40625 
Q 24.171875 66.40625 20.328125 58.90625 
Q 16.5 51.421875 16.5 36.375 
Q 16.5 21.390625 20.328125 13.890625 
Q 24.171875 6.390625 31.78125 6.390625 
Q 39.453125 6.390625 43.28125 13.890625 
Q 47.125 21.390625 47.125 36.375 
Q 47.125 51.421875 43.28125 58.90625 
Q 39.453125 66.40625 31.78125 66.40625 
z
M 31.78125 74.21875 
Q 44.046875 74.21875 50.515625 64.515625 
Q 56.984375 54.828125 56.984375 36.375 
Q 56.984375 17.96875 50.515625 8.265625 
Q 44.046875 -1.421875 31.78125 -1.421875 
Q 19.53125 -1.421875 13.0625 8.265625 
Q 6.59375 17.96875 6.59375 36.375 
Q 6.59375 54.828125 13.0625 64.515625 
Q 19.53125 74.21875 31.78125 74.21875 
z
" id="DejaVuSans-48"/>
       <path d="M 10.6875 12.40625 
L 21 12.40625 
L 21 0 
L 10.6875 0 
z
" id="DejaVuSans-46"/>
      </defs>
      <g transform="translate(49.648438 322.182437)scale(0.1 -0.1)">
       <use xlink:href="#DejaVuSans-48"/>
       <use x="63.623047" xlink:href="#DejaVuSans-46"/>
       <use x="95.410156" xlink:href="#DejaVuSans-48"/>
      </g>
     </g>
    </g>
    <g id="xtick_2">
     <g id="line2d_2">
      <g>
       <use style="stroke:#000000;stroke-width:0.8;" x="129.024" xlink:href="#me61af0ff74" y="307.584"/>
      </g>
     </g>
     <g id="text_2">
      <!-- 0.2 -->
      <defs>
       <path d="M 19.1875 8.296875 
L 53.609375 8.296875 
L 53.609375 0 
L 7.328125 0 
L 7.328125 8.296875 
Q 12.9375 14.109375 22.625 23.890625 
Q 32.328125 33.6875 34.8125 36.53125 
Q 39.546875 41.84375 41.421875 45.53125 
Q 43.3125 49.21875 43.3125 52.78125 
Q 43.3125 58.59375 39.234375 62.25 
Q 35.15625 65.921875 28.609375 65.921875 
Q 23.96875 65.921875 18.8125 64.3125 
Q 13.671875 62.703125 7.8125 59.421875 
L 7.8125 69.390625 
Q 13.765625 71.78125 18.9375 73 
Q 24.125 74.21875 28.421875 74.21875 
Q 39.75 74.21875 46.484375 68.546875 
Q 53.21875 62.890625 53.21875 53.421875 
Q 53.21875 48.921875 51.53125 44.890625 
Q 49.859375 40.875 45.40625 35.40625 
Q 44.1875 33.984375 37.640625 27.21875 
Q 31.109375 20.453125 19.1875 8.296875 
z
" id="DejaVuSans-50"/>
      </defs>
      <g transform="translate(121.072438 322.182437)scale(0.1 -0.1)">
       <use xlink:href="#DejaVuSans-48"/>
       <use x="63.623047" xlink:href="#DejaVuSans-46"/>
       <use x="95.410156" xlink:href="#DejaVuSans-50"/>
      </g>
     </g>
    </g>
    <g id="xtick_3">
     <g id="line2d_3">
      <g>
       <use style="stroke:#000000;stroke-width:0.8;" x="200.448" xlink:href="#me61af0ff74" y="307.584"/>
      </g>
     </g>
     <g id="text_3">
      <!-- 0.4 -->
      <defs>
       <path d="M 37.796875 64.3125 
L 12.890625 25.390625 
L 37.796875 25.390625 
z
M 35.203125 72.90625 
L 47.609375 72.90625 
L 47.609375 25.390625 
L 58.015625 25.390625 
L 58.015625 17.1875 
L 47.609375 17.1875 
L 47.609375 0 
L 37.796875 0 
L 37.796875 17.1875 
L 4.890625 17.1875 
L 4.890625 26.703125 
z
" id="DejaVuSans-52"/>
      </defs>
      <g transform="translate(192.496438 322.182437)scale(0.1 -0.1)">
       <use xlink:href="#DejaVuSans-48"/>
       <use x="63.623047" xlink:href="#DejaVuSans-46"/>
       <use x="95.410156" xlink:href="#DejaVuSans-52"/>
      </g>
     </g>
    </g>
    <g id="xtick_4">
     <g id="line2d_4">
      <g>
       <use style="stroke:#000000;stroke-width:0.8;" x="271.872" xlink:href="#me61af0ff74" y="307.584"/>
      </g>
     </g>
     <g id="text_4">
      <!-- 0.6 -->
      <defs>
       <path d="M 33.015625 40.375 
Q 26.375 40.375 22.484375 35.828125 
Q 18.609375 31.296875 18.609375 23.390625 
Q 18.609375 15.53125 22.484375 10.953125 
Q 26.375 6.390625 33.015625 6.390625 
Q 39.65625 6.390625 43.53125 10.953125 
Q 47.40625 15.53125 47.40625 23.390625 
Q 47.40625 31.296875 43.53125 35.828125 
Q 39.65625 40.375 33.015625 40.375 
z
M 52.59375 71.296875 
L 52.59375 62.3125 
Q 48.875 64.0625 45.09375 64.984375 
Q 41.3125 65.921875 37.59375 65.921875 
Q 27.828125 65.921875 22.671875 59.328125 
Q 17.53125 52.734375 16.796875 39.40625 
Q 19.671875 43.65625 24.015625 45.921875 
Q 28.375 48.1875 33.59375 48.1875 
Q 44.578125 48.1875 50.953125 41.515625 
Q 57.328125 34.859375 57.328125 23.390625 
Q 57.328125 12.15625 50.6875 5.359375 
Q 44.046875 -1.421875 33.015625 -1.421875 
Q 20.359375 -1.421875 13.671875 8.265625 
Q 6.984375 17.96875 6.984375 36.375 
Q 6.984375 53.65625 15.1875 63.9375 
Q 23.390625 74.21875 37.203125 74.21875 
Q 40.921875 74.21875 44.703125 73.484375 
Q 48.484375 72.75 52.59375 71.296875 
z
" id="DejaVuSans-54"/>
      </defs>
      <g transform="translate(263.920438 322.182437)scale(0.1 -0.1)">
       <use xlink:href="#DejaVuSans-48"/>
       <use x="63.623047" xlink:href="#DejaVuSans-46"/>
       <use x="95.410156" xlink:href="#DejaVuSans-54"/>
      </g>
     </g>
    </g>
    <g id="xtick_5">
     <g id="line2d_5">
      <g>
       <use style="stroke:#000000;stroke-width:0.8;" x="343.296" xlink:href="#me61af0ff74" y="307.584"/>
      </g>
     </g>
     <g id="text_5">
      <!-- 0.8 -->
      <defs>
       <path d="M 31.78125 34.625 
Q 24.75 34.625 20.71875 30.859375 
Q 16.703125 27.09375 16.703125 20.515625 
Q 16.703125 13.921875 20.71875 10.15625 
Q 24.75 6.390625 31.78125 6.390625 
Q 38.8125 6.390625 42.859375 10.171875 
Q 46.921875 13.96875 46.921875 20.515625 
Q 46.921875 27.09375 42.890625 30.859375 
Q 38.875 34.625 31.78125 34.625 
z
M 21.921875 38.8125 
Q 15.578125 40.375 12.03125 44.71875 
Q 8.5 49.078125 8.5 55.328125 
Q 8.5 64.0625 14.71875 69.140625 
Q 20.953125 74.21875 31.78125 74.21875 
Q 42.671875 74.21875 48.875 69.140625 
Q 55.078125 64.0625 55.078125 55.328125 
Q 55.078125 49.078125 51.53125 44.71875 
Q 48 40.375 41.703125 38.8125 
Q 48.828125 37.15625 52.796875 32.3125 
Q 56.78125 27.484375 56.78125 20.515625 
Q 56.78125 9.90625 50.3125 4.234375 
Q 43.84375 -1.421875 31.78125 -1.421875 
Q 19.734375 -1.421875 13.25 4.234375 
Q 6.78125 9.90625 6.78125 20.515625 
Q 6.78125 27.484375 10.78125 32.3125 
Q 14.796875 37.15625 21.921875 38.8125 
z
M 18.3125 54.390625 
Q 18.3125 48.734375 21.84375 45.5625 
Q 25.390625 42.390625 31.78125 42.390625 
Q 38.140625 42.390625 41.71875 45.5625 
Q 45.3125 48.734375 45.3125 54.390625 
Q 45.3125 60.0625 41.71875 63.234375 
Q 38.140625 66.40625 31.78125 66.40625 
Q 25.390625 66.40625 21.84375 63.234375 
Q 18.3125 60.0625 18.3125 54.390625 
z
" id="DejaVuSans-56"/>
      </defs>
      <g transform="translate(335.344438 322.182437)scale(0.1 -0.1)">
       <use xlink:href="#DejaVuSans-48"/>
       <use x="63.623047" xlink:href="#DejaVuSans-46"/>
       <use x="95.410156" xlink:href="#DejaVuSans-56"/>
      </g>
     </g>
    </g>
    <g id="xtick_6">
     <g id="line2d_6">
      <g>
       <use style="stroke:#000000;stroke-width:0.8;" x="414.72" xlink:href="#me61af0ff74" y="307.584"/>
      </g>
     </g>
     <g id="text_6">
      <!-- 1.0 -->
      <defs>
       <path d="M 12.40625 8.296875 
L 28.515625 8.296875 
L 28.515625 63.921875 
L 10.984375 60.40625 
L 10.984375 69.390625 
L 28.421875 72.90625 
L 38.28125 72.90625 
L 38.28125 8.296875 
L 54.390625 8.296875 
L 54.390625 0 
L 12.40625 0 
z
" id="DejaVuSans-49"/>
      </defs>
      <g transform="translate(406.768438 322.182437)scale(0.1 -0.1)">
       <use xlink:href="#DejaVuSans-49"/>
       <use x="63.623047" xlink:href="#DejaVuSans-46"/>
       <use x="95.410156" xlink:href="#DejaVuSans-48"/>
      </g>
     </g>
    </g>
    <g id="text_7">
     <!-- False Positive Rate -->
     <defs>
      <path d="M 9.8125 72.90625 
L 51.703125 72.90625 
L 51.703125 64.59375 
L 19.671875 64.59375 
L 19.671875 43.109375 
L 48.578125 43.109375 
L 48.578125 34.8125 
L 19.671875 34.8125 
L 19.671875 0 
L 9.8125 0 
z
" id="DejaVuSans-70"/>
      <path d="M 34.28125 27.484375 
Q 23.390625 27.484375 19.1875 25 
Q 14.984375 22.515625 14.984375 16.5 
Q 14.984375 11.71875 18.140625 8.90625 
Q 21.296875 6.109375 26.703125 6.109375 
Q 34.1875 6.109375 38.703125 11.40625 
Q 43.21875 16.703125 43.21875 25.484375 
L 43.21875 27.484375 
z
M 52.203125 31.203125 
L 52.203125 0 
L 43.21875 0 
L 43.21875 8.296875 
Q 40.140625 3.328125 35.546875 0.953125 
Q 30.953125 -1.421875 24.3125 -1.421875 
Q 15.921875 -1.421875 10.953125 3.296875 
Q 6 8.015625 6 15.921875 
Q 6 25.140625 12.171875 29.828125 
Q 18.359375 34.515625 30.609375 34.515625 
L 43.21875 34.515625 
L 43.21875 35.40625 
Q 43.21875 41.609375 39.140625 45 
Q 35.0625 48.390625 27.6875 48.390625 
Q 23 48.390625 18.546875 47.265625 
Q 14.109375 46.140625 10.015625 43.890625 
L 10.015625 52.203125 
Q 14.9375 54.109375 19.578125 55.046875 
Q 24.21875 56 28.609375 56 
Q 40.484375 56 46.34375 49.84375 
Q 52.203125 43.703125 52.203125 31.203125 
z
" id="DejaVuSans-97"/>
      <path d="M 9.421875 75.984375 
L 18.40625 75.984375 
L 18.40625 0 
L 9.421875 0 
z
" id="DejaVuSans-108"/>
      <path d="M 44.28125 53.078125 
L 44.28125 44.578125 
Q 40.484375 46.53125 36.375 47.5 
Q 32.28125 48.484375 27.875 48.484375 
Q 21.1875 48.484375 17.84375 46.4375 
Q 14.5 44.390625 14.5 40.28125 
Q 14.5 37.15625 16.890625 35.375 
Q 19.28125 33.59375 26.515625 31.984375 
L 29.59375 31.296875 
Q 39.15625 29.25 43.1875 25.515625 
Q 47.21875 21.78125 47.21875 15.09375 
Q 47.21875 7.46875 41.1875 3.015625 
Q 35.15625 -1.421875 24.609375 -1.421875 
Q 20.21875 -1.421875 15.453125 -0.5625 
Q 10.6875 0.296875 5.421875 2 
L 5.421875 11.28125 
Q 10.40625 8.6875 15.234375 7.390625 
Q 20.0625 6.109375 24.8125 6.109375 
Q 31.15625 6.109375 34.5625 8.28125 
Q 37.984375 10.453125 37.984375 14.40625 
Q 37.984375 18.0625 35.515625 20.015625 
Q 33.0625 21.96875 24.703125 23.78125 
L 21.578125 24.515625 
Q 13.234375 26.265625 9.515625 29.90625 
Q 5.8125 33.546875 5.8125 39.890625 
Q 5.8125 47.609375 11.28125 51.796875 
Q 16.75 56 26.8125 56 
Q 31.78125 56 36.171875 55.265625 
Q 40.578125 54.546875 44.28125 53.078125 
z
" id="DejaVuSans-115"/>
      <path d="M 56.203125 29.59375 
L 56.203125 25.203125 
L 14.890625 25.203125 
Q 15.484375 15.921875 20.484375 11.0625 
Q 25.484375 6.203125 34.421875 6.203125 
Q 39.59375 6.203125 44.453125 7.46875 
Q 49.3125 8.734375 54.109375 11.28125 
L 54.109375 2.78125 
Q 49.265625 0.734375 44.1875 -0.34375 
Q 39.109375 -1.421875 33.890625 -1.421875 
Q 20.796875 -1.421875 13.15625 6.1875 
Q 5.515625 13.8125 5.515625 26.8125 
Q 5.515625 40.234375 12.765625 48.109375 
Q 20.015625 56 32.328125 56 
Q 43.359375 56 49.78125 48.890625 
Q 56.203125 41.796875 56.203125 29.59375 
z
M 47.21875 32.234375 
Q 47.125 39.59375 43.09375 43.984375 
Q 39.0625 48.390625 32.421875 48.390625 
Q 24.90625 48.390625 20.390625 44.140625 
Q 15.875 39.890625 15.1875 32.171875 
z
" id="DejaVuSans-101"/>
      <path id="DejaVuSans-32"/>
      <path d="M 19.671875 64.796875 
L 19.671875 37.40625 
L 32.078125 37.40625 
Q 38.96875 37.40625 42.71875 40.96875 
Q 46.484375 44.53125 46.484375 51.125 
Q 46.484375 57.671875 42.71875 61.234375 
Q 38.96875 64.796875 32.078125 64.796875 
z
M 9.8125 72.90625 
L 32.078125 72.90625 
Q 44.34375 72.90625 50.609375 67.359375 
Q 56.890625 61.8125 56.890625 51.125 
Q 56.890625 40.328125 50.609375 34.8125 
Q 44.34375 29.296875 32.078125 29.296875 
L 19.671875 29.296875 
L 19.671875 0 
L 9.8125 0 
z
" id="DejaVuSans-80"/>
      <path d="M 30.609375 48.390625 
Q 23.390625 48.390625 19.1875 42.75 
Q 14.984375 37.109375 14.984375 27.296875 
Q 14.984375 17.484375 19.15625 11.84375 
Q 23.34375 6.203125 30.609375 6.203125 
Q 37.796875 6.203125 41.984375 11.859375 
Q 46.1875 17.53125 46.1875 27.296875 
Q 46.1875 37.015625 41.984375 42.703125 
Q 37.796875 48.390625 30.609375 48.390625 
z
M 30.609375 56 
Q 42.328125 56 49.015625 48.375 
Q 55.71875 40.765625 55.71875 27.296875 
Q 55.71875 13.875 49.015625 6.21875 
Q 42.328125 -1.421875 30.609375 -1.421875 
Q 18.84375 -1.421875 12.171875 6.21875 
Q 5.515625 13.875 5.515625 27.296875 
Q 5.515625 40.765625 12.171875 48.375 
Q 18.84375 56 30.609375 56 
z
" id="DejaVuSans-111"/>
      <path d="M 9.421875 54.6875 
L 18.40625 54.6875 
L 18.40625 0 
L 9.421875 0 
z
M 9.421875 75.984375 
L 18.40625 75.984375 
L 18.40625 64.59375 
L 9.421875 64.59375 
z
" id="DejaVuSans-105"/>
      <path d="M 18.3125 70.21875 
L 18.3125 54.6875 
L 36.8125 54.6875 
L 36.8125 47.703125 
L 18.3125 47.703125 
L 18.3125 18.015625 
Q 18.3125 11.328125 20.140625 9.421875 
Q 21.96875 7.515625 27.59375 7.515625 
L 36.8125 7.515625 
L 36.8125 0 
L 27.59375 0 
Q 17.1875 0 13.234375 3.875 
Q 9.28125 7.765625 9.28125 18.015625 
L 9.28125 47.703125 
L 2.6875 47.703125 
L 2.6875 54.6875 
L 9.28125 54.6875 
L 9.28125 70.21875 
z
" id="DejaVuSans-116"/>
      <path d="M 2.984375 54.6875 
L 12.5 54.6875 
L 29.59375 8.796875 
L 46.6875 54.6875 
L 56.203125 54.6875 
L 35.6875 0 
L 23.484375 0 
z
" id="DejaVuSans-118"/>
      <path d="M 44.390625 34.1875 
Q 47.5625 33.109375 50.5625 29.59375 
Q 53.5625 26.078125 56.59375 19.921875 
L 66.609375 0 
L 56 0 
L 46.6875 18.703125 
Q 43.0625 26.03125 39.671875 28.421875 
Q 36.28125 30.8125 30.421875 30.8125 
L 19.671875 30.8125 
L 19.671875 0 
L 9.8125 0 
L 9.8125 72.90625 
L 32.078125 72.90625 
Q 44.578125 72.90625 50.734375 67.671875 
Q 56.890625 62.453125 56.890625 51.90625 
Q 56.890625 45.015625 53.6875 40.46875 
Q 50.484375 35.9375 44.390625 34.1875 
z
M 19.671875 64.796875 
L 19.671875 38.921875 
L 32.078125 38.921875 
Q 39.203125 38.921875 42.84375 42.21875 
Q 46.484375 45.515625 46.484375 51.90625 
Q 46.484375 58.296875 42.84375 61.546875 
Q 39.203125 64.796875 32.078125 64.796875 
z
" id="DejaVuSans-82"/>
     </defs>
     <g transform="translate(189.693594 335.860562)scale(0.1 -0.1)">
      <use xlink:href="#DejaVuSans-70"/>
      <use x="48.394531" xlink:href="#DejaVuSans-97"/>
      <use x="109.673828" xlink:href="#DejaVuSans-108"/>
      <use x="137.457031" xlink:href="#DejaVuSans-115"/>
      <use x="189.556641" xlink:href="#DejaVuSans-101"/>
      <use x="251.080078" xlink:href="#DejaVuSans-32"/>
      <use x="282.867188" xlink:href="#DejaVuSans-80"/>
      <use x="339.544922" xlink:href="#DejaVuSans-111"/>
      <use x="400.726562" xlink:href="#DejaVuSans-115"/>
      <use x="452.826172" xlink:href="#DejaVuSans-105"/>
      <use x="480.609375" xlink:href="#DejaVuSans-116"/>
      <use x="519.818359" xlink:href="#DejaVuSans-105"/>
      <use x="547.601562" xlink:href="#DejaVuSans-118"/>
      <use x="606.78125" xlink:href="#DejaVuSans-101"/>
      <use x="668.304688" xlink:href="#DejaVuSans-32"/>
      <use x="700.091797" xlink:href="#DejaVuSans-82"/>
      <use x="767.324219" xlink:href="#DejaVuSans-97"/>
      <use x="828.603516" xlink:href="#DejaVuSans-116"/>
      <use x="867.8125" xlink:href="#DejaVuSans-101"/>
     </g>
    </g>
   </g>
   <g id="matplotlib.axis_2">
    <g id="ytick_1">
     <g id="line2d_7">
      <defs>
       <path d="M 0 0 
L -3.5 0 
" id="m63ffbf47db" style="stroke:#000000;stroke-width:0.8;"/>
      </defs>
      <g>
       <use style="stroke:#000000;stroke-width:0.8;" x="57.6" xlink:href="#m63ffbf47db" y="307.584"/>
      </g>
     </g>
     <g id="text_8">
      <!-- 0.0 -->
      <g transform="translate(34.696875 311.383219)scale(0.1 -0.1)">
       <use xlink:href="#DejaVuSans-48"/>
       <use x="63.623047" xlink:href="#DejaVuSans-46"/>
       <use x="95.410156" xlink:href="#DejaVuSans-48"/>
      </g>
     </g>
    </g>
    <g id="ytick_2">
     <g id="line2d_8">
      <g>
       <use style="stroke:#000000;stroke-width:0.8;" x="57.6" xlink:href="#m63ffbf47db" y="256.896"/>
      </g>
     </g>
     <g id="text_9">
      <!-- 0.2 -->
      <g transform="translate(34.696875 260.695219)scale(0.1 -0.1)">
       <use xlink:href="#DejaVuSans-48"/>
       <use x="63.623047" xlink:href="#DejaVuSans-46"/>
       <use x="95.410156" xlink:href="#DejaVuSans-50"/>
      </g>
     </g>
    </g>
    <g id="ytick_3">
     <g id="line2d_9">
      <g>
       <use style="stroke:#000000;stroke-width:0.8;" x="57.6" xlink:href="#m63ffbf47db" y="206.208"/>
      </g>
     </g>
     <g id="text_10">
      <!-- 0.4 -->
      <g transform="translate(34.696875 210.007219)scale(0.1 -0.1)">
       <use xlink:href="#DejaVuSans-48"/>
       <use x="63.623047" xlink:href="#DejaVuSans-46"/>
       <use x="95.410156" xlink:href="#DejaVuSans-52"/>
      </g>
     </g>
    </g>
    <g id="ytick_4">
     <g id="line2d_10">
      <g>
       <use style="stroke:#000000;stroke-width:0.8;" x="57.6" xlink:href="#m63ffbf47db" y="155.52"/>
      </g>
     </g>
     <g id="text_11">
      <!-- 0.6 -->
      <g transform="translate(34.696875 159.319219)scale(0.1 -0.1)">
       <use xlink:href="#DejaVuSans-48"/>
       <use x="63.623047" xlink:href="#DejaVuSans-46"/>
       <use x="95.410156" xlink:href="#DejaVuSans-54"/>
      </g>
     </g>
    </g>
    <g id="ytick_5">
     <g id="line2d_11">
      <g>
       <use style="stroke:#000000;stroke-width:0.8;" x="57.6" xlink:href="#m63ffbf47db" y="104.832"/>
      </g>
     </g>
     <g id="text_12">
      <!-- 0.8 -->
      <g transform="translate(34.696875 108.631219)scale(0.1 -0.1)">
       <use xlink:href="#DejaVuSans-48"/>
       <use x="63.623047" xlink:href="#DejaVuSans-46"/>
       <use x="95.410156" xlink:href="#DejaVuSans-56"/>
      </g>
     </g>
    </g>
    <g id="ytick_6">
     <g id="line2d_12">
      <g>
       <use style="stroke:#000000;stroke-width:0.8;" x="57.6" xlink:href="#m63ffbf47db" y="54.144"/>
      </g>
     </g>
     <g id="text_13">
      <!-- 1.0 -->
      <g transform="translate(34.696875 57.943219)scale(0.1 -0.1)">
       <use xlink:href="#DejaVuSans-49"/>
       <use x="63.623047" xlink:href="#DejaVuSans-46"/>
       <use x="95.410156" xlink:href="#DejaVuSans-48"/>
      </g>
     </g>
    </g>
    <g id="text_14">
     <!-- True Positive Rate -->
     <defs>
      <path d="M -0.296875 72.90625 
L 61.375 72.90625 
L 61.375 64.59375 
L 35.5 64.59375 
L 35.5 0 
L 25.59375 0 
L 25.59375 64.59375 
L -0.296875 64.59375 
z
" id="DejaVuSans-84"/>
      <path d="M 41.109375 46.296875 
Q 39.59375 47.171875 37.8125 47.578125 
Q 36.03125 48 33.890625 48 
Q 26.265625 48 22.1875 43.046875 
Q 18.109375 38.09375 18.109375 28.8125 
L 18.109375 0 
L 9.078125 0 
L 9.078125 54.6875 
L 18.109375 54.6875 
L 18.109375 46.1875 
Q 20.953125 51.171875 25.484375 53.578125 
Q 30.03125 56 36.53125 56 
Q 37.453125 56 38.578125 55.875 
Q 39.703125 55.765625 41.0625 55.515625 
z
" id="DejaVuSans-114"/>
      <path d="M 8.5 21.578125 
L 8.5 54.6875 
L 17.484375 54.6875 
L 17.484375 21.921875 
Q 17.484375 14.15625 20.5 10.265625 
Q 23.53125 6.390625 29.59375 6.390625 
Q 36.859375 6.390625 41.078125 11.03125 
Q 45.3125 15.671875 45.3125 23.6875 
L 45.3125 54.6875 
L 54.296875 54.6875 
L 54.296875 0 
L 45.3125 0 
L 45.3125 8.40625 
Q 42.046875 3.421875 37.71875 1 
Q 33.40625 -1.421875 27.6875 -1.421875 
Q 18.265625 -1.421875 13.375 4.4375 
Q 8.5 10.296875 8.5 21.578125 
z
M 31.109375 56 
z
" id="DejaVuSans-117"/>
     </defs>
     <g transform="translate(28.617187 219.057687)rotate(-90)scale(0.1 -0.1)">
      <use xlink:href="#DejaVuSans-84"/>
      <use x="46.333984" xlink:href="#DejaVuSans-114"/>
      <use x="87.447266" xlink:href="#DejaVuSans-117"/>
      <use x="150.826172" xlink:href="#DejaVuSans-101"/>
      <use x="212.349609" xlink:href="#DejaVuSans-32"/>
      <use x="244.136719" xlink:href="#DejaVuSans-80"/>
      <use x="300.814453" xlink:href="#DejaVuSans-111"/>
      <use x="361.996094" xlink:href="#DejaVuSans-115"/>
      <use x="414.095703" xlink:href="#DejaVuSans-105"/>
      <use x="441.878906" xlink:href="#DejaVuSans-116"/>
      <use x="481.087891" xlink:href="#DejaVuSans-105"/>
      <use x="508.871094" xlink:href="#DejaVuSans-118"/>
      <use x="568.050781" xlink:href="#DejaVuSans-101"/>
      <use x="629.574219" xlink:href="#DejaVuSans-32"/>
      <use x="661.361328" xlink:href="#DejaVuSans-82"/>
      <use x="728.59375" xlink:href="#DejaVuSans-97"/>
      <use x="789.873047" xlink:href="#DejaVuSans-116"/>
      <use x="829.082031" xlink:href="#DejaVuSans-101"/>
     </g>
    </g>
   </g>
   <g id="line2d_13">
    <path clip-path="url(#p1811c9930e)" d="M 57.6 307.584 
L 57.6 276.66432 
L 57.95712 276.66432 
L 57.95712 229.0176 
L 58.31424 229.0176 
L 58.31424 196.0704 
L 58.67136 196.0704 
L 58.67136 168.192 
L 59.02848 168.192 
L 59.02848 147.9168 
L 59.3856 147.9168 
L 59.3856 146.90304 
L 59.74272 146.90304 
L 59.74272 141.83424 
L 60.45696 141.83424 
L 60.45696 139.80672 
L 60.81408 139.80672 
L 60.81408 137.7792 
L 61.1712 137.7792 
L 61.1712 134.73792 
L 61.52832 134.73792 
L 61.52832 130.68288 
L 61.88544 130.68288 
L 61.88544 129.66912 
L 62.24256 129.66912 
L 62.24256 129.16224 
L 62.59968 129.16224 
L 62.59968 128.65536 
L 63.31392 128.65536 
L 63.31392 128.14848 
L 63.67104 128.14848 
L 63.67104 124.09344 
L 64.7424 124.09344 
L 64.7424 123.58656 
L 65.09952 123.58656 
L 65.09952 123.07968 
L 65.45664 123.07968 
L 65.45664 121.55904 
L 66.17088 121.55904 
L 66.88512 121.05216 
L 67.59936 121.05216 
L 67.59936 120.54528 
L 67.95648 120.54528 
L 67.95648 119.53152 
L 68.3136 119.53152 
L 70.0992 115.98336 
L 70.0992 114.9696 
L 71.17056 114.9696 
L 71.17056 109.9008 
L 71.52768 109.9008 
L 71.52768 109.39392 
L 72.24192 109.39392 
L 72.24192 106.85952 
L 72.59904 106.85952 
L 72.59904 106.35264 
L 73.6704 106.35264 
L 73.6704 105.84576 
L 74.02752 105.84576 
L 74.02752 104.32512 
L 74.74176 104.32512 
L 74.74176 103.31136 
L 76.17024 103.31136 
L 76.17024 102.80448 
L 77.2416 102.80448 
L 77.2416 102.2976 
L 77.95584 102.2976 
L 77.95584 101.79072 
L 78.31296 101.79072 
L 78.31296 101.28384 
L 79.38432 101.28384 
L 79.38432 100.77696 
L 79.74144 100.77696 
L 79.74144 99.25632 
L 80.09856 99.25632 
L 80.09856 97.2288 
L 81.52704 97.2288 
L 81.52704 96.21504 
L 82.24128 96.21504 
L 82.24128 95.70816 
L 82.95552 94.6944 
L 82.95552 94.18752 
L 83.31264 94.18752 
L 83.31264 93.17376 
L 83.66976 93.17376 
L 83.66976 92.16 
L 84.02688 92.16 
L 84.02688 91.65312 
L 84.384 91.65312 
L 84.384 91.14624 
L 84.74112 91.14624 
L 84.74112 90.63936 
L 85.09824 90.63936 
L 85.09824 89.6256 
L 85.45536 89.6256 
L 85.45536 89.11872 
L 86.1696 89.11872 
L 86.1696 87.59808 
L 87.24096 87.59808 
L 87.24096 86.58432 
L 88.66944 86.58432 
L 88.66944 86.07744 
L 89.02656 86.07744 
L 89.02656 85.06368 
L 89.38368 85.06368 
L 89.38368 83.54304 
L 89.7408 83.54304 
L 89.7408 83.03616 
L 90.09792 83.03616 
L 90.09792 82.52928 
L 90.45504 82.52928 
L 90.45504 80.50176 
L 91.16928 80.50176 
L 91.16928 79.99488 
L 91.5264 79.99488 
L 91.5264 79.488 
L 91.88352 79.488 
L 91.88352 77.96736 
L 92.24064 77.96736 
L 92.24064 77.46048 
L 94.02624 77.46048 
L 94.02624 76.9536 
L 94.74048 76.9536 
L 94.74048 74.4192 
L 95.0976 74.4192 
L 95.0976 73.91232 
L 95.45472 73.40544 
L 95.45472 72.89856 
L 96.52608 72.89856 
L 96.52608 71.37792 
L 97.59744 71.37792 
L 97.59744 68.84352 
L 98.6688 68.84352 
L 98.6688 67.82976 
L 99.02592 67.82976 
L 99.02592 67.32288 
L 101.16864 67.32288 
L 101.16864 66.816 
L 101.52576 66.816 
L 101.52576 66.30912 
L 102.59712 66.30912 
L 102.59712 65.80224 
L 102.95424 65.80224 
L 102.95424 65.29536 
L 103.31136 65.29536 
L 103.31136 64.78848 
L 103.66848 64.78848 
L 103.66848 63.77472 
L 104.38272 63.77472 
L 104.38272 62.76096 
L 105.09696 62.76096 
L 105.09696 62.25408 
L 105.45408 62.25408 
L 105.45408 61.24032 
L 108.31104 61.24032 
L 108.31104 60.73344 
L 109.3824 60.73344 
L 109.3824 60.22656 
L 111.52512 60.22656 
L 111.52512 59.71968 
L 114.02496 59.71968 
L 114.02496 59.2128 
L 114.38208 59.2128 
L 114.38208 58.70592 
L 114.7392 58.70592 
L 114.7392 58.19904 
L 120.096 58.19904 
L 120.096 57.69216 
L 120.81024 57.69216 
L 120.81024 57.18528 
L 123.31008 57.18528 
L 123.31008 56.6784 
L 124.02432 56.6784 
L 124.02432 56.17152 
L 130.45248 56.17152 
L 130.45248 55.66464 
L 149.73696 55.66464 
L 149.73696 55.15776 
L 214.01856 55.15776 
L 214.01856 54.65088 
L 264.01536 54.65088 
L 264.01536 54.144 
L 414.72 54.144 
L 414.72 54.144 
" style="fill:none;stroke:#000000;stroke-linecap:square;stroke-width:2;"/>
   </g>
   <g id="line2d_14">
    <path clip-path="url(#p1811c9930e)" d="M 57.6 307.584 
L 57.6 285.28128 
L 57.95712 285.28128 
L 57.95712 281.73312 
L 58.31424 281.73312 
L 58.31424 258.92352 
L 58.67136 258.92352 
L 58.67136 247.77216 
L 59.02848 247.77216 
L 59.02848 239.66208 
L 59.3856 239.66208 
L 59.3856 237.63456 
L 59.74272 237.63456 
L 59.74272 235.60704 
L 60.09984 235.60704 
L 60.09984 234.0864 
L 60.45696 234.0864 
L 60.45696 233.57952 
L 60.81408 233.57952 
L 60.81408 229.0176 
L 61.52832 229.0176 
L 61.52832 228.00384 
L 61.88544 228.00384 
L 61.88544 224.45568 
L 62.59968 224.45568 
L 62.59968 223.9488 
L 62.9568 223.9488 
L 62.9568 222.42816 
L 63.31392 222.42816 
L 63.31392 220.90752 
L 63.67104 220.90752 
L 63.67104 220.40064 
L 64.02816 220.40064 
L 64.02816 219.89376 
L 64.38528 219.89376 
L 64.38528 212.79744 
L 64.7424 212.79744 
L 64.7424 207.22176 
L 65.09952 207.22176 
L 65.09952 206.71488 
L 65.45664 206.71488 
L 65.45664 198.09792 
L 65.81376 198.09792 
L 65.81376 197.59104 
L 66.528 197.59104 
L 66.528 193.02912 
L 66.88512 193.02912 
L 66.88512 191.50848 
L 67.24224 191.50848 
L 67.24224 186.43968 
L 67.59936 186.43968 
L 67.59936 182.89152 
L 67.95648 182.89152 
L 67.95648 182.38464 
L 68.3136 182.38464 
L 68.3136 181.37088 
L 68.67072 181.37088 
L 68.67072 180.864 
L 69.02784 180.864 
L 69.02784 177.82272 
L 69.74208 177.82272 
L 69.74208 177.31584 
L 70.45632 177.31584 
L 70.45632 176.80896 
L 70.81344 176.80896 
L 70.81344 176.30208 
L 71.52768 176.30208 
L 71.52768 175.7952 
L 71.8848 175.7952 
L 71.8848 172.75392 
L 72.59904 172.75392 
L 72.59904 169.71264 
L 72.95616 169.71264 
L 72.95616 167.17824 
L 73.6704 167.17824 
L 73.6704 166.67136 
L 74.02752 166.67136 
L 74.02752 165.15072 
L 75.09888 165.15072 
L 75.09888 163.1232 
L 75.456 163.1232 
L 75.456 161.60256 
L 76.17024 161.60256 
L 76.17024 157.04064 
L 76.52736 157.04064 
L 76.52736 154.50624 
L 76.88448 154.50624 
L 76.88448 152.47872 
L 77.2416 152.47872 
L 77.2416 151.46496 
L 77.95584 151.46496 
L 77.95584 149.43744 
L 78.67008 149.43744 
L 78.67008 148.93056 
L 79.38432 148.93056 
L 79.38432 147.9168 
L 80.09856 147.9168 
L 80.09856 147.40992 
L 80.8128 147.40992 
L 80.8128 146.39616 
L 81.52704 146.39616 
L 81.52704 145.88928 
L 82.24128 145.88928 
L 82.24128 142.848 
L 82.95552 142.848 
L 82.95552 142.34112 
L 84.02688 142.34112 
L 84.02688 141.83424 
L 84.384 141.83424 
L 84.384 141.32736 
L 84.74112 141.32736 
L 84.74112 140.3136 
L 85.45536 140.3136 
L 85.45536 139.80672 
L 86.52672 139.80672 
L 86.52672 139.29984 
L 86.88384 139.29984 
L 86.88384 138.28608 
L 88.31232 138.28608 
L 88.31232 137.7792 
L 88.66944 137.7792 
L 88.66944 135.75168 
L 89.38368 135.75168 
L 89.38368 135.2448 
L 90.09792 135.2448 
L 90.09792 134.23104 
L 91.5264 134.23104 
L 91.5264 133.72416 
L 92.24064 133.72416 
L 92.24064 133.21728 
L 93.312 133.21728 
L 93.312 132.7104 
L 93.66912 132.7104 
L 93.66912 131.69664 
L 94.74048 131.69664 
L 94.74048 130.68288 
L 95.45472 130.68288 
L 95.45472 130.176 
L 96.16896 130.176 
L 96.16896 129.66912 
L 97.24032 129.66912 
L 97.24032 128.65536 
L 97.59744 128.65536 
L 97.59744 128.14848 
L 97.95456 128.14848 
L 97.95456 127.6416 
L 98.31168 127.6416 
L 98.31168 127.13472 
L 100.09728 127.13472 
L 100.09728 126.62784 
L 100.81152 126.62784 
L 100.81152 126.12096 
L 101.16864 126.12096 
L 101.16864 124.09344 
L 101.52576 124.09344 
L 101.52576 123.58656 
L 102.59712 123.58656 
L 102.59712 122.06592 
L 103.31136 122.06592 
L 103.31136 121.55904 
L 104.38272 121.55904 
L 104.38272 121.05216 
L 104.73984 121.05216 
L 104.73984 120.0384 
L 105.45408 120.0384 
L 105.45408 119.53152 
L 106.16832 119.53152 
L 106.16832 119.02464 
L 106.52544 119.02464 
L 106.52544 118.51776 
L 107.23968 118.51776 
L 107.23968 117.504 
L 107.5968 117.504 
L 107.5968 116.99712 
L 109.02528 116.99712 
L 109.02528 115.47648 
L 109.3824 115.47648 
L 109.3824 112.4352 
L 110.09664 112.4352 
L 110.09664 111.42144 
L 111.168 111.42144 
L 111.168 110.40768 
L 111.88224 110.40768 
L 111.88224 109.9008 
L 112.23936 109.9008 
L 112.23936 108.88704 
L 112.9536 108.88704 
L 112.9536 107.87328 
L 114.38208 107.87328 
L 114.38208 107.3664 
L 115.09632 107.3664 
L 115.09632 106.85952 
L 116.88192 106.85952 
L 116.88192 106.35264 
L 117.23904 106.35264 
L 117.23904 105.84576 
L 117.59616 105.84576 
L 117.59616 105.33888 
L 119.02464 105.33888 
L 119.02464 104.832 
L 119.38176 104.832 
L 119.38176 104.32512 
L 120.81024 104.32512 
L 120.81024 103.81824 
L 121.8816 103.81824 
L 121.8816 103.31136 
L 123.31008 103.31136 
L 123.31008 102.2976 
L 123.6672 102.2976 
L 123.6672 101.79072 
L 124.73856 101.79072 
L 124.73856 101.28384 
L 125.09568 101.28384 
L 125.09568 100.27008 
L 126.16704 100.27008 
L 126.16704 99.25632 
L 126.52416 99.25632 
L 126.52416 98.74944 
L 127.95264 98.74944 
L 127.95264 98.24256 
L 128.30976 98.24256 
L 128.30976 97.73568 
L 132.23808 97.73568 
L 132.23808 97.2288 
L 133.30944 97.2288 
L 133.30944 96.72192 
L 134.02368 96.72192 
L 134.02368 96.21504 
L 135.09504 96.21504 
L 135.09504 95.70816 
L 136.88064 95.70816 
L 136.88064 95.20128 
L 138.30912 95.20128 
L 138.30912 94.6944 
L 139.02336 94.6944 
L 139.02336 94.18752 
L 139.38048 94.18752 
L 139.38048 93.68064 
L 141.88032 93.68064 
L 141.88032 91.65312 
L 144.02304 91.65312 
L 144.02304 91.14624 
L 144.73728 91.14624 
L 144.73728 90.63936 
L 146.88 90.63936 
L 146.88 89.6256 
L 147.59424 89.6256 
L 147.59424 89.11872 
L 149.02272 89.11872 
L 149.02272 88.10496 
L 149.73696 88.10496 
L 149.73696 87.59808 
L 150.09408 87.59808 
L 150.09408 87.0912 
L 154.37952 87.0912 
L 154.37952 86.58432 
L 155.09376 86.58432 
L 155.09376 86.07744 
L 155.45088 86.07744 
L 155.45088 85.57056 
L 156.52224 85.57056 
L 156.52224 85.06368 
L 157.95072 85.06368 
L 159.02208 84.5568 
L 159.73632 84.5568 
L 159.73632 84.04992 
L 164.37888 84.04992 
L 164.37888 83.54304 
L 165.45024 83.54304 
L 165.45024 83.03616 
L 166.16448 83.03616 
L 166.16448 82.52928 
L 167.23584 82.52928 
L 167.23584 81.51552 
L 167.59296 81.51552 
L 167.59296 81.00864 
L 168.3072 81.00864 
L 168.3072 79.488 
L 169.02144 79.488 
L 169.02144 78.47424 
L 170.44992 78.47424 
L 170.44992 77.96736 
L 171.8784 77.96736 
L 171.8784 77.46048 
L 172.94976 77.46048 
L 172.94976 76.44672 
L 173.30688 76.44672 
L 173.30688 75.93984 
L 173.664 75.93984 
L 173.664 75.43296 
L 174.73536 75.43296 
L 174.73536 74.92608 
L 179.37792 74.92608 
L 179.37792 74.4192 
L 182.592 74.4192 
L 182.592 73.91232 
L 183.30624 73.91232 
L 183.30624 73.40544 
L 184.73472 73.40544 
L 184.73472 72.89856 
L 186.1632 72.89856 
L 186.1632 72.39168 
L 189.37728 72.39168 
L 189.37728 71.8848 
L 190.09152 71.8848 
L 190.09152 71.37792 
L 190.80576 71.37792 
L 190.80576 70.36416 
L 191.16288 70.36416 
L 191.16288 69.85728 
L 192.23424 69.85728 
L 195.80544 68.84352 
L 197.59104 68.84352 
L 197.59104 68.33664 
L 202.2336 68.33664 
L 202.2336 67.32288 
L 206.87616 67.32288 
L 206.87616 66.816 
L 210.80448 66.816 
L 210.80448 66.30912 
L 211.87584 66.30912 
L 211.87584 65.80224 
L 215.08992 65.80224 
L 215.08992 65.29536 
L 216.5184 65.29536 
L 216.5184 64.2816 
L 216.87552 64.2816 
L 216.87552 63.77472 
L 217.58976 63.77472 
L 217.58976 63.26784 
L 219.73248 63.26784 
L 219.73248 62.76096 
L 220.0896 62.76096 
L 220.0896 62.25408 
L 222.58944 62.25408 
L 222.58944 61.24032 
L 224.73216 61.24032 
L 224.73216 60.22656 
L 226.51776 60.22656 
L 226.51776 59.71968 
L 232.94592 59.71968 
L 232.94592 59.2128 
L 236.16 59.2128 
L 236.16 58.70592 
L 237.9456 58.70592 
L 237.9456 58.19904 
L 246.8736 58.19904 
L 246.8736 57.69216 
L 259.72992 57.69216 
L 259.72992 57.18528 
L 268.3008 57.18528 
L 268.3008 56.6784 
L 278.30016 56.6784 
L 278.30016 56.17152 
L 300.08448 56.17152 
L 300.08448 55.66464 
L 301.87008 55.66464 
L 301.87008 55.15776 
L 325.44 55.15776 
L 325.44 54.65088 
L 380.07936 54.65088 
L 380.07936 54.144 
L 414.72 54.144 
L 414.72 54.144 
" style="fill:none;stroke:#00a4bb;stroke-linecap:square;stroke-width:2;"/>
   </g>
   <g id="line2d_15">
    <path clip-path="url(#p1811c9930e)" d="M 57.6 307.584 
L 57.6 295.41888 
L 57.95712 295.41888 
L 57.95712 259.93728 
L 58.31424 259.93728 
L 58.31424 253.85472 
L 58.67136 253.85472 
L 58.67136 239.1552 
L 59.02848 239.1552 
L 59.02848 234.0864 
L 59.3856 234.0864 
L 59.3856 228.00384 
L 59.74272 228.00384 
L 59.74272 224.45568 
L 60.81408 224.45568 
L 60.81408 222.42816 
L 61.1712 222.42816 
L 61.1712 213.8112 
L 61.52832 213.8112 
L 61.52832 209.75616 
L 61.88544 209.75616 
L 61.88544 209.24928 
L 62.59968 209.24928 
L 62.59968 207.72864 
L 62.9568 207.72864 
L 62.9568 202.65984 
L 63.31392 202.65984 
L 63.31392 201.64608 
L 63.67104 201.64608 
L 63.67104 200.63232 
L 64.02816 200.63232 
L 64.02816 191.50848 
L 64.38528 191.50848 
L 64.38528 190.49472 
L 64.7424 190.49472 
L 64.7424 184.41216 
L 65.09952 184.41216 
L 65.09952 183.3984 
L 65.45664 183.3984 
L 65.45664 179.34336 
L 65.81376 179.34336 
L 65.81376 174.78144 
L 66.88512 174.78144 
L 66.88512 169.20576 
L 67.24224 169.20576 
L 67.24224 166.67136 
L 67.59936 166.67136 
L 67.59936 163.1232 
L 68.3136 163.1232 
L 68.3136 160.08192 
L 68.67072 160.08192 
L 68.67072 158.56128 
L 69.02784 158.56128 
L 69.02784 156.53376 
L 69.38496 156.53376 
L 69.38496 155.01312 
L 69.74208 155.01312 
L 69.74208 154.50624 
L 70.0992 154.50624 
L 70.0992 151.97184 
L 70.45632 151.97184 
L 70.45632 151.46496 
L 70.81344 151.46496 
L 70.81344 150.95808 
L 71.17056 150.95808 
L 71.17056 150.4512 
L 71.52768 150.4512 
L 71.52768 149.43744 
L 71.8848 149.43744 
L 71.8848 147.40992 
L 72.24192 147.40992 
L 72.24192 146.39616 
L 72.59904 146.39616 
L 72.59904 145.3824 
L 72.95616 145.3824 
L 72.95616 144.87552 
L 73.31328 144.87552 
L 73.31328 142.848 
L 74.02752 142.848 
L 74.02752 141.83424 
L 75.09888 141.83424 
L 75.09888 140.3136 
L 75.456 140.3136 
L 75.456 139.80672 
L 75.81312 139.80672 
L 75.81312 139.29984 
L 76.88448 139.29984 
L 76.88448 138.79296 
L 77.59872 138.79296 
L 77.59872 137.7792 
L 77.95584 137.7792 
L 77.95584 134.23104 
L 78.31296 134.23104 
L 78.31296 133.72416 
L 79.0272 133.72416 
L 79.0272 132.7104 
L 79.38432 132.7104 
L 79.38432 132.20352 
L 79.74144 132.20352 
L 79.74144 131.69664 
L 80.09856 131.69664 
L 80.09856 131.18976 
L 80.45568 131.18976 
L 80.45568 130.176 
L 82.5984 130.176 
L 82.5984 128.14848 
L 82.95552 128.14848 
L 82.95552 127.6416 
L 83.66976 127.6416 
L 83.66976 127.13472 
L 84.74112 127.13472 
L 84.74112 126.62784 
L 85.09824 126.62784 
L 85.09824 126.12096 
L 85.45536 126.12096 
L 85.45536 125.1072 
L 86.1696 125.1072 
L 86.1696 124.09344 
L 87.9552 124.09344 
L 87.9552 123.07968 
L 88.31232 123.07968 
L 88.31232 122.5728 
L 88.66944 122.5728 
L 88.66944 122.06592 
L 89.38368 122.06592 
L 89.38368 121.05216 
L 89.7408 121.05216 
L 89.7408 120.54528 
L 90.09792 120.54528 
L 90.09792 119.53152 
L 93.312 119.53152 
L 93.312 119.02464 
L 94.02624 119.02464 
L 94.02624 115.98336 
L 94.74048 115.98336 
L 94.74048 115.47648 
L 95.0976 115.47648 
L 95.0976 114.9696 
L 96.16896 114.9696 
L 96.16896 114.46272 
L 96.8832 114.46272 
L 96.8832 113.95584 
L 97.59744 113.95584 
L 97.59744 113.44896 
L 98.31168 113.44896 
L 98.31168 112.4352 
L 98.6688 112.4352 
L 98.6688 110.91456 
L 99.02592 110.91456 
L 99.02592 109.9008 
L 99.38304 109.9008 
L 99.38304 108.38016 
L 100.09728 108.38016 
L 100.09728 107.3664 
L 102.59712 107.3664 
L 102.59712 106.85952 
L 104.0256 106.85952 
L 104.0256 106.35264 
L 104.38272 106.35264 
L 104.38272 105.84576 
L 104.73984 105.84576 
L 104.73984 104.832 
L 105.8112 104.832 
L 105.8112 104.32512 
L 110.09664 104.32512 
L 110.09664 103.81824 
L 110.45376 103.81824 
L 110.45376 103.31136 
L 111.88224 103.31136 
L 111.88224 102.80448 
L 113.31072 102.80448 
L 113.31072 102.2976 
L 114.02496 102.2976 
L 114.02496 101.28384 
L 114.38208 101.28384 
L 114.38208 100.77696 
L 119.38176 100.77696 
L 119.38176 100.27008 
L 120.096 100.27008 
L 120.096 99.7632 
L 120.45312 99.7632 
L 120.45312 99.25632 
L 120.81024 99.25632 
L 120.81024 98.74944 
L 121.16736 98.74944 
L 121.16736 98.24256 
L 122.95296 98.24256 
L 122.95296 97.73568 
L 125.4528 97.73568 
L 125.4528 97.2288 
L 126.52416 97.2288 
L 126.52416 96.21504 
L 126.88128 96.21504 
L 126.88128 95.70816 
L 127.59552 95.70816 
L 127.59552 94.6944 
L 127.95264 94.6944 
L 127.95264 94.18752 
L 129.024 94.18752 
L 129.024 93.68064 
L 129.38112 93.68064 
L 129.38112 93.17376 
L 132.23808 93.17376 
L 132.23808 92.66688 
L 132.5952 92.66688 
L 132.5952 91.65312 
L 132.95232 91.65312 
L 132.95232 90.63936 
L 133.66656 90.63936 
L 133.66656 90.13248 
L 135.80928 90.13248 
L 135.80928 89.6256 
L 136.1664 89.6256 
L 136.1664 89.11872 
L 137.952 89.11872 
L 137.952 88.61184 
L 139.02336 88.61184 
L 139.02336 87.59808 
L 140.09472 87.59808 
L 140.09472 87.0912 
L 140.80896 87.0912 
L 141.16608 86.58432 
L 141.16608 86.07744 
L 142.59456 86.07744 
L 142.59456 85.57056 
L 146.52288 85.57056 
L 146.52288 84.04992 
L 146.88 84.04992 
L 146.88 83.03616 
L 147.59424 83.03616 
L 147.59424 82.52928 
L 152.59392 82.52928 
L 152.59392 82.0224 
L 157.23648 82.0224 
L 157.23648 81.51552 
L 157.5936 81.51552 
L 157.5936 81.00864 
L 159.02208 81.00864 
L 159.02208 80.50176 
L 162.23616 80.50176 
L 162.23616 79.99488 
L 163.30752 79.99488 
L 163.30752 79.488 
L 164.736 79.488 
L 164.736 78.98112 
L 165.80736 78.98112 
L 165.80736 78.47424 
L 166.87872 78.47424 
L 166.87872 77.96736 
L 169.02144 77.96736 
L 169.02144 77.46048 
L 171.8784 77.46048 
L 171.8784 76.9536 
L 173.664 76.9536 
L 173.664 76.44672 
L 174.02112 76.44672 
L 174.02112 75.93984 
L 174.37824 75.93984 
L 174.37824 75.43296 
L 174.73536 75.43296 
L 174.73536 74.92608 
L 176.87808 74.92608 
L 176.87808 73.91232 
L 177.94944 73.91232 
L 177.94944 73.40544 
L 181.87776 73.40544 
L 181.87776 72.89856 
L 182.94912 72.89856 
L 182.94912 72.39168 
L 183.30624 72.39168 
L 183.30624 71.8848 
L 184.3776 71.8848 
L 184.3776 70.87104 
L 189.02016 70.87104 
L 190.09152 70.36416 
L 194.01984 70.36416 
L 194.01984 69.3504 
L 199.01952 69.3504 
L 199.01952 68.84352 
L 200.80512 68.84352 
L 200.80512 68.33664 
L 209.73312 68.33664 
L 209.73312 67.82976 
L 214.7328 67.82976 
L 214.7328 67.32288 
L 225.4464 67.32288 
L 225.4464 66.30912 
L 226.51776 66.30912 
L 226.51776 65.80224 
L 230.8032 65.80224 
L 230.8032 65.29536 
L 235.44576 65.29536 
L 235.44576 64.78848 
L 242.58816 64.78848 
L 242.58816 64.2816 
L 244.01664 64.2816 
L 244.01664 63.26784 
L 244.37376 63.26784 
L 244.73088 62.25408 
L 247.94496 60.73344 
L 248.30208 60.73344 
L 248.30208 60.22656 
L 251.87328 60.22656 
L 251.87328 59.71968 
L 252.58752 59.71968 
L 252.58752 58.19904 
L 254.37312 58.19904 
L 254.37312 57.69216 
L 254.73024 57.69216 
L 254.73024 57.18528 
L 257.5872 57.18528 
L 257.5872 56.6784 
L 257.94432 56.6784 
L 257.94432 56.17152 
L 262.944 56.17152 
L 262.944 55.66464 
L 272.94336 55.66464 
L 272.94336 55.15776 
L 284.72832 55.15776 
L 284.72832 54.65088 
L 392.93568 54.65088 
L 392.93568 54.144 
L 414.72 54.144 
L 414.72 54.144 
" style="fill:none;stroke:#ccf900;stroke-linecap:square;stroke-width:2;"/>
   </g>
   <g id="line2d_16">
    <path clip-path="url(#p1811c9930e)" d="M 57.6 307.584 
L 57.6 296.6016 
L 57.71904 296.6016 
L 57.71904 277.00224 
L 57.83808 277.00224 
L 57.83808 269.73696 
L 57.95712 269.73696 
L 57.95712 256.55808 
L 58.07616 256.55808 
L 58.07616 245.0688 
L 58.1952 245.0688 
L 58.1952 240.8448 
L 58.31424 240.8448 
L 58.31424 237.12768 
L 58.43328 237.12768 
L 58.43328 234.9312 
L 58.55232 234.9312 
L 58.55232 232.3968 
L 58.67136 232.3968 
L 58.67136 219.55584 
L 58.7904 219.55584 
L 58.7904 216.00768 
L 58.90944 216.00768 
L 58.90944 213.13536 
L 59.02848 213.13536 
L 59.02848 211.95264 
L 59.14752 211.95264 
L 59.14752 211.44576 
L 59.26656 211.44576 
L 59.26656 211.2768 
L 59.3856 211.2768 
L 59.3856 207.22176 
L 59.62368 207.22176 
L 59.62368 207.0528 
L 59.74272 207.0528 
L 59.74272 205.70112 
L 59.9808 205.70112 
L 59.9808 204.68736 
L 60.09984 204.68736 
L 60.09984 203.33568 
L 60.21888 203.33568 
L 60.21888 201.47712 
L 60.33792 201.47712 
L 60.33792 201.1392 
L 60.45696 201.1392 
L 60.45696 199.11168 
L 60.576 199.11168 
L 60.576 196.0704 
L 60.69504 196.0704 
L 60.69504 195.73248 
L 60.93312 195.73248 
L 60.93312 194.21184 
L 61.1712 194.21184 
L 61.1712 193.70496 
L 61.29024 193.70496 
L 61.29024 191.67744 
L 61.40928 191.67744 
L 61.40928 189.98784 
L 61.64736 189.98784 
L 61.64736 189.312 
L 61.7664 189.312 
L 61.7664 188.97408 
L 61.88544 188.97408 
L 61.88544 188.4672 
L 62.00448 188.4672 
L 62.00448 187.96032 
L 62.12352 187.96032 
L 62.12352 187.79136 
L 62.24256 187.79136 
L 62.24256 187.11552 
L 62.3616 187.11552 
L 62.3616 185.25696 
L 62.48064 185.25696 
L 62.48064 184.91904 
L 62.59968 184.91904 
L 62.59968 184.07424 
L 62.71872 184.07424 
L 62.71872 183.22944 
L 62.83776 183.22944 
L 62.83776 182.89152 
L 62.9568 182.89152 
L 62.9568 182.21568 
L 63.07584 182.21568 
L 63.07584 181.7088 
L 63.19488 181.7088 
L 63.19488 181.53984 
L 63.31392 181.53984 
L 63.31392 180.864 
L 63.43296 180.864 
L 63.43296 178.3296 
L 64.02816 178.3296 
L 64.02816 177.4848 
L 64.1472 177.4848 
L 64.1472 177.31584 
L 64.26624 177.31584 
L 64.26624 177.14688 
L 64.38528 177.14688 
L 64.38528 176.47104 
L 64.50432 176.47104 
L 64.50432 176.13312 
L 64.62336 176.13312 
L 64.62336 175.45728 
L 64.7424 175.45728 
L 64.7424 175.11936 
L 64.86144 175.11936 
L 64.86144 174.9504 
L 65.09952 174.9504 
L 65.09952 174.61248 
L 65.3376 174.44352 
L 65.57568 174.44352 
L 65.57568 173.93664 
L 65.69472 173.93664 
L 65.69472 173.42976 
L 65.81376 173.42976 
L 65.81376 173.2608 
L 65.9328 173.2608 
L 65.9328 173.09184 
L 66.528 171.90912 
L 66.528 171.40224 
L 66.88512 171.40224 
L 66.88512 170.89536 
L 67.00416 170.89536 
L 67.00416 170.7264 
L 67.1232 170.7264 
L 67.1232 167.3472 
L 67.24224 167.3472 
L 67.24224 166.33344 
L 67.36128 166.33344 
L 67.36128 165.48864 
L 67.59936 165.48864 
L 67.59936 164.47488 
L 67.7184 164.47488 
L 67.7184 164.30592 
L 67.83744 164.30592 
L 67.83744 163.968 
L 67.95648 163.968 
L 67.95648 162.78528 
L 68.07552 162.78528 
L 68.07552 162.10944 
L 68.19456 162.10944 
L 68.19456 159.744 
L 68.43264 159.744 
L 68.43264 158.39232 
L 68.67072 158.39232 
L 68.67072 157.71648 
L 68.9088 157.71648 
L 68.9088 157.37856 
L 69.02784 157.37856 
L 69.02784 155.85792 
L 69.26592 155.85792 
L 69.26592 155.52 
L 69.38496 155.52 
L 69.38496 155.35104 
L 69.504 155.35104 
L 69.504 155.18208 
L 69.62304 155.18208 
L 69.62304 155.01312 
L 69.74208 155.01312 
L 69.74208 154.50624 
L 69.86112 154.50624 
L 69.86112 154.33728 
L 69.98016 154.33728 
L 69.98016 154.16832 
L 70.0992 154.16832 
L 70.0992 153.99936 
L 70.21824 153.99936 
L 70.21824 153.15456 
L 70.33728 153.15456 
L 70.33728 152.9856 
L 70.45632 152.9856 
L 70.45632 152.64768 
L 70.81344 152.64768 
L 70.81344 152.47872 
L 70.93248 152.47872 
L 70.93248 152.30976 
L 71.05152 152.30976 
L 71.05152 152.1408 
L 71.17056 152.1408 
L 71.17056 151.12704 
L 71.2896 151.12704 
L 71.2896 150.4512 
L 71.40864 150.4512 
L 71.40864 150.28224 
L 71.52768 150.28224 
L 71.52768 149.26848 
L 71.64672 149.26848 
L 71.64672 149.09952 
L 71.76576 149.09952 
L 71.76576 148.42368 
L 71.8848 148.42368 
L 71.8848 147.57888 
L 72.00384 147.57888 
L 72.00384 147.24096 
L 72.12288 147.24096 
L 72.12288 146.2272 
L 72.48 146.2272 
L 72.48 145.88928 
L 72.71808 145.88928 
L 72.71808 145.55136 
L 72.83712 145.55136 
L 72.83712 144.87552 
L 72.95616 144.87552 
L 72.95616 143.01696 
L 73.0752 143.01696 
L 73.0752 142.67904 
L 73.19424 142.67904 
L 73.19424 142.51008 
L 73.43232 142.51008 
L 73.43232 142.34112 
L 73.6704 142.34112 
L 73.6704 142.0032 
L 73.78944 142.0032 
L 73.78944 141.66528 
L 74.02752 141.66528 
L 74.02752 141.49632 
L 74.2656 141.49632 
L 74.2656 141.32736 
L 74.50368 141.32736 
L 74.50368 140.98944 
L 74.62272 140.98944 
L 74.62272 140.65152 
L 74.74176 140.65152 
L 74.74176 140.48256 
L 74.97984 140.48256 
L 74.97984 140.3136 
L 75.09888 140.3136 
L 75.09888 138.79296 
L 75.456 138.79296 
L 75.456 138.45504 
L 75.57504 138.45504 
L 75.57504 137.61024 
L 75.81312 137.61024 
L 75.81312 137.44128 
L 76.0512 137.10336 
L 76.0512 136.42752 
L 76.17024 136.42752 
L 76.17024 136.25856 
L 76.40832 136.25856 
L 76.40832 135.58272 
L 76.52736 135.58272 
L 76.52736 135.07584 
L 76.6464 135.07584 
L 76.6464 134.90688 
L 76.76544 134.90688 
L 76.76544 134.06208 
L 77.36064 134.06208 
L 77.36064 133.38624 
L 77.59872 133.38624 
L 77.59872 133.04832 
L 77.71776 133.04832 
L 77.71776 132.37248 
L 78.07488 132.37248 
L 78.07488 132.20352 
L 78.432 132.20352 
L 78.432 131.69664 
L 78.55104 131.69664 
L 78.55104 131.52768 
L 78.67008 131.52768 
L 78.67008 131.35872 
L 78.78912 131.35872 
L 78.78912 131.0208 
L 78.90816 131.0208 
L 78.90816 130.85184 
L 79.0272 130.85184 
L 79.0272 130.68288 
L 79.38432 130.68288 
L 79.38432 130.176 
L 79.50336 130.176 
L 79.50336 129.83808 
L 79.74144 129.83808 
L 79.74144 128.65536 
L 79.86048 128.65536 
L 79.86048 127.13472 
L 79.97952 127.13472 
L 79.97952 126.7968 
L 80.09856 126.7968 
L 80.09856 126.62784 
L 80.57472 126.62784 
L 80.57472 125.27616 
L 80.69376 125.27616 
L 80.69376 124.76928 
L 80.93184 124.76928 
L 80.93184 124.2624 
L 81.05088 124.2624 
L 81.05088 124.09344 
L 81.16992 124.09344 
L 81.16992 123.92448 
L 81.408 123.92448 
L 81.408 123.58656 
L 81.64608 123.58656 
L 81.64608 123.4176 
L 81.76512 123.4176 
L 81.76512 122.91072 
L 82.24128 122.91072 
L 82.24128 122.74176 
L 82.36032 122.74176 
L 82.36032 122.23488 
L 82.47936 122.23488 
L 82.47936 122.06592 
L 82.5984 122.06592 
L 82.5984 121.89696 
L 82.83648 121.89696 
L 82.83648 121.728 
L 82.95552 121.728 
L 82.95552 121.39008 
L 83.31264 121.39008 
L 83.31264 121.05216 
L 83.7888 121.05216 
L 83.7888 120.8832 
L 83.90784 120.8832 
L 83.90784 120.20736 
L 84.14592 120.20736 
L 84.14592 119.86944 
L 84.384 119.86944 
L 84.384 119.53152 
L 84.62208 119.53152 
L 84.62208 119.36256 
L 84.86016 119.36256 
L 84.86016 119.02464 
L 84.9792 119.02464 
L 84.9792 118.85568 
L 85.33632 118.85568 
L 85.33632 118.68672 
L 85.5744 118.68672 
L 85.5744 118.51776 
L 85.69344 118.51776 
L 85.69344 118.3488 
L 85.81248 118.3488 
L 85.81248 117.67296 
L 86.05056 117.67296 
L 86.05056 117.33504 
L 86.1696 117.33504 
L 86.1696 117.16608 
L 86.28864 117.16608 
L 86.28864 116.32128 
L 86.52672 116.32128 
L 86.52672 116.15232 
L 87.24096 116.15232 
L 87.24096 115.8144 
L 87.36 115.8144 
L 87.36 115.47648 
L 87.71712 115.47648 
L 87.71712 114.9696 
L 87.9552 114.9696 
L 87.9552 114.63168 
L 88.31232 114.63168 
L 88.31232 114.29376 
L 88.5504 114.29376 
L 88.5504 114.1248 
L 88.78848 114.1248 
L 88.78848 113.78688 
L 89.1456 113.78688 
L 89.1456 113.44896 
L 89.26464 113.44896 
L 89.26464 112.94208 
L 89.85984 112.94208 
L 89.85984 112.4352 
L 89.97888 112.4352 
L 89.97888 112.09728 
L 90.09792 112.09728 
L 90.09792 111.75936 
L 90.81216 111.75936 
L 90.81216 111.5904 
L 90.9312 111.5904 
L 90.9312 111.42144 
L 91.28832 111.42144 
L 91.28832 111.08352 
L 91.64544 111.08352 
L 91.64544 110.7456 
L 91.76448 110.7456 
L 91.76448 110.57664 
L 91.88352 110.57664 
L 91.88352 110.40768 
L 92.35968 110.40768 
L 92.35968 110.23872 
L 92.47872 110.23872 
L 92.47872 110.06976 
L 92.95488 110.06976 
L 92.95488 109.9008 
L 93.07392 109.9008 
L 93.07392 109.56288 
L 93.19296 109.56288 
L 93.19296 109.39392 
L 93.312 109.39392 
L 93.312 108.54912 
L 93.9072 108.54912 
L 93.9072 108.38016 
L 94.02624 108.38016 
L 94.02624 108.2112 
L 94.26432 108.2112 
L 94.26432 108.04224 
L 94.74048 108.04224 
L 94.74048 107.53536 
L 95.0976 107.53536 
L 95.0976 107.3664 
L 95.45472 107.3664 
L 95.45472 107.19744 
L 95.93088 107.19744 
L 95.93088 107.02848 
L 96.04992 107.02848 
L 96.04992 106.85952 
L 96.16896 106.85952 
L 96.16896 106.69056 
L 96.288 106.69056 
L 96.288 106.5216 
L 96.52608 106.5216 
L 96.52608 106.35264 
L 96.64512 106.35264 
L 96.64512 106.18368 
L 96.76416 106.18368 
L 96.76416 106.01472 
L 96.8832 106.01472 
L 96.8832 105.6768 
L 97.12128 105.6768 
L 97.12128 105.50784 
L 97.24032 105.50784 
L 97.24032 105.33888 
L 97.35936 105.33888 
L 97.35936 104.32512 
L 97.4784 104.32512 
L 97.4784 104.15616 
L 98.0736 104.15616 
L 98.0736 103.81824 
L 98.19264 103.81824 
L 98.19264 103.48032 
L 98.31168 103.48032 
L 98.6688 102.97344 
L 98.6688 102.46656 
L 98.78784 102.46656 
L 98.78784 101.95968 
L 99.14496 101.95968 
L 99.14496 101.11488 
L 99.38304 101.11488 
L 99.38304 100.94592 
L 99.97824 100.94592 
L 99.97824 100.608 
L 100.09728 100.608 
L 100.09728 100.27008 
L 100.57344 100.27008 
L 100.57344 100.10112 
L 101.16864 100.10112 
L 101.16864 99.93216 
L 101.52576 99.93216 
L 101.52576 99.59424 
L 101.76384 99.59424 
L 101.76384 99.42528 
L 102.24 99.42528 
L 102.24 99.25632 
L 102.71616 99.25632 
L 102.71616 98.74944 
L 102.8352 98.74944 
L 102.8352 98.41152 
L 102.95424 98.41152 
L 102.95424 98.24256 
L 103.19232 98.24256 
L 103.19232 97.90464 
L 103.54944 97.90464 
L 103.54944 97.73568 
L 103.66848 97.73568 
L 103.66848 97.56672 
L 103.78752 97.56672 
L 103.78752 97.05984 
L 104.0256 97.05984 
L 104.0256 96.89088 
L 104.26368 96.89088 
L 104.26368 96.21504 
L 104.50176 96.21504 
L 104.50176 96.04608 
L 105.33504 96.04608 
L 105.33504 95.87712 
L 105.69216 95.87712 
L 105.69216 95.5392 
L 106.04928 95.5392 
L 106.04928 95.37024 
L 106.28736 95.37024 
L 106.28736 95.20128 
L 106.4064 95.20128 
L 106.4064 95.03232 
L 106.76352 95.03232 
L 106.76352 94.86336 
L 107.0016 94.86336 
L 107.0016 94.6944 
L 107.12064 94.6944 
L 107.12064 94.52544 
L 107.47776 94.52544 
L 107.47776 94.18752 
L 107.95392 94.18752 
L 107.95392 93.68064 
L 108.07296 93.68064 
L 108.07296 93.51168 
L 108.43008 93.51168 
L 108.43008 93.34272 
L 108.54912 93.34272 
L 108.54912 93.17376 
L 108.66816 93.17376 
L 108.66816 92.83584 
L 109.02528 92.83584 
L 109.02528 92.32896 
L 109.73952 92.32896 
L 109.73952 92.16 
L 110.09664 92.16 
L 110.09664 91.82208 
L 110.45376 91.82208 
L 110.45376 91.65312 
L 111.28704 91.65312 
L 111.28704 91.48416 
L 111.88224 91.48416 
L 111.88224 91.14624 
L 112.00128 91.14624 
L 112.00128 90.97728 
L 112.47744 90.97728 
L 112.47744 90.80832 
L 113.07264 90.80832 
L 113.07264 90.63936 
L 113.78688 90.63936 
L 113.78688 90.30144 
L 113.90592 90.30144 
L 113.90592 90.13248 
L 114.02496 90.13248 
L 114.02496 89.96352 
L 114.38208 89.96352 
L 114.38208 89.79456 
L 114.62016 89.79456 
L 114.62016 89.6256 
L 114.7392 89.6256 
L 114.7392 89.45664 
L 114.85824 89.45664 
L 114.85824 89.11872 
L 115.09632 89.11872 
L 115.09632 88.94976 
L 115.69152 88.94976 
L 115.69152 88.7808 
L 115.9296 88.7808 
L 115.9296 88.44288 
L 116.16768 88.44288 
L 116.16768 88.27392 
L 116.76288 88.27392 
L 116.76288 88.10496 
L 116.88192 88.10496 
L 116.88192 87.936 
L 117.00096 87.936 
L 117.00096 87.59808 
L 118.3104 87.59808 
L 118.3104 87.42912 
L 119.14368 87.42912 
L 119.14368 87.26016 
L 119.85792 87.26016 
L 119.85792 87.0912 
L 119.97696 87.0912 
L 119.97696 86.92224 
L 120.57216 86.92224 
L 120.57216 86.75328 
L 120.6912 86.75328 
L 120.6912 86.41536 
L 121.16736 86.41536 
L 121.16736 86.2464 
L 121.2864 86.2464 
L 121.2864 85.90848 
L 122.11968 85.90848 
L 122.11968 85.73952 
L 122.23872 85.73952 
L 122.23872 85.4016 
L 122.35776 85.4016 
L 122.35776 85.23264 
L 123.31008 85.23264 
L 123.31008 84.89472 
L 123.54816 84.89472 
L 123.54816 84.5568 
L 123.90528 84.5568 
L 123.90528 84.38784 
L 124.2624 84.38784 
L 124.2624 84.21888 
L 125.21472 84.21888 
L 125.21472 84.04992 
L 125.4528 84.04992 
L 125.4528 83.88096 
L 125.57184 83.88096 
L 125.57184 83.712 
L 125.80992 83.712 
L 125.80992 83.54304 
L 126.048 83.54304 
L 126.048 83.03616 
L 126.16704 83.03616 
L 126.16704 82.69824 
L 126.28608 82.69824 
L 126.28608 82.52928 
L 126.40512 82.52928 
L 126.40512 82.19136 
L 127.8336 82.19136 
L 127.8336 81.85344 
L 128.19072 81.85344 
L 128.19072 81.51552 
L 128.30976 81.51552 
L 128.30976 81.34656 
L 129.26208 81.34656 
L 129.26208 81.1776 
L 129.50016 81.1776 
L 129.50016 81.00864 
L 129.6192 81.00864 
L 129.6192 80.67072 
L 129.85728 80.67072 
L 129.85728 80.3328 
L 130.09536 80.3328 
L 130.09536 80.16384 
L 130.69056 80.16384 
L 130.69056 79.99488 
L 130.92864 79.99488 
L 131.04768 79.65696 
L 131.76192 79.65696 
L 131.76192 79.31904 
L 132.23808 79.31904 
L 132.23808 79.15008 
L 132.35712 79.15008 
L 132.35712 78.98112 
L 132.95232 78.98112 
L 132.95232 78.6432 
L 133.66656 78.6432 
L 133.66656 78.47424 
L 134.3808 78.47424 
L 134.3808 78.30528 
L 134.49984 78.30528 
L 134.49984 78.13632 
L 134.85696 78.13632 
L 134.85696 77.96736 
L 135.69024 77.96736 
L 135.69024 77.7984 
L 135.92832 77.7984 
L 135.92832 77.29152 
L 136.1664 77.29152 
L 136.1664 77.12256 
L 136.28544 77.12256 
L 136.28544 76.78464 
L 136.64256 76.78464 
L 136.64256 76.27776 
L 137.83296 76.27776 
L 138.19008 76.1088 
L 138.78528 76.1088 
L 138.78528 75.93984 
L 140.3328 75.93984 
L 140.3328 75.77088 
L 143.07072 75.77088 
L 143.07072 75.60192 
L 143.18976 75.60192 
L 143.18976 75.43296 
L 143.66592 75.43296 
L 143.66592 75.264 
L 143.904 75.264 
L 143.904 75.09504 
L 144.02304 75.09504 
L 144.02304 74.92608 
L 144.14208 74.92608 
L 144.14208 74.75712 
L 145.21344 74.75712 
L 145.21344 74.25024 
L 145.33248 74.25024 
L 145.33248 73.91232 
L 145.80864 73.91232 
L 145.80864 73.40544 
L 146.16576 73.40544 
L 146.16576 73.06752 
L 146.99904 73.06752 
L 146.99904 72.89856 
L 147.71328 72.89856 
L 147.71328 72.7296 
L 148.30848 72.7296 
L 148.30848 72.56064 
L 148.42752 72.56064 
L 148.42752 72.39168 
L 149.02272 72.39168 
L 149.02272 72.22272 
L 149.37984 72.22272 
L 149.37984 71.8848 
L 149.61792 71.8848 
L 149.61792 71.54688 
L 150.09408 71.54688 
L 150.09408 71.37792 
L 150.21312 71.37792 
L 150.21312 71.20896 
L 150.80832 71.20896 
L 150.80832 71.04 
L 151.99872 71.04 
L 151.99872 70.87104 
L 153.54624 70.87104 
L 153.54624 70.70208 
L 154.73664 70.70208 
L 154.73664 70.53312 
L 155.33184 70.53312 
L 155.33184 70.36416 
L 155.808 70.36416 
L 155.808 70.1952 
L 155.92704 70.1952 
L 155.92704 70.02624 
L 156.16512 70.02624 
L 156.16512 69.85728 
L 156.64128 69.85728 
L 156.64128 69.68832 
L 157.23648 69.68832 
L 157.23648 69.51936 
L 157.5936 69.51936 
L 157.5936 69.18144 
L 157.71264 69.18144 
L 157.71264 69.01248 
L 159.3792 69.01248 
L 159.3792 68.67456 
L 159.49824 68.67456 
L 159.49824 68.5056 
L 159.85536 68.5056 
L 159.85536 68.33664 
L 160.21248 68.33664 
L 160.21248 68.16768 
L 160.92672 68.16768 
L 160.92672 67.99872 
L 161.28384 67.99872 
L 161.28384 67.82976 
L 161.76 67.82976 
L 161.76 67.6608 
L 161.87904 67.6608 
L 161.87904 67.49184 
L 162.23616 67.49184 
L 163.42656 67.15392 
L 164.02176 67.15392 
L 164.02176 66.98496 
L 164.97408 66.98496 
L 164.97408 66.816 
L 165.3312 66.816 
L 165.3312 66.64704 
L 166.04544 66.64704 
L 166.04544 66.30912 
L 166.28352 66.30912 
L 166.28352 66.14016 
L 167.59296 66.14016 
L 167.59296 65.9712 
L 167.712 65.9712 
L 167.712 65.80224 
L 169.25952 65.80224 
L 169.61664 65.63328 
L 170.80704 65.63328 
L 170.80704 65.46432 
L 172.83072 65.46432 
L 172.83072 65.29536 
L 172.94976 65.29536 
L 172.94976 65.1264 
L 173.30688 65.1264 
L 173.30688 64.78848 
L 174.8544 64.78848 
L 174.8544 64.45056 
L 176.40192 64.45056 
L 176.40192 64.2816 
L 176.52096 64.2816 
L 176.52096 64.11264 
L 176.75904 64.11264 
L 176.75904 63.77472 
L 176.99712 63.77472 
L 176.99712 63.60576 
L 177.59232 63.60576 
L 177.59232 63.4368 
L 177.8304 63.4368 
L 177.8304 63.26784 
L 179.37792 63.26784 
L 179.37792 63.09888 
L 180.2112 63.09888 
L 180.2112 62.92992 
L 181.52064 62.92992 
L 181.52064 62.76096 
L 181.63968 62.76096 
L 181.63968 62.592 
L 183.06816 62.592 
L 183.06816 62.25408 
L 184.25856 62.25408 
L 184.25856 62.08512 
L 185.80608 62.08512 
L 185.80608 61.91616 
L 186.99648 61.91616 
L 186.99648 61.7472 
L 189.25824 61.7472 
L 189.25824 61.57824 
L 189.49632 61.57824 
L 189.49632 61.40928 
L 191.04384 61.40928 
L 191.04384 61.24032 
L 191.75808 61.24032 
L 191.75808 61.07136 
L 193.3056 61.07136 
L 193.3056 60.9024 
L 195.0912 60.9024 
L 195.0912 60.73344 
L 198.0672 60.73344 
L 198.0672 60.39552 
L 198.30528 60.39552 
L 198.30528 60.22656 
L 199.2576 60.22656 
L 199.2576 59.88864 
L 201.40032 59.88864 
L 201.40032 59.71968 
L 205.2096 59.71968 
L 205.2096 59.55072 
L 209.49504 59.55072 
L 209.49504 59.38176 
L 210.44736 59.38176 
L 210.44736 59.2128 
L 211.04256 59.2128 
L 211.04256 58.87488 
L 211.28064 58.87488 
L 211.39968 58.53696 
L 211.51872 58.53696 
L 212.59008 58.03008 
L 213.42336 58.03008 
L 213.42336 57.86112 
L 214.97088 57.86112 
L 214.97088 57.69216 
L 215.328 57.69216 
L 215.328 57.5232 
L 215.44704 57.5232 
L 215.44704 57.18528 
L 217.35168 57.18528 
L 217.35168 56.84736 
L 217.7088 56.84736 
L 217.7088 56.6784 
L 217.94688 56.6784 
L 217.94688 56.50944 
L 220.0896 56.50944 
L 220.0896 56.34048 
L 220.20864 56.34048 
L 220.20864 56.17152 
L 224.73216 56.17152 
L 224.73216 56.00256 
L 224.8512 56.00256 
L 224.8512 55.8336 
L 233.89824 55.8336 
L 233.89824 55.66464 
L 238.89792 55.66464 
L 238.89792 55.49568 
L 240.44544 55.49568 
L 240.44544 55.32672 
L 249.13536 55.32672 
L 249.13536 55.15776 
L 254.37312 55.15776 
L 254.37312 54.9888 
L 255.8016 54.9888 
L 255.8016 54.81984 
L 301.39392 54.81984 
L 301.39392 54.65088 
L 321.74976 54.65088 
L 321.74976 54.48192 
L 334.24896 54.48192 
L 334.24896 54.31296 
L 391.98336 54.31296 
L 391.98336 54.144 
L 414.72 54.144 
L 414.72 54.144 
" style="fill:none;stroke:#ff1493;stroke-dasharray:4,6.6;stroke-dashoffset:0;stroke-width:4;"/>
   </g>
   <g id="line2d_17">
    <path clip-path="url(#p1811c9930e)" d="M 57.6 285.78816 
L 58.31424 236.28288 
L 58.67136 218.37312 
L 59.02848 207.22176 
L 59.74272 200.63232 
L 60.09984 200.12544 
L 60.45696 199.28064 
L 60.81408 196.40832 
L 61.52832 189.48096 
L 61.88544 187.79136 
L 62.24256 187.6224 
L 62.59968 186.7776 
L 62.9568 184.58112 
L 63.31392 183.56736 
L 63.67104 181.7088 
L 64.7424 171.74016 
L 65.09952 171.06432 
L 65.45664 166.33344 
L 65.81376 164.64384 
L 66.17088 164.64384 
L 66.528 163.03872 
L 67.59936 155.52 
L 67.95648 155.01312 
L 68.3136 153.66144 
L 68.67072 152.749056 
L 69.02784 150.822912 
L 69.74208 149.505024 
L 70.0992 148.08576 
L 70.81344 147.40992 
L 71.17056 145.55136 
L 71.52768 144.87552 
L 72.24192 142.0032 
L 72.59904 140.48256 
L 72.95616 139.4688 
L 73.31328 138.79296 
L 73.6704 138.45504 
L 74.02752 137.10336 
L 74.74176 136.76544 
L 75.09888 135.58272 
L 75.456 134.90688 
L 75.81312 134.73792 
L 76.17024 133.04832 
L 76.88448 131.35872 
L 77.59872 130.51392 
L 77.95584 128.4864 
L 78.31296 128.14848 
L 78.67008 127.97952 
L 79.0272 127.6416 
L 79.74144 126.28992 
L 80.09856 125.27616 
L 80.8128 124.60032 
L 81.52704 124.09344 
L 82.24128 122.91072 
L 82.95552 121.39008 
L 83.31264 121.05216 
L 84.02688 120.20736 
L 84.384 119.86944 
L 85.45536 118.01088 
L 86.1696 117.16608 
L 86.52672 116.99712 
L 87.24096 116.32128 
L 87.9552 115.98336 
L 88.31232 115.64544 
L 88.66944 114.63168 
L 89.02656 114.29376 
L 89.38368 113.28 
L 89.7408 112.94208 
L 90.45504 111.42144 
L 91.16928 111.25248 
L 91.5264 110.91456 
L 92.24064 110.06976 
L 93.312 109.73184 
L 93.66912 109.39392 
L 94.02624 108.2112 
L 94.74048 106.85952 
L 95.0976 106.5216 
L 95.45472 106.01472 
L 96.16896 105.6768 
L 96.52608 105.16992 
L 96.8832 105.00096 
L 97.24032 104.66304 
L 97.59744 103.48032 
L 97.95456 103.31136 
L 98.31168 102.80448 
L 98.6688 101.95968 
L 99.38304 100.94592 
L 100.09728 100.43904 
L 100.81152 100.27008 
L 101.16864 99.42528 
L 101.52576 99.08736 
L 104.0256 97.2288 
L 104.73984 95.87712 
L 105.09696 95.70816 
L 105.45408 95.20128 
L 107.5968 94.18752 
L 108.31104 94.01856 
L 109.02528 93.51168 
L 109.3824 92.32896 
L 110.45376 91.65312 
L 111.52512 91.14624 
L 112.23936 90.4704 
L 113.31072 89.96352 
L 114.02496 89.45664 
L 114.38208 88.94976 
L 115.09632 88.61184 
L 116.88192 88.44288 
L 117.59616 88.10496 
L 118.3104 88.10496 
L 119.02464 87.936 
L 119.38176 87.59808 
L 120.45312 87.0912 
L 120.81024 86.58432 
L 121.16736 86.41536 
L 122.95296 86.07744 
L 123.31008 85.57056 
L 124.02432 85.23264 
L 124.73856 85.06368 
L 125.09568 84.72576 
L 126.16704 84.21888 
L 126.52416 83.712 
L 127.59552 83.20512 
L 127.95264 82.8672 
L 128.30976 82.69824 
L 132.23808 81.85344 
L 132.95232 81.1776 
L 134.02368 80.67072 
L 135.80928 80.3328 
L 136.1664 80.16384 
L 138.30912 79.65696 
L 139.38048 78.98112 
L 140.09472 78.81216 
L 140.80896 78.81216 
L 141.88032 77.7984 
L 142.59456 77.62944 
L 144.73728 77.29152 
L 146.52288 76.78464 
L 146.88 76.1088 
L 147.59424 75.77088 
L 149.02272 75.43296 
L 150.09408 74.92608 
L 154.37952 74.58816 
L 159.73632 73.23648 
L 163.30752 72.89856 
L 164.37888 72.7296 
L 164.736 72.56064 
L 165.80736 72.22272 
L 166.16448 72.05376 
L 166.87872 71.8848 
L 167.23584 71.54688 
L 167.59296 71.37792 
L 169.02144 70.36416 
L 170.44992 70.1952 
L 172.94976 69.51936 
L 173.30688 69.3504 
L 173.664 69.01248 
L 174.37824 68.67456 
L 174.73536 68.33664 
L 179.37792 67.6608 
L 181.87776 67.49184 
L 182.94912 67.15392 
L 183.30624 66.816 
L 184.73472 66.30912 
L 186.1632 66.14016 
L 189.02016 66.14016 
L 189.37728 65.91488 
L 191.16288 65.1264 
L 192.23424 65.1264 
L 194.01984 64.61952 
L 201.87648 63.94368 
L 202.2336 63.60576 
L 209.73312 63.26784 
L 211.87584 62.92992 
L 214.01856 62.76096 
L 216.5184 62.08512 
L 216.87552 61.91616 
L 217.58976 61.7472 
L 219.73248 61.57824 
L 220.0896 61.40928 
L 224.73216 60.73344 
L 225.4464 60.39552 
L 226.51776 60.0576 
L 232.94592 59.71968 
L 235.44576 59.55072 
L 236.16 59.38176 
L 237.9456 59.2128 
L 242.58816 59.04384 
L 244.37376 58.70592 
L 244.73088 58.368 
L 248.30208 57.5232 
L 251.87328 57.35424 
L 252.58752 56.84736 
L 254.37312 56.6784 
L 254.73024 56.50944 
L 257.5872 56.34048 
L 257.94432 56.17152 
L 259.72992 56.00256 
L 262.944 55.8336 
L 264.01536 55.66464 
L 278.30016 55.15776 
L 284.72832 54.9888 
L 300.08448 54.81984 
L 301.87008 54.65088 
L 325.44 54.48192 
L 380.07936 54.31296 
L 392.93568 54.144 
L 414.72 54.144 
L 414.72 54.144 
" style="fill:none;stroke:#000080;stroke-dasharray:4,6.6;stroke-dashoffset:0;stroke-width:4;"/>
   </g>
   <g id="line2d_18">
    <path clip-path="url(#p1811c9930e)" d="M 57.6 307.584 
L 414.72 54.144 
" style="fill:none;stroke:#000000;stroke-dasharray:7.4,3.2;stroke-dashoffset:0;stroke-width:2;"/>
   </g>
   <g id="patch_3">
    <path d="M 57.6 307.584 
L 57.6 41.472 
" style="fill:none;stroke:#000000;stroke-linecap:square;stroke-linejoin:miter;stroke-width:0.8;"/>
   </g>
   <g id="patch_4">
    <path d="M 414.72 307.584 
L 414.72 41.472 
" style="fill:none;stroke:#000000;stroke-linecap:square;stroke-linejoin:miter;stroke-width:0.8;"/>
   </g>
   <g id="patch_5">
    <path d="M 57.6 307.584 
L 414.72 307.584 
" style="fill:none;stroke:#000000;stroke-linecap:square;stroke-linejoin:miter;stroke-width:0.8;"/>
   </g>
   <g id="patch_6">
    <path d="M 57.6 41.472 
L 414.72 41.472 
" style="fill:none;stroke:#000000;stroke-linecap:square;stroke-linejoin:miter;stroke-width:0.8;"/>
   </g>
   <g id="text_15">
    <!-- ROC Curves -->
    <defs>
     <path d="M 39.40625 66.21875 
Q 28.65625 66.21875 22.328125 58.203125 
Q 16.015625 50.203125 16.015625 36.375 
Q 16.015625 22.609375 22.328125 14.59375 
Q 28.65625 6.59375 39.40625 6.59375 
Q 50.140625 6.59375 56.421875 14.59375 
Q 62.703125 22.609375 62.703125 36.375 
Q 62.703125 50.203125 56.421875 58.203125 
Q 50.140625 66.21875 39.40625 66.21875 
z
M 39.40625 74.21875 
Q 54.734375 74.21875 63.90625 63.9375 
Q 73.09375 53.65625 73.09375 36.375 
Q 73.09375 19.140625 63.90625 8.859375 
Q 54.734375 -1.421875 39.40625 -1.421875 
Q 24.03125 -1.421875 14.8125 8.828125 
Q 5.609375 19.09375 5.609375 36.375 
Q 5.609375 53.65625 14.8125 63.9375 
Q 24.03125 74.21875 39.40625 74.21875 
z
" id="DejaVuSans-79"/>
     <path d="M 64.40625 67.28125 
L 64.40625 56.890625 
Q 59.421875 61.53125 53.78125 63.8125 
Q 48.140625 66.109375 41.796875 66.109375 
Q 29.296875 66.109375 22.65625 58.46875 
Q 16.015625 50.828125 16.015625 36.375 
Q 16.015625 21.96875 22.65625 14.328125 
Q 29.296875 6.6875 41.796875 6.6875 
Q 48.140625 6.6875 53.78125 8.984375 
Q 59.421875 11.28125 64.40625 15.921875 
L 64.40625 5.609375 
Q 59.234375 2.09375 53.4375 0.328125 
Q 47.65625 -1.421875 41.21875 -1.421875 
Q 24.65625 -1.421875 15.125 8.703125 
Q 5.609375 18.84375 5.609375 36.375 
Q 5.609375 53.953125 15.125 64.078125 
Q 24.65625 74.21875 41.21875 74.21875 
Q 47.75 74.21875 53.53125 72.484375 
Q 59.328125 70.75 64.40625 67.28125 
z
" id="DejaVuSans-67"/>
    </defs>
    <g transform="translate(200.34375 35.472)scale(0.12 -0.12)">
     <use xlink:href="#DejaVuSans-82"/>
     <use x="69.482422" xlink:href="#DejaVuSans-79"/>
     <use x="148.193359" xlink:href="#DejaVuSans-67"/>
     <use x="218.017578" xlink:href="#DejaVuSans-32"/>
     <use x="249.804688" xlink:href="#DejaVuSans-67"/>
     <use x="319.628906" xlink:href="#DejaVuSans-117"/>
     <use x="383.007812" xlink:href="#DejaVuSans-114"/>
     <use x="424.121094" xlink:href="#DejaVuSans-118"/>
     <use x="483.300781" xlink:href="#DejaVuSans-101"/>
     <use x="544.824219" xlink:href="#DejaVuSans-115"/>
    </g>
   </g>
   <g id="legend_1">
    <g id="patch_7">
     <path d="M 173.155937 302.584 
L 407.72 302.584 
Q 409.72 302.584 409.72 300.584 
L 409.72 228.193375 
Q 409.72 226.193375 407.72 226.193375 
L 173.155937 226.193375 
Q 171.155937 226.193375 171.155937 228.193375 
L 171.155937 300.584 
Q 171.155937 302.584 173.155937 302.584 
z
" style="fill:#ffffff;opacity:0.8;stroke:#cccccc;stroke-linejoin:miter;"/>
    </g>
    <g id="line2d_19">
     <path d="M 175.155937 234.291812 
L 195.155937 234.291812 
" style="fill:none;stroke:#000000;stroke-linecap:square;stroke-width:2;"/>
    </g>
    <g id="line2d_20"/>
    <g id="text_16">
     <!-- ROC curve of class 0 (area = 0.97) -->
     <defs>
      <path d="M 48.78125 52.59375 
L 48.78125 44.1875 
Q 44.96875 46.296875 41.140625 47.34375 
Q 37.3125 48.390625 33.40625 48.390625 
Q 24.65625 48.390625 19.8125 42.84375 
Q 14.984375 37.3125 14.984375 27.296875 
Q 14.984375 17.28125 19.8125 11.734375 
Q 24.65625 6.203125 33.40625 6.203125 
Q 37.3125 6.203125 41.140625 7.25 
Q 44.96875 8.296875 48.78125 10.40625 
L 48.78125 2.09375 
Q 45.015625 0.34375 40.984375 -0.53125 
Q 36.96875 -1.421875 32.421875 -1.421875 
Q 20.0625 -1.421875 12.78125 6.34375 
Q 5.515625 14.109375 5.515625 27.296875 
Q 5.515625 40.671875 12.859375 48.328125 
Q 20.21875 56 33.015625 56 
Q 37.15625 56 41.109375 55.140625 
Q 45.0625 54.296875 48.78125 52.59375 
z
" id="DejaVuSans-99"/>
      <path d="M 37.109375 75.984375 
L 37.109375 68.5 
L 28.515625 68.5 
Q 23.6875 68.5 21.796875 66.546875 
Q 19.921875 64.59375 19.921875 59.515625 
L 19.921875 54.6875 
L 34.71875 54.6875 
L 34.71875 47.703125 
L 19.921875 47.703125 
L 19.921875 0 
L 10.890625 0 
L 10.890625 47.703125 
L 2.296875 47.703125 
L 2.296875 54.6875 
L 10.890625 54.6875 
L 10.890625 58.5 
Q 10.890625 67.625 15.140625 71.796875 
Q 19.390625 75.984375 28.609375 75.984375 
z
" id="DejaVuSans-102"/>
      <path d="M 31 75.875 
Q 24.46875 64.65625 21.28125 53.65625 
Q 18.109375 42.671875 18.109375 31.390625 
Q 18.109375 20.125 21.3125 9.0625 
Q 24.515625 -2 31 -13.1875 
L 23.1875 -13.1875 
Q 15.875 -1.703125 12.234375 9.375 
Q 8.59375 20.453125 8.59375 31.390625 
Q 8.59375 42.28125 12.203125 53.3125 
Q 15.828125 64.359375 23.1875 75.875 
z
" id="DejaVuSans-40"/>
      <path d="M 10.59375 45.40625 
L 73.1875 45.40625 
L 73.1875 37.203125 
L 10.59375 37.203125 
z
M 10.59375 25.484375 
L 73.1875 25.484375 
L 73.1875 17.1875 
L 10.59375 17.1875 
z
" id="DejaVuSans-61"/>
      <path d="M 10.984375 1.515625 
L 10.984375 10.5 
Q 14.703125 8.734375 18.5 7.8125 
Q 22.3125 6.890625 25.984375 6.890625 
Q 35.75 6.890625 40.890625 13.453125 
Q 46.046875 20.015625 46.78125 33.40625 
Q 43.953125 29.203125 39.59375 26.953125 
Q 35.25 24.703125 29.984375 24.703125 
Q 19.046875 24.703125 12.671875 31.3125 
Q 6.296875 37.9375 6.296875 49.421875 
Q 6.296875 60.640625 12.9375 67.421875 
Q 19.578125 74.21875 30.609375 74.21875 
Q 43.265625 74.21875 49.921875 64.515625 
Q 56.59375 54.828125 56.59375 36.375 
Q 56.59375 19.140625 48.40625 8.859375 
Q 40.234375 -1.421875 26.421875 -1.421875 
Q 22.703125 -1.421875 18.890625 -0.6875 
Q 15.09375 0.046875 10.984375 1.515625 
z
M 30.609375 32.421875 
Q 37.25 32.421875 41.125 36.953125 
Q 45.015625 41.5 45.015625 49.421875 
Q 45.015625 57.28125 41.125 61.84375 
Q 37.25 66.40625 30.609375 66.40625 
Q 23.96875 66.40625 20.09375 61.84375 
Q 16.21875 57.28125 16.21875 49.421875 
Q 16.21875 41.5 20.09375 36.953125 
Q 23.96875 32.421875 30.609375 32.421875 
z
" id="DejaVuSans-57"/>
      <path d="M 8.203125 72.90625 
L 55.078125 72.90625 
L 55.078125 68.703125 
L 28.609375 0 
L 18.3125 0 
L 43.21875 64.59375 
L 8.203125 64.59375 
z
" id="DejaVuSans-55"/>
      <path d="M 8.015625 75.875 
L 15.828125 75.875 
Q 23.140625 64.359375 26.78125 53.3125 
Q 30.421875 42.28125 30.421875 31.390625 
Q 30.421875 20.453125 26.78125 9.375 
Q 23.140625 -1.703125 15.828125 -13.1875 
L 8.015625 -13.1875 
Q 14.5 -2 17.703125 9.0625 
Q 20.90625 20.125 20.90625 31.390625 
Q 20.90625 42.671875 17.703125 53.65625 
Q 14.5 64.65625 8.015625 75.875 
z
" id="DejaVuSans-41"/>
     </defs>
     <g transform="translate(203.155937 237.791812)scale(0.1 -0.1)">
      <use xlink:href="#DejaVuSans-82"/>
      <use x="69.482422" xlink:href="#DejaVuSans-79"/>
      <use x="148.193359" xlink:href="#DejaVuSans-67"/>
      <use x="218.017578" xlink:href="#DejaVuSans-32"/>
      <use x="249.804688" xlink:href="#DejaVuSans-99"/>
      <use x="304.785156" xlink:href="#DejaVuSans-117"/>
      <use x="368.164062" xlink:href="#DejaVuSans-114"/>
      <use x="409.277344" xlink:href="#DejaVuSans-118"/>
      <use x="468.457031" xlink:href="#DejaVuSans-101"/>
      <use x="529.980469" xlink:href="#DejaVuSans-32"/>
      <use x="561.767578" xlink:href="#DejaVuSans-111"/>
      <use x="622.949219" xlink:href="#DejaVuSans-102"/>
      <use x="658.154297" xlink:href="#DejaVuSans-32"/>
      <use x="689.941406" xlink:href="#DejaVuSans-99"/>
      <use x="744.921875" xlink:href="#DejaVuSans-108"/>
      <use x="772.705078" xlink:href="#DejaVuSans-97"/>
      <use x="833.984375" xlink:href="#DejaVuSans-115"/>
      <use x="886.083984" xlink:href="#DejaVuSans-115"/>
      <use x="938.183594" xlink:href="#DejaVuSans-32"/>
      <use x="969.970703" xlink:href="#DejaVuSans-48"/>
      <use x="1033.59375" xlink:href="#DejaVuSans-32"/>
      <use x="1065.380859" xlink:href="#DejaVuSans-40"/>
      <use x="1104.394531" xlink:href="#DejaVuSans-97"/>
      <use x="1165.673828" xlink:href="#DejaVuSans-114"/>
      <use x="1204.537109" xlink:href="#DejaVuSans-101"/>
      <use x="1266.060547" xlink:href="#DejaVuSans-97"/>
      <use x="1327.339844" xlink:href="#DejaVuSans-32"/>
      <use x="1359.126953" xlink:href="#DejaVuSans-61"/>
      <use x="1442.916016" xlink:href="#DejaVuSans-32"/>
      <use x="1474.703125" xlink:href="#DejaVuSans-48"/>
      <use x="1538.326172" xlink:href="#DejaVuSans-46"/>
      <use x="1570.113281" xlink:href="#DejaVuSans-57"/>
      <use x="1633.736328" xlink:href="#DejaVuSans-55"/>
      <use x="1697.359375" xlink:href="#DejaVuSans-41"/>
     </g>
    </g>
    <g id="line2d_21">
     <path d="M 175.155937 248.969937 
L 195.155937 248.969937 
" style="fill:none;stroke:#00a4bb;stroke-linecap:square;stroke-width:2;"/>
    </g>
    <g id="line2d_22"/>
    <g id="text_17">
     <!-- ROC curve of class 1 (area = 0.90) -->
     <g transform="translate(203.155937 252.469937)scale(0.1 -0.1)">
      <use xlink:href="#DejaVuSans-82"/>
      <use x="69.482422" xlink:href="#DejaVuSans-79"/>
      <use x="148.193359" xlink:href="#DejaVuSans-67"/>
      <use x="218.017578" xlink:href="#DejaVuSans-32"/>
      <use x="249.804688" xlink:href="#DejaVuSans-99"/>
      <use x="304.785156" xlink:href="#DejaVuSans-117"/>
      <use x="368.164062" xlink:href="#DejaVuSans-114"/>
      <use x="409.277344" xlink:href="#DejaVuSans-118"/>
      <use x="468.457031" xlink:href="#DejaVuSans-101"/>
      <use x="529.980469" xlink:href="#DejaVuSans-32"/>
      <use x="561.767578" xlink:href="#DejaVuSans-111"/>
      <use x="622.949219" xlink:href="#DejaVuSans-102"/>
      <use x="658.154297" xlink:href="#DejaVuSans-32"/>
      <use x="689.941406" xlink:href="#DejaVuSans-99"/>
      <use x="744.921875" xlink:href="#DejaVuSans-108"/>
      <use x="772.705078" xlink:href="#DejaVuSans-97"/>
      <use x="833.984375" xlink:href="#DejaVuSans-115"/>
      <use x="886.083984" xlink:href="#DejaVuSans-115"/>
      <use x="938.183594" xlink:href="#DejaVuSans-32"/>
      <use x="969.970703" xlink:href="#DejaVuSans-49"/>
      <use x="1033.59375" xlink:href="#DejaVuSans-32"/>
      <use x="1065.380859" xlink:href="#DejaVuSans-40"/>
      <use x="1104.394531" xlink:href="#DejaVuSans-97"/>
      <use x="1165.673828" xlink:href="#DejaVuSans-114"/>
      <use x="1204.537109" xlink:href="#DejaVuSans-101"/>
      <use x="1266.060547" xlink:href="#DejaVuSans-97"/>
      <use x="1327.339844" xlink:href="#DejaVuSans-32"/>
      <use x="1359.126953" xlink:href="#DejaVuSans-61"/>
      <use x="1442.916016" xlink:href="#DejaVuSans-32"/>
      <use x="1474.703125" xlink:href="#DejaVuSans-48"/>
      <use x="1538.326172" xlink:href="#DejaVuSans-46"/>
      <use x="1570.113281" xlink:href="#DejaVuSans-57"/>
      <use x="1633.736328" xlink:href="#DejaVuSans-48"/>
      <use x="1697.359375" xlink:href="#DejaVuSans-41"/>
     </g>
    </g>
    <g id="line2d_23">
     <path d="M 175.155937 263.648062 
L 195.155937 263.648062 
" style="fill:none;stroke:#ccf900;stroke-linecap:square;stroke-width:2;"/>
    </g>
    <g id="line2d_24"/>
    <g id="text_18">
     <!-- ROC curve of class 2 (area = 0.91) -->
     <g transform="translate(203.155937 267.148062)scale(0.1 -0.1)">
      <use xlink:href="#DejaVuSans-82"/>
      <use x="69.482422" xlink:href="#DejaVuSans-79"/>
      <use x="148.193359" xlink:href="#DejaVuSans-67"/>
      <use x="218.017578" xlink:href="#DejaVuSans-32"/>
      <use x="249.804688" xlink:href="#DejaVuSans-99"/>
      <use x="304.785156" xlink:href="#DejaVuSans-117"/>
      <use x="368.164062" xlink:href="#DejaVuSans-114"/>
      <use x="409.277344" xlink:href="#DejaVuSans-118"/>
      <use x="468.457031" xlink:href="#DejaVuSans-101"/>
      <use x="529.980469" xlink:href="#DejaVuSans-32"/>
      <use x="561.767578" xlink:href="#DejaVuSans-111"/>
      <use x="622.949219" xlink:href="#DejaVuSans-102"/>
      <use x="658.154297" xlink:href="#DejaVuSans-32"/>
      <use x="689.941406" xlink:href="#DejaVuSans-99"/>
      <use x="744.921875" xlink:href="#DejaVuSans-108"/>
      <use x="772.705078" xlink:href="#DejaVuSans-97"/>
      <use x="833.984375" xlink:href="#DejaVuSans-115"/>
      <use x="886.083984" xlink:href="#DejaVuSans-115"/>
      <use x="938.183594" xlink:href="#DejaVuSans-32"/>
      <use x="969.970703" xlink:href="#DejaVuSans-50"/>
      <use x="1033.59375" xlink:href="#DejaVuSans-32"/>
      <use x="1065.380859" xlink:href="#DejaVuSans-40"/>
      <use x="1104.394531" xlink:href="#DejaVuSans-97"/>
      <use x="1165.673828" xlink:href="#DejaVuSans-114"/>
      <use x="1204.537109" xlink:href="#DejaVuSans-101"/>
      <use x="1266.060547" xlink:href="#DejaVuSans-97"/>
      <use x="1327.339844" xlink:href="#DejaVuSans-32"/>
      <use x="1359.126953" xlink:href="#DejaVuSans-61"/>
      <use x="1442.916016" xlink:href="#DejaVuSans-32"/>
      <use x="1474.703125" xlink:href="#DejaVuSans-48"/>
      <use x="1538.326172" xlink:href="#DejaVuSans-46"/>
      <use x="1570.113281" xlink:href="#DejaVuSans-57"/>
      <use x="1633.736328" xlink:href="#DejaVuSans-49"/>
      <use x="1697.359375" xlink:href="#DejaVuSans-41"/>
     </g>
    </g>
    <g id="line2d_25">
     <path d="M 175.155937 278.326188 
L 195.155937 278.326188 
" style="fill:none;stroke:#ff1493;stroke-dasharray:4,6.6;stroke-dashoffset:0;stroke-width:4;"/>
    </g>
    <g id="line2d_26"/>
    <g id="text_19">
     <!-- micro-average ROC curve (area = 0.93) -->
     <defs>
      <path d="M 52 44.1875 
Q 55.375 50.25 60.0625 53.125 
Q 64.75 56 71.09375 56 
Q 79.640625 56 84.28125 50.015625 
Q 88.921875 44.046875 88.921875 33.015625 
L 88.921875 0 
L 79.890625 0 
L 79.890625 32.71875 
Q 79.890625 40.578125 77.09375 44.375 
Q 74.3125 48.1875 68.609375 48.1875 
Q 61.625 48.1875 57.5625 43.546875 
Q 53.515625 38.921875 53.515625 30.90625 
L 53.515625 0 
L 44.484375 0 
L 44.484375 32.71875 
Q 44.484375 40.625 41.703125 44.40625 
Q 38.921875 48.1875 33.109375 48.1875 
Q 26.21875 48.1875 22.15625 43.53125 
Q 18.109375 38.875 18.109375 30.90625 
L 18.109375 0 
L 9.078125 0 
L 9.078125 54.6875 
L 18.109375 54.6875 
L 18.109375 46.1875 
Q 21.1875 51.21875 25.484375 53.609375 
Q 29.78125 56 35.6875 56 
Q 41.65625 56 45.828125 52.96875 
Q 50 49.953125 52 44.1875 
z
" id="DejaVuSans-109"/>
      <path d="M 4.890625 31.390625 
L 31.203125 31.390625 
L 31.203125 23.390625 
L 4.890625 23.390625 
z
" id="DejaVuSans-45"/>
      <path d="M 45.40625 27.984375 
Q 45.40625 37.75 41.375 43.109375 
Q 37.359375 48.484375 30.078125 48.484375 
Q 22.859375 48.484375 18.828125 43.109375 
Q 14.796875 37.75 14.796875 27.984375 
Q 14.796875 18.265625 18.828125 12.890625 
Q 22.859375 7.515625 30.078125 7.515625 
Q 37.359375 7.515625 41.375 12.890625 
Q 45.40625 18.265625 45.40625 27.984375 
z
M 54.390625 6.78125 
Q 54.390625 -7.171875 48.1875 -13.984375 
Q 42 -20.796875 29.203125 -20.796875 
Q 24.46875 -20.796875 20.265625 -20.09375 
Q 16.0625 -19.390625 12.109375 -17.921875 
L 12.109375 -9.1875 
Q 16.0625 -11.328125 19.921875 -12.34375 
Q 23.78125 -13.375 27.78125 -13.375 
Q 36.625 -13.375 41.015625 -8.765625 
Q 45.40625 -4.15625 45.40625 5.171875 
L 45.40625 9.625 
Q 42.625 4.78125 38.28125 2.390625 
Q 33.9375 0 27.875 0 
Q 17.828125 0 11.671875 7.65625 
Q 5.515625 15.328125 5.515625 27.984375 
Q 5.515625 40.671875 11.671875 48.328125 
Q 17.828125 56 27.875 56 
Q 33.9375 56 38.28125 53.609375 
Q 42.625 51.21875 45.40625 46.390625 
L 45.40625 54.6875 
L 54.390625 54.6875 
z
" id="DejaVuSans-103"/>
      <path d="M 40.578125 39.3125 
Q 47.65625 37.796875 51.625 33 
Q 55.609375 28.21875 55.609375 21.1875 
Q 55.609375 10.40625 48.1875 4.484375 
Q 40.765625 -1.421875 27.09375 -1.421875 
Q 22.515625 -1.421875 17.65625 -0.515625 
Q 12.796875 0.390625 7.625 2.203125 
L 7.625 11.71875 
Q 11.71875 9.328125 16.59375 8.109375 
Q 21.484375 6.890625 26.8125 6.890625 
Q 36.078125 6.890625 40.9375 10.546875 
Q 45.796875 14.203125 45.796875 21.1875 
Q 45.796875 27.640625 41.28125 31.265625 
Q 36.765625 34.90625 28.71875 34.90625 
L 20.21875 34.90625 
L 20.21875 43.015625 
L 29.109375 43.015625 
Q 36.375 43.015625 40.234375 45.921875 
Q 44.09375 48.828125 44.09375 54.296875 
Q 44.09375 59.90625 40.109375 62.90625 
Q 36.140625 65.921875 28.71875 65.921875 
Q 24.65625 65.921875 20.015625 65.03125 
Q 15.375 64.15625 9.8125 62.3125 
L 9.8125 71.09375 
Q 15.4375 72.65625 20.34375 73.4375 
Q 25.25 74.21875 29.59375 74.21875 
Q 40.828125 74.21875 47.359375 69.109375 
Q 53.90625 64.015625 53.90625 55.328125 
Q 53.90625 49.265625 50.4375 45.09375 
Q 46.96875 40.921875 40.578125 39.3125 
z
" id="DejaVuSans-51"/>
     </defs>
     <g transform="translate(203.155937 281.826188)scale(0.1 -0.1)">
      <use xlink:href="#DejaVuSans-109"/>
      <use x="97.412109" xlink:href="#DejaVuSans-105"/>
      <use x="125.195312" xlink:href="#DejaVuSans-99"/>
      <use x="180.175781" xlink:href="#DejaVuSans-114"/>
      <use x="219.039062" xlink:href="#DejaVuSans-111"/>
      <use x="282.095703" xlink:href="#DejaVuSans-45"/>
      <use x="318.179688" xlink:href="#DejaVuSans-97"/>
      <use x="379.458984" xlink:href="#DejaVuSans-118"/>
      <use x="438.638672" xlink:href="#DejaVuSans-101"/>
      <use x="500.162109" xlink:href="#DejaVuSans-114"/>
      <use x="541.275391" xlink:href="#DejaVuSans-97"/>
      <use x="602.554688" xlink:href="#DejaVuSans-103"/>
      <use x="666.03125" xlink:href="#DejaVuSans-101"/>
      <use x="727.554688" xlink:href="#DejaVuSans-32"/>
      <use x="759.341797" xlink:href="#DejaVuSans-82"/>
      <use x="828.824219" xlink:href="#DejaVuSans-79"/>
      <use x="907.535156" xlink:href="#DejaVuSans-67"/>
      <use x="977.359375" xlink:href="#DejaVuSans-32"/>
      <use x="1009.146484" xlink:href="#DejaVuSans-99"/>
      <use x="1064.126953" xlink:href="#DejaVuSans-117"/>
      <use x="1127.505859" xlink:href="#DejaVuSans-114"/>
      <use x="1168.619141" xlink:href="#DejaVuSans-118"/>
      <use x="1227.798828" xlink:href="#DejaVuSans-101"/>
      <use x="1289.322266" xlink:href="#DejaVuSans-32"/>
      <use x="1321.109375" xlink:href="#DejaVuSans-40"/>
      <use x="1360.123047" xlink:href="#DejaVuSans-97"/>
      <use x="1421.402344" xlink:href="#DejaVuSans-114"/>
      <use x="1460.265625" xlink:href="#DejaVuSans-101"/>
      <use x="1521.789062" xlink:href="#DejaVuSans-97"/>
      <use x="1583.068359" xlink:href="#DejaVuSans-32"/>
      <use x="1614.855469" xlink:href="#DejaVuSans-61"/>
      <use x="1698.644531" xlink:href="#DejaVuSans-32"/>
      <use x="1730.431641" xlink:href="#DejaVuSans-48"/>
      <use x="1794.054688" xlink:href="#DejaVuSans-46"/>
      <use x="1825.841797" xlink:href="#DejaVuSans-57"/>
      <use x="1889.464844" xlink:href="#DejaVuSans-51"/>
      <use x="1953.087891" xlink:href="#DejaVuSans-41"/>
     </g>
    </g>
    <g id="line2d_27">
     <path d="M 175.155937 293.004312 
L 195.155937 293.004312 
" style="fill:none;stroke:#000080;stroke-dasharray:4,6.6;stroke-dashoffset:0;stroke-width:4;"/>
    </g>
    <g id="line2d_28"/>
    <g id="text_20">
     <!-- macro-average ROC curve (area = 0.93) -->
     <g transform="translate(203.155937 296.504312)scale(0.1 -0.1)">
      <use xlink:href="#DejaVuSans-109"/>
      <use x="97.412109" xlink:href="#DejaVuSans-97"/>
      <use x="158.691406" xlink:href="#DejaVuSans-99"/>
      <use x="213.671875" xlink:href="#DejaVuSans-114"/>
      <use x="252.535156" xlink:href="#DejaVuSans-111"/>
      <use x="315.591797" xlink:href="#DejaVuSans-45"/>
      <use x="351.675781" xlink:href="#DejaVuSans-97"/>
      <use x="412.955078" xlink:href="#DejaVuSans-118"/>
      <use x="472.134766" xlink:href="#DejaVuSans-101"/>
      <use x="533.658203" xlink:href="#DejaVuSans-114"/>
      <use x="574.771484" xlink:href="#DejaVuSans-97"/>
      <use x="636.050781" xlink:href="#DejaVuSans-103"/>
      <use x="699.527344" xlink:href="#DejaVuSans-101"/>
      <use x="761.050781" xlink:href="#DejaVuSans-32"/>
      <use x="792.837891" xlink:href="#DejaVuSans-82"/>
      <use x="862.320312" xlink:href="#DejaVuSans-79"/>
      <use x="941.03125" xlink:href="#DejaVuSans-67"/>
      <use x="1010.855469" xlink:href="#DejaVuSans-32"/>
      <use x="1042.642578" xlink:href="#DejaVuSans-99"/>
      <use x="1097.623047" xlink:href="#DejaVuSans-117"/>
      <use x="1161.001953" xlink:href="#DejaVuSans-114"/>
      <use x="1202.115234" xlink:href="#DejaVuSans-118"/>
      <use x="1261.294922" xlink:href="#DejaVuSans-101"/>
      <use x="1322.818359" xlink:href="#DejaVuSans-32"/>
      <use x="1354.605469" xlink:href="#DejaVuSans-40"/>
      <use x="1393.619141" xlink:href="#DejaVuSans-97"/>
      <use x="1454.898438" xlink:href="#DejaVuSans-114"/>
      <use x="1493.761719" xlink:href="#DejaVuSans-101"/>
      <use x="1555.285156" xlink:href="#DejaVuSans-97"/>
      <use x="1616.564453" xlink:href="#DejaVuSans-32"/>
      <use x="1648.351562" xlink:href="#DejaVuSans-61"/>
      <use x="1732.140625" xlink:href="#DejaVuSans-32"/>
      <use x="1763.927734" xlink:href="#DejaVuSans-48"/>
      <use x="1827.550781" xlink:href="#DejaVuSans-46"/>
      <use x="1859.337891" xlink:href="#DejaVuSans-57"/>
      <use x="1922.960938" xlink:href="#DejaVuSans-51"/>
      <use x="1986.583984" xlink:href="#DejaVuSans-41"/>
     </g>
    </g>
   </g>
  </g>
 </g>
 <defs>
  <clipPath id="p1811c9930e">
   <rect height="266.112" width="357.12" x="57.6" y="41.472"/>
  </clipPath>
 </defs>
</svg>
