<?xml version="1.0" encoding="utf-8" standalone="no"?>
<!DOCTYPE svg PUBLIC "-//W3C//DTD SVG 1.1//EN"
  "http://www.w3.org/Graphics/SVG/1.1/DTD/svg11.dtd">
<!-- Created with matplotlib (https://matplotlib.org/) -->
<svg height="345.6pt" version="1.1" viewBox="0 0 460.8 345.6" width="460.8pt" xmlns="http://www.w3.org/2000/svg" xmlns:xlink="http://www.w3.org/1999/xlink">
 <defs>
  <style type="text/css">
*{stroke-linecap:butt;stroke-linejoin:round;}
  </style>
 </defs>
 <g id="figure_1">
  <g id="patch_1">
   <path d="M 0 345.6 
L 460.8 345.6 
L 460.8 0 
L 0 0 
z
" style="fill:#ffffff;"/>
  </g>
  <g id="axes_1">
   <g id="patch_2">
    <path d="M 57.6 307.584 
L 414.72 307.584 
L 414.72 41.472 
L 57.6 41.472 
z
" style="fill:#ffffff;"/>
   </g>
   <g id="matplotlib.axis_1">
    <g id="xtick_1">
     <g id="line2d_1">
      <defs>
       <path d="M 0 0 
L 0 3.5 
" id="m12665fc179" style="stroke:#000000;stroke-width:0.8;"/>
      </defs>
      <g>
       <use style="stroke:#000000;stroke-width:0.8;" x="57.6" xlink:href="#m12665fc179" y="307.584"/>
      </g>
     </g>
     <g id="text_1">
      <!-- 0.0 -->
      <defs>
       <path d="M 31.78125 66.40625 
Q 24.171875 66.40625 20.328125 58.90625 
Q 16.5 51.421875 16.5 36.375 
Q 16.5 21.390625 20.328125 13.890625 
Q 24.171875 6.390625 31.78125 6.390625 
Q 39.453125 6.390625 43.28125 13.890625 
Q 47.125 21.390625 47.125 36.375 
Q 47.125 51.421875 43.28125 58.90625 
Q 39.453125 66.40625 31.78125 66.40625 
z
M 31.78125 74.21875 
Q 44.046875 74.21875 50.515625 64.515625 
Q 56.984375 54.828125 56.984375 36.375 
Q 56.984375 17.96875 50.515625 8.265625 
Q 44.046875 -1.421875 31.78125 -1.421875 
Q 19.53125 -1.421875 13.0625 8.265625 
Q 6.59375 17.96875 6.59375 36.375 
Q 6.59375 54.828125 13.0625 64.515625 
Q 19.53125 74.21875 31.78125 74.21875 
z
" id="DejaVuSans-48"/>
       <path d="M 10.6875 12.40625 
L 21 12.40625 
L 21 0 
L 10.6875 0 
z
" id="DejaVuSans-46"/>
      </defs>
      <g transform="translate(46.467813 325.221812)scale(0.14 -0.14)">
       <use xlink:href="#DejaVuSans-48"/>
       <use x="63.623047" xlink:href="#DejaVuSans-46"/>
       <use x="95.410156" xlink:href="#DejaVuSans-48"/>
      </g>
     </g>
    </g>
    <g id="xtick_2">
     <g id="line2d_2">
      <g>
       <use style="stroke:#000000;stroke-width:0.8;" x="129.024" xlink:href="#m12665fc179" y="307.584"/>
      </g>
     </g>
     <g id="text_2">
      <!-- 0.2 -->
      <defs>
       <path d="M 19.1875 8.296875 
L 53.609375 8.296875 
L 53.609375 0 
L 7.328125 0 
L 7.328125 8.296875 
Q 12.9375 14.109375 22.625 23.890625 
Q 32.328125 33.6875 34.8125 36.53125 
Q 39.546875 41.84375 41.421875 45.53125 
Q 43.3125 49.21875 43.3125 52.78125 
Q 43.3125 58.59375 39.234375 62.25 
Q 35.15625 65.921875 28.609375 65.921875 
Q 23.96875 65.921875 18.8125 64.3125 
Q 13.671875 62.703125 7.8125 59.421875 
L 7.8125 69.390625 
Q 13.765625 71.78125 18.9375 73 
Q 24.125 74.21875 28.421875 74.21875 
Q 39.75 74.21875 46.484375 68.546875 
Q 53.21875 62.890625 53.21875 53.421875 
Q 53.21875 48.921875 51.53125 44.890625 
Q 49.859375 40.875 45.40625 35.40625 
Q 44.1875 33.984375 37.640625 27.21875 
Q 31.109375 20.453125 19.1875 8.296875 
z
" id="DejaVuSans-50"/>
      </defs>
      <g transform="translate(117.891813 325.221812)scale(0.14 -0.14)">
       <use xlink:href="#DejaVuSans-48"/>
       <use x="63.623047" xlink:href="#DejaVuSans-46"/>
       <use x="95.410156" xlink:href="#DejaVuSans-50"/>
      </g>
     </g>
    </g>
    <g id="xtick_3">
     <g id="line2d_3">
      <g>
       <use style="stroke:#000000;stroke-width:0.8;" x="200.448" xlink:href="#m12665fc179" y="307.584"/>
      </g>
     </g>
     <g id="text_3">
      <!-- 0.4 -->
      <defs>
       <path d="M 37.796875 64.3125 
L 12.890625 25.390625 
L 37.796875 25.390625 
z
M 35.203125 72.90625 
L 47.609375 72.90625 
L 47.609375 25.390625 
L 58.015625 25.390625 
L 58.015625 17.1875 
L 47.609375 17.1875 
L 47.609375 0 
L 37.796875 0 
L 37.796875 17.1875 
L 4.890625 17.1875 
L 4.890625 26.703125 
z
" id="DejaVuSans-52"/>
      </defs>
      <g transform="translate(189.315812 325.221812)scale(0.14 -0.14)">
       <use xlink:href="#DejaVuSans-48"/>
       <use x="63.623047" xlink:href="#DejaVuSans-46"/>
       <use x="95.410156" xlink:href="#DejaVuSans-52"/>
      </g>
     </g>
    </g>
    <g id="xtick_4">
     <g id="line2d_4">
      <g>
       <use style="stroke:#000000;stroke-width:0.8;" x="271.872" xlink:href="#m12665fc179" y="307.584"/>
      </g>
     </g>
     <g id="text_4">
      <!-- 0.6 -->
      <defs>
       <path d="M 33.015625 40.375 
Q 26.375 40.375 22.484375 35.828125 
Q 18.609375 31.296875 18.609375 23.390625 
Q 18.609375 15.53125 22.484375 10.953125 
Q 26.375 6.390625 33.015625 6.390625 
Q 39.65625 6.390625 43.53125 10.953125 
Q 47.40625 15.53125 47.40625 23.390625 
Q 47.40625 31.296875 43.53125 35.828125 
Q 39.65625 40.375 33.015625 40.375 
z
M 52.59375 71.296875 
L 52.59375 62.3125 
Q 48.875 64.0625 45.09375 64.984375 
Q 41.3125 65.921875 37.59375 65.921875 
Q 27.828125 65.921875 22.671875 59.328125 
Q 17.53125 52.734375 16.796875 39.40625 
Q 19.671875 43.65625 24.015625 45.921875 
Q 28.375 48.1875 33.59375 48.1875 
Q 44.578125 48.1875 50.953125 41.515625 
Q 57.328125 34.859375 57.328125 23.390625 
Q 57.328125 12.15625 50.6875 5.359375 
Q 44.046875 -1.421875 33.015625 -1.421875 
Q 20.359375 -1.421875 13.671875 8.265625 
Q 6.984375 17.96875 6.984375 36.375 
Q 6.984375 53.65625 15.1875 63.9375 
Q 23.390625 74.21875 37.203125 74.21875 
Q 40.921875 74.21875 44.703125 73.484375 
Q 48.484375 72.75 52.59375 71.296875 
z
" id="DejaVuSans-54"/>
      </defs>
      <g transform="translate(260.739813 325.221812)scale(0.14 -0.14)">
       <use xlink:href="#DejaVuSans-48"/>
       <use x="63.623047" xlink:href="#DejaVuSans-46"/>
       <use x="95.410156" xlink:href="#DejaVuSans-54"/>
      </g>
     </g>
    </g>
    <g id="xtick_5">
     <g id="line2d_5">
      <g>
       <use style="stroke:#000000;stroke-width:0.8;" x="343.296" xlink:href="#m12665fc179" y="307.584"/>
      </g>
     </g>
     <g id="text_5">
      <!-- 0.8 -->
      <defs>
       <path d="M 31.78125 34.625 
Q 24.75 34.625 20.71875 30.859375 
Q 16.703125 27.09375 16.703125 20.515625 
Q 16.703125 13.921875 20.71875 10.15625 
Q 24.75 6.390625 31.78125 6.390625 
Q 38.8125 6.390625 42.859375 10.171875 
Q 46.921875 13.96875 46.921875 20.515625 
Q 46.921875 27.09375 42.890625 30.859375 
Q 38.875 34.625 31.78125 34.625 
z
M 21.921875 38.8125 
Q 15.578125 40.375 12.03125 44.71875 
Q 8.5 49.078125 8.5 55.328125 
Q 8.5 64.0625 14.71875 69.140625 
Q 20.953125 74.21875 31.78125 74.21875 
Q 42.671875 74.21875 48.875 69.140625 
Q 55.078125 64.0625 55.078125 55.328125 
Q 55.078125 49.078125 51.53125 44.71875 
Q 48 40.375 41.703125 38.8125 
Q 48.828125 37.15625 52.796875 32.3125 
Q 56.78125 27.484375 56.78125 20.515625 
Q 56.78125 9.90625 50.3125 4.234375 
Q 43.84375 -1.421875 31.78125 -1.421875 
Q 19.734375 -1.421875 13.25 4.234375 
Q 6.78125 9.90625 6.78125 20.515625 
Q 6.78125 27.484375 10.78125 32.3125 
Q 14.796875 37.15625 21.921875 38.8125 
z
M 18.3125 54.390625 
Q 18.3125 48.734375 21.84375 45.5625 
Q 25.390625 42.390625 31.78125 42.390625 
Q 38.140625 42.390625 41.71875 45.5625 
Q 45.3125 48.734375 45.3125 54.390625 
Q 45.3125 60.0625 41.71875 63.234375 
Q 38.140625 66.40625 31.78125 66.40625 
Q 25.390625 66.40625 21.84375 63.234375 
Q 18.3125 60.0625 18.3125 54.390625 
z
" id="DejaVuSans-56"/>
      </defs>
      <g transform="translate(332.163813 325.221812)scale(0.14 -0.14)">
       <use xlink:href="#DejaVuSans-48"/>
       <use x="63.623047" xlink:href="#DejaVuSans-46"/>
       <use x="95.410156" xlink:href="#DejaVuSans-56"/>
      </g>
     </g>
    </g>
    <g id="xtick_6">
     <g id="line2d_6">
      <g>
       <use style="stroke:#000000;stroke-width:0.8;" x="414.72" xlink:href="#m12665fc179" y="307.584"/>
      </g>
     </g>
     <g id="text_6">
      <!-- 1.0 -->
      <defs>
       <path d="M 12.40625 8.296875 
L 28.515625 8.296875 
L 28.515625 63.921875 
L 10.984375 60.40625 
L 10.984375 69.390625 
L 28.421875 72.90625 
L 38.28125 72.90625 
L 38.28125 8.296875 
L 54.390625 8.296875 
L 54.390625 0 
L 12.40625 0 
z
" id="DejaVuSans-49"/>
      </defs>
      <g transform="translate(403.587813 325.221812)scale(0.14 -0.14)">
       <use xlink:href="#DejaVuSans-49"/>
       <use x="63.623047" xlink:href="#DejaVuSans-46"/>
       <use x="95.410156" xlink:href="#DejaVuSans-48"/>
      </g>
     </g>
    </g>
    <g id="text_7">
     <!-- False Positive Rate -->
     <defs>
      <path d="M 9.8125 72.90625 
L 51.703125 72.90625 
L 51.703125 64.59375 
L 19.671875 64.59375 
L 19.671875 43.109375 
L 48.578125 43.109375 
L 48.578125 34.8125 
L 19.671875 34.8125 
L 19.671875 0 
L 9.8125 0 
z
" id="DejaVuSans-70"/>
      <path d="M 34.28125 27.484375 
Q 23.390625 27.484375 19.1875 25 
Q 14.984375 22.515625 14.984375 16.5 
Q 14.984375 11.71875 18.140625 8.90625 
Q 21.296875 6.109375 26.703125 6.109375 
Q 34.1875 6.109375 38.703125 11.40625 
Q 43.21875 16.703125 43.21875 25.484375 
L 43.21875 27.484375 
z
M 52.203125 31.203125 
L 52.203125 0 
L 43.21875 0 
L 43.21875 8.296875 
Q 40.140625 3.328125 35.546875 0.953125 
Q 30.953125 -1.421875 24.3125 -1.421875 
Q 15.921875 -1.421875 10.953125 3.296875 
Q 6 8.015625 6 15.921875 
Q 6 25.140625 12.171875 29.828125 
Q 18.359375 34.515625 30.609375 34.515625 
L 43.21875 34.515625 
L 43.21875 35.40625 
Q 43.21875 41.609375 39.140625 45 
Q 35.0625 48.390625 27.6875 48.390625 
Q 23 48.390625 18.546875 47.265625 
Q 14.109375 46.140625 10.015625 43.890625 
L 10.015625 52.203125 
Q 14.9375 54.109375 19.578125 55.046875 
Q 24.21875 56 28.609375 56 
Q 40.484375 56 46.34375 49.84375 
Q 52.203125 43.703125 52.203125 31.203125 
z
" id="DejaVuSans-97"/>
      <path d="M 9.421875 75.984375 
L 18.40625 75.984375 
L 18.40625 0 
L 9.421875 0 
z
" id="DejaVuSans-108"/>
      <path d="M 44.28125 53.078125 
L 44.28125 44.578125 
Q 40.484375 46.53125 36.375 47.5 
Q 32.28125 48.484375 27.875 48.484375 
Q 21.1875 48.484375 17.84375 46.4375 
Q 14.5 44.390625 14.5 40.28125 
Q 14.5 37.15625 16.890625 35.375 
Q 19.28125 33.59375 26.515625 31.984375 
L 29.59375 31.296875 
Q 39.15625 29.25 43.1875 25.515625 
Q 47.21875 21.78125 47.21875 15.09375 
Q 47.21875 7.46875 41.1875 3.015625 
Q 35.15625 -1.421875 24.609375 -1.421875 
Q 20.21875 -1.421875 15.453125 -0.5625 
Q 10.6875 0.296875 5.421875 2 
L 5.421875 11.28125 
Q 10.40625 8.6875 15.234375 7.390625 
Q 20.0625 6.109375 24.8125 6.109375 
Q 31.15625 6.109375 34.5625 8.28125 
Q 37.984375 10.453125 37.984375 14.40625 
Q 37.984375 18.0625 35.515625 20.015625 
Q 33.0625 21.96875 24.703125 23.78125 
L 21.578125 24.515625 
Q 13.234375 26.265625 9.515625 29.90625 
Q 5.8125 33.546875 5.8125 39.890625 
Q 5.8125 47.609375 11.28125 51.796875 
Q 16.75 56 26.8125 56 
Q 31.78125 56 36.171875 55.265625 
Q 40.578125 54.546875 44.28125 53.078125 
z
" id="DejaVuSans-115"/>
      <path d="M 56.203125 29.59375 
L 56.203125 25.203125 
L 14.890625 25.203125 
Q 15.484375 15.921875 20.484375 11.0625 
Q 25.484375 6.203125 34.421875 6.203125 
Q 39.59375 6.203125 44.453125 7.46875 
Q 49.3125 8.734375 54.109375 11.28125 
L 54.109375 2.78125 
Q 49.265625 0.734375 44.1875 -0.34375 
Q 39.109375 -1.421875 33.890625 -1.421875 
Q 20.796875 -1.421875 13.15625 6.1875 
Q 5.515625 13.8125 5.515625 26.8125 
Q 5.515625 40.234375 12.765625 48.109375 
Q 20.015625 56 32.328125 56 
Q 43.359375 56 49.78125 48.890625 
Q 56.203125 41.796875 56.203125 29.59375 
z
M 47.21875 32.234375 
Q 47.125 39.59375 43.09375 43.984375 
Q 39.0625 48.390625 32.421875 48.390625 
Q 24.90625 48.390625 20.390625 44.140625 
Q 15.875 39.890625 15.1875 32.171875 
z
" id="DejaVuSans-101"/>
      <path id="DejaVuSans-32"/>
      <path d="M 19.671875 64.796875 
L 19.671875 37.40625 
L 32.078125 37.40625 
Q 38.96875 37.40625 42.71875 40.96875 
Q 46.484375 44.53125 46.484375 51.125 
Q 46.484375 57.671875 42.71875 61.234375 
Q 38.96875 64.796875 32.078125 64.796875 
z
M 9.8125 72.90625 
L 32.078125 72.90625 
Q 44.34375 72.90625 50.609375 67.359375 
Q 56.890625 61.8125 56.890625 51.125 
Q 56.890625 40.328125 50.609375 34.8125 
Q 44.34375 29.296875 32.078125 29.296875 
L 19.671875 29.296875 
L 19.671875 0 
L 9.8125 0 
z
" id="DejaVuSans-80"/>
      <path d="M 30.609375 48.390625 
Q 23.390625 48.390625 19.1875 42.75 
Q 14.984375 37.109375 14.984375 27.296875 
Q 14.984375 17.484375 19.15625 11.84375 
Q 23.34375 6.203125 30.609375 6.203125 
Q 37.796875 6.203125 41.984375 11.859375 
Q 46.1875 17.53125 46.1875 27.296875 
Q 46.1875 37.015625 41.984375 42.703125 
Q 37.796875 48.390625 30.609375 48.390625 
z
M 30.609375 56 
Q 42.328125 56 49.015625 48.375 
Q 55.71875 40.765625 55.71875 27.296875 
Q 55.71875 13.875 49.015625 6.21875 
Q 42.328125 -1.421875 30.609375 -1.421875 
Q 18.84375 -1.421875 12.171875 6.21875 
Q 5.515625 13.875 5.515625 27.296875 
Q 5.515625 40.765625 12.171875 48.375 
Q 18.84375 56 30.609375 56 
z
" id="DejaVuSans-111"/>
      <path d="M 9.421875 54.6875 
L 18.40625 54.6875 
L 18.40625 0 
L 9.421875 0 
z
M 9.421875 75.984375 
L 18.40625 75.984375 
L 18.40625 64.59375 
L 9.421875 64.59375 
z
" id="DejaVuSans-105"/>
      <path d="M 18.3125 70.21875 
L 18.3125 54.6875 
L 36.8125 54.6875 
L 36.8125 47.703125 
L 18.3125 47.703125 
L 18.3125 18.015625 
Q 18.3125 11.328125 20.140625 9.421875 
Q 21.96875 7.515625 27.59375 7.515625 
L 36.8125 7.515625 
L 36.8125 0 
L 27.59375 0 
Q 17.1875 0 13.234375 3.875 
Q 9.28125 7.765625 9.28125 18.015625 
L 9.28125 47.703125 
L 2.6875 47.703125 
L 2.6875 54.6875 
L 9.28125 54.6875 
L 9.28125 70.21875 
z
" id="DejaVuSans-116"/>
      <path d="M 2.984375 54.6875 
L 12.5 54.6875 
L 29.59375 8.796875 
L 46.6875 54.6875 
L 56.203125 54.6875 
L 35.6875 0 
L 23.484375 0 
z
" id="DejaVuSans-118"/>
      <path d="M 44.390625 34.1875 
Q 47.5625 33.109375 50.5625 29.59375 
Q 53.5625 26.078125 56.59375 19.921875 
L 66.609375 0 
L 56 0 
L 46.6875 18.703125 
Q 43.0625 26.03125 39.671875 28.421875 
Q 36.28125 30.8125 30.421875 30.8125 
L 19.671875 30.8125 
L 19.671875 0 
L 9.8125 0 
L 9.8125 72.90625 
L 32.078125 72.90625 
Q 44.578125 72.90625 50.734375 67.671875 
Q 56.890625 62.453125 56.890625 51.90625 
Q 56.890625 45.015625 53.6875 40.46875 
Q 50.484375 35.9375 44.390625 34.1875 
z
M 19.671875 64.796875 
L 19.671875 38.921875 
L 32.078125 38.921875 
Q 39.203125 38.921875 42.84375 42.21875 
Q 46.484375 45.515625 46.484375 51.90625 
Q 46.484375 58.296875 42.84375 61.546875 
Q 39.203125 64.796875 32.078125 64.796875 
z
" id="DejaVuSans-82"/>
     </defs>
     <g transform="translate(171.107031 342.771187)scale(0.14 -0.14)">
      <use xlink:href="#DejaVuSans-70"/>
      <use x="48.394531" xlink:href="#DejaVuSans-97"/>
      <use x="109.673828" xlink:href="#DejaVuSans-108"/>
      <use x="137.457031" xlink:href="#DejaVuSans-115"/>
      <use x="189.556641" xlink:href="#DejaVuSans-101"/>
      <use x="251.080078" xlink:href="#DejaVuSans-32"/>
      <use x="282.867188" xlink:href="#DejaVuSans-80"/>
      <use x="339.544922" xlink:href="#DejaVuSans-111"/>
      <use x="400.726562" xlink:href="#DejaVuSans-115"/>
      <use x="452.826172" xlink:href="#DejaVuSans-105"/>
      <use x="480.609375" xlink:href="#DejaVuSans-116"/>
      <use x="519.818359" xlink:href="#DejaVuSans-105"/>
      <use x="547.601562" xlink:href="#DejaVuSans-118"/>
      <use x="606.78125" xlink:href="#DejaVuSans-101"/>
      <use x="668.304688" xlink:href="#DejaVuSans-32"/>
      <use x="700.091797" xlink:href="#DejaVuSans-82"/>
      <use x="767.324219" xlink:href="#DejaVuSans-97"/>
      <use x="828.603516" xlink:href="#DejaVuSans-116"/>
      <use x="867.8125" xlink:href="#DejaVuSans-101"/>
     </g>
    </g>
   </g>
   <g id="matplotlib.axis_2">
    <g id="ytick_1">
     <g id="line2d_7">
      <defs>
       <path d="M 0 0 
L -3.5 0 
" id="mbe7c764041" style="stroke:#000000;stroke-width:0.8;"/>
      </defs>
      <g>
       <use style="stroke:#000000;stroke-width:0.8;" x="57.6" xlink:href="#mbe7c764041" y="307.584"/>
      </g>
     </g>
     <g id="text_8">
      <!-- 0.0 -->
      <g transform="translate(28.335625 312.902906)scale(0.14 -0.14)">
       <use xlink:href="#DejaVuSans-48"/>
       <use x="63.623047" xlink:href="#DejaVuSans-46"/>
       <use x="95.410156" xlink:href="#DejaVuSans-48"/>
      </g>
     </g>
    </g>
    <g id="ytick_2">
     <g id="line2d_8">
      <g>
       <use style="stroke:#000000;stroke-width:0.8;" x="57.6" xlink:href="#mbe7c764041" y="256.896"/>
      </g>
     </g>
     <g id="text_9">
      <!-- 0.2 -->
      <g transform="translate(28.335625 262.214906)scale(0.14 -0.14)">
       <use xlink:href="#DejaVuSans-48"/>
       <use x="63.623047" xlink:href="#DejaVuSans-46"/>
       <use x="95.410156" xlink:href="#DejaVuSans-50"/>
      </g>
     </g>
    </g>
    <g id="ytick_3">
     <g id="line2d_9">
      <g>
       <use style="stroke:#000000;stroke-width:0.8;" x="57.6" xlink:href="#mbe7c764041" y="206.208"/>
      </g>
     </g>
     <g id="text_10">
      <!-- 0.4 -->
      <g transform="translate(28.335625 211.526906)scale(0.14 -0.14)">
       <use xlink:href="#DejaVuSans-48"/>
       <use x="63.623047" xlink:href="#DejaVuSans-46"/>
       <use x="95.410156" xlink:href="#DejaVuSans-52"/>
      </g>
     </g>
    </g>
    <g id="ytick_4">
     <g id="line2d_10">
      <g>
       <use style="stroke:#000000;stroke-width:0.8;" x="57.6" xlink:href="#mbe7c764041" y="155.52"/>
      </g>
     </g>
     <g id="text_11">
      <!-- 0.6 -->
      <g transform="translate(28.335625 160.838906)scale(0.14 -0.14)">
       <use xlink:href="#DejaVuSans-48"/>
       <use x="63.623047" xlink:href="#DejaVuSans-46"/>
       <use x="95.410156" xlink:href="#DejaVuSans-54"/>
      </g>
     </g>
    </g>
    <g id="ytick_5">
     <g id="line2d_11">
      <g>
       <use style="stroke:#000000;stroke-width:0.8;" x="57.6" xlink:href="#mbe7c764041" y="104.832"/>
      </g>
     </g>
     <g id="text_12">
      <!-- 0.8 -->
      <g transform="translate(28.335625 110.150906)scale(0.14 -0.14)">
       <use xlink:href="#DejaVuSans-48"/>
       <use x="63.623047" xlink:href="#DejaVuSans-46"/>
       <use x="95.410156" xlink:href="#DejaVuSans-56"/>
      </g>
     </g>
    </g>
    <g id="ytick_6">
     <g id="line2d_12">
      <g>
       <use style="stroke:#000000;stroke-width:0.8;" x="57.6" xlink:href="#mbe7c764041" y="54.144"/>
      </g>
     </g>
     <g id="text_13">
      <!-- 1.0 -->
      <g transform="translate(28.335625 59.462906)scale(0.14 -0.14)">
       <use xlink:href="#DejaVuSans-49"/>
       <use x="63.623047" xlink:href="#DejaVuSans-46"/>
       <use x="95.410156" xlink:href="#DejaVuSans-48"/>
      </g>
     </g>
    </g>
    <g id="text_14">
     <!-- True Positive Rate -->
     <defs>
      <path d="M -0.296875 72.90625 
L 61.375 72.90625 
L 61.375 64.59375 
L 35.5 64.59375 
L 35.5 0 
L 25.59375 0 
L 25.59375 64.59375 
L -0.296875 64.59375 
z
" id="DejaVuSans-84"/>
      <path d="M 41.109375 46.296875 
Q 39.59375 47.171875 37.8125 47.578125 
Q 36.03125 48 33.890625 48 
Q 26.265625 48 22.1875 43.046875 
Q 18.109375 38.09375 18.109375 28.8125 
L 18.109375 0 
L 9.078125 0 
L 9.078125 54.6875 
L 18.109375 54.6875 
L 18.109375 46.1875 
Q 20.953125 51.171875 25.484375 53.578125 
Q 30.03125 56 36.53125 56 
Q 37.453125 56 38.578125 55.875 
Q 39.703125 55.765625 41.0625 55.515625 
z
" id="DejaVuSans-114"/>
      <path d="M 8.5 21.578125 
L 8.5 54.6875 
L 17.484375 54.6875 
L 17.484375 21.921875 
Q 17.484375 14.15625 20.5 10.265625 
Q 23.53125 6.390625 29.59375 6.390625 
Q 36.859375 6.390625 41.078125 11.03125 
Q 45.3125 15.671875 45.3125 23.6875 
L 45.3125 54.6875 
L 54.296875 54.6875 
L 54.296875 0 
L 45.3125 0 
L 45.3125 8.40625 
Q 42.046875 3.421875 37.71875 1 
Q 33.40625 -1.421875 27.6875 -1.421875 
Q 18.265625 -1.421875 13.375 4.4375 
Q 8.5 10.296875 8.5 21.578125 
z
M 31.109375 56 
z
" id="DejaVuSans-117"/>
     </defs>
     <g transform="translate(21.424062 236.869563)rotate(-90)scale(0.14 -0.14)">
      <use xlink:href="#DejaVuSans-84"/>
      <use x="46.333984" xlink:href="#DejaVuSans-114"/>
      <use x="87.447266" xlink:href="#DejaVuSans-117"/>
      <use x="150.826172" xlink:href="#DejaVuSans-101"/>
      <use x="212.349609" xlink:href="#DejaVuSans-32"/>
      <use x="244.136719" xlink:href="#DejaVuSans-80"/>
      <use x="300.814453" xlink:href="#DejaVuSans-111"/>
      <use x="361.996094" xlink:href="#DejaVuSans-115"/>
      <use x="414.095703" xlink:href="#DejaVuSans-105"/>
      <use x="441.878906" xlink:href="#DejaVuSans-116"/>
      <use x="481.087891" xlink:href="#DejaVuSans-105"/>
      <use x="508.871094" xlink:href="#DejaVuSans-118"/>
      <use x="568.050781" xlink:href="#DejaVuSans-101"/>
      <use x="629.574219" xlink:href="#DejaVuSans-32"/>
      <use x="661.361328" xlink:href="#DejaVuSans-82"/>
      <use x="728.59375" xlink:href="#DejaVuSans-97"/>
      <use x="789.873047" xlink:href="#DejaVuSans-116"/>
      <use x="829.082031" xlink:href="#DejaVuSans-101"/>
     </g>
    </g>
   </g>
   <g id="line2d_13">
    <path clip-path="url(#p9e07d26619)" d="M 57.6 307.584 
L 57.6 306.3168 
L 57.6 142.848 
L 58.4928 142.848 
L 58.4928 68.0832 
L 59.3856 68.0832 
L 59.3856 65.5488 
L 60.2784 65.5488 
L 60.2784 64.2816 
L 68.3136 64.2816 
L 68.3136 63.0144 
L 133.488 63.0144 
L 133.488 61.7472 
L 147.7728 61.7472 
L 147.7728 60.48 
L 174.5568 60.48 
L 174.5568 59.2128 
L 182.592 59.2128 
L 182.592 56.6784 
L 186.1632 56.6784 
L 186.1632 55.4112 
L 227.232 55.4112 
L 227.232 54.144 
L 414.72 54.144 
" style="fill:none;stroke:#000000;stroke-linecap:square;stroke-width:2;"/>
   </g>
   <g id="line2d_14">
    <path clip-path="url(#p9e07d26619)" d="M 57.6 307.584 
L 57.6 306.3168 
L 57.6 293.6448 
L 58.4928 293.6448 
L 58.4928 254.3616 
L 59.3856 254.3616 
L 59.3856 184.6656 
L 60.2784 184.6656 
L 60.2784 177.0624 
L 61.1712 177.0624 
L 61.1712 174.528 
L 62.064 174.528 
L 62.064 173.2608 
L 62.9568 173.2608 
L 62.9568 166.9248 
L 63.8496 166.9248 
L 63.8496 165.6576 
L 64.7424 165.6576 
L 64.7424 163.1232 
L 65.6352 163.1232 
L 65.6352 160.5888 
L 67.4208 160.5888 
L 67.4208 158.0544 
L 68.3136 158.0544 
L 68.3136 154.2528 
L 69.2064 154.2528 
L 69.2064 151.7184 
L 70.0992 151.7184 
L 70.0992 147.9168 
L 72.7776 147.9168 
L 72.7776 144.1152 
L 73.6704 144.1152 
L 73.6704 137.7792 
L 77.2416 137.7792 
L 77.2416 136.512 
L 78.1344 136.512 
L 78.1344 135.2448 
L 79.92 135.2448 
L 79.92 130.176 
L 80.8128 130.176 
L 80.8128 128.9088 
L 81.7056 128.9088 
L 81.7056 127.6416 
L 82.5984 127.6416 
L 82.5984 125.1072 
L 83.4912 125.1072 
L 83.4912 123.84 
L 84.384 123.84 
L 84.384 116.2368 
L 85.2768 116.2368 
L 85.2768 114.9696 
L 86.1696 114.9696 
L 86.1696 113.7024 
L 87.0624 113.7024 
L 87.0624 112.4352 
L 93.312 112.4352 
L 93.312 109.9008 
L 95.0976 109.9008 
L 95.0976 106.0992 
L 96.8832 106.0992 
L 96.8832 104.832 
L 97.776 104.832 
L 97.776 101.0304 
L 98.6688 101.0304 
L 98.6688 99.7632 
L 99.5616 99.7632 
L 99.5616 97.2288 
L 102.24 97.2288 
L 102.24 94.6944 
L 108.4896 94.6944 
L 108.4896 93.4272 
L 110.2752 93.4272 
L 110.2752 89.6256 
L 111.168 89.6256 
L 111.168 87.0912 
L 112.0608 87.0912 
L 112.0608 85.824 
L 118.3104 85.824 
L 118.3104 83.2896 
L 119.2032 83.2896 
L 119.2032 82.0224 
L 121.8816 82.0224 
L 121.8816 80.7552 
L 124.56 80.7552 
L 126.3456 80.7552 
L 130.8096 80.7552 
L 130.8096 78.2208 
L 135.2736 78.2208 
L 135.2736 74.4192 
L 136.1664 74.4192 
L 136.1664 70.6176 
L 138.8448 70.6176 
L 138.8448 68.0832 
L 160.272 68.0832 
L 160.272 66.816 
L 170.9856 66.816 
L 170.9856 65.5488 
L 173.664 65.5488 
L 173.664 64.2816 
L 183.4848 64.2816 
L 183.4848 63.0144 
L 187.9488 63.0144 
L 187.9488 61.7472 
L 216.5184 61.7472 
L 216.5184 60.48 
L 233.4816 60.48 
L 233.4816 59.2128 
L 244.1952 59.2128 
L 244.1952 57.9456 
L 274.5504 57.9456 
L 274.5504 56.6784 
L 283.4784 56.6784 
L 283.4784 55.4112 
L 316.512 55.4112 
L 316.512 54.144 
L 414.72 54.144 
" style="fill:none;stroke:#00a4bb;stroke-linecap:square;stroke-width:2;"/>
   </g>
   <g id="line2d_15">
    <path clip-path="url(#p9e07d26619)" d="M 57.6 307.584 
L 57.6 306.3168 
L 58.4928 306.3168 
L 58.4928 293.6448 
L 60.2784 293.6448 
L 60.2784 261.9648 
L 61.1712 261.9648 
L 61.1712 256.896 
L 62.064 256.896 
L 62.064 236.6208 
L 62.9568 236.6208 
L 62.9568 197.3376 
L 63.8496 197.3376 
L 63.8496 188.4672 
L 64.7424 188.4672 
L 64.7424 185.9328 
L 65.6352 185.9328 
L 65.6352 183.3984 
L 66.528 183.3984 
L 66.528 171.9936 
L 67.4208 171.9936 
L 67.4208 149.184 
L 68.3136 149.184 
L 68.3136 147.9168 
L 69.2064 147.9168 
L 69.2064 145.3824 
L 72.7776 145.3824 
L 72.7776 144.1152 
L 73.6704 144.1152 
L 73.6704 137.7792 
L 74.5632 137.7792 
L 76.3488 137.7792 
L 77.2416 137.7792 
L 77.2416 136.512 
L 81.7056 136.512 
L 81.7056 133.9776 
L 82.5984 133.9776 
L 82.5984 132.7104 
L 83.4912 132.7104 
L 83.4912 131.4432 
L 84.384 131.4432 
L 84.384 130.176 
L 86.1696 130.176 
L 86.1696 127.6416 
L 87.0624 127.6416 
L 87.0624 123.84 
L 88.848 123.84 
L 88.848 122.5728 
L 89.7408 122.5728 
L 89.7408 114.9696 
L 90.6336 114.9696 
L 90.6336 112.4352 
L 93.312 112.4352 
L 93.312 109.9008 
L 95.0976 109.9008 
L 95.0976 108.6336 
L 97.776 108.6336 
L 97.776 107.3664 
L 98.6688 107.3664 
L 98.6688 106.0992 
L 99.5616 106.0992 
L 99.5616 104.832 
L 100.4544 104.832 
L 100.4544 103.5648 
L 102.24 103.5648 
L 102.24 102.2976 
L 103.1328 102.2976 
L 103.1328 101.0304 
L 104.0256 101.0304 
L 104.0256 98.496 
L 104.9184 98.496 
L 104.9184 94.6944 
L 106.704 94.6944 
L 106.704 93.4272 
L 110.2752 93.4272 
L 110.2752 92.16 
L 112.9536 92.16 
L 112.9536 89.6256 
L 113.8464 89.6256 
L 113.8464 88.3584 
L 116.5248 88.3584 
L 116.5248 87.0912 
L 118.3104 87.0912 
L 118.3104 85.824 
L 120.9888 85.824 
L 120.9888 83.2896 
L 121.8816 83.2896 
L 121.8816 80.7552 
L 126.3456 80.7552 
L 126.3456 79.488 
L 127.2384 79.488 
L 127.2384 76.9536 
L 128.1312 76.9536 
L 128.1312 75.6864 
L 129.024 75.6864 
L 129.024 74.4192 
L 130.8096 74.4192 
L 130.8096 73.152 
L 133.488 73.152 
L 133.488 71.8848 
L 134.3808 71.8848 
L 134.3808 70.6176 
L 136.1664 70.6176 
L 136.1664 69.3504 
L 137.0592 69.3504 
L 137.0592 68.0832 
L 137.952 68.0832 
L 137.952 66.816 
L 139.7376 66.816 
L 139.7376 65.5488 
L 145.9872 65.5488 
L 145.9872 64.2816 
L 146.88 64.2816 
L 146.88 63.0144 
L 148.6656 63.0144 
L 148.6656 60.48 
L 151.344 60.48 
L 151.344 59.2128 
L 152.2368 59.2128 
L 152.2368 57.9456 
L 168.3072 57.9456 
L 168.3072 56.6784 
L 207.5904 56.6784 
L 207.5904 55.4112 
L 253.1232 55.4112 
L 253.1232 54.144 
L 414.72 54.144 
" style="fill:none;stroke:#ccf900;stroke-linecap:square;stroke-width:2;"/>
   </g>
   <g id="line2d_16">
    <path clip-path="url(#p9e07d26619)" d="M 57.6 307.584 
L 57.6 263.232 
L 57.8976 263.232 
L 57.8976 248.448 
L 58.1952 248.448 
L 58.1952 247.6032 
L 58.4928 247.6032 
L 58.4928 239.1552 
L 58.7904 239.1552 
L 58.7904 235.776 
L 59.088 235.776 
L 59.088 224.3712 
L 59.3856 224.3712 
L 59.3856 217.6128 
L 59.6832 217.6128 
L 59.6832 207.0528 
L 59.9808 207.0528 
L 59.9808 188.4672 
L 60.2784 188.4672 
L 60.2784 182.976 
L 60.576 182.976 
L 60.576 171.5712 
L 60.8736 171.5712 
L 60.8736 170.304 
L 61.1712 170.304 
L 61.1712 167.7696 
L 61.4688 167.7696 
L 61.4688 158.4768 
L 61.7664 158.4768 
L 61.7664 141.1584 
L 62.064 141.1584 
L 62.064 140.736 
L 62.3616 140.736 
L 62.3616 139.0464 
L 62.6592 139.0464 
L 62.6592 136.9344 
L 62.9568 136.9344 
L 62.9568 136.512 
L 63.552 136.512 
L 63.552 136.0896 
L 63.8496 136.0896 
L 63.8496 134.8224 
L 64.1472 134.8224 
L 64.1472 134.4 
L 64.4448 134.4 
L 64.4448 132.7104 
L 64.7424 132.7104 
L 64.7424 130.5984 
L 65.3376 130.5984 
L 65.3376 130.176 
L 65.9328 130.176 
L 65.9328 128.9088 
L 66.2304 128.9088 
L 66.2304 128.4864 
L 66.528 128.4864 
L 66.528 127.6416 
L 67.4208 127.6416 
L 67.4208 127.2192 
L 67.7184 127.2192 
L 67.7184 126.3744 
L 68.3136 126.3744 
L 68.3136 125.5296 
L 68.9088 125.5296 
L 68.9088 125.1072 
L 69.2064 125.1072 
L 69.2064 124.2624 
L 69.504 124.2624 
L 69.504 123.84 
L 69.8016 123.84 
L 69.8016 123.4176 
L 70.0992 123.4176 
L 70.0992 122.1504 
L 70.3968 122.1504 
L 70.3968 120.4608 
L 71.2896 120.4608 
L 71.2896 120.0384 
L 71.5872 120.0384 
L 71.5872 119.616 
L 71.8848 119.616 
L 71.8848 117.9264 
L 72.1824 117.9264 
L 72.1824 113.28 
L 72.48 113.28 
L 72.48 112.8576 
L 72.7776 112.8576 
L 72.7776 111.168 
L 73.0752 111.168 
L 73.0752 109.9008 
L 74.8608 109.9008 
L 74.8608 107.7888 
L 75.1584 107.7888 
L 75.1584 106.5216 
L 75.7536 106.5216 
L 75.7536 105.6768 
L 76.0512 105.6768 
L 76.0512 105.2544 
L 76.6464 105.2544 
L 76.6464 104.832 
L 77.2416 104.832 
L 77.2416 104.4096 
L 78.432 104.4096 
L 78.432 103.5648 
L 79.0272 103.5648 
L 79.0272 102.72 
L 79.6224 102.72 
L 79.6224 101.8752 
L 79.92 101.8752 
L 79.92 100.608 
L 80.5152 100.608 
L 80.5152 100.1856 
L 80.8128 100.1856 
L 80.8128 99.7632 
L 81.408 99.7632 
L 81.408 98.0736 
L 81.7056 98.0736 
L 81.7056 96.8064 
L 82.0032 96.8064 
L 82.0032 96.384 
L 82.3008 96.384 
L 82.3008 95.5392 
L 82.896 95.5392 
L 82.896 95.1168 
L 83.4912 95.1168 
L 83.4912 94.272 
L 83.7888 94.272 
L 83.7888 93.8496 
L 84.384 93.8496 
L 84.384 93.4272 
L 84.6816 93.4272 
L 84.6816 92.5824 
L 84.9792 92.5824 
L 84.9792 91.7376 
L 85.5744 91.7376 
L 85.5744 91.3152 
L 85.872 91.3152 
L 85.872 90.8928 
L 86.4672 90.8928 
L 86.4672 89.6256 
L 86.7648 89.6256 
L 86.7648 89.2032 
L 89.4432 89.2032 
L 89.4432 88.7808 
L 89.7408 88.7808 
L 89.7408 87.936 
L 90.336 87.936 
L 90.336 87.5136 
L 90.6336 87.5136 
L 90.6336 87.0912 
L 90.9312 87.0912 
L 90.9312 86.2464 
L 92.1216 86.2464 
L 92.1216 84.9792 
L 92.4192 84.9792 
L 92.4192 84.5568 
L 92.7168 84.5568 
L 92.7168 83.712 
L 93.312 83.712 
L 93.312 82.8672 
L 93.9072 82.8672 
L 93.9072 82.4448 
L 94.5024 82.4448 
L 94.5024 82.0224 
L 95.0976 82.0224 
L 95.0976 80.7552 
L 95.3952 80.7552 
L 95.3952 80.3328 
L 95.6928 80.3328 
L 95.6928 79.9104 
L 95.9904 79.9104 
L 95.9904 79.0656 
L 97.4784 79.0656 
L 97.4784 77.7984 
L 99.264 77.7984 
L 99.264 77.376 
L 99.8592 77.376 
L 99.8592 76.9536 
L 100.4544 76.9536 
L 100.4544 76.5312 
L 101.9424 76.5312 
L 101.9424 75.6864 
L 102.8352 75.6864 
L 102.8352 74.4192 
L 103.1328 74.4192 
L 103.1328 73.5744 
L 103.728 73.5744 
L 103.728 73.152 
L 104.0256 73.152 
L 104.0256 72.7296 
L 106.1088 72.7296 
L 106.1088 71.8848 
L 106.4064 71.8848 
L 106.4064 71.4624 
L 106.704 71.4624 
L 106.704 71.04 
L 107.2992 71.04 
L 107.2992 70.6176 
L 107.8944 70.6176 
L 107.8944 70.1952 
L 112.656 70.1952 
L 112.656 69.7728 
L 113.2512 69.7728 
L 113.2512 68.928 
L 113.5488 68.928 
L 113.5488 68.5056 
L 115.9296 68.5056 
L 115.9296 66.3936 
L 116.8224 66.3936 
L 116.8224 65.5488 
L 117.12 65.5488 
L 117.12 65.1264 
L 117.7152 65.1264 
L 117.7152 64.704 
L 118.608 64.704 
L 118.608 64.2816 
L 118.9056 64.2816 
L 118.9056 63.4368 
L 129.6192 63.4368 
L 129.6192 63.0144 
L 131.4048 63.0144 
L 131.4048 62.592 
L 134.3808 62.592 
L 134.3808 62.1696 
L 142.416 62.1696 
L 142.416 61.7472 
L 143.6064 61.7472 
L 143.6064 61.3248 
L 155.2128 61.3248 
L 155.2128 60.9024 
L 158.1888 60.9024 
L 158.1888 60.48 
L 158.784 60.48 
L 158.784 60.0576 
L 178.128 60.0576 
L 178.128 59.6352 
L 189.7344 59.6352 
L 189.7344 59.2128 
L 197.7696 59.2128 
L 197.7696 58.7904 
L 212.352 58.7904 
L 212.352 58.368 
L 221.28 58.368 
L 221.28 57.9456 
L 224.256 57.9456 
L 224.256 57.5232 
L 230.8032 57.5232 
L 230.8032 57.1008 
L 232.8864 57.1008 
L 232.8864 56.6784 
L 253.4208 56.6784 
L 253.4208 56.256 
L 258.7776 56.256 
L 258.7776 55.4112 
L 261.456 55.4112 
L 261.456 54.5664 
L 287.9424 54.5664 
L 287.9424 54.144 
L 414.72 54.144 
L 414.72 54.144 
" style="fill:none;stroke:#ff1493;stroke-dasharray:4,6.6;stroke-dashoffset:0;stroke-width:4;"/>
   </g>
   <g id="line2d_17">
    <path clip-path="url(#p9e07d26619)" d="M 57.6 247.6032 
L 58.4928 205.3632 
L 59.3856 181.2864 
L 60.2784 167.7696 
L 61.1712 165.2352 
L 62.064 158.0544 
L 62.9568 142.848 
L 63.8496 139.4688 
L 64.7424 137.7792 
L 65.6352 136.0896 
L 66.528 132.288 
L 67.4208 123.84 
L 68.3136 121.728 
L 69.2064 120.0384 
L 70.0992 118.7712 
L 72.7776 117.0816 
L 73.6704 112.8576 
L 74.5632 112.8576 
L 76.3488 112.8576 
L 77.2416 112.0128 
L 78.1344 111.5904 
L 79.92 109.9008 
L 80.8128 109.4784 
L 81.7056 108.2112 
L 82.5984 106.944 
L 83.4912 106.0992 
L 84.384 103.1424 
L 85.2768 102.72 
L 86.1696 101.4528 
L 87.0624 99.7632 
L 88.848 99.3408 
L 89.7408 96.8064 
L 90.6336 95.9616 
L 93.312 94.272 
L 95.0976 92.5824 
L 96.8832 92.16 
L 97.776 90.4704 
L 98.6688 89.6256 
L 99.5616 88.3584 
L 100.4544 87.936 
L 102.24 86.6688 
L 103.1328 86.2464 
L 104.0256 85.4016 
L 104.9184 84.1344 
L 106.704 83.712 
L 108.4896 83.2896 
L 110.2752 81.6 
L 111.168 80.7552 
L 112.0608 80.3328 
L 112.9536 79.488 
L 113.8464 79.0656 
L 116.5248 78.6432 
L 118.3104 77.376 
L 119.2032 76.9536 
L 120.9888 76.1088 
L 121.8816 74.8416 
L 124.56 74.8416 
L 126.3456 74.4192 
L 127.2384 73.5744 
L 128.1312 73.152 
L 129.024 72.7296 
L 130.8096 71.4624 
L 133.488 70.6176 
L 134.3808 70.1952 
L 135.2736 68.928 
L 136.1664 67.2384 
L 137.0592 66.816 
L 137.952 66.3936 
L 138.8448 65.5488 
L 139.7376 65.1264 
L 145.9872 64.704 
L 146.88 64.2816 
L 147.7728 63.8592 
L 148.6656 63.0144 
L 151.344 62.592 
L 152.2368 62.1696 
L 160.272 61.7472 
L 168.3072 61.3248 
L 170.9856 60.9024 
L 173.664 60.48 
L 174.5568 60.0576 
L 182.592 59.2128 
L 183.4848 58.7904 
L 186.1632 58.368 
L 187.9488 57.9456 
L 207.5904 57.5232 
L 216.5184 57.1008 
L 227.232 56.6784 
L 233.4816 56.256 
L 244.1952 55.8336 
L 253.1232 55.4112 
L 274.5504 54.9888 
L 283.4784 54.5664 
L 316.512 54.144 
L 414.72 54.144 
" style="fill:none;stroke:#000080;stroke-dasharray:4,6.6;stroke-dashoffset:0;stroke-width:4;"/>
   </g>
   <g id="line2d_18">
    <path clip-path="url(#p9e07d26619)" d="M 57.6 307.584 
L 414.72 54.144 
" style="fill:none;stroke:#000000;stroke-dasharray:7.4,3.2;stroke-dashoffset:0;stroke-width:2;"/>
   </g>
   <g id="patch_3">
    <path d="M 57.6 307.584 
L 57.6 41.472 
" style="fill:none;stroke:#000000;stroke-linecap:square;stroke-linejoin:miter;stroke-width:0.8;"/>
   </g>
   <g id="patch_4">
    <path d="M 414.72 307.584 
L 414.72 41.472 
" style="fill:none;stroke:#000000;stroke-linecap:square;stroke-linejoin:miter;stroke-width:0.8;"/>
   </g>
   <g id="patch_5">
    <path d="M 57.6 307.584 
L 414.72 307.584 
" style="fill:none;stroke:#000000;stroke-linecap:square;stroke-linejoin:miter;stroke-width:0.8;"/>
   </g>
   <g id="patch_6">
    <path d="M 57.6 41.472 
L 414.72 41.472 
" style="fill:none;stroke:#000000;stroke-linecap:square;stroke-linejoin:miter;stroke-width:0.8;"/>
   </g>
   <g id="text_15">
    <!-- ROC Curves -->
    <defs>
     <path d="M 39.40625 66.21875 
Q 28.65625 66.21875 22.328125 58.203125 
Q 16.015625 50.203125 16.015625 36.375 
Q 16.015625 22.609375 22.328125 14.59375 
Q 28.65625 6.59375 39.40625 6.59375 
Q 50.140625 6.59375 56.421875 14.59375 
Q 62.703125 22.609375 62.703125 36.375 
Q 62.703125 50.203125 56.421875 58.203125 
Q 50.140625 66.21875 39.40625 66.21875 
z
M 39.40625 74.21875 
Q 54.734375 74.21875 63.90625 63.9375 
Q 73.09375 53.65625 73.09375 36.375 
Q 73.09375 19.140625 63.90625 8.859375 
Q 54.734375 -1.421875 39.40625 -1.421875 
Q 24.03125 -1.421875 14.8125 8.828125 
Q 5.609375 19.09375 5.609375 36.375 
Q 5.609375 53.65625 14.8125 63.9375 
Q 24.03125 74.21875 39.40625 74.21875 
z
" id="DejaVuSans-79"/>
     <path d="M 64.40625 67.28125 
L 64.40625 56.890625 
Q 59.421875 61.53125 53.78125 63.8125 
Q 48.140625 66.109375 41.796875 66.109375 
Q 29.296875 66.109375 22.65625 58.46875 
Q 16.015625 50.828125 16.015625 36.375 
Q 16.015625 21.96875 22.65625 14.328125 
Q 29.296875 6.6875 41.796875 6.6875 
Q 48.140625 6.6875 53.78125 8.984375 
Q 59.421875 11.28125 64.40625 15.921875 
L 64.40625 5.609375 
Q 59.234375 2.09375 53.4375 0.328125 
Q 47.65625 -1.421875 41.21875 -1.421875 
Q 24.65625 -1.421875 15.125 8.703125 
Q 5.609375 18.84375 5.609375 36.375 
Q 5.609375 53.953125 15.125 64.078125 
Q 24.65625 74.21875 41.21875 74.21875 
Q 47.75 74.21875 53.53125 72.484375 
Q 59.328125 70.75 64.40625 67.28125 
z
" id="DejaVuSans-67"/>
    </defs>
    <g transform="translate(186.01725 35.472)scale(0.168 -0.168)">
     <use xlink:href="#DejaVuSans-82"/>
     <use x="69.482422" xlink:href="#DejaVuSans-79"/>
     <use x="148.193359" xlink:href="#DejaVuSans-67"/>
     <use x="218.017578" xlink:href="#DejaVuSans-32"/>
     <use x="249.804688" xlink:href="#DejaVuSans-67"/>
     <use x="319.628906" xlink:href="#DejaVuSans-117"/>
     <use x="383.007812" xlink:href="#DejaVuSans-114"/>
     <use x="424.121094" xlink:href="#DejaVuSans-118"/>
     <use x="483.300781" xlink:href="#DejaVuSans-101"/>
     <use x="544.824219" xlink:href="#DejaVuSans-115"/>
    </g>
   </g>
   <g id="legend_1">
    <g id="patch_7">
     <path d="M 76.530312 300.584 
L 404.92 300.584 
Q 407.72 300.584 407.72 297.784 
L 407.72 196.437125 
Q 407.72 193.637125 404.92 193.637125 
L 76.530312 193.637125 
Q 73.730312 193.637125 73.730312 196.437125 
L 73.730312 297.784 
Q 73.730312 300.584 76.530312 300.584 
z
" style="fill:#ffffff;opacity:0.8;stroke:#cccccc;stroke-linejoin:miter;"/>
    </g>
    <g id="line2d_19">
     <path d="M 79.330312 204.974937 
L 107.330312 204.974937 
" style="fill:none;stroke:#000000;stroke-linecap:square;stroke-width:2;"/>
    </g>
    <g id="line2d_20"/>
    <g id="text_16">
     <!-- ROC curve of class 0 (area = 0.99) -->
     <defs>
      <path d="M 48.78125 52.59375 
L 48.78125 44.1875 
Q 44.96875 46.296875 41.140625 47.34375 
Q 37.3125 48.390625 33.40625 48.390625 
Q 24.65625 48.390625 19.8125 42.84375 
Q 14.984375 37.3125 14.984375 27.296875 
Q 14.984375 17.28125 19.8125 11.734375 
Q 24.65625 6.203125 33.40625 6.203125 
Q 37.3125 6.203125 41.140625 7.25 
Q 44.96875 8.296875 48.78125 10.40625 
L 48.78125 2.09375 
Q 45.015625 0.34375 40.984375 -0.53125 
Q 36.96875 -1.421875 32.421875 -1.421875 
Q 20.0625 -1.421875 12.78125 6.34375 
Q 5.515625 14.109375 5.515625 27.296875 
Q 5.515625 40.671875 12.859375 48.328125 
Q 20.21875 56 33.015625 56 
Q 37.15625 56 41.109375 55.140625 
Q 45.0625 54.296875 48.78125 52.59375 
z
" id="DejaVuSans-99"/>
      <path d="M 37.109375 75.984375 
L 37.109375 68.5 
L 28.515625 68.5 
Q 23.6875 68.5 21.796875 66.546875 
Q 19.921875 64.59375 19.921875 59.515625 
L 19.921875 54.6875 
L 34.71875 54.6875 
L 34.71875 47.703125 
L 19.921875 47.703125 
L 19.921875 0 
L 10.890625 0 
L 10.890625 47.703125 
L 2.296875 47.703125 
L 2.296875 54.6875 
L 10.890625 54.6875 
L 10.890625 58.5 
Q 10.890625 67.625 15.140625 71.796875 
Q 19.390625 75.984375 28.609375 75.984375 
z
" id="DejaVuSans-102"/>
      <path d="M 31 75.875 
Q 24.46875 64.65625 21.28125 53.65625 
Q 18.109375 42.671875 18.109375 31.390625 
Q 18.109375 20.125 21.3125 9.0625 
Q 24.515625 -2 31 -13.1875 
L 23.1875 -13.1875 
Q 15.875 -1.703125 12.234375 9.375 
Q 8.59375 20.453125 8.59375 31.390625 
Q 8.59375 42.28125 12.203125 53.3125 
Q 15.828125 64.359375 23.1875 75.875 
z
" id="DejaVuSans-40"/>
      <path d="M 10.59375 45.40625 
L 73.1875 45.40625 
L 73.1875 37.203125 
L 10.59375 37.203125 
z
M 10.59375 25.484375 
L 73.1875 25.484375 
L 73.1875 17.1875 
L 10.59375 17.1875 
z
" id="DejaVuSans-61"/>
      <path d="M 10.984375 1.515625 
L 10.984375 10.5 
Q 14.703125 8.734375 18.5 7.8125 
Q 22.3125 6.890625 25.984375 6.890625 
Q 35.75 6.890625 40.890625 13.453125 
Q 46.046875 20.015625 46.78125 33.40625 
Q 43.953125 29.203125 39.59375 26.953125 
Q 35.25 24.703125 29.984375 24.703125 
Q 19.046875 24.703125 12.671875 31.3125 
Q 6.296875 37.9375 6.296875 49.421875 
Q 6.296875 60.640625 12.9375 67.421875 
Q 19.578125 74.21875 30.609375 74.21875 
Q 43.265625 74.21875 49.921875 64.515625 
Q 56.59375 54.828125 56.59375 36.375 
Q 56.59375 19.140625 48.40625 8.859375 
Q 40.234375 -1.421875 26.421875 -1.421875 
Q 22.703125 -1.421875 18.890625 -0.6875 
Q 15.09375 0.046875 10.984375 1.515625 
z
M 30.609375 32.421875 
Q 37.25 32.421875 41.125 36.953125 
Q 45.015625 41.5 45.015625 49.421875 
Q 45.015625 57.28125 41.125 61.84375 
Q 37.25 66.40625 30.609375 66.40625 
Q 23.96875 66.40625 20.09375 61.84375 
Q 16.21875 57.28125 16.21875 49.421875 
Q 16.21875 41.5 20.09375 36.953125 
Q 23.96875 32.421875 30.609375 32.421875 
z
" id="DejaVuSans-57"/>
      <path d="M 8.015625 75.875 
L 15.828125 75.875 
Q 23.140625 64.359375 26.78125 53.3125 
Q 30.421875 42.28125 30.421875 31.390625 
Q 30.421875 20.453125 26.78125 9.375 
Q 23.140625 -1.703125 15.828125 -13.1875 
L 8.015625 -13.1875 
Q 14.5 -2 17.703125 9.0625 
Q 20.90625 20.125 20.90625 31.390625 
Q 20.90625 42.671875 17.703125 53.65625 
Q 14.5 64.65625 8.015625 75.875 
z
" id="DejaVuSans-41"/>
     </defs>
     <g transform="translate(118.530312 209.874937)scale(0.14 -0.14)">
      <use xlink:href="#DejaVuSans-82"/>
      <use x="69.482422" xlink:href="#DejaVuSans-79"/>
      <use x="148.193359" xlink:href="#DejaVuSans-67"/>
      <use x="218.017578" xlink:href="#DejaVuSans-32"/>
      <use x="249.804688" xlink:href="#DejaVuSans-99"/>
      <use x="304.785156" xlink:href="#DejaVuSans-117"/>
      <use x="368.164062" xlink:href="#DejaVuSans-114"/>
      <use x="409.277344" xlink:href="#DejaVuSans-118"/>
      <use x="468.457031" xlink:href="#DejaVuSans-101"/>
      <use x="529.980469" xlink:href="#DejaVuSans-32"/>
      <use x="561.767578" xlink:href="#DejaVuSans-111"/>
      <use x="622.949219" xlink:href="#DejaVuSans-102"/>
      <use x="658.154297" xlink:href="#DejaVuSans-32"/>
      <use x="689.941406" xlink:href="#DejaVuSans-99"/>
      <use x="744.921875" xlink:href="#DejaVuSans-108"/>
      <use x="772.705078" xlink:href="#DejaVuSans-97"/>
      <use x="833.984375" xlink:href="#DejaVuSans-115"/>
      <use x="886.083984" xlink:href="#DejaVuSans-115"/>
      <use x="938.183594" xlink:href="#DejaVuSans-32"/>
      <use x="969.970703" xlink:href="#DejaVuSans-48"/>
      <use x="1033.59375" xlink:href="#DejaVuSans-32"/>
      <use x="1065.380859" xlink:href="#DejaVuSans-40"/>
      <use x="1104.394531" xlink:href="#DejaVuSans-97"/>
      <use x="1165.673828" xlink:href="#DejaVuSans-114"/>
      <use x="1204.537109" xlink:href="#DejaVuSans-101"/>
      <use x="1266.060547" xlink:href="#DejaVuSans-97"/>
      <use x="1327.339844" xlink:href="#DejaVuSans-32"/>
      <use x="1359.126953" xlink:href="#DejaVuSans-61"/>
      <use x="1442.916016" xlink:href="#DejaVuSans-32"/>
      <use x="1474.703125" xlink:href="#DejaVuSans-48"/>
      <use x="1538.326172" xlink:href="#DejaVuSans-46"/>
      <use x="1570.113281" xlink:href="#DejaVuSans-57"/>
      <use x="1633.736328" xlink:href="#DejaVuSans-57"/>
      <use x="1697.359375" xlink:href="#DejaVuSans-41"/>
     </g>
    </g>
    <g id="line2d_21">
     <path d="M 79.330312 225.524312 
L 107.330312 225.524312 
" style="fill:none;stroke:#00a4bb;stroke-linecap:square;stroke-width:2;"/>
    </g>
    <g id="line2d_22"/>
    <g id="text_17">
     <!-- ROC curve of class 1 (area = 0.93) -->
     <defs>
      <path d="M 40.578125 39.3125 
Q 47.65625 37.796875 51.625 33 
Q 55.609375 28.21875 55.609375 21.1875 
Q 55.609375 10.40625 48.1875 4.484375 
Q 40.765625 -1.421875 27.09375 -1.421875 
Q 22.515625 -1.421875 17.65625 -0.515625 
Q 12.796875 0.390625 7.625 2.203125 
L 7.625 11.71875 
Q 11.71875 9.328125 16.59375 8.109375 
Q 21.484375 6.890625 26.8125 6.890625 
Q 36.078125 6.890625 40.9375 10.546875 
Q 45.796875 14.203125 45.796875 21.1875 
Q 45.796875 27.640625 41.28125 31.265625 
Q 36.765625 34.90625 28.71875 34.90625 
L 20.21875 34.90625 
L 20.21875 43.015625 
L 29.109375 43.015625 
Q 36.375 43.015625 40.234375 45.921875 
Q 44.09375 48.828125 44.09375 54.296875 
Q 44.09375 59.90625 40.109375 62.90625 
Q 36.140625 65.921875 28.71875 65.921875 
Q 24.65625 65.921875 20.015625 65.03125 
Q 15.375 64.15625 9.8125 62.3125 
L 9.8125 71.09375 
Q 15.4375 72.65625 20.34375 73.4375 
Q 25.25 74.21875 29.59375 74.21875 
Q 40.828125 74.21875 47.359375 69.109375 
Q 53.90625 64.015625 53.90625 55.328125 
Q 53.90625 49.265625 50.4375 45.09375 
Q 46.96875 40.921875 40.578125 39.3125 
z
" id="DejaVuSans-51"/>
     </defs>
     <g transform="translate(118.530312 230.424312)scale(0.14 -0.14)">
      <use xlink:href="#DejaVuSans-82"/>
      <use x="69.482422" xlink:href="#DejaVuSans-79"/>
      <use x="148.193359" xlink:href="#DejaVuSans-67"/>
      <use x="218.017578" xlink:href="#DejaVuSans-32"/>
      <use x="249.804688" xlink:href="#DejaVuSans-99"/>
      <use x="304.785156" xlink:href="#DejaVuSans-117"/>
      <use x="368.164062" xlink:href="#DejaVuSans-114"/>
      <use x="409.277344" xlink:href="#DejaVuSans-118"/>
      <use x="468.457031" xlink:href="#DejaVuSans-101"/>
      <use x="529.980469" xlink:href="#DejaVuSans-32"/>
      <use x="561.767578" xlink:href="#DejaVuSans-111"/>
      <use x="622.949219" xlink:href="#DejaVuSans-102"/>
      <use x="658.154297" xlink:href="#DejaVuSans-32"/>
      <use x="689.941406" xlink:href="#DejaVuSans-99"/>
      <use x="744.921875" xlink:href="#DejaVuSans-108"/>
      <use x="772.705078" xlink:href="#DejaVuSans-97"/>
      <use x="833.984375" xlink:href="#DejaVuSans-115"/>
      <use x="886.083984" xlink:href="#DejaVuSans-115"/>
      <use x="938.183594" xlink:href="#DejaVuSans-32"/>
      <use x="969.970703" xlink:href="#DejaVuSans-49"/>
      <use x="1033.59375" xlink:href="#DejaVuSans-32"/>
      <use x="1065.380859" xlink:href="#DejaVuSans-40"/>
      <use x="1104.394531" xlink:href="#DejaVuSans-97"/>
      <use x="1165.673828" xlink:href="#DejaVuSans-114"/>
      <use x="1204.537109" xlink:href="#DejaVuSans-101"/>
      <use x="1266.060547" xlink:href="#DejaVuSans-97"/>
      <use x="1327.339844" xlink:href="#DejaVuSans-32"/>
      <use x="1359.126953" xlink:href="#DejaVuSans-61"/>
      <use x="1442.916016" xlink:href="#DejaVuSans-32"/>
      <use x="1474.703125" xlink:href="#DejaVuSans-48"/>
      <use x="1538.326172" xlink:href="#DejaVuSans-46"/>
      <use x="1570.113281" xlink:href="#DejaVuSans-57"/>
      <use x="1633.736328" xlink:href="#DejaVuSans-51"/>
      <use x="1697.359375" xlink:href="#DejaVuSans-41"/>
     </g>
    </g>
    <g id="line2d_23">
     <path d="M 79.330312 246.073687 
L 107.330312 246.073687 
" style="fill:none;stroke:#ccf900;stroke-linecap:square;stroke-width:2;"/>
    </g>
    <g id="line2d_24"/>
    <g id="text_18">
     <!-- ROC curve of class 2 (area = 0.94) -->
     <g transform="translate(118.530312 250.973687)scale(0.14 -0.14)">
      <use xlink:href="#DejaVuSans-82"/>
      <use x="69.482422" xlink:href="#DejaVuSans-79"/>
      <use x="148.193359" xlink:href="#DejaVuSans-67"/>
      <use x="218.017578" xlink:href="#DejaVuSans-32"/>
      <use x="249.804688" xlink:href="#DejaVuSans-99"/>
      <use x="304.785156" xlink:href="#DejaVuSans-117"/>
      <use x="368.164062" xlink:href="#DejaVuSans-114"/>
      <use x="409.277344" xlink:href="#DejaVuSans-118"/>
      <use x="468.457031" xlink:href="#DejaVuSans-101"/>
      <use x="529.980469" xlink:href="#DejaVuSans-32"/>
      <use x="561.767578" xlink:href="#DejaVuSans-111"/>
      <use x="622.949219" xlink:href="#DejaVuSans-102"/>
      <use x="658.154297" xlink:href="#DejaVuSans-32"/>
      <use x="689.941406" xlink:href="#DejaVuSans-99"/>
      <use x="744.921875" xlink:href="#DejaVuSans-108"/>
      <use x="772.705078" xlink:href="#DejaVuSans-97"/>
      <use x="833.984375" xlink:href="#DejaVuSans-115"/>
      <use x="886.083984" xlink:href="#DejaVuSans-115"/>
      <use x="938.183594" xlink:href="#DejaVuSans-32"/>
      <use x="969.970703" xlink:href="#DejaVuSans-50"/>
      <use x="1033.59375" xlink:href="#DejaVuSans-32"/>
      <use x="1065.380859" xlink:href="#DejaVuSans-40"/>
      <use x="1104.394531" xlink:href="#DejaVuSans-97"/>
      <use x="1165.673828" xlink:href="#DejaVuSans-114"/>
      <use x="1204.537109" xlink:href="#DejaVuSans-101"/>
      <use x="1266.060547" xlink:href="#DejaVuSans-97"/>
      <use x="1327.339844" xlink:href="#DejaVuSans-32"/>
      <use x="1359.126953" xlink:href="#DejaVuSans-61"/>
      <use x="1442.916016" xlink:href="#DejaVuSans-32"/>
      <use x="1474.703125" xlink:href="#DejaVuSans-48"/>
      <use x="1538.326172" xlink:href="#DejaVuSans-46"/>
      <use x="1570.113281" xlink:href="#DejaVuSans-57"/>
      <use x="1633.736328" xlink:href="#DejaVuSans-52"/>
      <use x="1697.359375" xlink:href="#DejaVuSans-41"/>
     </g>
    </g>
    <g id="line2d_25">
     <path d="M 79.330312 266.623063 
L 107.330312 266.623063 
" style="fill:none;stroke:#ff1493;stroke-dasharray:4,6.6;stroke-dashoffset:0;stroke-width:4;"/>
    </g>
    <g id="line2d_26"/>
    <g id="text_19">
     <!-- micro-average ROC curve (area = 0.96) -->
     <defs>
      <path d="M 52 44.1875 
Q 55.375 50.25 60.0625 53.125 
Q 64.75 56 71.09375 56 
Q 79.640625 56 84.28125 50.015625 
Q 88.921875 44.046875 88.921875 33.015625 
L 88.921875 0 
L 79.890625 0 
L 79.890625 32.71875 
Q 79.890625 40.578125 77.09375 44.375 
Q 74.3125 48.1875 68.609375 48.1875 
Q 61.625 48.1875 57.5625 43.546875 
Q 53.515625 38.921875 53.515625 30.90625 
L 53.515625 0 
L 44.484375 0 
L 44.484375 32.71875 
Q 44.484375 40.625 41.703125 44.40625 
Q 38.921875 48.1875 33.109375 48.1875 
Q 26.21875 48.1875 22.15625 43.53125 
Q 18.109375 38.875 18.109375 30.90625 
L 18.109375 0 
L 9.078125 0 
L 9.078125 54.6875 
L 18.109375 54.6875 
L 18.109375 46.1875 
Q 21.1875 51.21875 25.484375 53.609375 
Q 29.78125 56 35.6875 56 
Q 41.65625 56 45.828125 52.96875 
Q 50 49.953125 52 44.1875 
z
" id="DejaVuSans-109"/>
      <path d="M 4.890625 31.390625 
L 31.203125 31.390625 
L 31.203125 23.390625 
L 4.890625 23.390625 
z
" id="DejaVuSans-45"/>
      <path d="M 45.40625 27.984375 
Q 45.40625 37.75 41.375 43.109375 
Q 37.359375 48.484375 30.078125 48.484375 
Q 22.859375 48.484375 18.828125 43.109375 
Q 14.796875 37.75 14.796875 27.984375 
Q 14.796875 18.265625 18.828125 12.890625 
Q 22.859375 7.515625 30.078125 7.515625 
Q 37.359375 7.515625 41.375 12.890625 
Q 45.40625 18.265625 45.40625 27.984375 
z
M 54.390625 6.78125 
Q 54.390625 -7.171875 48.1875 -13.984375 
Q 42 -20.796875 29.203125 -20.796875 
Q 24.46875 -20.796875 20.265625 -20.09375 
Q 16.0625 -19.390625 12.109375 -17.921875 
L 12.109375 -9.1875 
Q 16.0625 -11.328125 19.921875 -12.34375 
Q 23.78125 -13.375 27.78125 -13.375 
Q 36.625 -13.375 41.015625 -8.765625 
Q 45.40625 -4.15625 45.40625 5.171875 
L 45.40625 9.625 
Q 42.625 4.78125 38.28125 2.390625 
Q 33.9375 0 27.875 0 
Q 17.828125 0 11.671875 7.65625 
Q 5.515625 15.328125 5.515625 27.984375 
Q 5.515625 40.671875 11.671875 48.328125 
Q 17.828125 56 27.875 56 
Q 33.9375 56 38.28125 53.609375 
Q 42.625 51.21875 45.40625 46.390625 
L 45.40625 54.6875 
L 54.390625 54.6875 
z
" id="DejaVuSans-103"/>
     </defs>
     <g transform="translate(118.530312 271.523062)scale(0.14 -0.14)">
      <use xlink:href="#DejaVuSans-109"/>
      <use x="97.412109" xlink:href="#DejaVuSans-105"/>
      <use x="125.195312" xlink:href="#DejaVuSans-99"/>
      <use x="180.175781" xlink:href="#DejaVuSans-114"/>
      <use x="219.039062" xlink:href="#DejaVuSans-111"/>
      <use x="282.095703" xlink:href="#DejaVuSans-45"/>
      <use x="318.179688" xlink:href="#DejaVuSans-97"/>
      <use x="379.458984" xlink:href="#DejaVuSans-118"/>
      <use x="438.638672" xlink:href="#DejaVuSans-101"/>
      <use x="500.162109" xlink:href="#DejaVuSans-114"/>
      <use x="541.275391" xlink:href="#DejaVuSans-97"/>
      <use x="602.554688" xlink:href="#DejaVuSans-103"/>
      <use x="666.03125" xlink:href="#DejaVuSans-101"/>
      <use x="727.554688" xlink:href="#DejaVuSans-32"/>
      <use x="759.341797" xlink:href="#DejaVuSans-82"/>
      <use x="828.824219" xlink:href="#DejaVuSans-79"/>
      <use x="907.535156" xlink:href="#DejaVuSans-67"/>
      <use x="977.359375" xlink:href="#DejaVuSans-32"/>
      <use x="1009.146484" xlink:href="#DejaVuSans-99"/>
      <use x="1064.126953" xlink:href="#DejaVuSans-117"/>
      <use x="1127.505859" xlink:href="#DejaVuSans-114"/>
      <use x="1168.619141" xlink:href="#DejaVuSans-118"/>
      <use x="1227.798828" xlink:href="#DejaVuSans-101"/>
      <use x="1289.322266" xlink:href="#DejaVuSans-32"/>
      <use x="1321.109375" xlink:href="#DejaVuSans-40"/>
      <use x="1360.123047" xlink:href="#DejaVuSans-97"/>
      <use x="1421.402344" xlink:href="#DejaVuSans-114"/>
      <use x="1460.265625" xlink:href="#DejaVuSans-101"/>
      <use x="1521.789062" xlink:href="#DejaVuSans-97"/>
      <use x="1583.068359" xlink:href="#DejaVuSans-32"/>
      <use x="1614.855469" xlink:href="#DejaVuSans-61"/>
      <use x="1698.644531" xlink:href="#DejaVuSans-32"/>
      <use x="1730.431641" xlink:href="#DejaVuSans-48"/>
      <use x="1794.054688" xlink:href="#DejaVuSans-46"/>
      <use x="1825.841797" xlink:href="#DejaVuSans-57"/>
      <use x="1889.464844" xlink:href="#DejaVuSans-54"/>
      <use x="1953.087891" xlink:href="#DejaVuSans-41"/>
     </g>
    </g>
    <g id="line2d_27">
     <path d="M 79.330312 287.172438 
L 107.330312 287.172438 
" style="fill:none;stroke:#000080;stroke-dasharray:4,6.6;stroke-dashoffset:0;stroke-width:4;"/>
    </g>
    <g id="line2d_28"/>
    <g id="text_20">
     <!-- macro-average ROC curve (area = 0.95) -->
     <defs>
      <path d="M 10.796875 72.90625 
L 49.515625 72.90625 
L 49.515625 64.59375 
L 19.828125 64.59375 
L 19.828125 46.734375 
Q 21.96875 47.46875 24.109375 47.828125 
Q 26.265625 48.1875 28.421875 48.1875 
Q 40.625 48.1875 47.75 41.5 
Q 54.890625 34.8125 54.890625 23.390625 
Q 54.890625 11.625 47.5625 5.09375 
Q 40.234375 -1.421875 26.90625 -1.421875 
Q 22.3125 -1.421875 17.546875 -0.640625 
Q 12.796875 0.140625 7.71875 1.703125 
L 7.71875 11.625 
Q 12.109375 9.234375 16.796875 8.0625 
Q 21.484375 6.890625 26.703125 6.890625 
Q 35.15625 6.890625 40.078125 11.328125 
Q 45.015625 15.765625 45.015625 23.390625 
Q 45.015625 31 40.078125 35.4375 
Q 35.15625 39.890625 26.703125 39.890625 
Q 22.75 39.890625 18.8125 39.015625 
Q 14.890625 38.140625 10.796875 36.28125 
z
" id="DejaVuSans-53"/>
     </defs>
     <g transform="translate(118.530312 292.072437)scale(0.14 -0.14)">
      <use xlink:href="#DejaVuSans-109"/>
      <use x="97.412109" xlink:href="#DejaVuSans-97"/>
      <use x="158.691406" xlink:href="#DejaVuSans-99"/>
      <use x="213.671875" xlink:href="#DejaVuSans-114"/>
      <use x="252.535156" xlink:href="#DejaVuSans-111"/>
      <use x="315.591797" xlink:href="#DejaVuSans-45"/>
      <use x="351.675781" xlink:href="#DejaVuSans-97"/>
      <use x="412.955078" xlink:href="#DejaVuSans-118"/>
      <use x="472.134766" xlink:href="#DejaVuSans-101"/>
      <use x="533.658203" xlink:href="#DejaVuSans-114"/>
      <use x="574.771484" xlink:href="#DejaVuSans-97"/>
      <use x="636.050781" xlink:href="#DejaVuSans-103"/>
      <use x="699.527344" xlink:href="#DejaVuSans-101"/>
      <use x="761.050781" xlink:href="#DejaVuSans-32"/>
      <use x="792.837891" xlink:href="#DejaVuSans-82"/>
      <use x="862.320312" xlink:href="#DejaVuSans-79"/>
      <use x="941.03125" xlink:href="#DejaVuSans-67"/>
      <use x="1010.855469" xlink:href="#DejaVuSans-32"/>
      <use x="1042.642578" xlink:href="#DejaVuSans-99"/>
      <use x="1097.623047" xlink:href="#DejaVuSans-117"/>
      <use x="1161.001953" xlink:href="#DejaVuSans-114"/>
      <use x="1202.115234" xlink:href="#DejaVuSans-118"/>
      <use x="1261.294922" xlink:href="#DejaVuSans-101"/>
      <use x="1322.818359" xlink:href="#DejaVuSans-32"/>
      <use x="1354.605469" xlink:href="#DejaVuSans-40"/>
      <use x="1393.619141" xlink:href="#DejaVuSans-97"/>
      <use x="1454.898438" xlink:href="#DejaVuSans-114"/>
      <use x="1493.761719" xlink:href="#DejaVuSans-101"/>
      <use x="1555.285156" xlink:href="#DejaVuSans-97"/>
      <use x="1616.564453" xlink:href="#DejaVuSans-32"/>
      <use x="1648.351562" xlink:href="#DejaVuSans-61"/>
      <use x="1732.140625" xlink:href="#DejaVuSans-32"/>
      <use x="1763.927734" xlink:href="#DejaVuSans-48"/>
      <use x="1827.550781" xlink:href="#DejaVuSans-46"/>
      <use x="1859.337891" xlink:href="#DejaVuSans-57"/>
      <use x="1922.960938" xlink:href="#DejaVuSans-53"/>
      <use x="1986.583984" xlink:href="#DejaVuSans-41"/>
     </g>
    </g>
   </g>
  </g>
 </g>
 <defs>
  <clipPath id="p9e07d26619">
   <rect height="266.112" width="357.12" x="57.6" y="41.472"/>
  </clipPath>
 </defs>
</svg>
