<?xml version="1.0" encoding="utf-8" standalone="no"?>
<!DOCTYPE svg PUBLIC "-//W3C//DTD SVG 1.1//EN"
  "http://www.w3.org/Graphics/SVG/1.1/DTD/svg11.dtd">
<!-- Created with matplotlib (https://matplotlib.org/) -->
<svg height="345.6pt" version="1.1" viewBox="0 0 460.8 345.6" width="460.8pt" xmlns="http://www.w3.org/2000/svg" xmlns:xlink="http://www.w3.org/1999/xlink">
 <defs>
  <style type="text/css">
*{stroke-linecap:butt;stroke-linejoin:round;}
  </style>
 </defs>
 <g id="figure_1">
  <g id="patch_1">
   <path d="M 0 345.6 
L 460.8 345.6 
L 460.8 0 
L 0 0 
z
" style="fill:#ffffff;"/>
  </g>
  <g id="axes_1">
   <g id="patch_2">
    <path d="M 57.6 307.584 
L 414.72 307.584 
L 414.72 41.472 
L 57.6 41.472 
z
" style="fill:#ffffff;"/>
   </g>
   <g id="matplotlib.axis_1">
    <g id="xtick_1">
     <g id="line2d_1">
      <defs>
       <path d="M 0 0 
L 0 3.5 
" id="m33fb1b0caf" style="stroke:#000000;stroke-width:0.8;"/>
      </defs>
      <g>
       <use style="stroke:#000000;stroke-width:0.8;" x="57.6" xlink:href="#m33fb1b0caf" y="307.584"/>
      </g>
     </g>
     <g id="text_1">
      <!-- 0.0 -->
      <defs>
       <path d="M 31.78125 66.40625 
Q 24.171875 66.40625 20.328125 58.90625 
Q 16.5 51.421875 16.5 36.375 
Q 16.5 21.390625 20.328125 13.890625 
Q 24.171875 6.390625 31.78125 6.390625 
Q 39.453125 6.390625 43.28125 13.890625 
Q 47.125 21.390625 47.125 36.375 
Q 47.125 51.421875 43.28125 58.90625 
Q 39.453125 66.40625 31.78125 66.40625 
z
M 31.78125 74.21875 
Q 44.046875 74.21875 50.515625 64.515625 
Q 56.984375 54.828125 56.984375 36.375 
Q 56.984375 17.96875 50.515625 8.265625 
Q 44.046875 -1.421875 31.78125 -1.421875 
Q 19.53125 -1.421875 13.0625 8.265625 
Q 6.59375 17.96875 6.59375 36.375 
Q 6.59375 54.828125 13.0625 64.515625 
Q 19.53125 74.21875 31.78125 74.21875 
z
" id="DejaVuSans-48"/>
       <path d="M 10.6875 12.40625 
L 21 12.40625 
L 21 0 
L 10.6875 0 
z
" id="DejaVuSans-46"/>
      </defs>
      <g transform="translate(44.8775 326.7415)scale(0.16 -0.16)">
       <use xlink:href="#DejaVuSans-48"/>
       <use x="63.623047" xlink:href="#DejaVuSans-46"/>
       <use x="95.410156" xlink:href="#DejaVuSans-48"/>
      </g>
     </g>
    </g>
    <g id="xtick_2">
     <g id="line2d_2">
      <g>
       <use style="stroke:#000000;stroke-width:0.8;" x="129.024" xlink:href="#m33fb1b0caf" y="307.584"/>
      </g>
     </g>
     <g id="text_2">
      <!-- 0.2 -->
      <defs>
       <path d="M 19.1875 8.296875 
L 53.609375 8.296875 
L 53.609375 0 
L 7.328125 0 
L 7.328125 8.296875 
Q 12.9375 14.109375 22.625 23.890625 
Q 32.328125 33.6875 34.8125 36.53125 
Q 39.546875 41.84375 41.421875 45.53125 
Q 43.3125 49.21875 43.3125 52.78125 
Q 43.3125 58.59375 39.234375 62.25 
Q 35.15625 65.921875 28.609375 65.921875 
Q 23.96875 65.921875 18.8125 64.3125 
Q 13.671875 62.703125 7.8125 59.421875 
L 7.8125 69.390625 
Q 13.765625 71.78125 18.9375 73 
Q 24.125 74.21875 28.421875 74.21875 
Q 39.75 74.21875 46.484375 68.546875 
Q 53.21875 62.890625 53.21875 53.421875 
Q 53.21875 48.921875 51.53125 44.890625 
Q 49.859375 40.875 45.40625 35.40625 
Q 44.1875 33.984375 37.640625 27.21875 
Q 31.109375 20.453125 19.1875 8.296875 
z
" id="DejaVuSans-50"/>
      </defs>
      <g transform="translate(116.3015 326.7415)scale(0.16 -0.16)">
       <use xlink:href="#DejaVuSans-48"/>
       <use x="63.623047" xlink:href="#DejaVuSans-46"/>
       <use x="95.410156" xlink:href="#DejaVuSans-50"/>
      </g>
     </g>
    </g>
    <g id="xtick_3">
     <g id="line2d_3">
      <g>
       <use style="stroke:#000000;stroke-width:0.8;" x="200.448" xlink:href="#m33fb1b0caf" y="307.584"/>
      </g>
     </g>
     <g id="text_3">
      <!-- 0.4 -->
      <defs>
       <path d="M 37.796875 64.3125 
L 12.890625 25.390625 
L 37.796875 25.390625 
z
M 35.203125 72.90625 
L 47.609375 72.90625 
L 47.609375 25.390625 
L 58.015625 25.390625 
L 58.015625 17.1875 
L 47.609375 17.1875 
L 47.609375 0 
L 37.796875 0 
L 37.796875 17.1875 
L 4.890625 17.1875 
L 4.890625 26.703125 
z
" id="DejaVuSans-52"/>
      </defs>
      <g transform="translate(187.7255 326.7415)scale(0.16 -0.16)">
       <use xlink:href="#DejaVuSans-48"/>
       <use x="63.623047" xlink:href="#DejaVuSans-46"/>
       <use x="95.410156" xlink:href="#DejaVuSans-52"/>
      </g>
     </g>
    </g>
    <g id="xtick_4">
     <g id="line2d_4">
      <g>
       <use style="stroke:#000000;stroke-width:0.8;" x="271.872" xlink:href="#m33fb1b0caf" y="307.584"/>
      </g>
     </g>
     <g id="text_4">
      <!-- 0.6 -->
      <defs>
       <path d="M 33.015625 40.375 
Q 26.375 40.375 22.484375 35.828125 
Q 18.609375 31.296875 18.609375 23.390625 
Q 18.609375 15.53125 22.484375 10.953125 
Q 26.375 6.390625 33.015625 6.390625 
Q 39.65625 6.390625 43.53125 10.953125 
Q 47.40625 15.53125 47.40625 23.390625 
Q 47.40625 31.296875 43.53125 35.828125 
Q 39.65625 40.375 33.015625 40.375 
z
M 52.59375 71.296875 
L 52.59375 62.3125 
Q 48.875 64.0625 45.09375 64.984375 
Q 41.3125 65.921875 37.59375 65.921875 
Q 27.828125 65.921875 22.671875 59.328125 
Q 17.53125 52.734375 16.796875 39.40625 
Q 19.671875 43.65625 24.015625 45.921875 
Q 28.375 48.1875 33.59375 48.1875 
Q 44.578125 48.1875 50.953125 41.515625 
Q 57.328125 34.859375 57.328125 23.390625 
Q 57.328125 12.15625 50.6875 5.359375 
Q 44.046875 -1.421875 33.015625 -1.421875 
Q 20.359375 -1.421875 13.671875 8.265625 
Q 6.984375 17.96875 6.984375 36.375 
Q 6.984375 53.65625 15.1875 63.9375 
Q 23.390625 74.21875 37.203125 74.21875 
Q 40.921875 74.21875 44.703125 73.484375 
Q 48.484375 72.75 52.59375 71.296875 
z
" id="DejaVuSans-54"/>
      </defs>
      <g transform="translate(259.1495 326.7415)scale(0.16 -0.16)">
       <use xlink:href="#DejaVuSans-48"/>
       <use x="63.623047" xlink:href="#DejaVuSans-46"/>
       <use x="95.410156" xlink:href="#DejaVuSans-54"/>
      </g>
     </g>
    </g>
    <g id="xtick_5">
     <g id="line2d_5">
      <g>
       <use style="stroke:#000000;stroke-width:0.8;" x="343.296" xlink:href="#m33fb1b0caf" y="307.584"/>
      </g>
     </g>
     <g id="text_5">
      <!-- 0.8 -->
      <defs>
       <path d="M 31.78125 34.625 
Q 24.75 34.625 20.71875 30.859375 
Q 16.703125 27.09375 16.703125 20.515625 
Q 16.703125 13.921875 20.71875 10.15625 
Q 24.75 6.390625 31.78125 6.390625 
Q 38.8125 6.390625 42.859375 10.171875 
Q 46.921875 13.96875 46.921875 20.515625 
Q 46.921875 27.09375 42.890625 30.859375 
Q 38.875 34.625 31.78125 34.625 
z
M 21.921875 38.8125 
Q 15.578125 40.375 12.03125 44.71875 
Q 8.5 49.078125 8.5 55.328125 
Q 8.5 64.0625 14.71875 69.140625 
Q 20.953125 74.21875 31.78125 74.21875 
Q 42.671875 74.21875 48.875 69.140625 
Q 55.078125 64.0625 55.078125 55.328125 
Q 55.078125 49.078125 51.53125 44.71875 
Q 48 40.375 41.703125 38.8125 
Q 48.828125 37.15625 52.796875 32.3125 
Q 56.78125 27.484375 56.78125 20.515625 
Q 56.78125 9.90625 50.3125 4.234375 
Q 43.84375 -1.421875 31.78125 -1.421875 
Q 19.734375 -1.421875 13.25 4.234375 
Q 6.78125 9.90625 6.78125 20.515625 
Q 6.78125 27.484375 10.78125 32.3125 
Q 14.796875 37.15625 21.921875 38.8125 
z
M 18.3125 54.390625 
Q 18.3125 48.734375 21.84375 45.5625 
Q 25.390625 42.390625 31.78125 42.390625 
Q 38.140625 42.390625 41.71875 45.5625 
Q 45.3125 48.734375 45.3125 54.390625 
Q 45.3125 60.0625 41.71875 63.234375 
Q 38.140625 66.40625 31.78125 66.40625 
Q 25.390625 66.40625 21.84375 63.234375 
Q 18.3125 60.0625 18.3125 54.390625 
z
" id="DejaVuSans-56"/>
      </defs>
      <g transform="translate(330.5735 326.7415)scale(0.16 -0.16)">
       <use xlink:href="#DejaVuSans-48"/>
       <use x="63.623047" xlink:href="#DejaVuSans-46"/>
       <use x="95.410156" xlink:href="#DejaVuSans-56"/>
      </g>
     </g>
    </g>
    <g id="xtick_6">
     <g id="line2d_6">
      <g>
       <use style="stroke:#000000;stroke-width:0.8;" x="414.72" xlink:href="#m33fb1b0caf" y="307.584"/>
      </g>
     </g>
     <g id="text_6">
      <!-- 1.0 -->
      <defs>
       <path d="M 12.40625 8.296875 
L 28.515625 8.296875 
L 28.515625 63.921875 
L 10.984375 60.40625 
L 10.984375 69.390625 
L 28.421875 72.90625 
L 38.28125 72.90625 
L 38.28125 8.296875 
L 54.390625 8.296875 
L 54.390625 0 
L 12.40625 0 
z
" id="DejaVuSans-49"/>
      </defs>
      <g transform="translate(401.9975 326.7415)scale(0.16 -0.16)">
       <use xlink:href="#DejaVuSans-49"/>
       <use x="63.623047" xlink:href="#DejaVuSans-46"/>
       <use x="95.410156" xlink:href="#DejaVuSans-48"/>
      </g>
     </g>
    </g>
    <g id="text_7">
     <!-- False Positive Rate -->
     <defs>
      <path d="M 9.8125 72.90625 
L 51.703125 72.90625 
L 51.703125 64.59375 
L 19.671875 64.59375 
L 19.671875 43.109375 
L 48.578125 43.109375 
L 48.578125 34.8125 
L 19.671875 34.8125 
L 19.671875 0 
L 9.8125 0 
z
" id="DejaVuSans-70"/>
      <path d="M 34.28125 27.484375 
Q 23.390625 27.484375 19.1875 25 
Q 14.984375 22.515625 14.984375 16.5 
Q 14.984375 11.71875 18.140625 8.90625 
Q 21.296875 6.109375 26.703125 6.109375 
Q 34.1875 6.109375 38.703125 11.40625 
Q 43.21875 16.703125 43.21875 25.484375 
L 43.21875 27.484375 
z
M 52.203125 31.203125 
L 52.203125 0 
L 43.21875 0 
L 43.21875 8.296875 
Q 40.140625 3.328125 35.546875 0.953125 
Q 30.953125 -1.421875 24.3125 -1.421875 
Q 15.921875 -1.421875 10.953125 3.296875 
Q 6 8.015625 6 15.921875 
Q 6 25.140625 12.171875 29.828125 
Q 18.359375 34.515625 30.609375 34.515625 
L 43.21875 34.515625 
L 43.21875 35.40625 
Q 43.21875 41.609375 39.140625 45 
Q 35.0625 48.390625 27.6875 48.390625 
Q 23 48.390625 18.546875 47.265625 
Q 14.109375 46.140625 10.015625 43.890625 
L 10.015625 52.203125 
Q 14.9375 54.109375 19.578125 55.046875 
Q 24.21875 56 28.609375 56 
Q 40.484375 56 46.34375 49.84375 
Q 52.203125 43.703125 52.203125 31.203125 
z
" id="DejaVuSans-97"/>
      <path d="M 9.421875 75.984375 
L 18.40625 75.984375 
L 18.40625 0 
L 9.421875 0 
z
" id="DejaVuSans-108"/>
      <path d="M 44.28125 53.078125 
L 44.28125 44.578125 
Q 40.484375 46.53125 36.375 47.5 
Q 32.28125 48.484375 27.875 48.484375 
Q 21.1875 48.484375 17.84375 46.4375 
Q 14.5 44.390625 14.5 40.28125 
Q 14.5 37.15625 16.890625 35.375 
Q 19.28125 33.59375 26.515625 31.984375 
L 29.59375 31.296875 
Q 39.15625 29.25 43.1875 25.515625 
Q 47.21875 21.78125 47.21875 15.09375 
Q 47.21875 7.46875 41.1875 3.015625 
Q 35.15625 -1.421875 24.609375 -1.421875 
Q 20.21875 -1.421875 15.453125 -0.5625 
Q 10.6875 0.296875 5.421875 2 
L 5.421875 11.28125 
Q 10.40625 8.6875 15.234375 7.390625 
Q 20.0625 6.109375 24.8125 6.109375 
Q 31.15625 6.109375 34.5625 8.28125 
Q 37.984375 10.453125 37.984375 14.40625 
Q 37.984375 18.0625 35.515625 20.015625 
Q 33.0625 21.96875 24.703125 23.78125 
L 21.578125 24.515625 
Q 13.234375 26.265625 9.515625 29.90625 
Q 5.8125 33.546875 5.8125 39.890625 
Q 5.8125 47.609375 11.28125 51.796875 
Q 16.75 56 26.8125 56 
Q 31.78125 56 36.171875 55.265625 
Q 40.578125 54.546875 44.28125 53.078125 
z
" id="DejaVuSans-115"/>
      <path d="M 56.203125 29.59375 
L 56.203125 25.203125 
L 14.890625 25.203125 
Q 15.484375 15.921875 20.484375 11.0625 
Q 25.484375 6.203125 34.421875 6.203125 
Q 39.59375 6.203125 44.453125 7.46875 
Q 49.3125 8.734375 54.109375 11.28125 
L 54.109375 2.78125 
Q 49.265625 0.734375 44.1875 -0.34375 
Q 39.109375 -1.421875 33.890625 -1.421875 
Q 20.796875 -1.421875 13.15625 6.1875 
Q 5.515625 13.8125 5.515625 26.8125 
Q 5.515625 40.234375 12.765625 48.109375 
Q 20.015625 56 32.328125 56 
Q 43.359375 56 49.78125 48.890625 
Q 56.203125 41.796875 56.203125 29.59375 
z
M 47.21875 32.234375 
Q 47.125 39.59375 43.09375 43.984375 
Q 39.0625 48.390625 32.421875 48.390625 
Q 24.90625 48.390625 20.390625 44.140625 
Q 15.875 39.890625 15.1875 32.171875 
z
" id="DejaVuSans-101"/>
      <path id="DejaVuSans-32"/>
      <path d="M 19.671875 64.796875 
L 19.671875 37.40625 
L 32.078125 37.40625 
Q 38.96875 37.40625 42.71875 40.96875 
Q 46.484375 44.53125 46.484375 51.125 
Q 46.484375 57.671875 42.71875 61.234375 
Q 38.96875 64.796875 32.078125 64.796875 
z
M 9.8125 72.90625 
L 32.078125 72.90625 
Q 44.34375 72.90625 50.609375 67.359375 
Q 56.890625 61.8125 56.890625 51.125 
Q 56.890625 40.328125 50.609375 34.8125 
Q 44.34375 29.296875 32.078125 29.296875 
L 19.671875 29.296875 
L 19.671875 0 
L 9.8125 0 
z
" id="DejaVuSans-80"/>
      <path d="M 30.609375 48.390625 
Q 23.390625 48.390625 19.1875 42.75 
Q 14.984375 37.109375 14.984375 27.296875 
Q 14.984375 17.484375 19.15625 11.84375 
Q 23.34375 6.203125 30.609375 6.203125 
Q 37.796875 6.203125 41.984375 11.859375 
Q 46.1875 17.53125 46.1875 27.296875 
Q 46.1875 37.015625 41.984375 42.703125 
Q 37.796875 48.390625 30.609375 48.390625 
z
M 30.609375 56 
Q 42.328125 56 49.015625 48.375 
Q 55.71875 40.765625 55.71875 27.296875 
Q 55.71875 13.875 49.015625 6.21875 
Q 42.328125 -1.421875 30.609375 -1.421875 
Q 18.84375 -1.421875 12.171875 6.21875 
Q 5.515625 13.875 5.515625 27.296875 
Q 5.515625 40.765625 12.171875 48.375 
Q 18.84375 56 30.609375 56 
z
" id="DejaVuSans-111"/>
      <path d="M 9.421875 54.6875 
L 18.40625 54.6875 
L 18.40625 0 
L 9.421875 0 
z
M 9.421875 75.984375 
L 18.40625 75.984375 
L 18.40625 64.59375 
L 9.421875 64.59375 
z
" id="DejaVuSans-105"/>
      <path d="M 18.3125 70.21875 
L 18.3125 54.6875 
L 36.8125 54.6875 
L 36.8125 47.703125 
L 18.3125 47.703125 
L 18.3125 18.015625 
Q 18.3125 11.328125 20.140625 9.421875 
Q 21.96875 7.515625 27.59375 7.515625 
L 36.8125 7.515625 
L 36.8125 0 
L 27.59375 0 
Q 17.1875 0 13.234375 3.875 
Q 9.28125 7.765625 9.28125 18.015625 
L 9.28125 47.703125 
L 2.6875 47.703125 
L 2.6875 54.6875 
L 9.28125 54.6875 
L 9.28125 70.21875 
z
" id="DejaVuSans-116"/>
      <path d="M 2.984375 54.6875 
L 12.5 54.6875 
L 29.59375 8.796875 
L 46.6875 54.6875 
L 56.203125 54.6875 
L 35.6875 0 
L 23.484375 0 
z
" id="DejaVuSans-118"/>
      <path d="M 44.390625 34.1875 
Q 47.5625 33.109375 50.5625 29.59375 
Q 53.5625 26.078125 56.59375 19.921875 
L 66.609375 0 
L 56 0 
L 46.6875 18.703125 
Q 43.0625 26.03125 39.671875 28.421875 
Q 36.28125 30.8125 30.421875 30.8125 
L 19.671875 30.8125 
L 19.671875 0 
L 9.8125 0 
L 9.8125 72.90625 
L 32.078125 72.90625 
Q 44.578125 72.90625 50.734375 67.671875 
Q 56.890625 62.453125 56.890625 51.90625 
Q 56.890625 45.015625 53.6875 40.46875 
Q 50.484375 35.9375 44.390625 34.1875 
z
M 19.671875 64.796875 
L 19.671875 38.921875 
L 32.078125 38.921875 
Q 39.203125 38.921875 42.84375 42.21875 
Q 46.484375 45.515625 46.484375 51.90625 
Q 46.484375 58.296875 42.84375 61.546875 
Q 39.203125 64.796875 32.078125 64.796875 
z
" id="DejaVuSans-82"/>
     </defs>
     <g transform="translate(161.81375 346.2265)scale(0.16 -0.16)">
      <use xlink:href="#DejaVuSans-70"/>
      <use x="48.394531" xlink:href="#DejaVuSans-97"/>
      <use x="109.673828" xlink:href="#DejaVuSans-108"/>
      <use x="137.457031" xlink:href="#DejaVuSans-115"/>
      <use x="189.556641" xlink:href="#DejaVuSans-101"/>
      <use x="251.080078" xlink:href="#DejaVuSans-32"/>
      <use x="282.867188" xlink:href="#DejaVuSans-80"/>
      <use x="339.544922" xlink:href="#DejaVuSans-111"/>
      <use x="400.726562" xlink:href="#DejaVuSans-115"/>
      <use x="452.826172" xlink:href="#DejaVuSans-105"/>
      <use x="480.609375" xlink:href="#DejaVuSans-116"/>
      <use x="519.818359" xlink:href="#DejaVuSans-105"/>
      <use x="547.601562" xlink:href="#DejaVuSans-118"/>
      <use x="606.78125" xlink:href="#DejaVuSans-101"/>
      <use x="668.304688" xlink:href="#DejaVuSans-32"/>
      <use x="700.091797" xlink:href="#DejaVuSans-82"/>
      <use x="767.324219" xlink:href="#DejaVuSans-97"/>
      <use x="828.603516" xlink:href="#DejaVuSans-116"/>
      <use x="867.8125" xlink:href="#DejaVuSans-101"/>
     </g>
    </g>
   </g>
   <g id="matplotlib.axis_2">
    <g id="ytick_1">
     <g id="line2d_7">
      <defs>
       <path d="M 0 0 
L -3.5 0 
" id="ma26d7eaf1c" style="stroke:#000000;stroke-width:0.8;"/>
      </defs>
      <g>
       <use style="stroke:#000000;stroke-width:0.8;" x="57.6" xlink:href="#ma26d7eaf1c" y="307.584"/>
      </g>
     </g>
     <g id="text_8">
      <!-- 0.0 -->
      <g transform="translate(25.155 313.66275)scale(0.16 -0.16)">
       <use xlink:href="#DejaVuSans-48"/>
       <use x="63.623047" xlink:href="#DejaVuSans-46"/>
       <use x="95.410156" xlink:href="#DejaVuSans-48"/>
      </g>
     </g>
    </g>
    <g id="ytick_2">
     <g id="line2d_8">
      <g>
       <use style="stroke:#000000;stroke-width:0.8;" x="57.6" xlink:href="#ma26d7eaf1c" y="256.896"/>
      </g>
     </g>
     <g id="text_9">
      <!-- 0.2 -->
      <g transform="translate(25.155 262.97475)scale(0.16 -0.16)">
       <use xlink:href="#DejaVuSans-48"/>
       <use x="63.623047" xlink:href="#DejaVuSans-46"/>
       <use x="95.410156" xlink:href="#DejaVuSans-50"/>
      </g>
     </g>
    </g>
    <g id="ytick_3">
     <g id="line2d_9">
      <g>
       <use style="stroke:#000000;stroke-width:0.8;" x="57.6" xlink:href="#ma26d7eaf1c" y="206.208"/>
      </g>
     </g>
     <g id="text_10">
      <!-- 0.4 -->
      <g transform="translate(25.155 212.28675)scale(0.16 -0.16)">
       <use xlink:href="#DejaVuSans-48"/>
       <use x="63.623047" xlink:href="#DejaVuSans-46"/>
       <use x="95.410156" xlink:href="#DejaVuSans-52"/>
      </g>
     </g>
    </g>
    <g id="ytick_4">
     <g id="line2d_10">
      <g>
       <use style="stroke:#000000;stroke-width:0.8;" x="57.6" xlink:href="#ma26d7eaf1c" y="155.52"/>
      </g>
     </g>
     <g id="text_11">
      <!-- 0.6 -->
      <g transform="translate(25.155 161.59875)scale(0.16 -0.16)">
       <use xlink:href="#DejaVuSans-48"/>
       <use x="63.623047" xlink:href="#DejaVuSans-46"/>
       <use x="95.410156" xlink:href="#DejaVuSans-54"/>
      </g>
     </g>
    </g>
    <g id="ytick_5">
     <g id="line2d_11">
      <g>
       <use style="stroke:#000000;stroke-width:0.8;" x="57.6" xlink:href="#ma26d7eaf1c" y="104.832"/>
      </g>
     </g>
     <g id="text_12">
      <!-- 0.8 -->
      <g transform="translate(25.155 110.91075)scale(0.16 -0.16)">
       <use xlink:href="#DejaVuSans-48"/>
       <use x="63.623047" xlink:href="#DejaVuSans-46"/>
       <use x="95.410156" xlink:href="#DejaVuSans-56"/>
      </g>
     </g>
    </g>
    <g id="ytick_6">
     <g id="line2d_12">
      <g>
       <use style="stroke:#000000;stroke-width:0.8;" x="57.6" xlink:href="#ma26d7eaf1c" y="54.144"/>
      </g>
     </g>
     <g id="text_13">
      <!-- 1.0 -->
      <g transform="translate(25.155 60.22275)scale(0.16 -0.16)">
       <use xlink:href="#DejaVuSans-49"/>
       <use x="63.623047" xlink:href="#DejaVuSans-46"/>
       <use x="95.410156" xlink:href="#DejaVuSans-48"/>
      </g>
     </g>
    </g>
    <g id="text_14">
     <!-- True Positive Rate -->
     <defs>
      <path d="M -0.296875 72.90625 
L 61.375 72.90625 
L 61.375 64.59375 
L 35.5 64.59375 
L 35.5 0 
L 25.59375 0 
L 25.59375 64.59375 
L -0.296875 64.59375 
z
" id="DejaVuSans-84"/>
      <path d="M 41.109375 46.296875 
Q 39.59375 47.171875 37.8125 47.578125 
Q 36.03125 48 33.890625 48 
Q 26.265625 48 22.1875 43.046875 
Q 18.109375 38.09375 18.109375 28.8125 
L 18.109375 0 
L 9.078125 0 
L 9.078125 54.6875 
L 18.109375 54.6875 
L 18.109375 46.1875 
Q 20.953125 51.171875 25.484375 53.578125 
Q 30.03125 56 36.53125 56 
Q 37.453125 56 38.578125 55.875 
Q 39.703125 55.765625 41.0625 55.515625 
z
" id="DejaVuSans-114"/>
      <path d="M 8.5 21.578125 
L 8.5 54.6875 
L 17.484375 54.6875 
L 17.484375 21.921875 
Q 17.484375 14.15625 20.5 10.265625 
Q 23.53125 6.390625 29.59375 6.390625 
Q 36.859375 6.390625 41.078125 11.03125 
Q 45.3125 15.671875 45.3125 23.6875 
L 45.3125 54.6875 
L 54.296875 54.6875 
L 54.296875 0 
L 45.3125 0 
L 45.3125 8.40625 
Q 42.046875 3.421875 37.71875 1 
Q 33.40625 -1.421875 27.6875 -1.421875 
Q 18.265625 -1.421875 13.375 4.4375 
Q 8.5 10.296875 8.5 21.578125 
z
M 31.109375 56 
z
" id="DejaVuSans-117"/>
     </defs>
     <g transform="translate(17.8275 245.7755)rotate(-90)scale(0.16 -0.16)">
      <use xlink:href="#DejaVuSans-84"/>
      <use x="46.333984" xlink:href="#DejaVuSans-114"/>
      <use x="87.447266" xlink:href="#DejaVuSans-117"/>
      <use x="150.826172" xlink:href="#DejaVuSans-101"/>
      <use x="212.349609" xlink:href="#DejaVuSans-32"/>
      <use x="244.136719" xlink:href="#DejaVuSans-80"/>
      <use x="300.814453" xlink:href="#DejaVuSans-111"/>
      <use x="361.996094" xlink:href="#DejaVuSans-115"/>
      <use x="414.095703" xlink:href="#DejaVuSans-105"/>
      <use x="441.878906" xlink:href="#DejaVuSans-116"/>
      <use x="481.087891" xlink:href="#DejaVuSans-105"/>
      <use x="508.871094" xlink:href="#DejaVuSans-118"/>
      <use x="568.050781" xlink:href="#DejaVuSans-101"/>
      <use x="629.574219" xlink:href="#DejaVuSans-32"/>
      <use x="661.361328" xlink:href="#DejaVuSans-82"/>
      <use x="728.59375" xlink:href="#DejaVuSans-97"/>
      <use x="789.873047" xlink:href="#DejaVuSans-116"/>
      <use x="829.082031" xlink:href="#DejaVuSans-101"/>
     </g>
    </g>
   </g>
   <g id="line2d_13">
    <path clip-path="url(#pae832c993f)" d="M 57.6 307.584 
L 57.6 173.76768 
L 57.95712 173.76768 
L 57.95712 170.7264 
L 58.31424 170.7264 
L 58.31424 139.29984 
L 59.02848 139.29984 
L 59.02848 135.75168 
L 59.3856 135.75168 
L 59.3856 133.21728 
L 59.74272 133.21728 
L 59.74272 131.18976 
L 60.45696 131.18976 
L 60.45696 129.16224 
L 60.81408 129.16224 
L 60.81408 127.6416 
L 61.88544 127.6416 
L 61.88544 122.5728 
L 62.24256 122.5728 
L 62.24256 122.06592 
L 62.9568 122.06592 
L 64.02816 119.02464 
L 64.02816 118.51776 
L 64.7424 118.51776 
L 64.7424 117.504 
L 65.09952 117.504 
L 65.09952 116.99712 
L 66.528 116.99712 
L 66.528 116.49024 
L 66.88512 116.49024 
L 66.88512 114.9696 
L 67.59936 114.9696 
L 67.59936 113.95584 
L 68.3136 113.95584 
L 68.3136 113.44896 
L 68.67072 113.44896 
L 68.67072 112.94208 
L 69.02784 112.94208 
L 69.02784 111.42144 
L 69.74208 111.42144 
L 69.74208 110.91456 
L 70.0992 110.91456 
L 70.0992 109.9008 
L 70.45632 109.9008 
L 70.45632 106.85952 
L 71.17056 106.85952 
L 71.17056 102.2976 
L 71.8848 102.2976 
L 71.8848 101.28384 
L 72.24192 101.28384 
L 72.24192 100.77696 
L 73.31328 100.77696 
L 73.31328 99.25632 
L 73.6704 99.25632 
L 73.6704 98.74944 
L 74.38464 98.74944 
L 74.38464 96.21504 
L 74.74176 96.21504 
L 74.74176 94.18752 
L 75.09888 94.18752 
L 75.09888 92.66688 
L 75.81312 92.66688 
L 75.81312 92.16 
L 76.17024 92.16 
L 76.17024 91.65312 
L 76.52736 91.65312 
L 76.52736 91.14624 
L 76.88448 91.14624 
L 76.88448 90.13248 
L 78.31296 90.13248 
L 78.31296 89.6256 
L 78.67008 89.6256 
L 78.67008 88.61184 
L 79.0272 88.61184 
L 79.0272 88.10496 
L 79.38432 88.10496 
L 79.38432 87.59808 
L 81.88416 87.59808 
L 81.88416 87.0912 
L 82.24128 87.0912 
L 82.24128 86.07744 
L 82.95552 86.07744 
L 82.95552 85.57056 
L 84.384 85.57056 
L 84.384 83.54304 
L 84.74112 83.54304 
L 84.74112 82.0224 
L 85.09824 82.0224 
L 85.09824 78.47424 
L 85.81248 78.47424 
L 85.81248 76.44672 
L 86.1696 76.44672 
L 86.1696 75.93984 
L 86.52672 75.93984 
L 86.52672 75.43296 
L 86.88384 75.43296 
L 86.88384 74.92608 
L 87.24096 74.92608 
L 87.24096 73.40544 
L 87.9552 73.40544 
L 87.9552 72.89856 
L 89.7408 72.89856 
L 89.7408 72.39168 
L 90.09792 72.39168 
L 90.09792 71.37792 
L 91.16928 71.37792 
L 91.16928 69.3504 
L 93.312 69.3504 
L 93.312 68.33664 
L 93.66912 68.33664 
L 93.66912 67.32288 
L 94.38336 67.32288 
L 94.38336 66.816 
L 94.74048 66.816 
L 94.74048 65.80224 
L 96.52608 65.80224 
L 96.52608 65.29536 
L 101.88288 65.29536 
L 101.88288 64.78848 
L 102.95424 64.78848 
L 102.95424 64.2816 
L 103.31136 64.2816 
L 103.31136 63.26784 
L 105.45408 63.26784 
L 105.45408 62.76096 
L 110.09664 62.76096 
L 110.09664 61.24032 
L 112.59648 61.24032 
L 112.59648 60.73344 
L 115.09632 60.73344 
L 115.09632 59.71968 
L 115.45344 59.71968 
L 115.45344 59.2128 
L 118.3104 59.2128 
L 118.3104 58.70592 
L 122.23872 58.70592 
L 122.23872 57.69216 
L 126.16704 57.69216 
L 126.16704 57.18528 
L 132.5952 57.18528 
L 132.5952 56.6784 
L 134.3808 56.6784 
L 134.3808 56.17152 
L 138.66624 56.17152 
L 138.66624 55.66464 
L 154.37952 55.66464 
L 154.37952 55.15776 
L 215.80416 55.15776 
L 215.80416 54.65088 
L 324.72576 54.65088 
L 324.72576 54.144 
L 414.72 54.144 
L 414.72 54.144 
" style="fill:none;stroke:#000000;stroke-linecap:square;stroke-width:2;"/>
   </g>
   <g id="line2d_14">
    <path clip-path="url(#pae832c993f)" d="M 57.6 307.584 
L 57.6 291.36384 
L 57.95712 291.36384 
L 57.95712 269.568 
L 58.31424 269.568 
L 58.31424 263.48544 
L 58.67136 263.48544 
L 58.67136 237.63456 
L 59.3856 237.63456 
L 59.3856 219.89376 
L 59.74272 219.89376 
L 59.74272 217.86624 
L 60.09984 217.86624 
L 60.09984 203.16672 
L 60.45696 203.16672 
L 60.45696 194.04288 
L 60.81408 194.04288 
L 60.81408 180.864 
L 61.1712 180.864 
L 61.1712 179.85024 
L 61.52832 179.85024 
L 61.52832 177.82272 
L 62.24256 177.82272 
L 62.24256 175.28832 
L 62.59968 175.28832 
L 62.59968 174.78144 
L 62.9568 174.78144 
L 62.9568 173.76768 
L 63.31392 173.76768 
L 63.31392 171.74016 
L 63.67104 171.74016 
L 63.67104 168.69888 
L 64.02816 168.69888 
L 64.02816 168.192 
L 64.7424 168.192 
L 64.7424 167.68512 
L 65.09952 167.68512 
L 65.09952 165.15072 
L 65.81376 165.15072 
L 65.81376 163.1232 
L 66.17088 163.1232 
L 66.17088 160.08192 
L 66.528 160.08192 
L 66.528 159.06816 
L 66.88512 159.06816 
L 66.88512 156.53376 
L 67.24224 156.53376 
L 67.24224 156.02688 
L 67.59936 156.02688 
L 67.59936 154.50624 
L 67.95648 154.50624 
L 67.95648 152.9856 
L 68.67072 152.9856 
L 68.67072 152.47872 
L 69.02784 152.47872 
L 69.02784 151.97184 
L 69.74208 151.97184 
L 69.74208 149.94432 
L 70.0992 149.94432 
L 70.0992 149.43744 
L 70.81344 149.43744 
L 70.81344 147.9168 
L 71.17056 147.9168 
L 71.17056 147.40992 
L 71.52768 147.40992 
L 71.52768 146.90304 
L 71.8848 146.90304 
L 71.8848 144.87552 
L 72.95616 144.87552 
L 72.95616 141.83424 
L 75.09888 141.83424 
L 75.09888 140.3136 
L 75.456 140.3136 
L 75.456 138.79296 
L 76.17024 138.79296 
L 76.17024 138.28608 
L 76.52736 138.28608 
L 76.52736 135.75168 
L 78.31296 135.75168 
L 78.31296 135.2448 
L 79.0272 135.2448 
L 79.0272 134.73792 
L 80.09856 134.73792 
L 80.09856 134.23104 
L 81.88416 134.23104 
L 81.88416 133.72416 
L 83.66976 133.72416 
L 83.66976 133.21728 
L 84.384 133.21728 
L 84.384 132.7104 
L 84.74112 132.7104 
L 84.74112 132.20352 
L 85.81248 132.20352 
L 85.81248 131.69664 
L 86.88384 131.69664 
L 86.88384 130.176 
L 88.66944 130.176 
L 88.66944 129.16224 
L 91.88352 129.16224 
L 91.88352 128.14848 
L 92.24064 128.14848 
L 92.24064 127.6416 
L 92.95488 127.6416 
L 92.95488 127.13472 
L 93.312 127.13472 
L 93.312 126.12096 
L 95.0976 126.12096 
L 95.0976 125.61408 
L 95.45472 125.61408 
L 95.45472 125.1072 
L 96.16896 125.1072 
L 96.16896 124.09344 
L 97.24032 124.09344 
L 97.24032 123.58656 
L 99.02592 123.58656 
L 99.02592 122.06592 
L 99.74016 122.06592 
L 99.74016 120.54528 
L 101.16864 120.54528 
L 101.16864 119.53152 
L 102.95424 119.53152 
L 102.95424 118.51776 
L 103.66848 118.51776 
L 103.66848 117.504 
L 105.45408 117.504 
L 105.45408 116.49024 
L 106.16832 116.49024 
L 106.16832 115.98336 
L 109.02528 115.98336 
L 109.02528 115.47648 
L 114.38208 115.47648 
L 114.38208 113.95584 
L 115.45344 113.95584 
L 115.45344 113.44896 
L 116.5248 113.44896 
L 116.5248 112.94208 
L 119.38176 112.94208 
L 119.38176 111.92832 
L 120.81024 111.92832 
L 120.81024 110.91456 
L 122.59584 110.91456 
L 122.59584 109.9008 
L 122.95296 109.9008 
L 122.95296 109.39392 
L 123.31008 109.39392 
L 123.31008 108.88704 
L 124.02432 108.88704 
L 124.02432 107.87328 
L 125.4528 107.87328 
L 125.4528 106.85952 
L 125.80992 106.85952 
L 125.80992 105.33888 
L 127.2384 105.33888 
L 127.2384 104.832 
L 127.95264 104.832 
L 127.95264 104.32512 
L 131.52384 104.32512 
L 131.52384 103.31136 
L 132.5952 103.31136 
L 132.5952 101.79072 
L 134.02368 101.79072 
L 134.02368 101.28384 
L 134.73792 101.28384 
L 134.73792 100.27008 
L 136.52352 100.27008 
L 136.52352 99.7632 
L 137.23776 99.7632 
L 137.23776 99.25632 
L 138.30912 99.25632 
L 138.30912 98.74944 
L 140.09472 98.74944 
L 140.09472 98.24256 
L 142.95168 98.24256 
L 142.95168 97.73568 
L 143.3088 97.73568 
L 143.3088 96.72192 
L 144.02304 96.72192 
L 144.02304 96.21504 
L 145.80864 96.21504 
L 145.80864 95.70816 
L 148.30848 95.70816 
L 148.30848 95.20128 
L 151.87968 95.20128 
L 151.87968 94.6944 
L 152.2368 94.6944 
L 152.2368 94.18752 
L 157.95072 94.18752 
L 157.95072 93.17376 
L 162.59328 93.17376 
L 162.59328 92.66688 
L 167.23584 92.66688 
L 167.23584 92.16 
L 175.80672 92.16 
L 175.80672 91.65312 
L 182.94912 91.65312 
L 182.94912 91.14624 
L 183.66336 91.14624 
L 183.66336 90.63936 
L 184.73472 90.63936 
L 184.73472 90.13248 
L 190.44864 90.13248 
L 190.44864 89.11872 
L 191.16288 89.11872 
L 191.52 88.61184 
L 191.52 87.59808 
L 192.59136 87.59808 
L 192.59136 87.0912 
L 194.37696 87.0912 
L 194.37696 86.58432 
L 194.73408 86.58432 
L 194.73408 86.07744 
L 195.44832 86.07744 
L 195.44832 85.06368 
L 196.16256 85.06368 
L 196.16256 84.5568 
L 196.51968 84.5568 
L 196.51968 84.04992 
L 196.8768 84.04992 
L 196.8768 83.54304 
L 201.51936 83.54304 
L 201.51936 82.52928 
L 202.2336 82.52928 
L 202.2336 82.0224 
L 203.30496 82.0224 
L 203.30496 81.00864 
L 207.23328 81.00864 
L 207.23328 80.50176 
L 220.80384 80.50176 
L 220.80384 79.99488 
L 232.23168 79.99488 
L 232.23168 79.488 
L 232.5888 79.488 
L 232.5888 78.98112 
L 234.3744 78.98112 
L 234.3744 78.47424 
L 234.73152 78.47424 
L 234.73152 77.96736 
L 237.58848 77.96736 
L 237.58848 77.46048 
L 238.30272 77.46048 
L 238.30272 76.9536 
L 242.23104 76.9536 
L 242.23104 76.44672 
L 242.94528 76.44672 
L 242.94528 75.93984 
L 249.01632 75.93984 
L 249.01632 75.43296 
L 251.15904 75.43296 
L 251.15904 74.92608 
L 258.65856 74.92608 
L 258.65856 73.91232 
L 272.22912 73.91232 
L 272.22912 73.40544 
L 273.6576 73.40544 
L 273.6576 72.89856 
L 276.15744 72.89856 
L 276.15744 72.39168 
L 277.2288 72.39168 
L 277.2288 71.8848 
L 281.51424 71.8848 
L 281.51424 71.37792 
L 284.01408 71.37792 
L 284.01408 70.87104 
L 287.22816 70.87104 
L 287.22816 70.36416 
L 290.08512 70.36416 
L 290.08512 69.85728 
L 294.37056 69.85728 
L 294.37056 69.3504 
L 300.4416 69.3504 
L 300.4416 68.84352 
L 312.22656 68.84352 
L 312.22656 68.33664 
L 313.65504 68.33664 
L 313.65504 67.82976 
L 314.01216 67.82976 
L 314.01216 67.32288 
L 317.94048 67.32288 
L 317.94048 66.816 
L 325.08288 66.816 
L 325.08288 66.30912 
L 326.51136 66.30912 
L 326.51136 65.80224 
L 326.86848 65.80224 
L 326.86848 65.29536 
L 333.65376 65.29536 
L 333.65376 64.78848 
L 335.79648 64.78848 
L 335.79648 64.2816 
L 339.36768 64.2816 
L 339.36768 63.26784 
L 340.43904 63.26784 
L 340.43904 62.76096 
L 341.5104 62.76096 
L 341.5104 62.25408 
L 341.86752 62.25408 
L 341.86752 61.7472 
L 346.8672 61.7472 
L 346.8672 61.24032 
L 348.29568 61.24032 
L 348.29568 60.73344 
L 362.22336 60.73344 
L 362.22336 60.22656 
L 369.72288 60.22656 
L 369.72288 59.71968 
L 370.08 59.71968 
L 370.08 59.2128 
L 375.79392 59.2128 
L 375.79392 58.70592 
L 376.50816 58.70592 
L 376.50816 58.19904 
L 377.2224 58.19904 
L 377.2224 57.69216 
L 379.36512 57.69216 
L 379.36512 56.6784 
L 382.93632 56.6784 
L 382.93632 56.17152 
L 391.15008 56.17152 
L 391.15008 55.15776 
L 399.00672 55.15776 
L 399.00672 54.65088 
L 401.50656 54.65088 
L 401.50656 54.144 
L 414.72 54.144 
L 414.72 54.144 
" style="fill:none;stroke:#00a4bb;stroke-linecap:square;stroke-width:2;"/>
   </g>
   <g id="line2d_15">
    <path clip-path="url(#pae832c993f)" d="M 57.6 307.584 
L 57.6 303.52896 
L 57.95712 303.52896 
L 57.95712 300.48768 
L 58.31424 300.48768 
L 58.31424 299.47392 
L 58.67136 299.47392 
L 58.67136 297.4464 
L 59.02848 297.4464 
L 59.02848 294.40512 
L 59.3856 294.40512 
L 59.3856 291.36384 
L 60.09984 291.36384 
L 60.09984 289.33632 
L 60.81408 289.33632 
L 60.81408 287.3088 
L 61.1712 287.3088 
L 61.1712 286.29504 
L 61.52832 286.29504 
L 61.52832 283.25376 
L 61.88544 283.25376 
L 61.88544 282.74688 
L 62.24256 282.74688 
L 62.24256 282.24 
L 62.59968 282.24 
L 62.59968 281.73312 
L 63.31392 281.73312 
L 63.31392 281.22624 
L 63.67104 281.22624 
L 63.67104 280.21248 
L 64.02816 280.21248 
L 64.02816 279.19872 
L 64.38528 279.19872 
L 64.38528 278.18496 
L 64.7424 278.18496 
L 64.7424 275.14368 
L 65.09952 275.14368 
L 65.09952 274.6368 
L 65.81376 274.6368 
L 65.81376 273.62304 
L 66.17088 273.62304 
L 66.17088 271.08864 
L 66.528 271.08864 
L 66.528 267.54048 
L 66.88512 267.54048 
L 66.88512 267.0336 
L 67.24224 267.0336 
L 67.24224 263.99232 
L 67.59936 263.99232 
L 67.59936 261.45792 
L 67.95648 261.45792 
L 67.95648 258.92352 
L 68.67072 258.92352 
L 68.67072 254.86848 
L 69.38496 254.86848 
L 69.38496 253.34784 
L 69.74208 253.34784 
L 69.74208 252.33408 
L 70.0992 252.33408 
L 70.0992 251.32032 
L 70.81344 251.32032 
L 70.81344 245.74464 
L 71.17056 245.74464 
L 71.17056 242.70336 
L 71.52768 242.70336 
L 71.52768 240.67584 
L 71.8848 240.67584 
L 71.8848 234.59328 
L 72.59904 234.59328 
L 72.59904 231.552 
L 72.95616 231.552 
L 72.95616 230.03136 
L 73.6704 230.03136 
L 73.6704 217.35936 
L 74.02752 217.35936 
L 74.02752 210.26304 
L 74.38464 210.26304 
L 74.38464 209.24928 
L 74.74176 209.24928 
L 74.74176 208.23552 
L 75.09888 208.23552 
L 75.09888 198.6048 
L 75.456 198.6048 
L 75.456 187.96032 
L 76.52736 187.96032 
L 76.52736 180.864 
L 76.88448 180.864 
L 76.88448 169.20576 
L 77.2416 169.20576 
L 77.2416 168.192 
L 77.59872 168.192 
L 77.59872 167.68512 
L 77.95584 167.68512 
L 77.95584 165.6576 
L 78.31296 165.6576 
L 78.31296 165.15072 
L 78.67008 165.15072 
L 78.67008 155.01312 
L 79.0272 155.01312 
L 79.0272 154.50624 
L 79.38432 154.50624 
L 79.38432 153.49248 
L 79.74144 153.49248 
L 79.74144 151.97184 
L 80.09856 151.97184 
L 80.09856 149.43744 
L 80.45568 149.43744 
L 80.45568 148.42368 
L 80.8128 148.42368 
L 80.8128 147.40992 
L 81.16992 147.40992 
L 81.16992 146.39616 
L 81.52704 146.39616 
L 81.52704 145.88928 
L 82.24128 145.88928 
L 82.24128 142.34112 
L 82.5984 142.34112 
L 82.5984 139.80672 
L 82.95552 139.80672 
L 82.95552 138.79296 
L 83.31264 138.79296 
L 83.31264 135.75168 
L 83.66976 135.75168 
L 83.66976 135.2448 
L 84.02688 135.2448 
L 84.02688 133.72416 
L 84.384 133.72416 
L 84.384 132.7104 
L 85.81248 132.7104 
L 85.81248 132.20352 
L 86.52672 132.20352 
L 86.52672 131.69664 
L 86.88384 131.69664 
L 86.88384 131.18976 
L 87.59808 131.18976 
L 87.59808 130.176 
L 87.9552 130.176 
L 87.9552 128.14848 
L 88.31232 128.14848 
L 88.31232 122.5728 
L 88.66944 122.5728 
L 88.66944 121.55904 
L 89.02656 121.55904 
L 89.02656 120.54528 
L 89.38368 120.54528 
L 89.38368 118.51776 
L 89.7408 118.51776 
L 89.7408 118.01088 
L 90.09792 118.01088 
L 90.09792 117.504 
L 90.45504 117.504 
L 90.45504 116.99712 
L 91.16928 116.99712 
L 91.16928 114.46272 
L 91.88352 114.46272 
L 91.88352 111.92832 
L 92.95488 111.92832 
L 92.95488 111.42144 
L 93.66912 111.42144 
L 93.66912 110.91456 
L 94.38336 110.91456 
L 94.38336 109.9008 
L 94.74048 109.9008 
L 94.74048 108.88704 
L 95.81184 108.88704 
L 95.81184 108.38016 
L 96.52608 108.38016 
L 96.52608 107.3664 
L 96.8832 107.3664 
L 96.8832 105.84576 
L 97.95456 105.84576 
L 97.95456 105.33888 
L 98.6688 105.33888 
L 98.6688 104.832 
L 99.02592 104.832 
L 99.02592 101.79072 
L 99.38304 101.79072 
L 99.38304 101.28384 
L 99.74016 101.28384 
L 99.74016 99.7632 
L 100.09728 99.7632 
L 100.09728 99.25632 
L 100.4544 99.25632 
L 100.4544 97.73568 
L 100.81152 97.73568 
L 100.81152 96.72192 
L 101.16864 96.72192 
L 101.16864 96.21504 
L 101.52576 96.21504 
L 101.52576 94.6944 
L 101.88288 94.6944 
L 101.88288 92.66688 
L 102.24 92.66688 
L 102.24 90.63936 
L 102.59712 90.63936 
L 102.59712 89.6256 
L 102.95424 89.6256 
L 102.95424 88.61184 
L 105.8112 88.61184 
L 105.8112 87.59808 
L 106.88256 87.59808 
L 106.88256 85.57056 
L 107.23968 85.57056 
L 107.23968 84.5568 
L 107.95392 84.5568 
L 107.95392 83.03616 
L 110.45376 83.03616 
L 110.45376 82.52928 
L 113.31072 82.52928 
L 113.31072 82.0224 
L 114.38208 82.0224 
L 114.38208 81.00864 
L 115.09632 81.00864 
L 115.09632 80.50176 
L 116.5248 80.50176 
L 116.5248 79.99488 
L 116.88192 79.99488 
L 116.88192 79.488 
L 117.23904 79.488 
L 117.23904 78.98112 
L 117.95328 78.98112 
L 117.95328 78.47424 
L 124.73856 78.47424 
L 124.73856 77.96736 
L 125.80992 77.96736 
L 125.80992 77.46048 
L 129.024 77.46048 
L 129.024 76.9536 
L 130.8096 76.9536 
L 130.8096 76.44672 
L 131.88096 76.44672 
L 131.88096 75.93984 
L 132.23808 75.93984 
L 132.23808 75.43296 
L 134.02368 75.43296 
L 134.02368 74.92608 
L 135.09504 74.92608 
L 135.09504 73.91232 
L 140.80896 73.91232 
L 140.80896 73.40544 
L 145.0944 73.40544 
L 145.0944 72.89856 
L 146.88 72.89856 
L 146.88 71.8848 
L 147.23712 71.8848 
L 147.23712 71.37792 
L 148.6656 71.37792 
L 148.6656 70.87104 
L 150.80832 70.87104 
L 150.80832 70.36416 
L 152.2368 70.36416 
L 152.2368 69.85728 
L 160.09344 69.85728 
L 160.09344 69.3504 
L 163.30752 69.3504 
L 163.30752 68.84352 
L 174.02112 68.84352 
L 174.02112 68.33664 
L 174.73536 68.33664 
L 174.73536 67.82976 
L 176.52096 67.82976 
L 176.52096 67.32288 
L 187.9488 67.32288 
L 187.9488 66.816 
L 190.80576 66.816 
L 190.80576 66.30912 
L 191.16288 66.30912 
L 191.16288 65.80224 
L 195.44832 65.80224 
L 195.44832 65.29536 
L 199.01952 65.29536 
L 199.01952 64.78848 
L 199.73376 64.78848 
L 199.73376 64.2816 
L 200.448 64.2816 
L 200.448 63.77472 
L 201.16224 63.77472 
L 201.16224 63.26784 
L 204.73344 63.26784 
L 204.73344 62.76096 
L 208.30464 62.76096 
L 208.30464 62.25408 
L 209.73312 62.25408 
L 209.73312 61.7472 
L 217.23264 61.7472 
L 217.58976 61.24032 
L 223.30368 61.24032 
L 223.30368 60.73344 
L 229.0176 60.73344 
L 229.0176 60.22656 
L 231.16032 58.70592 
L 234.01728 58.70592 
L 234.01728 58.19904 
L 239.7312 58.19904 
L 239.7312 57.69216 
L 241.15968 57.69216 
L 241.15968 57.18528 
L 244.37376 57.18528 
L 244.37376 56.6784 
L 245.44512 56.6784 
L 245.44512 56.17152 
L 255.8016 56.17152 
L 255.8016 55.66464 
L 257.5872 55.66464 
L 257.5872 55.15776 
L 278.30016 55.15776 
L 278.30016 54.65088 
L 283.29984 54.65088 
L 283.29984 54.144 
L 414.72 54.144 
L 414.72 54.144 
" style="fill:none;stroke:#ccf900;stroke-linecap:square;stroke-width:2;"/>
   </g>
   <g id="line2d_16">
    <path clip-path="url(#pae832c993f)" d="M 57.6 307.584 
L 57.6 302.85312 
L 57.71904 302.85312 
L 57.71904 298.46016 
L 57.83808 298.46016 
L 57.83808 297.78432 
L 57.95712 297.78432 
L 57.95712 295.41888 
L 58.07616 295.41888 
L 58.07616 293.56032 
L 58.1952 293.56032 
L 58.1952 289.67424 
L 58.31424 289.67424 
L 58.31424 288.9984 
L 58.43328 288.9984 
L 58.43328 285.6192 
L 58.67136 285.6192 
L 58.67136 283.42272 
L 58.7904 283.42272 
L 58.7904 282.57792 
L 58.90944 282.57792 
L 58.90944 280.21248 
L 59.02848 280.21248 
L 59.02848 278.016 
L 59.14752 278.016 
L 59.14752 275.98848 
L 59.26656 275.98848 
L 59.26656 275.31264 
L 59.50464 275.31264 
L 59.50464 274.6368 
L 59.62368 274.6368 
L 59.62368 273.792 
L 59.74272 273.792 
L 59.74272 272.44032 
L 59.86176 272.44032 
L 59.86176 270.91968 
L 59.9808 270.91968 
L 59.9808 267.8784 
L 60.09984 267.8784 
L 60.09984 267.37152 
L 60.21888 267.37152 
L 60.21888 267.20256 
L 60.33792 267.20256 
L 60.33792 264.16128 
L 60.576 264.16128 
L 60.576 261.12 
L 60.69504 261.12 
L 60.69504 257.90976 
L 60.81408 257.90976 
L 60.81408 257.7408 
L 60.93312 257.7408 
L 60.93312 253.34784 
L 61.05216 253.34784 
L 61.05216 249.63072 
L 61.1712 249.63072 
L 61.1712 247.26528 
L 61.29024 247.26528 
L 61.29024 246.92736 
L 61.40928 246.92736 
L 61.40928 242.02752 
L 61.52832 242.02752 
L 61.52832 241.35168 
L 61.64736 241.35168 
L 61.64736 237.29664 
L 61.88544 237.29664 
L 61.88544 234.9312 
L 62.00448 234.9312 
L 62.00448 233.07264 
L 62.24256 233.07264 
L 62.24256 230.36928 
L 62.3616 230.36928 
L 62.3616 228.00384 
L 62.48064 228.00384 
L 62.48064 225.30048 
L 62.59968 225.30048 
L 62.59968 224.96256 
L 62.71872 224.96256 
L 62.71872 221.4144 
L 62.83776 221.4144 
L 62.83776 221.24544 
L 62.9568 221.24544 
L 62.9568 214.656 
L 63.07584 214.656 
L 63.07584 214.48704 
L 63.19488 214.48704 
L 63.19488 211.78368 
L 63.31392 211.78368 
L 63.31392 210.09408 
L 63.43296 210.09408 
L 63.43296 209.92512 
L 63.552 209.92512 
L 63.552 208.06656 
L 63.67104 208.06656 
L 63.67104 207.55968 
L 63.79008 207.55968 
L 63.79008 197.25312 
L 63.90912 197.25312 
L 63.90912 193.19808 
L 64.02816 193.19808 
L 64.02816 192.01536 
L 64.1472 192.01536 
L 64.1472 188.97408 
L 64.26624 188.97408 
L 64.26624 187.79136 
L 64.38528 187.79136 
L 64.38528 185.59488 
L 64.50432 185.59488 
L 64.50432 185.25696 
L 64.62336 185.25696 
L 64.62336 185.088 
L 64.7424 185.088 
L 64.7424 182.21568 
L 64.86144 182.21568 
L 64.86144 179.68128 
L 64.98048 179.68128 
L 64.98048 175.7952 
L 65.21856 175.7952 
L 65.21856 174.44352 
L 65.3376 174.44352 
L 65.3376 173.2608 
L 65.57568 173.2608 
L 65.57568 169.0368 
L 65.69472 169.0368 
L 65.69472 165.99552 
L 65.81376 165.99552 
L 65.81376 165.82656 
L 65.9328 165.82656 
L 65.9328 165.6576 
L 66.28992 165.6576 
L 66.28992 165.15072 
L 66.40896 165.15072 
L 66.40896 164.8128 
L 66.528 164.8128 
L 66.528 164.47488 
L 66.64704 164.47488 
L 66.64704 162.78528 
L 66.76608 162.78528 
L 66.76608 162.2784 
L 66.88512 162.2784 
L 66.88512 160.08192 
L 67.00416 160.08192 
L 67.00416 159.57504 
L 67.1232 159.57504 
L 67.1232 159.40608 
L 67.24224 159.40608 
L 67.24224 158.22336 
L 67.36128 158.22336 
L 67.36128 156.70272 
L 67.48032 156.70272 
L 67.48032 156.53376 
L 67.59936 156.53376 
L 67.59936 155.68896 
L 67.83744 155.68896 
L 68.19456 154.6752 
L 68.19456 153.15456 
L 68.3136 153.15456 
L 68.3136 152.47872 
L 68.43264 152.47872 
L 68.43264 152.30976 
L 68.55168 152.30976 
L 68.55168 152.1408 
L 68.78976 152.1408 
L 68.78976 151.97184 
L 68.9088 151.97184 
L 68.9088 151.63392 
L 69.38496 151.63392 
L 69.38496 151.12704 
L 69.504 151.12704 
L 69.504 150.95808 
L 69.62304 150.95808 
L 69.62304 150.62016 
L 69.74208 150.62016 
L 69.74208 150.28224 
L 69.86112 150.28224 
L 69.86112 149.94432 
L 69.98016 149.94432 
L 69.98016 149.26848 
L 70.0992 149.26848 
L 70.0992 149.09952 
L 70.33728 149.09952 
L 70.33728 148.7616 
L 70.45632 148.7616 
L 70.45632 147.57888 
L 70.57536 147.57888 
L 70.57536 147.40992 
L 71.05152 147.40992 
L 71.05152 146.05824 
L 71.17056 146.05824 
L 71.17056 145.3824 
L 71.2896 145.3824 
L 71.2896 144.87552 
L 71.40864 144.87552 
L 71.40864 144.36864 
L 71.52768 144.36864 
L 71.52768 142.67904 
L 71.64672 142.67904 
L 71.64672 142.34112 
L 71.76576 142.34112 
L 71.76576 142.17216 
L 71.8848 142.17216 
L 71.8848 142.0032 
L 72.00384 142.0032 
L 72.00384 141.32736 
L 72.12288 141.32736 
L 72.12288 140.3136 
L 72.36096 140.3136 
L 72.36096 139.80672 
L 72.48 139.80672 
L 72.48 139.4688 
L 72.59904 139.4688 
L 72.59904 139.29984 
L 72.71808 139.29984 
L 72.71808 139.13088 
L 72.83712 139.13088 
L 72.83712 138.624 
L 72.95616 138.624 
L 72.95616 138.45504 
L 73.19424 138.45504 
L 73.19424 138.28608 
L 73.43232 138.28608 
L 73.43232 137.27232 
L 73.6704 137.27232 
L 73.6704 136.9344 
L 73.78944 136.9344 
L 73.78944 136.76544 
L 73.90848 136.76544 
L 73.90848 135.58272 
L 74.14656 135.58272 
L 74.14656 134.23104 
L 74.50368 134.23104 
L 74.50368 134.06208 
L 74.74176 134.06208 
L 74.74176 132.87936 
L 74.8608 132.87936 
L 74.8608 132.20352 
L 74.97984 132.20352 
L 74.97984 132.03456 
L 75.33696 132.03456 
L 75.33696 131.69664 
L 75.456 131.69664 
L 75.456 131.18976 
L 75.81312 131.18976 
L 75.81312 130.176 
L 75.93216 130.176 
L 75.93216 130.00704 
L 76.17024 130.00704 
L 76.17024 129.66912 
L 76.28928 129.66912 
L 76.28928 128.82432 
L 76.40832 128.82432 
L 76.40832 128.65536 
L 76.52736 128.65536 
L 76.52736 128.4864 
L 76.6464 128.4864 
L 76.6464 128.31744 
L 76.88448 128.31744 
L 76.88448 126.96576 
L 77.00352 126.96576 
L 77.00352 126.28992 
L 77.71776 126.28992 
L 77.71776 126.12096 
L 78.07488 126.12096 
L 78.07488 125.44512 
L 78.19392 125.44512 
L 78.19392 124.60032 
L 78.432 124.60032 
L 78.432 124.2624 
L 78.90816 124.2624 
L 78.90816 124.09344 
L 79.14624 124.09344 
L 79.14624 123.92448 
L 79.26528 123.92448 
L 79.26528 123.58656 
L 79.50336 123.58656 
L 79.50336 123.07968 
L 79.6224 123.07968 
L 79.6224 122.91072 
L 79.74144 122.91072 
L 79.74144 122.74176 
L 79.86048 122.74176 
L 79.86048 122.5728 
L 80.2176 122.5728 
L 80.2176 121.89696 
L 80.33664 121.89696 
L 80.33664 121.39008 
L 80.57472 121.39008 
L 80.57472 120.8832 
L 80.93184 120.8832 
L 80.93184 120.71424 
L 81.05088 120.71424 
L 81.05088 120.54528 
L 81.52704 120.54528 
L 81.52704 120.20736 
L 81.76512 120.20736 
L 81.76512 119.86944 
L 81.88416 119.86944 
L 81.88416 119.70048 
L 82.12224 119.70048 
L 82.12224 119.36256 
L 82.47936 119.36256 
L 82.47936 119.1936 
L 82.5984 119.1936 
L 82.5984 118.85568 
L 82.83648 118.85568 
L 82.83648 118.51776 
L 82.95552 118.51776 
L 82.95552 118.3488 
L 83.31264 118.3488 
L 83.31264 117.33504 
L 83.90784 117.33504 
L 83.90784 116.99712 
L 84.02688 116.99712 
L 84.02688 116.15232 
L 84.14592 116.15232 
L 84.14592 115.98336 
L 84.74112 115.98336 
L 84.74112 115.13856 
L 85.21728 115.13856 
L 85.21728 114.63168 
L 85.33632 114.63168 
L 85.33632 114.46272 
L 85.45536 114.46272 
L 85.45536 114.1248 
L 85.5744 114.1248 
L 85.5744 113.95584 
L 85.93152 113.95584 
L 85.93152 113.28 
L 86.05056 113.28 
L 86.05056 113.11104 
L 86.28864 113.11104 
L 86.28864 112.94208 
L 86.40768 112.94208 
L 86.40768 112.09728 
L 86.64576 112.09728 
L 86.64576 111.92832 
L 86.88384 111.92832 
L 86.88384 111.5904 
L 87.24096 111.5904 
L 87.24096 111.42144 
L 87.47904 111.42144 
L 87.47904 111.25248 
L 87.71712 111.25248 
L 87.71712 111.08352 
L 87.83616 111.08352 
L 87.83616 110.7456 
L 88.31232 110.7456 
L 88.31232 110.40768 
L 88.90752 110.40768 
L 88.90752 110.23872 
L 89.02656 110.23872 
L 89.02656 109.73184 
L 89.1456 109.73184 
L 89.1456 109.56288 
L 89.26464 109.56288 
L 89.26464 109.39392 
L 89.7408 109.39392 
L 89.7408 109.22496 
L 89.85984 109.22496 
L 89.85984 108.38016 
L 90.09792 108.38016 
L 90.09792 107.87328 
L 90.21696 107.87328 
L 90.21696 107.53536 
L 91.05024 107.53536 
L 91.05024 106.85952 
L 91.40736 106.85952 
L 91.40736 106.69056 
L 91.76448 106.69056 
L 91.76448 106.5216 
L 91.88352 106.5216 
L 91.88352 106.35264 
L 92.1216 106.35264 
L 92.1216 106.18368 
L 92.7168 106.18368 
L 92.7168 106.01472 
L 92.83584 106.01472 
L 92.83584 105.33888 
L 93.07392 105.33888 
L 93.07392 105.16992 
L 93.66912 105.16992 
L 93.66912 104.832 
L 93.78816 104.832 
L 93.78816 104.49408 
L 94.02624 104.49408 
L 94.02624 104.15616 
L 94.14528 104.15616 
L 94.14528 103.9872 
L 94.85952 103.9872 
L 94.85952 103.64928 
L 95.21664 103.64928 
L 95.21664 103.1424 
L 95.57376 103.1424 
L 95.57376 102.46656 
L 97.00224 102.46656 
L 97.00224 102.2976 
L 97.12128 102.2976 
L 97.12128 102.12864 
L 98.0736 102.12864 
L 98.0736 101.95968 
L 98.19264 101.95968 
L 98.19264 101.79072 
L 98.43072 101.79072 
L 98.43072 101.62176 
L 98.6688 101.62176 
L 98.6688 101.4528 
L 98.90688 101.4528 
L 98.90688 101.28384 
L 99.14496 101.28384 
L 99.14496 100.77696 
L 99.264 100.77696 
L 99.264 100.10112 
L 99.38304 100.10112 
L 99.38304 99.7632 
L 99.50208 99.7632 
L 99.50208 99.42528 
L 99.62112 99.42528 
L 99.62112 99.25632 
L 99.97824 99.25632 
L 99.97824 98.58048 
L 100.09728 98.58048 
L 100.09728 98.41152 
L 100.4544 98.41152 
L 100.4544 98.24256 
L 100.69248 98.24256 
L 100.69248 97.90464 
L 101.40672 97.90464 
L 101.40672 97.73568 
L 101.6448 97.73568 
L 101.6448 96.89088 
L 101.88288 96.89088 
L 101.88288 96.72192 
L 102.24 96.72192 
L 102.24 96.384 
L 102.35904 96.384 
L 102.35904 96.21504 
L 102.71616 96.21504 
L 102.71616 96.04608 
L 102.95424 96.04608 
L 102.95424 95.5392 
L 103.07328 95.5392 
L 103.07328 95.20128 
L 103.31136 95.20128 
L 103.31136 95.03232 
L 103.4304 95.03232 
L 103.4304 94.86336 
L 103.54944 94.86336 
L 103.54944 94.52544 
L 103.66848 94.52544 
L 103.66848 93.8496 
L 103.90656 93.8496 
L 103.90656 93.34272 
L 104.0256 93.34272 
L 104.0256 93.0048 
L 104.26368 93.0048 
L 104.26368 92.49792 
L 104.38272 92.49792 
L 104.38272 91.99104 
L 104.50176 91.99104 
L 104.50176 91.65312 
L 104.6208 91.65312 
L 104.6208 91.3152 
L 104.73984 91.3152 
L 104.73984 90.97728 
L 105.8112 90.97728 
L 105.8112 90.80832 
L 106.16832 90.80832 
L 106.16832 90.30144 
L 106.28736 90.30144 
L 106.28736 90.13248 
L 107.0016 90.13248 
L 107.0016 89.96352 
L 107.35872 89.96352 
L 107.35872 89.79456 
L 107.5968 89.79456 
L 107.5968 89.6256 
L 107.83488 89.6256 
L 107.83488 89.45664 
L 107.95392 89.45664 
L 107.95392 89.28768 
L 108.07296 89.28768 
L 108.07296 89.11872 
L 108.192 89.11872 
L 108.192 88.94976 
L 108.54912 88.94976 
L 108.54912 87.936 
L 108.7872 87.936 
L 108.7872 87.59808 
L 109.14432 87.59808 
L 109.14432 87.42912 
L 109.26336 87.42912 
L 109.26336 87.0912 
L 109.9776 87.0912 
L 109.9776 86.75328 
L 110.45376 86.75328 
L 110.45376 86.58432 
L 110.92992 86.58432 
L 110.92992 86.2464 
L 111.40608 86.2464 
L 111.40608 86.07744 
L 112.00128 86.07744 
L 112.00128 85.90848 
L 112.3584 85.90848 
L 112.3584 85.73952 
L 112.9536 85.73952 
L 112.9536 85.57056 
L 113.07264 85.57056 
L 113.07264 85.4016 
L 113.5488 85.4016 
L 113.5488 85.23264 
L 114.38208 85.23264 
L 114.38208 85.06368 
L 114.7392 85.06368 
L 114.7392 84.5568 
L 115.09632 84.5568 
L 115.09632 84.21888 
L 115.45344 84.21888 
L 115.45344 84.04992 
L 115.69152 84.04992 
L 115.69152 83.88096 
L 115.81056 83.88096 
L 115.81056 83.54304 
L 116.04864 83.54304 
L 116.04864 83.37408 
L 116.16768 83.37408 
L 116.16768 83.03616 
L 116.88192 83.03616 
L 116.88192 82.69824 
L 117.12 82.69824 
L 117.12 82.52928 
L 119.26272 82.52928 
L 119.26272 82.36032 
L 119.38176 82.36032 
L 119.38176 82.19136 
L 121.64352 82.19136 
L 121.64352 82.0224 
L 121.76256 82.0224 
L 121.76256 81.85344 
L 122.59584 81.85344 
L 122.59584 81.68448 
L 123.19104 81.68448 
L 123.19104 81.51552 
L 124.73856 81.51552 
L 124.73856 81.00864 
L 124.8576 81.00864 
L 124.8576 80.83968 
L 125.4528 80.83968 
L 125.4528 80.67072 
L 126.52416 80.67072 
L 126.52416 80.50176 
L 127.95264 80.50176 
L 127.95264 80.3328 
L 128.19072 80.3328 
L 128.19072 80.16384 
L 128.78592 80.16384 
L 128.78592 79.99488 
L 128.90496 79.99488 
L 128.90496 79.82592 
L 129.73824 79.82592 
L 129.73824 79.65696 
L 129.85728 79.65696 
L 129.85728 79.488 
L 130.45248 79.488 
L 130.45248 79.31904 
L 131.52384 79.31904 
L 131.52384 79.15008 
L 131.76192 79.15008 
L 131.76192 78.98112 
L 132.95232 78.98112 
L 132.95232 78.6432 
L 133.1904 78.6432 
L 133.1904 78.47424 
L 134.3808 78.47424 
L 134.3808 78.30528 
L 138.07104 78.30528 
L 138.07104 78.13632 
L 138.19008 78.13632 
L 138.19008 77.96736 
L 138.66624 77.96736 
L 138.66624 77.7984 
L 138.90432 77.7984 
L 138.90432 77.62944 
L 139.85664 77.62944 
L 139.85664 77.29152 
L 140.21376 77.29152 
L 140.21376 77.12256 
L 140.68992 77.12256 
L 140.68992 76.9536 
L 141.5232 76.9536 
L 141.5232 76.61568 
L 143.42784 76.61568 
L 143.42784 76.27776 
L 143.78496 76.27776 
L 143.78496 76.1088 
L 143.904 76.1088 
L 143.904 75.93984 
L 144.02304 75.93984 
L 144.02304 75.77088 
L 144.26112 75.77088 
L 144.26112 75.60192 
L 144.38016 75.60192 
L 144.38016 75.43296 
L 144.73728 75.43296 
L 144.73728 75.264 
L 144.97536 75.264 
L 145.0944 75.09504 
L 145.57056 75.09504 
L 145.57056 74.92608 
L 145.80864 74.92608 
L 145.80864 74.75712 
L 146.2848 74.75712 
L 146.2848 74.58816 
L 146.88 74.58816 
L 146.88 74.4192 
L 147.35616 74.4192 
L 147.35616 74.25024 
L 147.71328 74.25024 
L 147.71328 74.08128 
L 147.83232 74.08128 
L 147.83232 73.91232 
L 148.0704 73.91232 
L 148.0704 73.40544 
L 149.14176 73.40544 
L 149.14176 73.23648 
L 149.856 73.23648 
L 149.856 73.06752 
L 150.09408 73.06752 
L 150.09408 72.89856 
L 151.99872 72.89856 
L 151.99872 72.56064 
L 152.71296 72.56064 
L 152.71296 72.39168 
L 153.78432 72.39168 
L 153.78432 72.22272 
L 153.90336 72.22272 
L 153.90336 71.8848 
L 155.92704 71.8848 
L 155.92704 71.71584 
L 156.76032 71.71584 
L 156.76032 71.54688 
L 162.23616 71.54688 
L 162.23616 71.37792 
L 162.83136 71.37792 
L 162.83136 71.20896 
L 164.02176 71.20896 
L 164.02176 71.04 
L 165.56928 71.04 
L 165.56928 70.87104 
L 169.4976 70.87104 
L 169.4976 70.53312 
L 170.33088 70.53312 
L 170.33088 70.36416 
L 170.44992 70.36416 
L 170.44992 70.1952 
L 171.40224 70.1952 
L 171.40224 70.02624 
L 173.54496 70.02624 
L 173.54496 69.85728 
L 173.664 69.85728 
L 173.664 69.68832 
L 177.11616 69.68832 
L 177.11616 69.51936 
L 177.35424 69.51936 
L 177.35424 69.3504 
L 178.30656 69.3504 
L 178.30656 69.01248 
L 178.54464 69.01248 
L 178.54464 68.67456 
L 180.8064 68.67456 
L 180.8064 68.5056 
L 180.92544 68.5056 
L 180.92544 68.33664 
L 181.4016 68.33664 
L 181.4016 67.99872 
L 181.9968 67.99872 
L 181.9968 67.82976 
L 182.35392 67.82976 
L 182.35392 67.6608 
L 184.9728 67.6608 
L 184.9728 67.32288 
L 185.568 67.32288 
L 185.568 67.15392 
L 188.18688 67.15392 
L 188.18688 66.98496 
L 189.1392 66.98496 
L 189.1392 66.816 
L 190.09152 66.816 
L 190.09152 66.64704 
L 191.28192 66.64704 
L 191.28192 66.47808 
L 191.63904 66.47808 
L 191.63904 66.30912 
L 192.35328 66.30912 
L 192.35328 66.14016 
L 192.94848 66.14016 
L 192.94848 65.9712 
L 194.13888 65.9712 
L 194.25792 65.80224 
L 196.8768 65.80224 
L 196.8768 65.63328 
L 199.37664 65.63328 
L 199.37664 65.46432 
L 199.73376 65.46432 
L 199.73376 65.29536 
L 199.97184 65.29536 
L 199.97184 65.1264 
L 200.80512 65.1264 
L 200.80512 64.95744 
L 201.51936 64.45056 
L 203.30496 64.45056 
L 203.30496 64.2816 
L 203.54304 64.2816 
L 203.54304 64.11264 
L 203.66208 64.11264 
L 203.66208 63.94368 
L 204.85248 63.94368 
L 204.85248 63.77472 
L 209.376 63.77472 
L 209.376 63.60576 
L 209.73312 63.60576 
L 209.73312 63.4368 
L 210.80448 63.4368 
L 210.80448 63.26784 
L 211.04256 63.26784 
L 211.04256 63.09888 
L 211.87584 63.09888 
L 211.87584 62.92992 
L 212.59008 62.92992 
L 212.59008 62.76096 
L 213.18528 62.76096 
L 213.18528 62.592 
L 214.37568 62.592 
L 214.37568 62.42304 
L 214.97088 62.42304 
L 214.97088 62.25408 
L 215.08992 62.25408 
L 215.08992 62.08512 
L 215.9232 62.08512 
L 215.9232 61.91616 
L 217.47072 61.91616 
L 217.47072 61.7472 
L 219.13728 61.7472 
L 219.13728 61.57824 
L 220.92288 61.57824 
L 220.92288 61.40928 
L 223.30368 61.40928 
L 223.30368 61.24032 
L 224.37504 61.24032 
L 224.37504 61.07136 
L 225.20832 61.07136 
L 225.20832 60.9024 
L 225.4464 60.9024 
L 225.4464 60.73344 
L 226.75584 60.73344 
L 226.75584 60.56448 
L 232.35072 60.56448 
L 232.35072 60.39552 
L 236.63616 60.39552 
L 236.63616 60.22656 
L 239.49312 60.22656 
L 239.49312 60.0576 
L 241.27872 60.0576 
L 241.27872 59.88864 
L 242.46912 59.88864 
L 242.46912 59.71968 
L 243.06432 59.71968 
L 243.06432 59.55072 
L 244.01664 59.55072 
L 244.01664 59.38176 
L 245.44512 59.38176 
L 245.44512 59.2128 
L 246.75456 59.2128 
L 246.75456 58.87488 
L 251.51616 58.87488 
L 251.51616 58.70592 
L 252.8256 58.70592 
L 252.8256 58.53696 
L 253.06368 58.53696 
L 253.06368 58.368 
L 259.25376 58.368 
L 259.25376 58.19904 
L 261.39648 58.19904 
L 261.39648 58.03008 
L 264.49152 58.03008 
L 264.49152 57.86112 
L 265.20576 57.86112 
L 265.20576 57.69216 
L 266.03904 57.69216 
L 266.03904 57.5232 
L 266.27712 57.5232 
L 266.27712 57.35424 
L 267.22944 57.35424 
L 267.22944 57.18528 
L 267.58656 57.18528 
L 267.58656 57.01632 
L 273.0624 57.01632 
L 273.0624 56.84736 
L 273.77664 56.84736 
L 273.77664 56.6784 
L 285.68064 56.6784 
L 285.68064 56.50944 
L 293.06112 56.50944 
L 293.06112 56.34048 
L 293.2992 56.34048 
L 293.2992 56.17152 
L 299.13216 56.17152 
L 299.13216 56.00256 
L 299.8464 56.00256 
L 299.8464 55.8336 
L 301.15584 55.8336 
L 301.15584 55.66464 
L 303.89376 55.66464 
L 303.89376 55.49568 
L 304.13184 55.49568 
L 304.13184 55.32672 
L 306.86976 55.32672 
L 306.86976 55.15776 
L 314.60736 55.15776 
L 314.60736 54.9888 
L 316.03584 54.9888 
L 316.03584 54.81984 
L 319.488 54.81984 
L 319.488 54.65088 
L 326.39232 54.65088 
L 326.39232 54.48192 
L 328.89216 54.48192 
L 328.89216 54.31296 
L 379.96032 54.31296 
L 379.96032 54.144 
L 414.72 54.144 
L 414.72 54.144 
" style="fill:none;stroke:#ff1493;stroke-dasharray:4,6.6;stroke-dashoffset:0;stroke-width:4;"/>
   </g>
   <g id="line2d_17">
    <path clip-path="url(#pae832c993f)" d="M 57.6 256.22016 
L 57.95712 246.92736 
L 58.67136 224.7936 
L 59.02848 222.59712 
L 59.3856 214.82496 
L 59.74272 213.47328 
L 60.09984 207.8976 
L 60.45696 204.18048 
L 60.81408 198.6048 
L 61.1712 197.92896 
L 62.24256 193.19808 
L 62.9568 192.52224 
L 63.31392 191.33952 
L 63.67104 189.64992 
L 64.02816 188.63616 
L 64.38528 188.29824 
L 65.09952 185.59488 
L 65.45664 185.59488 
L 65.81376 184.58112 
L 66.88512 179.51232 
L 67.24224 178.3296 
L 67.95648 175.28832 
L 68.3136 175.11936 
L 68.67072 173.42976 
L 69.38496 172.24704 
L 70.0992 170.21952 
L 70.45632 169.20576 
L 71.17056 164.13696 
L 71.52768 163.29216 
L 71.8848 160.25088 
L 72.24192 160.08192 
L 72.59904 159.06816 
L 72.95616 157.54752 
L 73.31328 157.04064 
L 73.6704 152.64768 
L 74.02752 150.28224 
L 74.74176 148.08576 
L 75.456 139.80672 
L 75.81312 139.63776 
L 76.17024 139.29984 
L 76.88448 131.69664 
L 77.2416 131.35872 
L 77.59872 131.18976 
L 78.31296 130.00704 
L 78.67008 126.28992 
L 79.74144 124.76928 
L 80.09856 123.75552 
L 81.16992 122.74176 
L 81.52704 122.5728 
L 81.88416 122.23488 
L 82.24128 120.71424 
L 82.5984 119.86944 
L 82.95552 119.36256 
L 83.31264 118.3488 
L 83.66976 118.01088 
L 84.02688 117.504 
L 84.384 116.32128 
L 84.74112 115.64544 
L 85.09824 114.46272 
L 85.81248 113.44896 
L 86.1696 113.28 
L 86.52672 112.94208 
L 86.88384 112.09728 
L 87.9552 110.40768 
L 88.31232 108.54912 
L 88.66944 107.87328 
L 89.02656 107.53536 
L 89.38368 106.85952 
L 89.7408 106.5216 
L 90.09792 106.01472 
L 90.45504 105.84576 
L 91.16928 104.32512 
L 91.88352 103.1424 
L 92.95488 102.63552 
L 93.66912 101.4528 
L 94.38336 100.94592 
L 94.74048 100.27008 
L 95.81184 99.7632 
L 96.16896 99.42528 
L 96.8832 98.41152 
L 97.24032 98.24256 
L 98.6688 97.90464 
L 99.02592 96.384 
L 99.38304 96.21504 
L 99.74016 95.20128 
L 100.09728 95.03232 
L 101.88288 92.32896 
L 102.24 91.65312 
L 102.59712 91.3152 
L 102.95424 90.4704 
L 103.66848 89.79456 
L 105.45408 89.28768 
L 105.8112 88.94976 
L 106.16832 88.7808 
L 107.23968 87.76704 
L 107.95392 87.26016 
L 109.02528 87.0912 
L 110.45376 86.41536 
L 112.59648 86.2464 
L 113.31072 86.07744 
L 115.45344 84.38784 
L 122.59584 82.0224 
L 124.02432 81.34656 
L 124.73856 81.1776 
L 125.4528 80.83968 
L 125.80992 80.16384 
L 126.16704 79.99488 
L 130.8096 79.31904 
L 132.23808 78.6432 
L 132.5952 77.96736 
L 134.3808 77.46048 
L 135.09504 76.78464 
L 137.23776 76.44672 
L 138.30912 76.27776 
L 138.66624 76.1088 
L 142.95168 75.60192 
L 143.3088 75.264 
L 148.6656 73.91232 
L 151.87968 73.5744 
L 152.2368 73.23648 
L 162.59328 72.39168 
L 163.30752 72.22272 
L 167.23584 72.05376 
L 174.02112 71.8848 
L 176.52096 71.37792 
L 182.94912 71.20896 
L 184.73472 70.87104 
L 187.9488 70.70208 
L 190.44864 70.36416 
L 191.16288 70.02624 
L 191.52 69.51936 
L 192.59136 69.3504 
L 194.37696 69.18144 
L 194.73408 69.01248 
L 195.44832 68.5056 
L 196.51968 68.16768 
L 196.8768 67.99872 
L 197.23392 67.99872 
L 199.73376 67.6608 
L 201.16224 67.32288 
L 201.51936 66.98496 
L 204.73344 66.30912 
L 208.30464 65.9712 
L 209.73312 65.80224 
L 217.23264 65.63328 
L 217.58976 65.46432 
L 229.0176 64.95744 
L 232.5888 64.11264 
L 234.01728 63.94368 
L 234.73152 63.60576 
L 237.58848 63.4368 
L 238.30272 63.26784 
L 242.23104 62.76096 
L 242.94528 62.592 
L 245.44512 62.25408 
L 257.5872 61.57824 
L 258.65856 61.24032 
L 272.22912 61.07136 
L 273.6576 60.9024 
L 277.2288 60.56448 
L 278.30016 60.39552 
L 283.29984 60.0576 
L 284.01408 59.88864 
L 294.37056 59.38176 
L 300.4416 59.2128 
L 312.22656 59.04384 
L 313.65504 58.87488 
L 314.01216 58.70592 
L 317.94048 58.53696 
L 324.72576 58.368 
L 325.08288 58.19904 
L 326.51136 58.03008 
L 326.86848 57.86112 
L 333.65376 57.69216 
L 339.36768 57.18528 
L 341.5104 56.84736 
L 341.86752 56.6784 
L 346.8672 56.50944 
L 348.29568 56.34048 
L 369.72288 56.00256 
L 370.08 55.8336 
L 375.79392 55.66464 
L 377.2224 55.32672 
L 379.36512 54.9888 
L 391.15008 54.48192 
L 399.00672 54.31296 
L 401.50656 54.144 
L 414.72 54.144 
L 414.72 54.144 
" style="fill:none;stroke:#000080;stroke-dasharray:4,6.6;stroke-dashoffset:0;stroke-width:4;"/>
   </g>
   <g id="line2d_18">
    <path clip-path="url(#pae832c993f)" d="M 57.6 307.584 
L 414.72 54.144 
" style="fill:none;stroke:#000000;stroke-dasharray:7.4,3.2;stroke-dashoffset:0;stroke-width:2;"/>
   </g>
   <g id="patch_3">
    <path d="M 57.6 307.584 
L 57.6 41.472 
" style="fill:none;stroke:#000000;stroke-linecap:square;stroke-linejoin:miter;stroke-width:0.8;"/>
   </g>
   <g id="patch_4">
    <path d="M 414.72 307.584 
L 414.72 41.472 
" style="fill:none;stroke:#000000;stroke-linecap:square;stroke-linejoin:miter;stroke-width:0.8;"/>
   </g>
   <g id="patch_5">
    <path d="M 57.6 307.584 
L 414.72 307.584 
" style="fill:none;stroke:#000000;stroke-linecap:square;stroke-linejoin:miter;stroke-width:0.8;"/>
   </g>
   <g id="patch_6">
    <path d="M 57.6 41.472 
L 414.72 41.472 
" style="fill:none;stroke:#000000;stroke-linecap:square;stroke-linejoin:miter;stroke-width:0.8;"/>
   </g>
   <g id="text_15">
    <!-- ROC Curves -->
    <defs>
     <path d="M 39.40625 66.21875 
Q 28.65625 66.21875 22.328125 58.203125 
Q 16.015625 50.203125 16.015625 36.375 
Q 16.015625 22.609375 22.328125 14.59375 
Q 28.65625 6.59375 39.40625 6.59375 
Q 50.140625 6.59375 56.421875 14.59375 
Q 62.703125 22.609375 62.703125 36.375 
Q 62.703125 50.203125 56.421875 58.203125 
Q 50.140625 66.21875 39.40625 66.21875 
z
M 39.40625 74.21875 
Q 54.734375 74.21875 63.90625 63.9375 
Q 73.09375 53.65625 73.09375 36.375 
Q 73.09375 19.140625 63.90625 8.859375 
Q 54.734375 -1.421875 39.40625 -1.421875 
Q 24.03125 -1.421875 14.8125 8.828125 
Q 5.609375 19.09375 5.609375 36.375 
Q 5.609375 53.65625 14.8125 63.9375 
Q 24.03125 74.21875 39.40625 74.21875 
z
" id="DejaVuSans-79"/>
     <path d="M 64.40625 67.28125 
L 64.40625 56.890625 
Q 59.421875 61.53125 53.78125 63.8125 
Q 48.140625 66.109375 41.796875 66.109375 
Q 29.296875 66.109375 22.65625 58.46875 
Q 16.015625 50.828125 16.015625 36.375 
Q 16.015625 21.96875 22.65625 14.328125 
Q 29.296875 6.6875 41.796875 6.6875 
Q 48.140625 6.6875 53.78125 8.984375 
Q 59.421875 11.28125 64.40625 15.921875 
L 64.40625 5.609375 
Q 59.234375 2.09375 53.4375 0.328125 
Q 47.65625 -1.421875 41.21875 -1.421875 
Q 24.65625 -1.421875 15.125 8.703125 
Q 5.609375 18.84375 5.609375 36.375 
Q 5.609375 53.953125 15.125 64.078125 
Q 24.65625 74.21875 41.21875 74.21875 
Q 47.75 74.21875 53.53125 72.484375 
Q 59.328125 70.75 64.40625 67.28125 
z
" id="DejaVuSans-67"/>
    </defs>
    <g transform="translate(178.854 35.472)scale(0.192 -0.192)">
     <use xlink:href="#DejaVuSans-82"/>
     <use x="69.482422" xlink:href="#DejaVuSans-79"/>
     <use x="148.193359" xlink:href="#DejaVuSans-67"/>
     <use x="218.017578" xlink:href="#DejaVuSans-32"/>
     <use x="249.804688" xlink:href="#DejaVuSans-67"/>
     <use x="319.628906" xlink:href="#DejaVuSans-117"/>
     <use x="383.007812" xlink:href="#DejaVuSans-114"/>
     <use x="424.121094" xlink:href="#DejaVuSans-118"/>
     <use x="483.300781" xlink:href="#DejaVuSans-101"/>
     <use x="544.824219" xlink:href="#DejaVuSans-115"/>
    </g>
   </g>
   <g id="legend_1">
    <g id="patch_7">
     <path d="M 28.2175 299.584 
L 403.52 299.584 
Q 406.72 299.584 406.72 296.384 
L 406.72 180.559 
Q 406.72 177.359 403.52 177.359 
L 28.2175 177.359 
Q 25.0175 177.359 25.0175 180.559 
L 25.0175 296.384 
Q 25.0175 299.584 28.2175 299.584 
z
" style="fill:#ffffff;opacity:0.8;stroke:#cccccc;stroke-linejoin:miter;"/>
    </g>
    <g id="line2d_19">
     <path d="M 31.4175 190.3165 
L 63.4175 190.3165 
" style="fill:none;stroke:#000000;stroke-linecap:square;stroke-width:2;"/>
    </g>
    <g id="line2d_20"/>
    <g id="text_16">
     <!-- ROC curve of class 0 (area = 0.98) -->
     <defs>
      <path d="M 48.78125 52.59375 
L 48.78125 44.1875 
Q 44.96875 46.296875 41.140625 47.34375 
Q 37.3125 48.390625 33.40625 48.390625 
Q 24.65625 48.390625 19.8125 42.84375 
Q 14.984375 37.3125 14.984375 27.296875 
Q 14.984375 17.28125 19.8125 11.734375 
Q 24.65625 6.203125 33.40625 6.203125 
Q 37.3125 6.203125 41.140625 7.25 
Q 44.96875 8.296875 48.78125 10.40625 
L 48.78125 2.09375 
Q 45.015625 0.34375 40.984375 -0.53125 
Q 36.96875 -1.421875 32.421875 -1.421875 
Q 20.0625 -1.421875 12.78125 6.34375 
Q 5.515625 14.109375 5.515625 27.296875 
Q 5.515625 40.671875 12.859375 48.328125 
Q 20.21875 56 33.015625 56 
Q 37.15625 56 41.109375 55.140625 
Q 45.0625 54.296875 48.78125 52.59375 
z
" id="DejaVuSans-99"/>
      <path d="M 37.109375 75.984375 
L 37.109375 68.5 
L 28.515625 68.5 
Q 23.6875 68.5 21.796875 66.546875 
Q 19.921875 64.59375 19.921875 59.515625 
L 19.921875 54.6875 
L 34.71875 54.6875 
L 34.71875 47.703125 
L 19.921875 47.703125 
L 19.921875 0 
L 10.890625 0 
L 10.890625 47.703125 
L 2.296875 47.703125 
L 2.296875 54.6875 
L 10.890625 54.6875 
L 10.890625 58.5 
Q 10.890625 67.625 15.140625 71.796875 
Q 19.390625 75.984375 28.609375 75.984375 
z
" id="DejaVuSans-102"/>
      <path d="M 31 75.875 
Q 24.46875 64.65625 21.28125 53.65625 
Q 18.109375 42.671875 18.109375 31.390625 
Q 18.109375 20.125 21.3125 9.0625 
Q 24.515625 -2 31 -13.1875 
L 23.1875 -13.1875 
Q 15.875 -1.703125 12.234375 9.375 
Q 8.59375 20.453125 8.59375 31.390625 
Q 8.59375 42.28125 12.203125 53.3125 
Q 15.828125 64.359375 23.1875 75.875 
z
" id="DejaVuSans-40"/>
      <path d="M 10.59375 45.40625 
L 73.1875 45.40625 
L 73.1875 37.203125 
L 10.59375 37.203125 
z
M 10.59375 25.484375 
L 73.1875 25.484375 
L 73.1875 17.1875 
L 10.59375 17.1875 
z
" id="DejaVuSans-61"/>
      <path d="M 10.984375 1.515625 
L 10.984375 10.5 
Q 14.703125 8.734375 18.5 7.8125 
Q 22.3125 6.890625 25.984375 6.890625 
Q 35.75 6.890625 40.890625 13.453125 
Q 46.046875 20.015625 46.78125 33.40625 
Q 43.953125 29.203125 39.59375 26.953125 
Q 35.25 24.703125 29.984375 24.703125 
Q 19.046875 24.703125 12.671875 31.3125 
Q 6.296875 37.9375 6.296875 49.421875 
Q 6.296875 60.640625 12.9375 67.421875 
Q 19.578125 74.21875 30.609375 74.21875 
Q 43.265625 74.21875 49.921875 64.515625 
Q 56.59375 54.828125 56.59375 36.375 
Q 56.59375 19.140625 48.40625 8.859375 
Q 40.234375 -1.421875 26.421875 -1.421875 
Q 22.703125 -1.421875 18.890625 -0.6875 
Q 15.09375 0.046875 10.984375 1.515625 
z
M 30.609375 32.421875 
Q 37.25 32.421875 41.125 36.953125 
Q 45.015625 41.5 45.015625 49.421875 
Q 45.015625 57.28125 41.125 61.84375 
Q 37.25 66.40625 30.609375 66.40625 
Q 23.96875 66.40625 20.09375 61.84375 
Q 16.21875 57.28125 16.21875 49.421875 
Q 16.21875 41.5 20.09375 36.953125 
Q 23.96875 32.421875 30.609375 32.421875 
z
" id="DejaVuSans-57"/>
      <path d="M 8.015625 75.875 
L 15.828125 75.875 
Q 23.140625 64.359375 26.78125 53.3125 
Q 30.421875 42.28125 30.421875 31.390625 
Q 30.421875 20.453125 26.78125 9.375 
Q 23.140625 -1.703125 15.828125 -13.1875 
L 8.015625 -13.1875 
Q 14.5 -2 17.703125 9.0625 
Q 20.90625 20.125 20.90625 31.390625 
Q 20.90625 42.671875 17.703125 53.65625 
Q 14.5 64.65625 8.015625 75.875 
z
" id="DejaVuSans-41"/>
     </defs>
     <g transform="translate(76.2175 195.9165)scale(0.16 -0.16)">
      <use xlink:href="#DejaVuSans-82"/>
      <use x="69.482422" xlink:href="#DejaVuSans-79"/>
      <use x="148.193359" xlink:href="#DejaVuSans-67"/>
      <use x="218.017578" xlink:href="#DejaVuSans-32"/>
      <use x="249.804688" xlink:href="#DejaVuSans-99"/>
      <use x="304.785156" xlink:href="#DejaVuSans-117"/>
      <use x="368.164062" xlink:href="#DejaVuSans-114"/>
      <use x="409.277344" xlink:href="#DejaVuSans-118"/>
      <use x="468.457031" xlink:href="#DejaVuSans-101"/>
      <use x="529.980469" xlink:href="#DejaVuSans-32"/>
      <use x="561.767578" xlink:href="#DejaVuSans-111"/>
      <use x="622.949219" xlink:href="#DejaVuSans-102"/>
      <use x="658.154297" xlink:href="#DejaVuSans-32"/>
      <use x="689.941406" xlink:href="#DejaVuSans-99"/>
      <use x="744.921875" xlink:href="#DejaVuSans-108"/>
      <use x="772.705078" xlink:href="#DejaVuSans-97"/>
      <use x="833.984375" xlink:href="#DejaVuSans-115"/>
      <use x="886.083984" xlink:href="#DejaVuSans-115"/>
      <use x="938.183594" xlink:href="#DejaVuSans-32"/>
      <use x="969.970703" xlink:href="#DejaVuSans-48"/>
      <use x="1033.59375" xlink:href="#DejaVuSans-32"/>
      <use x="1065.380859" xlink:href="#DejaVuSans-40"/>
      <use x="1104.394531" xlink:href="#DejaVuSans-97"/>
      <use x="1165.673828" xlink:href="#DejaVuSans-114"/>
      <use x="1204.537109" xlink:href="#DejaVuSans-101"/>
      <use x="1266.060547" xlink:href="#DejaVuSans-97"/>
      <use x="1327.339844" xlink:href="#DejaVuSans-32"/>
      <use x="1359.126953" xlink:href="#DejaVuSans-61"/>
      <use x="1442.916016" xlink:href="#DejaVuSans-32"/>
      <use x="1474.703125" xlink:href="#DejaVuSans-48"/>
      <use x="1538.326172" xlink:href="#DejaVuSans-46"/>
      <use x="1570.113281" xlink:href="#DejaVuSans-57"/>
      <use x="1633.736328" xlink:href="#DejaVuSans-56"/>
      <use x="1697.359375" xlink:href="#DejaVuSans-41"/>
     </g>
    </g>
    <g id="line2d_21">
     <path d="M 31.4175 213.8015 
L 63.4175 213.8015 
" style="fill:none;stroke:#00a4bb;stroke-linecap:square;stroke-width:2;"/>
    </g>
    <g id="line2d_22"/>
    <g id="text_17">
     <!-- ROC curve of class 1 (area = 0.87) -->
     <defs>
      <path d="M 8.203125 72.90625 
L 55.078125 72.90625 
L 55.078125 68.703125 
L 28.609375 0 
L 18.3125 0 
L 43.21875 64.59375 
L 8.203125 64.59375 
z
" id="DejaVuSans-55"/>
     </defs>
     <g transform="translate(76.2175 219.4015)scale(0.16 -0.16)">
      <use xlink:href="#DejaVuSans-82"/>
      <use x="69.482422" xlink:href="#DejaVuSans-79"/>
      <use x="148.193359" xlink:href="#DejaVuSans-67"/>
      <use x="218.017578" xlink:href="#DejaVuSans-32"/>
      <use x="249.804688" xlink:href="#DejaVuSans-99"/>
      <use x="304.785156" xlink:href="#DejaVuSans-117"/>
      <use x="368.164062" xlink:href="#DejaVuSans-114"/>
      <use x="409.277344" xlink:href="#DejaVuSans-118"/>
      <use x="468.457031" xlink:href="#DejaVuSans-101"/>
      <use x="529.980469" xlink:href="#DejaVuSans-32"/>
      <use x="561.767578" xlink:href="#DejaVuSans-111"/>
      <use x="622.949219" xlink:href="#DejaVuSans-102"/>
      <use x="658.154297" xlink:href="#DejaVuSans-32"/>
      <use x="689.941406" xlink:href="#DejaVuSans-99"/>
      <use x="744.921875" xlink:href="#DejaVuSans-108"/>
      <use x="772.705078" xlink:href="#DejaVuSans-97"/>
      <use x="833.984375" xlink:href="#DejaVuSans-115"/>
      <use x="886.083984" xlink:href="#DejaVuSans-115"/>
      <use x="938.183594" xlink:href="#DejaVuSans-32"/>
      <use x="969.970703" xlink:href="#DejaVuSans-49"/>
      <use x="1033.59375" xlink:href="#DejaVuSans-32"/>
      <use x="1065.380859" xlink:href="#DejaVuSans-40"/>
      <use x="1104.394531" xlink:href="#DejaVuSans-97"/>
      <use x="1165.673828" xlink:href="#DejaVuSans-114"/>
      <use x="1204.537109" xlink:href="#DejaVuSans-101"/>
      <use x="1266.060547" xlink:href="#DejaVuSans-97"/>
      <use x="1327.339844" xlink:href="#DejaVuSans-32"/>
      <use x="1359.126953" xlink:href="#DejaVuSans-61"/>
      <use x="1442.916016" xlink:href="#DejaVuSans-32"/>
      <use x="1474.703125" xlink:href="#DejaVuSans-48"/>
      <use x="1538.326172" xlink:href="#DejaVuSans-46"/>
      <use x="1570.113281" xlink:href="#DejaVuSans-56"/>
      <use x="1633.736328" xlink:href="#DejaVuSans-55"/>
      <use x="1697.359375" xlink:href="#DejaVuSans-41"/>
     </g>
    </g>
    <g id="line2d_23">
     <path d="M 31.4175 237.2865 
L 63.4175 237.2865 
" style="fill:none;stroke:#ccf900;stroke-linecap:square;stroke-width:2;"/>
    </g>
    <g id="line2d_24"/>
    <g id="text_18">
     <!-- ROC curve of class 2 (area = 0.91) -->
     <g transform="translate(76.2175 242.8865)scale(0.16 -0.16)">
      <use xlink:href="#DejaVuSans-82"/>
      <use x="69.482422" xlink:href="#DejaVuSans-79"/>
      <use x="148.193359" xlink:href="#DejaVuSans-67"/>
      <use x="218.017578" xlink:href="#DejaVuSans-32"/>
      <use x="249.804688" xlink:href="#DejaVuSans-99"/>
      <use x="304.785156" xlink:href="#DejaVuSans-117"/>
      <use x="368.164062" xlink:href="#DejaVuSans-114"/>
      <use x="409.277344" xlink:href="#DejaVuSans-118"/>
      <use x="468.457031" xlink:href="#DejaVuSans-101"/>
      <use x="529.980469" xlink:href="#DejaVuSans-32"/>
      <use x="561.767578" xlink:href="#DejaVuSans-111"/>
      <use x="622.949219" xlink:href="#DejaVuSans-102"/>
      <use x="658.154297" xlink:href="#DejaVuSans-32"/>
      <use x="689.941406" xlink:href="#DejaVuSans-99"/>
      <use x="744.921875" xlink:href="#DejaVuSans-108"/>
      <use x="772.705078" xlink:href="#DejaVuSans-97"/>
      <use x="833.984375" xlink:href="#DejaVuSans-115"/>
      <use x="886.083984" xlink:href="#DejaVuSans-115"/>
      <use x="938.183594" xlink:href="#DejaVuSans-32"/>
      <use x="969.970703" xlink:href="#DejaVuSans-50"/>
      <use x="1033.59375" xlink:href="#DejaVuSans-32"/>
      <use x="1065.380859" xlink:href="#DejaVuSans-40"/>
      <use x="1104.394531" xlink:href="#DejaVuSans-97"/>
      <use x="1165.673828" xlink:href="#DejaVuSans-114"/>
      <use x="1204.537109" xlink:href="#DejaVuSans-101"/>
      <use x="1266.060547" xlink:href="#DejaVuSans-97"/>
      <use x="1327.339844" xlink:href="#DejaVuSans-32"/>
      <use x="1359.126953" xlink:href="#DejaVuSans-61"/>
      <use x="1442.916016" xlink:href="#DejaVuSans-32"/>
      <use x="1474.703125" xlink:href="#DejaVuSans-48"/>
      <use x="1538.326172" xlink:href="#DejaVuSans-46"/>
      <use x="1570.113281" xlink:href="#DejaVuSans-57"/>
      <use x="1633.736328" xlink:href="#DejaVuSans-49"/>
      <use x="1697.359375" xlink:href="#DejaVuSans-41"/>
     </g>
    </g>
    <g id="line2d_25">
     <path d="M 31.4175 260.7715 
L 63.4175 260.7715 
" style="fill:none;stroke:#ff1493;stroke-dasharray:4,6.6;stroke-dashoffset:0;stroke-width:4;"/>
    </g>
    <g id="line2d_26"/>
    <g id="text_19">
     <!-- micro-average ROC curve (area = 0.93) -->
     <defs>
      <path d="M 52 44.1875 
Q 55.375 50.25 60.0625 53.125 
Q 64.75 56 71.09375 56 
Q 79.640625 56 84.28125 50.015625 
Q 88.921875 44.046875 88.921875 33.015625 
L 88.921875 0 
L 79.890625 0 
L 79.890625 32.71875 
Q 79.890625 40.578125 77.09375 44.375 
Q 74.3125 48.1875 68.609375 48.1875 
Q 61.625 48.1875 57.5625 43.546875 
Q 53.515625 38.921875 53.515625 30.90625 
L 53.515625 0 
L 44.484375 0 
L 44.484375 32.71875 
Q 44.484375 40.625 41.703125 44.40625 
Q 38.921875 48.1875 33.109375 48.1875 
Q 26.21875 48.1875 22.15625 43.53125 
Q 18.109375 38.875 18.109375 30.90625 
L 18.109375 0 
L 9.078125 0 
L 9.078125 54.6875 
L 18.109375 54.6875 
L 18.109375 46.1875 
Q 21.1875 51.21875 25.484375 53.609375 
Q 29.78125 56 35.6875 56 
Q 41.65625 56 45.828125 52.96875 
Q 50 49.953125 52 44.1875 
z
" id="DejaVuSans-109"/>
      <path d="M 4.890625 31.390625 
L 31.203125 31.390625 
L 31.203125 23.390625 
L 4.890625 23.390625 
z
" id="DejaVuSans-45"/>
      <path d="M 45.40625 27.984375 
Q 45.40625 37.75 41.375 43.109375 
Q 37.359375 48.484375 30.078125 48.484375 
Q 22.859375 48.484375 18.828125 43.109375 
Q 14.796875 37.75 14.796875 27.984375 
Q 14.796875 18.265625 18.828125 12.890625 
Q 22.859375 7.515625 30.078125 7.515625 
Q 37.359375 7.515625 41.375 12.890625 
Q 45.40625 18.265625 45.40625 27.984375 
z
M 54.390625 6.78125 
Q 54.390625 -7.171875 48.1875 -13.984375 
Q 42 -20.796875 29.203125 -20.796875 
Q 24.46875 -20.796875 20.265625 -20.09375 
Q 16.0625 -19.390625 12.109375 -17.921875 
L 12.109375 -9.1875 
Q 16.0625 -11.328125 19.921875 -12.34375 
Q 23.78125 -13.375 27.78125 -13.375 
Q 36.625 -13.375 41.015625 -8.765625 
Q 45.40625 -4.15625 45.40625 5.171875 
L 45.40625 9.625 
Q 42.625 4.78125 38.28125 2.390625 
Q 33.9375 0 27.875 0 
Q 17.828125 0 11.671875 7.65625 
Q 5.515625 15.328125 5.515625 27.984375 
Q 5.515625 40.671875 11.671875 48.328125 
Q 17.828125 56 27.875 56 
Q 33.9375 56 38.28125 53.609375 
Q 42.625 51.21875 45.40625 46.390625 
L 45.40625 54.6875 
L 54.390625 54.6875 
z
" id="DejaVuSans-103"/>
      <path d="M 40.578125 39.3125 
Q 47.65625 37.796875 51.625 33 
Q 55.609375 28.21875 55.609375 21.1875 
Q 55.609375 10.40625 48.1875 4.484375 
Q 40.765625 -1.421875 27.09375 -1.421875 
Q 22.515625 -1.421875 17.65625 -0.515625 
Q 12.796875 0.390625 7.625 2.203125 
L 7.625 11.71875 
Q 11.71875 9.328125 16.59375 8.109375 
Q 21.484375 6.890625 26.8125 6.890625 
Q 36.078125 6.890625 40.9375 10.546875 
Q 45.796875 14.203125 45.796875 21.1875 
Q 45.796875 27.640625 41.28125 31.265625 
Q 36.765625 34.90625 28.71875 34.90625 
L 20.21875 34.90625 
L 20.21875 43.015625 
L 29.109375 43.015625 
Q 36.375 43.015625 40.234375 45.921875 
Q 44.09375 48.828125 44.09375 54.296875 
Q 44.09375 59.90625 40.109375 62.90625 
Q 36.140625 65.921875 28.71875 65.921875 
Q 24.65625 65.921875 20.015625 65.03125 
Q 15.375 64.15625 9.8125 62.3125 
L 9.8125 71.09375 
Q 15.4375 72.65625 20.34375 73.4375 
Q 25.25 74.21875 29.59375 74.21875 
Q 40.828125 74.21875 47.359375 69.109375 
Q 53.90625 64.015625 53.90625 55.328125 
Q 53.90625 49.265625 50.4375 45.09375 
Q 46.96875 40.921875 40.578125 39.3125 
z
" id="DejaVuSans-51"/>
     </defs>
     <g transform="translate(76.2175 266.3715)scale(0.16 -0.16)">
      <use xlink:href="#DejaVuSans-109"/>
      <use x="97.412109" xlink:href="#DejaVuSans-105"/>
      <use x="125.195312" xlink:href="#DejaVuSans-99"/>
      <use x="180.175781" xlink:href="#DejaVuSans-114"/>
      <use x="219.039062" xlink:href="#DejaVuSans-111"/>
      <use x="282.095703" xlink:href="#DejaVuSans-45"/>
      <use x="318.179688" xlink:href="#DejaVuSans-97"/>
      <use x="379.458984" xlink:href="#DejaVuSans-118"/>
      <use x="438.638672" xlink:href="#DejaVuSans-101"/>
      <use x="500.162109" xlink:href="#DejaVuSans-114"/>
      <use x="541.275391" xlink:href="#DejaVuSans-97"/>
      <use x="602.554688" xlink:href="#DejaVuSans-103"/>
      <use x="666.03125" xlink:href="#DejaVuSans-101"/>
      <use x="727.554688" xlink:href="#DejaVuSans-32"/>
      <use x="759.341797" xlink:href="#DejaVuSans-82"/>
      <use x="828.824219" xlink:href="#DejaVuSans-79"/>
      <use x="907.535156" xlink:href="#DejaVuSans-67"/>
      <use x="977.359375" xlink:href="#DejaVuSans-32"/>
      <use x="1009.146484" xlink:href="#DejaVuSans-99"/>
      <use x="1064.126953" xlink:href="#DejaVuSans-117"/>
      <use x="1127.505859" xlink:href="#DejaVuSans-114"/>
      <use x="1168.619141" xlink:href="#DejaVuSans-118"/>
      <use x="1227.798828" xlink:href="#DejaVuSans-101"/>
      <use x="1289.322266" xlink:href="#DejaVuSans-32"/>
      <use x="1321.109375" xlink:href="#DejaVuSans-40"/>
      <use x="1360.123047" xlink:href="#DejaVuSans-97"/>
      <use x="1421.402344" xlink:href="#DejaVuSans-114"/>
      <use x="1460.265625" xlink:href="#DejaVuSans-101"/>
      <use x="1521.789062" xlink:href="#DejaVuSans-97"/>
      <use x="1583.068359" xlink:href="#DejaVuSans-32"/>
      <use x="1614.855469" xlink:href="#DejaVuSans-61"/>
      <use x="1698.644531" xlink:href="#DejaVuSans-32"/>
      <use x="1730.431641" xlink:href="#DejaVuSans-48"/>
      <use x="1794.054688" xlink:href="#DejaVuSans-46"/>
      <use x="1825.841797" xlink:href="#DejaVuSans-57"/>
      <use x="1889.464844" xlink:href="#DejaVuSans-51"/>
      <use x="1953.087891" xlink:href="#DejaVuSans-41"/>
     </g>
    </g>
    <g id="line2d_27">
     <path d="M 31.4175 284.2565 
L 63.4175 284.2565 
" style="fill:none;stroke:#000080;stroke-dasharray:4,6.6;stroke-dashoffset:0;stroke-width:4;"/>
    </g>
    <g id="line2d_28"/>
    <g id="text_20">
     <!-- macro-average ROC curve (area = 0.92) -->
     <g transform="translate(76.2175 289.8565)scale(0.16 -0.16)">
      <use xlink:href="#DejaVuSans-109"/>
      <use x="97.412109" xlink:href="#DejaVuSans-97"/>
      <use x="158.691406" xlink:href="#DejaVuSans-99"/>
      <use x="213.671875" xlink:href="#DejaVuSans-114"/>
      <use x="252.535156" xlink:href="#DejaVuSans-111"/>
      <use x="315.591797" xlink:href="#DejaVuSans-45"/>
      <use x="351.675781" xlink:href="#DejaVuSans-97"/>
      <use x="412.955078" xlink:href="#DejaVuSans-118"/>
      <use x="472.134766" xlink:href="#DejaVuSans-101"/>
      <use x="533.658203" xlink:href="#DejaVuSans-114"/>
      <use x="574.771484" xlink:href="#DejaVuSans-97"/>
      <use x="636.050781" xlink:href="#DejaVuSans-103"/>
      <use x="699.527344" xlink:href="#DejaVuSans-101"/>
      <use x="761.050781" xlink:href="#DejaVuSans-32"/>
      <use x="792.837891" xlink:href="#DejaVuSans-82"/>
      <use x="862.320312" xlink:href="#DejaVuSans-79"/>
      <use x="941.03125" xlink:href="#DejaVuSans-67"/>
      <use x="1010.855469" xlink:href="#DejaVuSans-32"/>
      <use x="1042.642578" xlink:href="#DejaVuSans-99"/>
      <use x="1097.623047" xlink:href="#DejaVuSans-117"/>
      <use x="1161.001953" xlink:href="#DejaVuSans-114"/>
      <use x="1202.115234" xlink:href="#DejaVuSans-118"/>
      <use x="1261.294922" xlink:href="#DejaVuSans-101"/>
      <use x="1322.818359" xlink:href="#DejaVuSans-32"/>
      <use x="1354.605469" xlink:href="#DejaVuSans-40"/>
      <use x="1393.619141" xlink:href="#DejaVuSans-97"/>
      <use x="1454.898438" xlink:href="#DejaVuSans-114"/>
      <use x="1493.761719" xlink:href="#DejaVuSans-101"/>
      <use x="1555.285156" xlink:href="#DejaVuSans-97"/>
      <use x="1616.564453" xlink:href="#DejaVuSans-32"/>
      <use x="1648.351562" xlink:href="#DejaVuSans-61"/>
      <use x="1732.140625" xlink:href="#DejaVuSans-32"/>
      <use x="1763.927734" xlink:href="#DejaVuSans-48"/>
      <use x="1827.550781" xlink:href="#DejaVuSans-46"/>
      <use x="1859.337891" xlink:href="#DejaVuSans-57"/>
      <use x="1922.960938" xlink:href="#DejaVuSans-50"/>
      <use x="1986.583984" xlink:href="#DejaVuSans-41"/>
     </g>
    </g>
   </g>
  </g>
 </g>
 <defs>
  <clipPath id="pae832c993f">
   <rect height="266.112" width="357.12" x="57.6" y="41.472"/>
  </clipPath>
 </defs>
</svg>
